<?xml version="1.0" encoding="UTF-8" standalone="no"?>
<svg width="281px" height="34px" viewBox="0 0 281 34" version="1.1" xmlns="http://www.w3.org/2000/svg" xmlns:xlink="http://www.w3.org/1999/xlink" xmlns:sketch="http://www.bohemiancoding.com/sketch/ns">
    <!-- Generator: Sketch 3.3.3 (12081) - http://www.bohemiancoding.com/sketch -->
    <title>logo</title>
    <desc>Created with Sketch.</desc>
    <defs></defs>
    <g id="Opinión" stroke="none" stroke-width="1" fill="none" fill-rule="evenodd" sketch:type="MSPage">
        <g id="Detalle-Editoriales" sketch:type="MSArtboardGroup" transform="translate(-80.000000, -62.000000)" fill="#FFFFFF">
            <g id="header" sketch:type="MSLayerGroup">
                <g id="logo" transform="translate(80.000000, 62.000000)" sketch:type="MSShapeGroup">
                    <path d="M11.1354695,25.9694088 L10.8508734,24.0416038 L10.7436879,24.0416038 C9.67552846,25.3987014 7.85928784,26.3629745 5.61578346,26.3629745 C2.12596989,26.3629745 0.167800822,23.8274032 0.167800822,21.1851022 C0.167800822,16.7936202 4.04939605,14.5797203 10.4590918,14.616038 L10.4590918,14.3299432 C10.4590918,13.1877873 9.99560668,11.2948176 6.93379608,11.2948176 C5.2240018,11.2948176 3.44398251,11.8306896 2.26863755,12.5807622 L1.41411001,9.72426061 C2.69590131,8.9386115 4.9394057,8.18928014 7.68113807,8.18928014 C13.2363063,8.18928014 14.838915,11.7239599 14.838915,15.5084168 L14.838915,21.7928685 C14.838915,23.3634255 14.9098792,24.898406 15.088029,25.9694088 L11.1354695,25.9694088 L11.1354695,25.9694088 Z M10.5662773,17.4717984 C7.46750619,17.4006453 4.51214193,18.0788235 4.51214193,20.7211245 C4.51214193,22.4354702 5.61578346,23.2203781 7.00476031,23.2203781 C8.74929749,23.2203781 10.031828,22.077481 10.4236097,20.8285954 C10.530056,20.506924 10.5662773,20.1504172 10.5662773,19.8643223 L10.5662773,17.4717984 L10.5662773,17.4717984 Z" id="Fill-8"></path>
                    <path d="M18.4684394,13.7592358 C18.4684394,11.7587953 18.4329573,10.0815086 18.3257717,8.58136352 L22.1009206,8.58136352 L22.2790704,11.1525114 L22.3855167,11.1525114 C23.2400442,9.79541374 24.8071709,8.18928014 27.727053,8.18928014 C30.0060395,8.18928014 31.786798,9.47374231 32.53414,11.4022885 L32.6051042,11.4022885 C33.2105178,10.4380154 33.9231168,9.72426061 34.7421623,9.22470637 C35.7031361,8.54578695 36.8067777,8.18928014 38.2319758,8.18928014 C41.1163759,8.18928014 44.0355188,10.1526617 44.0355188,15.7226174 L44.0355188,25.9694088 L39.7628811,25.9694088 L39.7628811,16.3652191 C39.7628811,13.473141 38.7656859,11.7587953 36.6648492,11.7587953 C35.169426,11.7587953 34.0650453,12.8305393 33.6022994,14.0801661 C33.4951139,14.5085672 33.3886675,15.0444392 33.3886675,15.5439934 L33.3886675,25.9694088 L29.1160299,25.9694088 L29.1160299,15.9005002 C29.1160299,13.473141 28.1543168,11.7587953 26.1244443,11.7587953 C24.4863534,11.7587953 23.3827119,13.0447398 22.9909303,14.2587901 C22.8127805,14.6871912 22.7418163,15.1867454 22.7418163,15.6870408 L22.7418163,25.9694088 L18.4684394,25.9694088 L18.4684394,13.7592358" id="Fill-9"></path>
                    <path d="M47.5208971,25.9694088 C47.5918613,24.7909351 47.6635648,22.8631301 47.6635648,21.0783725 L47.6635648,0.619625142 L52.043388,0.619625142 L52.043388,10.9738874 L52.1143522,10.9738874 C53.1825116,9.29585949 55.0697165,8.18928014 57.6695204,8.18928014 C61.9074152,8.18928014 64.9337437,11.7239599 64.8982615,17.0078207 C64.8982615,23.2559547 60.9457021,26.3629745 57.0286248,26.3629745 C54.7851204,26.3629745 52.79073,25.5054311 51.54516,23.3634255 L51.4734566,23.3634255 L51.2598247,25.9694088 L47.5208971,25.9694088 L47.5208971,25.9694088 Z M52.043388,18.7933195 C52.043388,19.1498263 52.0788701,19.5078155 52.1498343,19.8287457 C52.6133194,21.5779268 54.1442247,22.8994478 56.0314296,22.8994478 C58.7731619,22.8994478 60.4467349,20.6848068 60.4467349,17.1864447 C60.4467349,14.1157426 58.9867938,11.6164891 56.0669117,11.6164891 C54.2868924,11.6164891 52.6842836,12.9016924 52.1860557,14.8302386 C52.1143522,15.15191 52.043388,15.5439934 52.043388,15.9723945 L52.043388,18.7933195 L52.043388,18.7933195 Z" id="Fill-10"></path>
                    <path d="M72.159528,3.726645 C72.159528,5.0474249 71.1978149,6.08210995 69.6669096,6.08210995 C68.2069685,6.08210995 67.2452554,5.0474249 67.2452554,3.726645 C67.2452554,2.36954735 68.2424506,1.33412112 69.7023917,1.33412112 C71.1978149,1.33412112 72.1240458,2.36954735 72.159528,3.726645 L72.159528,3.726645 Z M67.4943694,8.58136352 L71.910414,8.58136352 L71.910414,25.9694088 L67.4943694,25.9694088 L67.4943694,8.58136352 Z" id="Fill-11"></path>
                    <path d="M80.6330999,3.61917413 L80.6330999,8.58136352 L84.7992912,8.58136352 L84.7992912,11.8662662 L80.6330999,11.8662662 L80.6330999,19.5426509 C80.6330999,21.6490799 81.2030313,22.7556592 82.8766042,22.7556592 C83.6239462,22.7556592 84.1938777,22.6489295 84.5856593,22.5414587 L84.6566235,25.8982557 C84.0157279,26.148774 82.8766042,26.3266568 81.4876274,26.3266568 C79.8850187,26.3266568 78.5322631,25.7907848 77.7132177,24.898406 C76.7869867,23.8985563 76.359723,22.3279993 76.359723,20.0429463 L76.359723,11.8662662 L73.8671046,11.8662662 L73.8671046,8.58136352 L76.359723,8.58136352 L76.359723,4.65460035 L80.6330999,3.61917413" id="Fill-12"></path>
                    <path d="M103.385265,17.1152916 C103.385265,23.5057318 98.8989955,26.3629745 94.482951,26.3629745 C89.5694176,26.3629745 85.7942688,22.9698598 85.7942688,17.4006453 C85.7942688,11.6883834 89.5339355,8.18928014 94.7682863,8.18928014 C99.9309336,8.18928014 103.385265,11.8306896 103.385265,17.1152916 L103.385265,17.1152916 Z M90.3167596,17.2931744 C90.3167596,20.6499714 91.9548505,23.1840604 94.6256186,23.1840604 C97.118237,23.1840604 98.8635134,20.7211245 98.8635134,17.2227625 C98.8635134,14.5085672 97.6519471,11.4022885 94.6611007,11.4022885 C91.5630688,11.4022885 90.3167596,14.4018375 90.3167596,17.2931744 L90.3167596,17.2931744 Z" id="Fill-13"></path>
                    <path d="M130.123254,20.7567011 C130.123254,22.8275535 130.194958,24.5418992 130.265922,25.9694088 L126.420548,25.9694088 L126.206177,23.327849 L126.135213,23.327849 C125.387131,24.5767346 123.678076,26.3629745 120.580784,26.3629745 C117.411048,26.3629745 114.526648,24.4700049 114.526648,18.7933195 L114.526648,8.58136352 L118.906472,8.58136352 L118.906472,18.043247 C118.906472,20.9353251 119.832702,22.791977 122.147171,22.791977 C123.892447,22.791977 125.031571,21.5423502 125.494317,20.4357708 C125.636985,20.0429463 125.743431,19.5782274 125.743431,19.0786732 L125.743431,8.58136352 L130.123254,8.58136352 L130.123254,20.7567011" id="Fill-14"></path>
                    <path d="M133.859225,14.1876369 C133.859225,11.8306896 133.823743,10.1526617 133.717296,8.58136352 L137.527188,8.58136352 L137.669856,11.9025839 L137.811784,11.9025839 C138.666312,9.43890692 140.696184,8.18928014 142.547907,8.18928014 C142.975171,8.18928014 143.224285,8.22485671 143.580584,8.29675101 L143.580584,12.4377147 C143.224285,12.3665616 142.833242,12.2946673 142.298793,12.2946673 C140.197956,12.2946673 138.773497,13.651765 138.381716,15.6158877 C138.310012,16.0079711 138.239048,16.4726899 138.239048,16.9722442 L138.239048,25.9694088 L133.859225,25.9694088 L133.859225,14.1876369" id="Fill-15"></path>
                    <path d="M150.201694,3.726645 C150.201694,5.0474249 149.240721,6.08210995 147.709076,6.08210995 C146.249135,6.08210995 145.287422,5.0474249 145.287422,3.726645 C145.287422,2.36954735 146.285356,1.33412112 147.744558,1.33412112 C149.240721,1.33412112 150.166212,2.36954735 150.201694,3.726645 L150.201694,3.726645 Z M145.537275,8.58136352 L149.95258,8.58136352 L149.95258,25.9694088 L145.537275,25.9694088 L145.537275,8.58136352 Z" id="Fill-16"></path>
                    <path d="M169.642935,0.619625142 L169.642935,21.0783725 C169.642935,22.8631301 169.714638,24.7909351 169.785603,25.9694088 L165.868525,25.9694088 L165.691115,23.2203781 L165.619411,23.2203781 C164.585995,25.1481831 162.485897,26.3629745 159.957797,26.3629745 C155.827088,26.3629745 152.550167,22.8275535 152.550167,17.4717984 C152.514685,11.6520656 156.147166,8.18928014 160.313357,8.18928014 C162.699529,8.18928014 164.408584,9.1891298 165.192148,10.4743331 L165.263112,10.4743331 L165.263112,0.619625142 L169.642935,0.619625142 L169.642935,0.619625142 Z M165.263112,15.8300883 C165.263112,15.4728403 165.22763,15.0444392 165.156665,14.6871912 C164.764884,12.9735867 163.375907,11.5809125 161.381517,11.5809125 C158.56882,11.5809125 157.001693,14.0801661 157.001693,17.3294922 C157.001693,20.506924 158.56882,22.8275535 161.346774,22.8275535 C163.126793,22.8275535 164.69318,21.6135033 165.120444,19.722016 C165.22763,19.3284503 165.263112,18.9000492 165.263112,18.4360715 L165.263112,15.8300883 L165.263112,15.8300883 Z" id="Fill-17"></path>
                    <path d="M178.008582,3.726645 C178.008582,5.0474249 177.046869,6.08210995 175.515225,6.08210995 C174.055284,6.08210995 173.09357,5.0474249 173.09357,3.726645 C173.09357,2.36954735 174.091505,1.33412112 175.550707,1.33412112 C177.046869,1.33412112 177.972361,2.36954735 178.008582,3.726645 L178.008582,3.726645 Z M173.343424,8.58136352 L177.758729,8.58136352 L177.758729,25.9694088 L173.343424,25.9694088 L173.343424,8.58136352 Z" id="Fill-18"></path>
                    <path d="M194.209123,25.434278 C193.283631,25.8626791 191.467391,26.3266568 189.294851,26.3266568 C183.88235,26.3266568 180.356315,22.8631301 180.356315,17.4717984 C180.356315,12.2590907 183.917832,8.18928014 190.006711,8.18928014 C191.609319,8.18928014 193.24741,8.54578695 194.243866,9.00976463 L193.461042,12.2946673 C192.749182,11.9737371 191.716505,11.6164891 190.149378,11.6164891 C186.802232,11.6164891 184.808581,14.0801661 184.844063,17.2575979 C184.844063,20.8285954 187.157793,22.8631301 190.149378,22.8631301 C191.681023,22.8631301 192.749182,22.5414587 193.60371,22.1849519 L194.209123,25.434278" id="Fill-19"></path>
                    <path d="M212.617687,17.1152916 C212.617687,23.5057318 208.130678,26.3629745 203.715372,26.3629745 C198.800361,26.3629745 195.025951,22.9698598 195.025951,17.4006453 C195.025951,11.6883834 198.765618,8.18928014 203.999969,8.18928014 C209.163355,8.18928014 212.617687,11.8306896 212.617687,17.1152916 L212.617687,17.1152916 Z M199.548442,17.2931744 C199.548442,20.6499714 201.186533,23.1840604 203.857301,23.1840604 C206.349919,23.1840604 208.095196,20.7211245 208.095196,17.2227625 C208.095196,14.5085672 206.884369,11.4022885 203.892783,11.4022885 C200.79549,11.4022885 199.548442,14.4018375 199.548442,17.2931744 L199.548442,17.2931744 Z" id="Fill-20"></path>
                    <path d="M213.611925,23.5420495 C213.611925,21.8995982 214.751049,20.7211245 216.318175,20.7211245 C217.920045,20.7211245 219.024425,21.8632804 219.024425,23.5420495 C219.024425,25.1481831 217.956266,26.3629745 216.318175,26.3629745 C214.715566,26.3629745 213.611925,25.1481831 213.611925,23.5420495" id="Fill-21"></path>
                    <path d="M234.298735,25.434278 C233.373244,25.8626791 231.557003,26.3266568 229.384463,26.3266568 C223.971962,26.3266568 220.446667,22.8631301 220.446667,17.4717984 C220.446667,12.2590907 224.007445,8.18928014 230.096323,8.18928014 C231.698932,8.18928014 233.337022,8.54578695 234.334218,9.00976463 L233.550654,12.2946673 C232.838794,11.9737371 231.806117,11.6164891 230.23973,11.6164891 C226.892584,11.6164891 224.897454,14.0801661 224.933676,17.2575979 C224.933676,20.8285954 227.248144,22.8631301 230.23973,22.8631301 C231.770635,22.8631301 232.838794,22.5414587 233.694061,22.1849519 L234.298735,25.434278" id="Fill-22"></path>
                    <path d="M252.707299,17.1152916 C252.707299,23.5057318 248.22029,26.3629745 243.804985,26.3629745 C238.890712,26.3629745 235.115563,22.9698598 235.115563,17.4006453 C235.115563,11.6883834 238.85523,8.18928014 244.089581,8.18928014 C249.252967,8.18928014 252.707299,11.8306896 252.707299,17.1152916 L252.707299,17.1152916 Z M239.638793,17.2931744 C239.638793,20.6499714 241.276145,23.1840604 243.947652,23.1840604 C246.440271,23.1840604 248.184808,20.7211245 248.184808,17.2227625 C248.184808,14.5085672 246.973981,11.4022885 243.983134,11.4022885 C240.885103,11.4022885 239.638793,14.4018375 239.638793,17.2931744 L239.638793,17.2931744 Z" id="Fill-23"></path>
                    <path d="M255.303407,13.7592358 C255.303407,11.7587953 255.267185,10.0815086 255.160739,8.58136352 L258.935149,8.58136352 L259.113298,11.1525114 L259.220484,11.1525114 C260.075012,9.79541374 261.641399,8.18928014 264.561281,8.18928014 C266.840268,8.18928014 268.621026,9.47374231 269.368368,11.4022885 L269.440072,11.4022885 C270.045485,10.4380154 270.757345,9.72426061 271.57713,9.22470637 C272.537364,8.54578695 273.642484,8.18928014 275.066204,8.18928014 C277.950604,8.18928014 280.870486,10.1526617 280.870486,15.7226174 L280.870486,25.9694088 L276.597848,25.9694088 L276.597848,16.3652191 C276.597848,13.473141 275.600653,11.7587953 273.499077,11.7587953 C272.004393,11.7587953 270.900013,12.8305393 270.437267,14.0801661 C270.330081,14.5085672 270.223635,15.0444392 270.223635,15.5439934 L270.223635,25.9694088 L265.950258,25.9694088 L265.950258,15.9005002 C265.950258,13.473141 264.989284,11.7587953 262.958672,11.7587953 C261.321321,11.7587953 260.217679,13.0447398 259.825158,14.2587901 C259.647748,14.6871912 259.576044,15.1867454 259.576044,15.6870408 L259.576044,25.9694088 L255.303407,25.9694088 L255.303407,13.7592358" id="Fill-24"></path>
                    <path d="M108.688362,6.08210995 C110.255489,6.08210995 111.180981,5.01110716 111.180981,3.726645 C111.180981,2.36954735 110.255489,1.33412112 108.760066,1.33412112 C107.263903,1.33412112 106.30293,2.36954735 106.30293,3.726645 C106.30293,5.01110716 107.228421,6.08210995 108.688362,6.08210995" id="Fill-25"></path>
                    <path d="M106.552044,8.58136352 L110.931867,8.58136352 L110.931867,33.9659825 L106.552044,33.9659825 L106.552044,8.58136352 Z" id="Fill-26"></path>
                </g>
            </g>
        </g>
    </g>
</svg>