<?xml version="1.0" encoding="UTF-8" standalone="no"?>
<svg width="1020px" height="162px" viewBox="0 0 1020 162" version="1.1" xmlns="http://www.w3.org/2000/svg" xmlns:xlink="http://www.w3.org/1999/xlink" xmlns:sketch="http://www.bohemiancoding.com/sketch/ns">
    <!-- Generator: Sketch 3.3.3 (12081) - http://www.bohemiancoding.com/sketch -->
    <title>sprite-aj</title>
    <desc>Created with Sketch.</desc>
    <defs></defs>
    <g id="Page-1" stroke="none" stroke-width="1" fill="none" fill-rule="evenodd" sketch:type="MSPage">
        <g id="sprite-aj" sketch:type="MSArtboardGroup">
            <g id="arrow-up" sketch:type="MSLayerGroup" transform="translate(16.000000, 53.000000)" fill="#7ED321">
                <polygon id="up" sketch:type="MSShapeGroup" points="6.5 0 13 10 0 10 "></polygon>
            </g>
            <g id="arrow-down" sketch:type="MSLayerGroup" transform="translate(34.000000, 53.000000)" fill="#FF324B">
                <polygon id="down" sketch:type="MSShapeGroup" transform="translate(6.500000, 5.000000) scale(1, -1) translate(-6.500000, -5.000000) " points="6.5 0 13 10 0 10 "></polygon>
            </g>
            <g id="arrow-stay" sketch:type="MSLayerGroup" transform="translate(0.000000, 51.000000)" fill="#F6A623">
                <path d="M0.5,13.5 L0.5,0.5 L10.5,7 L0.5,13.5 Z" id="same" sketch:type="MSShapeGroup"></path>
            </g>
            <path d="M57.8478595,53.1926454 C57.5903403,52.9357849 57.1734358,52.9357849 56.9165752,53.1926454 C56.659056,53.4560922 56.659056,53.8710209 56.9165752,54.1278814 L59.6307355,56.8413831 L52.6586169,56.8413831 C52.2944018,56.8413831 52,57.1377607 52,57.5 C52,57.8622393 52.2944018,58.1586169 52.6586169,58.1586169 L59.6307355,58.1586169 L56.9165752,60.8721186 C56.659056,61.1289791 56.659056,61.550494 56.9165752,61.8073546 C57.1734358,62.0642151 57.5903403,62.0642151 57.8478595,61.8073546 L61.5729967,58.0795829 C61.7310648,57.9215148 61.780461,57.7041712 61.7442371,57.5 C61.780461,57.2958288 61.7310648,57.0784852 61.5729967,56.9204171 L57.8478595,53.1926454 Z" id="see-more-arrow" fill="#2F6DCC" sketch:type="MSShapeGroup"></path>
            <path d="M8.52631579,0 L9.47368421,0 L9.47368421,4.6875 L8.52631579,4.6875 L8.52631579,0 Z M0,22.5 L0,4.6875 L8.52631579,4.6875 L8.52631579,13.528125 L5.31473684,10.35 L4.64210526,11.015625 L9,15.328125 L13.3578947,11.015625 L12.6852632,10.35 L9.47368421,13.528125 L9.47368421,4.6875 L18,4.6875 L18,22.5 L0,22.5 L0,22.5 Z" id="icon-save" fill="#88B7FF" sketch:type="MSShapeGroup"></path>
            <path d="M28,23.4222222 L28,6.53333333 L35.8157895,6.53333333 L35.8157895,14.5333333 L36.6842105,14.5333333 L36.6842105,6.53333333 L35.8157895,6.53333333 L35.8157895,1.70666667 L32.8718421,4.72 L32.2552632,4.08888889 L36.25,0 L40.2447368,4.08888889 L39.6281579,4.72 L36.6842105,1.70666667 L36.6842105,6.53333333 L44.5,6.53333333 L44.5,23.4222222 L28,23.4222222 Z" id="icon-share" fill="#88B7FF" sketch:type="MSShapeGroup"></path>
            <path d="M134.5,21 C132.34,21 130.3,20.64 128.48,20.02 L125.21,22.71 C125.02,22.9 124.76,23 124.5,23 C124.37,23 124.24,22.98 124.12,22.92 C123.74,22.77 123.5,22.4 123.5,22 L123.5,17.17 C121.63,15.47 120.5,13.33 120.5,11 C120.5,5.48 126.77,1 134.5,1 C142.23,1 148.5,5.48 148.5,11 C148.5,16.52 142.23,21 134.5,21" id="icon-comment" fill="#88B7FF" sketch:type="MSShapeGroup"></path>
            <g id="icon-print" sketch:type="MSLayerGroup" transform="translate(54.500000, 0.000000)" fill="#88B7FF">
                <path d="M19.7142857,0.857142857 L4.28571429,0.857142857 L4.28571429,6.85714286 L3.42857143,6.85714286 L3.42857143,0 L20.5714286,0 L20.5714286,6.85714286 L19.7142857,6.85714286 L19.7142857,0.857142857 L19.7142857,0.857142857 Z M18,9.42857143 L18.8571429,9.42857143 L18.8571429,10.2857143 L18,10.2857143 L18,9.42857143 Z M20.5714286,9.42857143 L21.4285714,9.42857143 L21.4285714,10.2857143 L20.5714286,10.2857143 L20.5714286,9.42857143 Z M23.1428571,7.71428571 L0.857142857,7.71428571 L0.857142857,18.8571429 L2.57142857,18.8571429 L2.57142857,19.7142857 L21.4285714,19.7142857 L21.4285714,18.8571429 L23.1428571,18.8571429 L23.1428571,7.71428571 L23.1428571,7.71428571 Z M0,6.85714286 L24,6.85714286 L24,19.7142857 L0,19.7142857 L0,6.85714286 Z" sketch:type="MSShapeGroup"></path>
                <path d="M6,19.7142857 L18,19.7142857 L18,18.8571429 L6,18.8571429 L6,19.7142857 Z M6,18 L18,18 L18,17.1428571 L6,17.1428571 L6,18 Z M3.42857143,14.5714286 L20.5714286,14.5714286 L20.5714286,24 L3.42857143,24 L3.42857143,14.5714286 Z" id="Fill-2" sketch:type="MSShapeGroup"></path>
            </g>
            <g id="icon-size" sketch:type="MSLayerGroup" transform="translate(158.500000, 3.000000)" fill="#88B7FF">
                <path d="M0.408,17 L4.32,17 L5.352,13.856 L11.736,13.856 L12.792,17 L16.68,17 L10.608,0.2 L6.48,0.2 L0.408,17 Z M8.496,4.232 L8.544,4.232 L10.8,11.048 L6.264,11.048 L8.496,4.232 Z" id="A" sketch:type="MSShapeGroup"></path>
                <path d="M16.238,17 L18.52,17 L19.122,15.166 L22.846,15.166 L23.462,17 L25.73,17 L22.188,7.2 L19.78,7.2 L16.238,17 Z M20.956,9.552 L20.984,9.552 L22.3,13.528 L19.654,13.528 L20.956,9.552 Z" id="A-Copy" sketch:type="MSShapeGroup"></path>
            </g>
            <g id="icon-reader" sketch:type="MSLayerGroup" transform="translate(88.500000, 0.000000)" fill="#88B7FF">
                <path d="M5.14285714,12 L2.57142857,12 C1.62857143,12 0.857142857,12.7714286 0.857142857,13.7142857 L0.857142857,16.2857143 C0.857142857,17.2285714 1.62857143,18 2.57142857,18 L5.14285714,18 L5.14285714,12 L5.14285714,12 Z M0,16.2857143 L0,13.7142857 C0,12.2914286 1.14857143,11.1428571 2.57142857,11.1428571 L6,11.1428571 L6,18.8571429 L2.57142857,18.8571429 C1.14857143,18.8571429 0,17.7085714 0,16.2857143 L0,16.2857143 Z M9.42857143,0 L10.2857143,0 L10.2857143,4.28571429 L9.42857143,4.28571429 L9.42857143,0 Z M12.8571429,0 L13.7142857,0 L13.7142857,4.28571429 L12.8571429,4.28571429 L12.8571429,0 Z M16.2857143,0 L17.1428571,0 L17.1428571,4.28571429 L16.2857143,4.28571429 L16.2857143,0 Z" id="Fill-1" sketch:type="MSShapeGroup"></path>
                <path d="M6,6 L20.5714286,6 C21.0428571,6 21.4285714,6.38571429 21.4285714,6.85714286 L21.4285714,21.4285714 C21.4285714,22.8514286 20.28,24 18.8571429,24 L7.71428571,24 C6.29142857,24 5.14285714,22.8514286 5.14285714,21.4285714 L5.14285714,6.85714286 C5.14285714,6.38571429 5.52857143,6 6,6" id="Fill-2" sketch:type="MSShapeGroup"></path>
            </g>
            <path d="M5.68421053,27 L6.31578947,27 L6.31578947,30.125 L5.68421053,30.125 L5.68421053,27 Z M0,42 L0,30.125 L5.68421053,30.125 L5.68421053,36.01875 L3.54315789,33.9 L3.09473684,34.34375 L6,37.21875 L8.90526316,34.34375 L8.45684211,33.9 L6.31578947,36.01875 L6.31578947,30.125 L12,30.125 L12,42 L0,42 L0,42 Z" id="icon-save-xs" fill="#88B7FF" sketch:type="MSShapeGroup"></path>
            <path d="M17,41.6148148 L17,30.3555556 L22.2105263,30.3555556 L22.2105263,35.6888889 L22.7894737,35.6888889 L22.7894737,30.3555556 L22.2105263,30.3555556 L22.2105263,27.1377778 L20.2478947,29.1466667 L19.8368421,28.7259259 L22.5,26 L25.1631579,28.7259259 L24.7521053,29.1466667 L22.7894737,27.1377778 L22.7894737,30.3555556 L28,30.3555556 L28,41.6148148 L17,41.6148148 Z" id="icon-share-xs" fill="#88B7FF" sketch:type="MSShapeGroup"></path>
            <g id="icon-delete" sketch:type="MSLayerGroup" transform="translate(33.000000, 28.000000)" fill="#88B7FF">
                <path d="M9.13043478,12.173913 L9.73913043,12.173913 L9.73913043,3.04347826 L9.13043478,3.04347826 L9.13043478,12.173913 Z M6.69565217,12.173913 L7.30434783,12.173913 L7.30434783,3.04347826 L6.69565217,3.04347826 L6.69565217,12.173913 Z M4.26086957,12.173913 L4.86956522,12.173913 L4.86956522,3.04347826 L4.26086957,3.04347826 L4.26086957,12.173913 Z M1.82608696,1.2173913 L12.173913,1.2173913 L12.173913,14 L1.82608696,14 L1.82608696,1.2173913 Z" id="Fill-1" sketch:type="MSShapeGroup"></path>
                <path d="M9.13043478,0.608695652 L4.26086957,0.608695652 C3.92608696,0.608695652 4.26086957,0.882608696 4.26086957,1.2173913 L9.73913043,1.2173913 C9.73913043,0.882608696 9.46521739,0.608695652 9.13043478,0.608695652 L9.13043478,0.608695652 Z M14,1.82608696 L0,1.82608696 L0,1.2173913 L3.65217391,1.2173913 L3.65217391,0.913043478 C3.65217391,0.407826087 4.06,0 4.56521739,0 L9.43478261,0 C9.94,0 10.3478261,0.407826087 10.3478261,0.913043478 L10.3478261,1.2173913 L14,1.2173913 L14,1.82608696 L14,1.82608696 Z" id="Fill-2" sketch:type="MSShapeGroup"></path>
            </g>
            <path d="M53.8750853,30.1501706 C53.2802048,30.1501706 52.8,29.6699659 52.8,29.0750853 C52.8,28.4802048 53.2802048,28 53.8750853,28 C54.4699659,28 54.9501706,28.4802048 54.9501706,29.0750853 C54.9501706,29.6699659 54.4699659,30.1501706 53.8750853,30.1501706 L53.8750853,30.1501706 Z M53.8750853,35.883959 C53.2802048,35.883959 52.8,35.4037543 52.8,34.8088737 C52.8,34.2139932 53.2802048,33.7337884 53.8750853,33.7337884 C54.4699659,33.7337884 54.9501706,34.2139932 54.9501706,34.8088737 C54.9501706,35.4037543 54.4699659,35.883959 53.8750853,35.883959 L53.8750853,35.883959 Z M53.8750853,41.6177474 C53.2802048,41.6177474 52.8,41.1375427 52.8,40.5426621 C52.8,39.9477816 53.2802048,39.4675768 53.8750853,39.4675768 C54.4699659,39.4675768 54.9501706,39.9477816 54.9501706,40.5426621 C54.9501706,41.1375427 54.4699659,41.6177474 53.8750853,41.6177474 L53.8750853,41.6177474 Z M57.1003413,28.7167235 L67.8,28.7167235 L67.8,29.4334471 L57.1003413,29.4334471 L57.1003413,28.7167235 Z M57.1003413,34.4505119 L67.8,34.4505119 L67.8,35.1672355 L57.1003413,35.1672355 L57.1003413,34.4505119 Z M57.1003413,40.1843003 L67.8,40.1843003 L67.8,40.9010239 L57.1003413,40.9010239 L57.1003413,40.1843003 Z" id="icon-sort" fill="#88B7FF" sketch:type="MSShapeGroup"></path>
            <g id="icon-viewed" sketch:type="MSLayerGroup" transform="translate(74.000000, 30.000000)">
                <path d="M8.33333333,9.44444444 C5.03333333,9.44444444 3.03888889,7.39444444 0.766666667,5 C3.47222222,2.17777778 5.62222222,0.555555556 8.33333333,0.555555556 C11.5444444,0.555555556 14.05,2.87222222 15.9166667,5.03333333 C14.0833333,6.94444444 11.6,9.44444444 8.33333333,9.44444444 L8.33333333,9.44444444 Z M8.33333333,0 C5.28888889,0 2.91111111,1.90555556 0,5 C2.51111111,7.63888889 4.61666667,10 8.33333333,10 C12.05,10 14.7833333,7.01666667 16.6666667,5.05555556 C14.7388889,2.75555556 12.0055556,0 8.33333333,0 L8.33333333,0 Z" id="Fill-1" fill="#728DB5" sketch:type="MSShapeGroup"></path>
                <path d="M8.33333333,7.77777778 C6.8,7.77777778 5.55555556,6.53333333 5.55555556,5 C5.55555556,3.46666667 6.8,2.22222222 8.33333333,2.22222222 C9.86666667,2.22222222 11.1111111,3.46666667 11.1111111,5 C11.1111111,6.53333333 9.86666667,7.77777778 8.33333333,7.77777778" id="Fill-2" fill="#88B7FF" sketch:type="MSShapeGroup"></path>
            </g>
            <polygon id="open-comments" fill="#4990E2" sketch:type="MSShapeGroup" transform="translate(77.500000, 57.500000) scale(1, -1) translate(-77.500000, -57.500000) " points="77.5 49 88 66 67 66 "></polygon>
            <path d="M93,50 L104,60.5 L93,71" id="icon-arrow-right" stroke="#FFFFFF" sketch:type="MSShapeGroup"></path>
            <path d="M110,52.139976 L120.929564,63 L132,52" id="arrow-select" stroke="#2F6DCC" stroke-linecap="round" sketch:type="MSShapeGroup"></path>
            <g id="btn-slider-left" sketch:type="MSLayerGroup" transform="translate(0.000000, 80.000000)">
                <path d="M-2.77555756e-17,0.00184612114 C0.128785611,0.00061629737 0.257717348,0 0.386792453,0 C22.3896085,0 40.2264151,17.90861 40.2264151,40 C40.2264151,62.09139 22.3896085,80 0.386792453,80 C0.257717348,80 0.128785611,79.9993837 -2.77555756e-17,79.9981539 L0,0.00184612114 Z" id="Oval-7" opacity="0.599999964" fill="#CEDFFA" sketch:type="MSShapeGroup"></path>
                <path d="M13.8306767,37.6875384 L12.1896553,39.3351658 L13.8306767,40.9827933 L22.3060525,49.4922873 L25.5880953,46.1970324 L18.8888755,39.3351658 L25.3467774,32.7155886 L22.0647346,29.4203337 L13.8306767,37.6875384 Z" id="Shape" fill="#4A4A4A" sketch:type="MSShapeGroup"></path>
            </g>
            <g id="btn-slider-right" sketch:type="MSLayerGroup" transform="translate(66.500000, 120.000000) scale(-1, 1) translate(-66.500000, -120.000000) translate(46.000000, 80.000000)">
                <path d="M-2.77555756e-17,0.00184612114 C0.128785611,0.00061629737 0.257717348,0 0.386792453,0 C22.3896085,0 40.2264151,17.90861 40.2264151,40 C40.2264151,62.09139 22.3896085,80 0.386792453,80 C0.257717348,80 0.128785611,79.9993837 -2.77555756e-17,79.9981539 L0,0.00184612114 Z" id="Oval-7" opacity="0.599999964" fill="#CEDFFA" sketch:type="MSShapeGroup"></path>
                <path d="M13.8306767,37.6875384 L12.1896553,39.3351658 L13.8306767,40.9827933 L22.3060525,49.4922873 L25.5880953,46.1970324 L18.8888755,39.3351658 L25.3467774,32.7155886 L22.0647346,29.4203337 L13.8306767,37.6875384 Z" id="Shape-Copy" fill="#4A4A4A" sketch:type="MSShapeGroup"></path>
            </g>
            <g id="quote-up" sketch:type="MSLayerGroup" transform="translate(196.000000, 0.000000)">
                <path d="M413.304688,30 C417.640625,30 421.273438,26.6015625 421.273438,21.796875 C421.273438,17.6953125 418.695313,15.9375 416,15.3515625 C417.289063,9.140625 423.265625,2.2265625 427.015625,0 L420.6875,0 C417.054688,2.109375 406.859375,11.953125 406.859375,22.8515625 C406.859375,27.65625 409.554688,30 413.304688,30 L413.304688,30 Z M392.328125,30 C396.664062,30 400.414062,26.6015625 400.414062,21.796875 C400.414062,17.6953125 397.71875,15.9375 395.023438,15.3515625 C396.3125,9.0234375 402.640625,2.2265625 406.039062,0 L399.710938,0 C396.078125,2.109375 386,11.953125 386,22.8515625 C386,27.65625 388.578125,30 392.328125,30 L392.328125,30 Z" id="“”" fill="#D2E2F9" sketch:type="MSShapeGroup"></path>
                <path d="M0,22.5 L366,22.5" id="Line" stroke="#D2E2F9" stroke-linecap="square" sketch:type="MSShapeGroup"></path>
                <path d="M448,22.5 L814,22.5" id="Line-Copy-5" stroke="#D2E2F9" stroke-linecap="square" sketch:type="MSShapeGroup"></path>
            </g>
            <g id="quote-bottom" sketch:type="MSLayerGroup" transform="translate(196.000000, 40.000000)">
                <path d="M0,8.5 L366,8.5" id="Line-Copy-2" stroke="#D2E2F9" stroke-linecap="square" sketch:type="MSShapeGroup"></path>
                <path d="M448,8.5 L814,8.5" id="Line-Copy-4" stroke="#D2E2F9" stroke-linecap="square" sketch:type="MSShapeGroup"></path>
                <path d="M413.304687,30 C416.9375,28.125 427.015625,18.046875 427.015625,7.1484375 C427.015625,2.34375 424.4375,0 420.6875,0 C416.351562,0 412.601562,3.28125 412.601562,8.3203125 C412.601562,12.1875 415.296875,14.1796875 417.992187,14.765625 C416.703125,21.09375 410.375,27.7734375 406.976562,30 L413.304687,30 Z M392.328125,30 C395.960938,28.2421875 406.15625,18.046875 406.15625,7.1484375 C406.15625,2.34375 403.460938,0 399.710938,0 C395.375,0 391.742188,3.28125 391.742188,8.3203125 C391.742188,12.1875 394.320312,14.1796875 397.015625,14.765625 C395.726562,21.2109375 389.515625,27.7734375 386,30 L392.328125,30 Z" id="“”-copy" fill="#D2E2F9" sketch:type="MSShapeGroup"></path>
            </g>
            <path d="M105.084444,36.2911111 L97.5711111,28.7777778 L113.873333,28.7777778 L106.36,36.2911111 C106.017778,36.6333333 105.426667,36.6333333 105.084444,36.2911111 L105.084444,36.2911111 Z M96.7544444,28.7777778 L104.532222,36.8433333 C104.851111,37.1544444 105.271111,37.3333333 105.722222,37.3333333 C106.173333,37.3333333 106.593333,37.1544444 106.912222,36.8433333 L114.697778,28.7777778 L96.7544444,28.7777778 L96.7544444,28.7777778 Z M96,28 L115.444444,28 L115.444444,42 L96,42 L96,28 Z" id="icon-email" fill="#88B7FF" sketch:type="MSShapeGroup"></path>
            <g id="icon-edit" sketch:type="MSLayerGroup" transform="translate(125.000000, 28.000000)" fill="#88B7FF">
                <path d="M2.9516129,11.8451613 L11.366129,3.48387097 L12.7741935,4.89193548 L4.38387097,13.2822581 L2.9516129,11.8451613 L2.9516129,11.8451613 Z M4.04032258,13.6209677 L4.02096774,13.6403226 L0.875806452,10.4951613 L0.89516129,10.4758065 L4.04032258,13.6209677 L4.04032258,13.6209677 Z M2.61290323,11.5112903 L1.23387097,10.1322581 L9.62419355,1.74193548 L11.0274194,3.14516129 L2.61290323,11.5112903 L2.61290323,11.5112903 Z M13.1177419,4.5483871 L9.96774194,1.3983871 L13.1177419,4.5483871 L13.1177419,4.5483871 Z" id="Fill-1" sketch:type="MSShapeGroup"></path>
                <path d="M0.875806452,10.4951613 L4.02096774,13.6403226 L0,14.516129 L0.875806452,10.4951613" id="Fill-2" sketch:type="MSShapeGroup"></path>
                <path d="M13.1177419,4.5483871 L9.96774194,1.3983871 L11.366129,0 L14.516129,3.15 L13.1177419,4.5483871" id="Fill-3" sketch:type="MSShapeGroup"></path>
            </g>
            <path d="M122.578947,95.1354737 L122.578947,85.8947368 C122.578947,84.2670526 121.259263,82.9473684 119.631579,82.9473684 L109.315789,82.9473684 C109.315789,81.3196842 107.996105,80 106.368421,80 L101.947368,80 C100.319684,80 99,81.3196842 99,82.9473684 L99,100.631579 C99,102.259263 100.319684,103.578947 101.947368,103.578947 L116.760105,103.578947 C117.678211,105.805684 119.869579,107.377368 122.423474,107.377368 C125.801158,107.377368 128.548842,104.629684 128.548842,101.252 C128.548842,97.9273684 125.884421,95.2187368 122.578947,95.1354737 L122.578947,95.1354737 Z M100.473684,82.9473684 C100.473684,82.1338947 101.133895,81.4736842 101.947368,81.4736842 L106.368421,81.4736842 C107.181895,81.4736842 107.842105,82.1338947 107.842105,82.9473684 L107.842105,84.4210526 L119.631579,84.4210526 C120.445053,84.4210526 121.105263,85.0812632 121.105263,85.8947368 L121.105263,87.3684211 L100.473684,87.3684211 L100.473684,82.9473684 L100.473684,82.9473684 Z M116.365158,102.105263 L101.947368,102.105263 C101.133895,102.105263 100.473684,101.445053 100.473684,100.631579 L100.473684,88.8421053 L121.105263,88.8421053 L121.105263,95.274 C118.359789,95.8789474 116.298842,98.3274737 116.298842,101.252 C116.298842,101.542316 116.326105,101.826 116.365158,102.105263 L116.365158,102.105263 Z M122.423474,105.855053 C119.885789,105.855053 117.821158,103.790421 117.821158,101.252 C117.821158,98.7143158 119.885789,96.6496842 122.423474,96.6496842 C124.961158,96.6496842 127.025789,98.7143158 127.025789,101.252 C127.025789,103.790421 124.961158,105.855053 122.423474,105.855053 L122.423474,105.855053 Z M124.884526,100.490842 L123.183895,100.490842 L123.183895,98.7894737 C123.183895,98.3687368 122.842737,98.0275789 122.422737,98.0275789 C122.002737,98.0275789 121.661579,98.3687368 121.661579,98.7894737 L121.661579,100.490842 L119.960947,100.490842 C119.540947,100.490842 119.199789,100.832 119.199789,101.252 C119.199789,101.672737 119.540947,102.013895 119.960947,102.013895 L121.661579,102.013895 L121.661579,103.714526 C121.661579,104.134526 122.002737,104.475684 122.422737,104.475684 C122.842737,104.475684 123.183895,104.134526 123.183895,103.714526 L123.183895,102.013895 L124.884526,102.013895 C125.304526,102.013895 125.645684,101.672737 125.645684,101.252 C125.645684,100.832 125.304526,100.490842 124.884526,100.490842 L124.884526,100.490842 Z" id="icon-add-folder" fill="#2F6DCC" sketch:type="MSShapeGroup"></path>
            <path d="M129.320105,137.459895 L129.320105,125.578947 C129.320105,123.486211 127.623368,121.789474 125.530632,121.789474 L112.267474,121.789474 C112.267474,119.696737 110.570737,118 108.478,118 L102.793789,118 C100.701053,118 99.0043158,119.696737 99.0043158,121.789474 L99.0043158,144.526316 C99.0043158,146.619053 100.701053,148.315789 102.793789,148.315789 L121.838737,148.315789 C123.019158,151.178737 125.836632,153.199474 129.120211,153.199474 C133.462947,153.199474 136.995684,149.666737 136.995684,145.324 C136.995684,141.049474 133.57,137.566947 129.320105,137.459895 L129.320105,137.459895 Z M100.899053,121.789474 C100.899053,120.743579 101.747895,119.894737 102.793789,119.894737 L108.478,119.894737 C109.523895,119.894737 110.372737,120.743579 110.372737,121.789474 L110.372737,123.684211 L125.530632,123.684211 C126.576526,123.684211 127.425368,124.533053 127.425368,125.578947 L127.425368,127.473684 L100.899053,127.473684 L100.899053,121.789474 L100.899053,121.789474 Z M121.330947,146.421053 L102.793789,146.421053 C101.747895,146.421053 100.899053,145.572211 100.899053,144.526316 L100.899053,129.368421 L127.425368,129.368421 L127.425368,137.638 C123.895474,138.415789 121.245684,141.563895 121.245684,145.324 C121.245684,145.697263 121.280737,146.062 121.330947,146.421053 L121.330947,146.421053 Z M129.120211,151.242211 C125.857474,151.242211 123.202947,148.587684 123.202947,145.324 C123.202947,142.061263 125.857474,139.406737 129.120211,139.406737 C132.382947,139.406737 135.037474,142.061263 135.037474,145.324 C135.037474,148.587684 132.382947,151.242211 129.120211,151.242211 L129.120211,151.242211 Z M132.284421,144.345368 L130.097895,144.345368 L130.097895,142.157895 C130.097895,141.616947 129.659263,141.178316 129.119263,141.178316 C128.579263,141.178316 128.140632,141.616947 128.140632,142.157895 L128.140632,144.345368 L125.954105,144.345368 C125.414105,144.345368 124.975474,144.784 124.975474,145.324 C124.975474,145.864947 125.414105,146.303579 125.954105,146.303579 L128.140632,146.303579 L128.140632,148.490105 C128.140632,149.030105 128.579263,149.468737 129.119263,149.468737 C129.659263,149.468737 130.097895,149.030105 130.097895,148.490105 L130.097895,146.303579 L132.284421,146.303579 C132.824421,146.303579 133.263053,145.864947 133.263053,145.324 C133.263053,144.784 132.824421,144.345368 132.284421,144.345368 L132.284421,144.345368 Z" id="icon-add-folder-lg" fill="#2F6DCC" sketch:type="MSShapeGroup"></path>
            <path d="M161.578947,95.1354737 L161.578947,85.8947368 C161.578947,84.2670526 160.259263,82.9473684 158.631579,82.9473684 L148.315789,82.9473684 C148.315789,81.3196842 146.996105,80 145.368421,80 L140.947368,80 C139.319684,80 138,81.3196842 138,82.9473684 L138,100.631579 C138,102.259263 139.319684,103.578947 140.947368,103.578947 L155.760105,103.578947 C156.678211,105.805684 158.869579,107.377368 161.423474,107.377368 C164.801158,107.377368 167.548842,104.629684 167.548842,101.252 C167.548842,97.9273684 164.884421,95.2187368 161.578947,95.1354737 L161.578947,95.1354737 Z M139.473684,82.9473684 C139.473684,82.1338947 140.133895,81.4736842 140.947368,81.4736842 L145.368421,81.4736842 C146.181895,81.4736842 146.842105,82.1338947 146.842105,82.9473684 L146.842105,84.4210526 L158.631579,84.4210526 C159.445053,84.4210526 160.105263,85.0812632 160.105263,85.8947368 L160.105263,87.3684211 L139.473684,87.3684211 L139.473684,82.9473684 L139.473684,82.9473684 Z M155.365158,102.105263 L140.947368,102.105263 C140.133895,102.105263 139.473684,101.445053 139.473684,100.631579 L139.473684,88.8421053 L160.105263,88.8421053 L160.105263,95.274 C157.359789,95.8789474 155.298842,98.3274737 155.298842,101.252 C155.298842,101.542316 155.326105,101.826 155.365158,102.105263 L155.365158,102.105263 Z M161.423474,105.855053 C158.885789,105.855053 156.821158,103.790421 156.821158,101.252 C156.821158,98.7143158 158.885789,96.6496842 161.423474,96.6496842 C163.961158,96.6496842 166.025789,98.7143158 166.025789,101.252 C166.025789,103.790421 163.961158,105.855053 161.423474,105.855053 L161.423474,105.855053 Z M162.625525,98.9729242 L161.422997,100.175452 L160.219948,98.9724031 C159.922442,98.6748973 159.439972,98.6748973 159.142987,98.9718821 C158.846003,99.2688669 158.846003,99.7513371 159.143508,100.048843 L160.346558,101.251892 L159.144029,102.45442 C158.847045,102.751405 158.847045,103.233875 159.144029,103.53086 C159.441535,103.828366 159.924005,103.828366 160.22099,103.531381 L161.423518,102.328853 L162.626047,103.531381 C162.923031,103.828366 163.405501,103.828366 163.702486,103.531381 C163.999471,103.234396 163.999471,102.751926 163.702486,102.454941 L162.499958,101.252413 L163.702486,100.049885 C163.999471,99.7529001 163.999471,99.27043 163.701965,98.9729242 C163.40498,98.6759393 162.92251,98.6759393 162.625525,98.9729242 L162.625525,98.9729242 Z" id="icon-remove-folder" fill="#2F6DCC" sketch:type="MSShapeGroup"></path>
            <path d="M187,102.5 C181.201,102.5 176.5,97.7975 176.5,92 C176.5,86.2025 181.201,81.5 187,81.5 C192.799,81.5 197.5,86.2025 197.5,92 C197.5,97.7975 192.799,102.5 187,102.5 L187,102.5 Z M187,80 C180.37225,80 175,85.37 175,92 C175,98.63 180.37225,104 187,104 C193.62775,104 199,98.63 199,92 C199,85.37 193.62775,80 187,80 L187,80 Z M191.5,91.25 L187.75,91.25 L187.75,87.5 C187.75,87.0875 187.41475,86.75 187,86.75 C186.58525,86.75 186.25,87.0875 186.25,87.5 L186.25,91.25 L182.5,91.25 C182.08525,91.25 181.75,91.5875 181.75,92 C181.75,92.4125 182.08525,92.75 182.5,92.75 L186.25,92.75 L186.25,96.5 C186.25,96.9125 186.58525,97.25 187,97.25 C187.41475,97.25 187.75,96.9125 187.75,96.5 L187.75,92.75 L191.5,92.75 C191.91475,92.75 192.25,92.4125 192.25,92 C192.25,91.5875 191.91475,91.25 191.5,91.25 L191.5,91.25 Z" id="icon-add-info" fill="#2F6DCC" sketch:type="MSShapeGroup"></path>
            <path d="M225.52025,86.8025 C225.161,86.5925 224.70275,86.72 224.49575,87.0725 L219.6995,95.3825 L217.016,92.9075 C216.7325,92.6075 216.25775,92.5925 215.9555,92.8775 C215.65325,93.155 215.6375,93.635 215.921,93.935 L219.35,97.1 C219.63275,97.4 220.1075,97.415 220.40975,97.13 C220.50125,97.0475 225.79475,87.8225 225.79475,87.8225 C226.00175,87.47 225.87875,87.005 225.52025,86.8025 L225.52025,86.8025 Z M221,102.5 C215.201,102.5 210.5,97.7975 210.5,92 C210.5,86.2025 215.201,81.5 221,81.5 C226.799,81.5 231.5,86.2025 231.5,92 C231.5,97.7975 226.799,102.5 221,102.5 L221,102.5 Z M221,80 C214.373,80 209,85.37 209,92 C209,98.63 214.373,104 221,104 C227.627,104 233,98.63 233,92 C233,85.37 227.627,80 221,80 L221,80 Z" id="icon-selected-ok" fill="#2F6DCC" sketch:type="MSShapeGroup"></path>
        </g>
    </g>
</svg>