<?xml version="1.0" standalone="no"?>
<!DOCTYPE svg PUBLIC "-//W3C//DTD SVG 1.1//EN" "http://www.w3.org/Graphics/SVG/1.1/DTD/svg11.dtd" >
<svg>
<metadata>
Created by FontForge 20090622 at Fri Jul 24 18:31:36 2015
 By deploy user
&#194;&#169; Copyright (c) 2001-2010. All rights reserved. Arnhem is a design by Fred Smeijers, published by OurType. www.ourtype.com. wf-rip
</metadata>
<defs>
<font id="ArnhemPro-Bold" horiz-adv-x="528" >
  <font-face 
    font-family="Arnhem Pro Bold"
    font-weight="700"
    font-stretch="normal"
    units-per-em="1000"
    panose-1="2 0 0 0 0 0 0 0 0 0"
    ascent="752"
    descent="-248"
    x-height="456"
    cap-height="620"
    bbox="-182 -345 1283 964"
    underline-thickness="21"
    underline-position="-113"
    unicode-range="U+0020-U+FB04"
  />
<missing-glyph horiz-adv-x="628" 
d="M0 0v635h628v-635h-628zM202 179l113 114l114 -115l30 31l-114 115l112 114l-30 30l-113 -114l-110 112l-30 -31l110 -111l-113 -113z" />
    <glyph glyph-name="f_b" unicode="fb" horiz-adv-x="894" 
d="M28 0v30l25 8l7.5 2.5t6.5 2.5l5 2.5l4 2t3.5 2t3 2.5l1.5 3t1 4v5v338h-65l16 54h49v23q0 108 64 168.5t172 60.5q63 0 122 -18l69 18h33q-8 -67 -8 -153v-163q56 88 147 88q87 0 134 -60.5t47 -171.5q0 -115 -61 -187.5t-171 -72.5q-82 0 -125 45l-88 -45h-31
q8 49 8 120v486q-4 83 -76 83q-50 0 -73 -42t-23 -130v-49h96v-54h-96v-336q0 -11 6 -15.5t22 -10.5q3 0 4 -1l33 -9v-30h-262zM613 403q-42 0 -76 -36v-239q0 -44 21 -67.5t55 -23.5q54 0 83 51t29 148q0 167 -112 167z" />
    <glyph glyph-name="f_f_b" unicode="ffb" horiz-adv-x="1209" 
d="M28 0v30l25 8q27 10 30 17q2 4 2 10v337h-65l16 54h49v8q0 105 53.5 160.5t155.5 55.5q39 0 66.5 -16.5t27.5 -51.5q0 -24 -17.5 -38t-37.5 -14q-29 0 -49 21.5t-9 66.5q-50 0 -50 -136v-56h175v23q0 109 64.5 169t172.5 60q61 0 122 -18l68 18h33q-8 -67 -8 -153v-163
q56 88 147 88q87 0 134 -60.5t47 -171.5q0 -115 -61 -187.5t-171 -72.5q-82 0 -125 45l-88 -45h-31q8 49 8 120v476q1 93 -75 93q-50 0 -73.5 -42.5t-23.5 -129.5v-49h97v-54h-97v-336q0 -11 6 -15.5t22 -10.5q3 0 4 -1l33 -9v-30h-262v30l25 8l7.5 2.5t6.5 2.5l5 2.5l4 2
t3.5 2t3 2.5l1.5 3t1 4v5v338h-175v-336q0 -12 5.5 -16t26.5 -11l33 -9v-30h-262zM928 403q-42 0 -76 -36v-239q0 -44 21 -67.5t55 -23.5q109 0 109 199q0 167 -109 167z" />
    <glyph glyph-name="f_f_h" unicode="ffh" horiz-adv-x="1235" 
d="M28 0v30l25 8q27 10 30 17q2 4 2 10v337h-65l16 54h49v8q0 105 53.5 160.5t155.5 55.5q39 0 66.5 -16.5t27.5 -51.5q0 -24 -17.5 -38t-37.5 -14q-29 0 -49 21.5t-9 66.5q-50 0 -50 -136v-56h175v23q0 109 64.5 169t172.5 60q62 0 121 -18l63 18h39q-8 -72 -8 -144v-181
q51 97 156 97q77 0 115 -43t38 -118v-254q0 -12 5 -17t21 -10l29 -8v-30h-249v30l28 8q16 5 21 10t5 17v232q0 110 -78 110q-59 0 -91 -59v-283q0 -12 5 -17t21 -10l28 -8v-30h-248q0 16 9 27l9 9q27 9 27 22q9 0 9 381v145q1 93 -75 93q-50 0 -73.5 -42.5t-23.5 -129.5v-49
h97v-54h-97v-336q0 -11 6 -15.5t22 -10.5q3 0 4 -1l33 -9v-30h-262v30l25 8l7.5 2.5t6.5 2.5l5 2.5l4 2t3.5 2t3 2.5l1.5 3t1 4v5v338h-175v-336q0 -12 5.5 -16t26.5 -11l33 -9v-30h-262z" />
    <glyph glyph-name="f_f_j" unicode="ffj" horiz-adv-x="926" 
d="M527 -177q0 28 16 45t43 17q41 0 54 -33.5t-4 -65.5q73 10 73 137v443q0 26 -17 36h-155v-336q0 -11 6 -15.5t22 -10.5q3 0 4 -1l33 -9v-30h-262v30l25 8l7.5 2.5t6.5 2.5l5 2.5l4 2t3.5 2t3 2.5l1.5 3t1 4v5v338h-172v-336q0 -12 5.5 -16t26.5 -11l33 -9v-30h-262v30
l25 8q27 10 30 17q2 4 2 10v337h-65l16 54h49v8q0 105 53.5 160.5t155.5 55.5q39 0 66.5 -16.5t27.5 -51.5q0 -24 -17.5 -38t-37.5 -14q-29 0 -49 21.5t-9 66.5q-50 0 -50 -136v-56h172v23q0 107 74.5 168t189.5 61q72 0 122.5 -24.5t50.5 -65.5q0 -30 -15.5 -47.5
t-44.5 -17.5q-37 0 -54.5 30.5t6.5 79.5q-23 14 -63 14q-58 0 -92 -44t-34 -128v-49h162l119 24h31v-504q0 -104 -63.5 -164t-170.5 -60q-34 0 -61 19t-27 52z" />
    <glyph glyph-name="f_f_k" unicode="ffk" horiz-adv-x="1176" 
d="M28 0v30l25 8q27 10 30 17q2 4 2 10v337h-65l16 54h49v8q0 105 53.5 160.5t155.5 55.5q39 0 66.5 -16.5t27.5 -51.5q0 -24 -17.5 -38t-37.5 -14q-29 0 -49 21.5t-9 66.5q-50 0 -50 -136v-56h175v23q0 109 64.5 169t172.5 60q62 0 121 -18l63 18h39q-8 -72 -8 -144v-499
q0 -12 5 -17t21 -10l28 -8v-30h-248q0 16 9 27l9 9q27 9 27 22q9 0 9 381v155q-4 83 -75 83q-50 0 -73.5 -42.5t-23.5 -129.5v-49h97v-54h-97v-336q0 -11 6 -15.5t22 -10.5q3 0 4 -1l33 -9v-30h-262v30l25 8l7.5 2.5t6.5 2.5l5 2.5l4 2t3.5 2t3 2.5l1.5 3t1 4v5v338h-175
v-336q0 -12 5.5 -16t26.5 -11l33 -9v-30h-262zM857 248v14q32 7 56 23l92 104q20 24 -15 32l-34 8v27h216v-27l-24 -5q-31 -7 -57 -31l-107 -96l83 -144q50 -90 93 -115l30 -8v-30h-168q-27 20 -67 92l-81 147z" />
    <glyph glyph-name="f_f_t" unicode="fft" horiz-adv-x="986" 
d="M340 0v30l25 8q27 10 30 17q2 4 2 10v337h-172v-336q0 -12 5.5 -16t26.5 -11l33 -9v-30h-262v30l25 8q27 10 30 17q2 4 2 10v337h-65l16 54h49v8q0 105 53.5 160.5t155.5 55.5q39 0 66.5 -16.5t27.5 -51.5q0 -24 -17.5 -38t-37.5 -14q-29 0 -49 21.5t-9 66.5
q-50 0 -50 -136v-56h172v28q0 109 60.5 166.5t165.5 57.5q99 0 99 -68q0 -24 -15.5 -38t-38.5 -14q-31 0 -47.5 25t-4.5 63q-79 0 -79 -144v-76h150q21 10 36 25q12 16 30.5 52.5t26.5 58.5h64v-136h119v-54h-119v-253q0 -49 14.5 -70t53.5 -21t66 27l12 -15
q-51 -82 -147 -82q-69 0 -104 36t-35 96v282h-167v-333q0 -12 4.5 -17t24.5 -10l56 -12v-30h-282z" />
    <glyph glyph-name="f_h" unicode="fh" horiz-adv-x="920" 
d="M28 0v30l25 8l7.5 2.5t6.5 2.5l5 2.5l4 2t3.5 2t3 2.5l1.5 3t1 4v5v338h-65l16 54h49v23q0 108 64 168.5t172 60.5q62 0 121 -18l64 18h39q-8 -72 -8 -144v-181q51 97 156 97q77 0 115 -43t38 -118v-254q0 -12 5 -17t21 -10l29 -8v-30h-249v30l28 8q16 5 21 10t5 17v232
q0 110 -78 110q-30 0 -54 -17.5t-37 -41.5v-283q0 -12 5 -17t21 -10l29 -8v-30h-249q0 16 9 27l9 9q27 9 27 22q9 0 9 381v145q0 93 -76 93q-50 0 -73 -42t-23 -130v-49h96v-54h-96v-336q0 -11 6 -15.5t22 -10.5q3 0 4 -1l33 -9v-30h-262z" />
    <glyph glyph-name="f_j" unicode="fj" horiz-adv-x="608" 
d="M218 -177q0 28 16 45t43 17q41 0 54 -33.5t-4 -65.5q73 10 73 137v443q0 19 -5 26.5t-21 9.5h-149v-336q0 -11 6 -15.5t22 -10.5q3 0 4 -1l33 -9v-30h-262v30l25 8l7.5 2.5t6.5 2.5l5 2.5l4 2t3.5 2t3 2.5l1.5 3t1 4v5v338h-65l16 54h49v23q0 107 76 168t191 61
q72 0 122.5 -24.5t50.5 -65.5q0 -30 -15.5 -47.5t-44.5 -17.5q-37 0 -54.5 30.5t6.5 79.5q-23 14 -63 14q-58 0 -93.5 -44t-35.5 -128v-49h165l119 24h31v-504q0 -104 -63.5 -164t-170.5 -60q-34 0 -61 19t-27 52z" />
    <glyph glyph-name="f_k" unicode="fk" horiz-adv-x="864" 
d="M28 0v30l25 8l7.5 2.5t6.5 2.5l5 2.5l4 2t3.5 2t3 2.5l1.5 3t1 4v5v338h-65l16 54h49v23q0 108 64 168.5t172 60.5q62 0 121 -18l64 18h39q-8 -72 -8 -144v-499q0 -12 5 -17t21 -10l29 -8v-30h-249q0 16 9 27l9 9q27 9 27 22q9 0 9 381v155q-4 83 -76 83q-50 0 -73 -42
t-23 -130v-49h96v-54h-96v-336q0 -11 6 -15.5t22 -10.5q3 0 4 -1l33 -9v-30h-262zM542 248v14q32 7 56 23l92 104q19 24 -14 32l-35 8v27h216v-27l-24 -5q-31 -7 -57 -31l-107 -96l83 -144q52 -92 93 -115l31 -8v-30h-169q-27 20 -67 92l-80 147z" />
    <glyph glyph-name="f_t" unicode="ft" horiz-adv-x="672" 
d="M396 120v282h-171v-333q0 -12 4.5 -17t24.5 -10l56 -12v-30h-282v30l25 8q27 10 30 17q2 4 2 10v337h-65l16 54h49v28q0 109 60.5 166.5t165.5 57.5q99 0 99 -68q0 -24 -15.5 -38t-38.5 -14q-31 0 -47.5 25t-4.5 63q-79 0 -79 -144v-76h154q21 10 36 25q12 16 30.5 52.5
t26.5 58.5h64v-136h119v-54h-119v-253q0 -49 14.5 -70t53.5 -21t66 27l12 -15q-51 -82 -147 -82q-69 0 -104 36t-35 96z" />
    <glyph glyph-name="fi" unicode="fi" horiz-adv-x="612" 
d="M343 0v30l28 8q15 6 20.5 11t5.5 16v301q0 20 -5.5 28t-25.5 8h-141v-336q0 -11 6 -15.5t22 -10.5q3 0 4 -1l33 -9v-30h-262v30l25 8l7.5 2.5t6.5 2.5l5 2.5l4 2t3.5 2t3 2.5l1.5 3t1 4v5v338h-65l16 54h49v23q0 107 74.5 168t189.5 61q72 0 122.5 -24.5t50.5 -65.5
q0 -30 -15.5 -47.5t-44.5 -17.5q-37 0 -54.5 30.5t6.5 79.5q-23 14 -63 14q-58 0 -92 -44t-34 -128v-49h154l126 24h32v-415q0 -12 4.5 -17t21.5 -10l29 -8v-30h-249z" />
    <glyph glyph-name="fl" unicode="fl" horiz-adv-x="612" 
d="M28 0v30l25 8l7.5 2.5t6.5 2.5l5 2.5l4 2t3.5 2t3 2.5l1.5 3t1 4v5v338h-65l16 54h49v23q0 109 64.5 169t172.5 60q62 0 121 -18l63 18h39q-8 -72 -8 -144v-499q0 -12 5 -17t21 -10l29 -8v-30h-249v30l28 8q16 5 21 10t5 17v529q-4 83 -75 83q-50 0 -73.5 -42.5
t-23.5 -129.5v-49h97v-54h-97v-336q0 -11 6 -15.5t22 -10.5q3 0 4 -1l33 -9v-30h-262z" />
    <glyph glyph-name="ff" unicode="ff" horiz-adv-x="648" 
d="M28 0v30l25 8q27 10 30 17q2 4 2 10v337h-65l16 54h49v8q0 105 53.5 160.5t155.5 55.5q39 0 66.5 -16.5t27.5 -51.5q0 -24 -17.5 -38t-37.5 -14q-29 0 -49 21.5t-9 66.5q-50 0 -50 -136v-56h172v28q0 109 60.5 166.5t165.5 57.5q99 0 99 -68q0 -24 -15.5 -38t-38.5 -14
q-31 0 -47.5 25t-4.5 63q-79 0 -79 -144v-76h108v-54h-108v-333q0 -12 4.5 -17t24.5 -10l56 -12v-30h-282v30l25 8q27 10 30 17q2 4 2 10v337h-172v-336q0 -12 5.5 -16t26.5 -11l33 -9v-30h-262z" />
    <glyph glyph-name="ffi" unicode="ffi" horiz-adv-x="924" 
d="M655 0v30l28 8q15 6 20.5 11t5.5 16v301q0 20 -5.5 28t-25.5 8h-141v-336q0 -11 6 -15.5t22 -10.5q3 0 4 -1l33 -9v-30h-262v30l25 8l7.5 2.5t6.5 2.5l5 2.5l4 2t3.5 2t3 2.5l1.5 3t1 4v5v338h-172v-336q0 -12 5.5 -16t26.5 -11l33 -9v-30h-262v30l25 8q27 10 30 17
q2 4 2 10v337h-65l16 54h49v8q0 105 53.5 160.5t155.5 55.5q39 0 66.5 -16.5t27.5 -51.5q0 -24 -17.5 -38t-37.5 -14q-29 0 -49 21.5t-9 66.5q-50 0 -50 -136v-56h172v23q0 107 74.5 168t189.5 61q72 0 122.5 -24.5t50.5 -65.5q0 -30 -15.5 -47.5t-44.5 -17.5
q-37 0 -54.5 30.5t6.5 79.5q-23 14 -63 14q-58 0 -92 -44t-34 -128v-49h154l126 24h32v-415q0 -12 4.5 -17t21.5 -10l29 -8v-30h-249z" />
    <glyph glyph-name="ffl" unicode="ffl" horiz-adv-x="924" 
d="M28 0v30l25 8q27 10 30 17q2 4 2 10v337h-65l16 54h49v8q0 105 53.5 160.5t155.5 55.5q39 0 66.5 -16.5t27.5 -51.5q0 -24 -17.5 -38t-37.5 -14q-29 0 -49 21.5t-9 66.5q-50 0 -50 -136v-56h172v23q0 109 64.5 169t172.5 60q62 0 121 -18l63 18h39q-8 -72 -8 -144v-499
q0 -12 5 -17t21 -10l29 -8v-30h-249v30l28 8q16 5 21 10t5 17v529q-4 83 -75 83q-50 0 -73.5 -42.5t-23.5 -129.5v-49h97v-54h-97v-336q0 -11 6 -15.5t22 -10.5q3 0 4 -1l33 -9v-30h-262v30l25 8l7.5 2.5t6.5 2.5l5 2.5l4 2t3.5 2t3 2.5l1.5 3t1 4v5v338h-172v-336
q0 -12 5.5 -16t26.5 -11l33 -9v-30h-262z" />
    <glyph glyph-name=".notdef" horiz-adv-x="628" 
d="M0 0v635h628v-635h-628zM202 179l113 114l114 -115l30 31l-114 115l112 114l-30 30l-113 -114l-110 112l-30 -31l110 -111l-113 -113z" />
    <glyph glyph-name=".null" horiz-adv-x="0" 
 />
    <glyph glyph-name="nonmarkingreturn" horiz-adv-x="333" 
 />
    <glyph glyph-name="space" unicode=" " horiz-adv-x="236" 
 />
    <glyph glyph-name="space" unicode="&#xa0;" horiz-adv-x="236" 
 />
    <glyph glyph-name="exclam" unicode="!" horiz-adv-x="272" 
d="M158 201h-44q0 54 -13.5 168.5t-42.5 242.5q30 24 78 24t78 -24q-29 -128 -42.5 -242.5t-13.5 -168.5zM59 62q0 33 21 53.5t56 20.5t56 -20.5t21 -53.5t-21 -53.5t-56 -20.5t-56 20.5t-21 53.5z" />
    <glyph glyph-name="quotedbl" unicode="&#x22;" horiz-adv-x="396" 
d="M301 444h-36q-2 27 -17 80.5t-30 87.5q22 24 65 24t65 -24q-15 -33 -29 -85t-18 -83zM131 444h-36q-2 27 -17 80.5t-30 87.5q23 24 65 24q43 0 65 -24q-15 -33 -29 -85t-18 -83z" />
    <glyph glyph-name="numbersign" unicode="#" 
d="M54 446l11 59h97l33 166l74 -14l-31 -152h128l33 166l74 -14l-31 -152h89l-11 -59h-90l-55 -275h102l-11 -59h-103l-34 -170l-74 14l31 156h-126l-34 -170l-74 14l31 156h-83l11 59h84l55 275h-96zM227 446l-55 -275h126l56 275h-127z" />
    <glyph glyph-name="dollar" unicode="$" 
d="M68 -12h-23q6 76 -3 228h33q17 -88 45 -142q38 -51 107 -51h9v231l-64 29q-65 31 -95 69t-30 101q0 75 58 116.5t154 45.5v71h37v-70q74 -4 125 -29l21 25h20l7 -199h-34q-16 80 -38 120q-30 42 -101 47v-199l42 -19q80 -36 118 -75.5t38 -106.5q0 -81 -60 -131.5
t-161 -58.5v-82h-37v80h-10q-73 0 -142 26zM353 126q0 39 -20.5 64t-59.5 46v-207q38 10 59 35.5t21 61.5zM180 497q0 -38 20.5 -60t58.5 -39v181q-79 -13 -79 -82z" />
    <glyph glyph-name="percent" unicode="%" horiz-adv-x="912" 
d="M242 -12l349 648h75l-349 -648h-75zM213 253q-80 0 -125.5 50.5t-45.5 138.5q0 85 46.5 138t124.5 53q81 0 126.5 -50t45.5 -138q0 -85 -46.5 -138.5t-125.5 -53.5zM213 284q20 0 33 11.5t18.5 35.5t7 48t1.5 63q0 79 -12 119.5t-48 40.5q-20 0 -33 -11t-18.5 -35.5
t-7 -48t-1.5 -62.5q0 -79 12 -120t48 -41zM527 177q0 85 46.5 138t125.5 53q81 0 126 -50t45 -138q0 -85 -46 -138.5t-125 -53.5q-81 0 -126.5 51t-45.5 138zM639 180q0 -79 12 -120t48 -41q20 0 33 11.5t18.5 35.5t7 48t1.5 63q0 79 -12 119.5t-48 40.5q-20 0 -33 -11
t-18.5 -35.5t-7 -48t-1.5 -62.5z" />
    <glyph glyph-name="ampersand" unicode="&#x26;" horiz-adv-x="596" 
d="M19 165q0 99 130 155l-37 44q-50 60 -50 124q0 73 55 110.5t130 37.5q80 0 120.5 -35t40.5 -90q0 -59 -35.5 -94.5t-96.5 -63.5l153 -179q23 55 23 125q0 9 -4.5 12t-23.5 8l-32 8v30h181v-30l-52 -12q-16 -4 -16 -24q0 -78 -43 -156l56 -65q33 -36 77 -41v-29
q-30 -12 -71 -12q-94 0 -141 55q-68 -55 -152 -55q-102 0 -157 46.5t-55 130.5zM266 60q48 0 84 21l-171 203q-40 -34 -40 -96q0 -57 34 -92.5t93 -35.5zM176 522q0 -51 50 -110l26 -30q59 42 59 126q0 93 -68 93q-32 0 -49.5 -21t-17.5 -58z" />
    <glyph glyph-name="quotesingle" unicode="'" horiz-adv-x="232" 
d="M134 444h-36q-2 27 -17 80.5t-30 87.5q23 24 65 24t65 -24q-15 -33 -29 -85t-18 -83z" />
    <glyph glyph-name="parenleft" unicode="(" horiz-adv-x="329" 
d="M46 160v156q0 106 24 191.5t63.5 136.5t86.5 77.5t97 26.5v-34q-76 0 -120 -100t-44 -298v-156q0 -171 45 -274.5t119 -103.5v-34q-49 0 -96.5 26.5t-87 75.5t-63.5 130t-24 180z" />
    <glyph glyph-name="parenright" unicode=")" horiz-adv-x="329" 
d="M12 -252v34q74 0 118.5 103.5t44.5 274.5v156q0 199 -43 298.5t-120 99.5v34q50 0 97 -26.5t86.5 -77.5t63.5 -136.5t24 -191.5v-156q0 -99 -24 -180t-63.5 -130t-87 -75.5t-96.5 -26.5z" />
    <glyph glyph-name="asterisk" unicode="*" horiz-adv-x="468" 
d="M116 312l-16 12l64 118l-124 54l4 16l132 5l-16 131l16 8l71 -114l105 82l16 -12l-64 -117l124 -51l-4 -16l-132 -9l16 -131l-16 -4l-71 110z" />
    <glyph glyph-name="plus" unicode="+" 
d="M226 60v224h-190v70h190v214h76v-214h190v-70h-190v-224h-76z" />
    <glyph glyph-name="comma" unicode="," horiz-adv-x="272" 
d="M60 62q0 34 22 54t55 20q78 0 78 -92q0 -77 -34 -138.5t-68 -89.5h-58q30 26 53.5 77t23.5 95q-31 0 -51.5 21t-20.5 53z" />
    <glyph glyph-name="hyphen" unicode="-" horiz-adv-x="284" 
d="M28 212v88h228v-88h-228z" />
    <glyph glyph-name="period" unicode="." horiz-adv-x="272" 
d="M59 62q0 33 21 53.5t56 20.5t56 -20.5t21 -53.5t-21 -53.5t-56 -20.5t-56 20.5t-21 53.5z" />
    <glyph glyph-name="slash" unicode="/" horiz-adv-x="308" 
d="M14 -76l220 764h60l-220 -764h-60z" />
    <glyph glyph-name="zero" unicode="0" 
d="M263 -12q-109 0 -170.5 86t-61.5 226q0 142 62.5 229t171.5 87t170.5 -86.5t61.5 -229.5q0 -140 -62 -226t-172 -86zM264 23q29 0 47.5 22.5t26.5 67t10.5 85t2.5 102.5q0 49 -1 83.5t-6 75t-14 64.5t-26 41t-40 17q-29 0 -47.5 -22.5t-26.5 -67.5t-10.5 -86.5
t-2.5 -104.5q0 -62 2.5 -102.5t10.5 -85t26.5 -67t47.5 -22.5z" />
    <glyph glyph-name="one" unicode="1" 
d="M72 0v34l108 16q18 3 23 9t5 23v416h-8l-137 -45l-12 31q45 19 123 62t113 70h57v-534q0 -19 5.5 -26.5t22.5 -9.5l100 -12v-34h-400z" />
    <glyph glyph-name="two" unicode="2" 
d="M35 0v28l152 164q3 3 10 11q33 36 51.5 59.5t38.5 69.5t20 94q0 54 -28 84t-77 30q-52 0 -86 -31t-34 -87q0 -20 4 -32h-31q-4 15 -4 40q0 77 49.5 131.5t146.5 54.5q91 0 142.5 -47t51.5 -131q0 -23 -6 -45.5t-14.5 -40t-24 -38t-27 -33.5t-32.5 -31.5t-31.5 -27
l-32.5 -25.5l-27 -21l-106 -87h234q16 0 32 20l62 84h24q-31 -113 -44 -193h-413z" />
    <glyph glyph-name="three" unicode="3" 
d="M32 91q0 24 14 39t37 15q49 0 61 -66l8 -43q23 -17 57 -17q53 0 84.5 37.5t31.5 111.5q0 55 -31.5 85t-83.5 30q-36 0 -58 -12v45q47 2 86 18q71 31 71 120q0 46 -27 71t-70 25q-47 0 -79 -29.5t-32 -84.5h-27q0 84 48 132t132 48q83 0 129.5 -35.5t46.5 -103.5
q0 -56 -38.5 -94.5t-99.5 -53.5q32 -3 60.5 -12.5t54.5 -27.5t41.5 -48.5t15.5 -71.5q0 -85 -70.5 -133t-185.5 -48q-67 0 -121.5 26t-54.5 77z" />
    <glyph glyph-name="four" unicode="4" 
d="M22 156v31l247 401q72 11 103 28h36v-404h81v-56h-81v-90q0 -10 2.5 -14t13.5 -6l52 -12v-34h-291v34l72 12q10 2 13 5.5t3 14.5v90h-251zM273 515l-187 -303h187v303z" />
    <glyph glyph-name="five" unicode="5" 
d="M46 90q0 25 14 39.5t36 14.5q27 0 39.5 -16t18.5 -44l8 -49q24 -16 53 -16q54 0 84.5 43.5t30.5 121.5q0 68 -31.5 103t-88.5 35q-60 0 -103 -34h-21q22 154 22 316h345l-25 -104h-285q0 -89 -15 -164q50 34 128 34q97 0 155 -46.5t58 -134.5q0 -95 -73 -148t-181 -53
q-64 0 -116.5 25.5t-52.5 76.5z" />
    <glyph glyph-name="six" unicode="6" 
d="M265 -12q-44 0 -81.5 13.5t-71.5 44t-54 87t-20 134.5q0 167 84.5 258t214.5 91q84 0 125 -41v-31q-35 23 -97 23q-79 0 -125.5 -61.5t-59.5 -158.5q52 45 124 45q83 0 136.5 -50t53.5 -143q0 -95 -63.5 -153t-165.5 -58zM262 335q-49 0 -87 -32q-1 -15 -1 -44
q0 -239 95 -239q46 0 69.5 47.5t23.5 122.5q0 69 -26 107t-74 38z" />
    <glyph glyph-name="seven" unicode="7" 
d="M100 0l306 500h-368l26 104h428v-16l-284 -588h-108z" />
    <glyph glyph-name="eight" unicode="8" 
d="M41 147q0 57 39 94t102 52q-123 55 -123 164q0 72 63 115.5t148 43.5q101 0 152.5 -40t51.5 -106q0 -98 -131 -137q144 -58 144 -175q0 -85 -67.5 -127.5t-162.5 -42.5q-97 0 -156.5 39t-59.5 120zM355 141q0 30 -10 52t-31.5 37.5t-39.5 24.5t-49 21q-5 2 -8 3
q-57 -47 -57 -128q0 -62 26.5 -95t70.5 -33q46 0 72 29.5t26 88.5zM185 480q0 -31 10 -54t30.5 -38t37 -23.5t43.5 -18.5q54 43 54 120q0 53 -23 84t-67 31q-37 0 -61 -26t-24 -75z" />
    <glyph glyph-name="nine" unicode="9" 
d="M56 21v29q34 -14 95 -14q88 0 136.5 62.5t61.5 163.5q-52 -43 -118 -43q-81 0 -139 51t-58 143q0 94 62 148.5t162 54.5t166 -68t66 -211q0 -164 -85.5 -256.5t-227.5 -92.5q-81 0 -121 33zM275 276q43 0 78 28q0 6 0.5 18.5t0.5 19.5q0 239 -99 239q-44 0 -66.5 -41
t-22.5 -114q0 -72 28.5 -111t80.5 -39z" />
    <glyph glyph-name="colon" unicode=":" horiz-adv-x="272" 
d="M136 283q-35 0 -56 20.5t-21 53.5t21 53.5t56 20.5t56 -20.5t21 -53.5t-21 -53.5t-56 -20.5zM59 62q0 33 21 53.5t56 20.5t56 -20.5t21 -53.5t-21 -53.5t-56 -20.5t-56 20.5t-21 53.5z" />
    <glyph glyph-name="semicolon" unicode=";" horiz-adv-x="272" 
d="M136 283q-35 0 -56 20.5t-21 53.5t21 53.5t56 20.5t56 -20.5t21 -53.5t-21 -53.5t-56 -20.5zM60 62q0 34 22 54t55 20q78 0 78 -92q0 -77 -34 -138.5t-68 -89.5h-58q30 26 53.5 77t23.5 95q-31 0 -51.5 21t-20.5 53z" />
    <glyph glyph-name="less" unicode="&#x3c;" 
d="M469 527l26 -63l-326 -150l326 -150l-26 -63l-453 213z" />
    <glyph glyph-name="equal" unicode="=" 
d="M36 374v70h456v-70h-456zM36 180v70h456v-70h-456z" />
    <glyph glyph-name="greater" unicode="&#x3e;" 
d="M24 464l26 63l453 -213l-453 -213l-26 63l326 150z" />
    <glyph glyph-name="question" unicode="?" horiz-adv-x="460" 
d="M229 190h-77q0 31 10 55t19 33.5t28 26.5l19 18q40 37 57.5 72t17.5 93q0 102 -107 102q-34 0 -60 -15q15 -41 15 -57q0 -30 -14.5 -49.5t-42.5 -19.5q-51 0 -51 57q0 53 65.5 91.5t132.5 38.5q78 0 127.5 -36.5t49.5 -103.5q0 -35 -10 -62.5t-33.5 -50.5t-41.5 -36.5
t-53 -35.5l-21 -13q-42 -26 -42 -61q0 -25 12 -47zM114 62q0 33 21 53.5t56 20.5t56 -20.5t21 -53.5t-21 -53.5t-56 -20.5t-56 20.5t-21 53.5z" />
    <glyph glyph-name="at" unicode="@" horiz-adv-x="944" 
d="M262 108q0 57 45 87t126 50l92 23v56q0 109 -95 109q-38 0 -63 -17l8 -16q15 -28 15 -47q0 -27 -16 -44t-45 -17q-25 0 -38 16.5t-13 41.5q0 41 59 79l29 18q50 33 116 33q84 0 127.5 -37t43.5 -107v-230q0 -60 11.5 -82t44.5 -22q57 0 89 64t32 181q0 158 -97.5 252.5
t-261.5 94.5q-160 0 -256.5 -104t-96.5 -261q0 -166 93.5 -268t251.5 -102q116 0 192 44l12 -26q-92 -60 -204 -60q-189 0 -306.5 112t-117.5 300q0 122 61 216.5t158.5 142.5t212.5 48q192 0 313 -101.5t121 -287.5q0 -132 -63 -209.5t-167 -77.5q-133 0 -149 92
q-47 -64 -132 -64q-62 0 -97 31t-35 89zM452 53q41 0 73 28v152l-38 -11q-108 -36 -108 -99q0 -34 20.5 -52t52.5 -18z" />
    <glyph glyph-name="A" unicode="A" horiz-adv-x="604" 
d="M-12 0v34l35 9q27 8 34 32l217 561h81l202 -564q8 -25 32 -31l25 -7v-34h-278v34l44 9q28 6 19 34l-33 93h-205l-32 -93q-10 -28 15 -34l46 -9v-34h-202zM264 464l-86 -245h171z" />
    <glyph glyph-name="B" unicode="B" horiz-adv-x="624" 
d="M27 0v34l46 12q11 3 15 4.5t8 4t4.5 6t0.5 9.5v480q0 6 -0.5 9.5t-4.5 6t-8 4t-15 4.5l-46 12v34h330q98 0 154.5 -37t56.5 -108q0 -60 -41 -98.5t-98 -49.5q74 -10 121 -49.5t47 -103.5q0 -89 -65.5 -131.5t-162.5 -42.5h-342zM298 297h-47v-250q30 -8 55 -8h11
q61 0 95 33.5t34 101.5q0 60 -38 91.5t-110 31.5zM311 584h-6q-30 0 -54 -8v-240h52q61 0 91.5 35.5t30.5 95.5q0 117 -114 117z" />
    <glyph glyph-name="C" unicode="C" horiz-adv-x="664" 
d="M31 321q0 148 98.5 231.5t258.5 83.5q90 0 165 -35l20 27h22l7 -215h-28q-22 95 -52 137q-54 48 -133 48q-96 0 -148 -76.5t-52 -200.5q0 -138 54.5 -216t144.5 -78q80 0 119 37q35 42 71 142h28l-33 -185q-76 -33 -188 -33q-162 0 -258 88t-96 245z" />
    <glyph glyph-name="D" unicode="D" horiz-adv-x="720" 
d="M30 0v34l46 12q11 3 15 4.5t8 4t4.5 6t0.5 9.5v480q0 6 -0.5 9.5t-4.5 6t-8 4t-15 4.5l-46 12v34h314q160 0 254.5 -80t94.5 -227q0 -135 -85.5 -224t-234.5 -89h-343zM333 584h-16q-29 0 -63 -8v-529q38 -8 75 -8h13q98 0 146.5 73.5t48.5 199.5q0 56 -10.5 102.5
t-33 86t-63.5 61.5t-97 22z" />
    <glyph glyph-name="E" unicode="E" horiz-adv-x="604" 
d="M27 0v34l46 12q11 3 15 4.5t8 4t4.5 6t0.5 9.5v480q0 10 -5 14.5t-23 9.5l-46 12v34h423q48 0 80 8l17 -196h-31q-31 94 -54 121q-39 28 -130 28h-10q-37 0 -71 -8v-225h94q39 22 62 95h23v-241h-23q-21 70 -62 99h-94v-254q46 -8 81 -8h15q82 0 119 25q17 14 37 56
t29 76h31l-25 -196h-511z" />
    <glyph glyph-name="F" unicode="F" horiz-adv-x="556" 
d="M27 0v34l46 12q11 3 15 4.5t8 4t4.5 6t0.5 9.5v480q0 6 -0.5 9.5t-4.5 6t-8 4t-15 4.5l-46 12v34h412q48 0 80 8l17 -196h-31q-31 94 -54 121q-39 28 -119 28h-11q-36 0 -70 -8v-234h95q39 22 62 95h23v-249h-23q-24 82 -62 107h-95v-218q0 -12 7 -17.5t30 -10.5l62 -12
v-34h-323z" />
    <glyph glyph-name="G" unicode="G" horiz-adv-x="700" 
d="M30 325q0 146 103 228.5t269 82.5q96 0 168 -32l20 24h23l9 -214l-28 -1q-8 34 -26 77t-35 66q-50 42 -132 42q-95 0 -154 -71t-59 -199q0 -138 53 -219.5t141 -81.5q69 0 97 25v165q0 20 -20 25l-56 16v34h262v-30l-20 -8q-15 -5 -20 -11t-5 -19v-166l8 -23
q-39 -19 -106 -33t-140 -14q-160 0 -256 87t-96 250z" />
    <glyph glyph-name="H" unicode="H" horiz-adv-x="784" 
d="M27 0v34l46 12q11 3 15 4.5t8 4t4.5 6t0.5 9.5v480q0 6 -0.5 9.5t-4.5 6t-8 4t-15 4.5l-46 12v34h295v-34l-43 -12q-11 -3 -15 -4.5t-8 -4t-4.5 -6t-0.5 -9.5v-203h282v203q0 6 -0.5 9.5t-4.5 6t-8 4t-15 4.5l-43 12v34h295v-34l-46 -12q-11 -3 -15 -4.5t-8 -4t-4.5 -6
t-0.5 -9.5v-480q0 -6 0.5 -9.5t4.5 -6t8 -4t15 -4.5l46 -12v-34h-295v34l43 12q11 3 15 4.5t8 4t4.5 6t0.5 9.5v220h-282v-220q0 -6 0.5 -9.5t4.5 -6t8 -4t15 -4.5l43 -12v-34h-295z" />
    <glyph glyph-name="I" unicode="I" horiz-adv-x="352" 
d="M27 0v34l46 12q11 3 15 4.5t8 4t4.5 6t0.5 9.5v480q0 6 -0.5 9.5t-4.5 6t-8 4t-15 4.5l-46 12v34h298v-34l-46 -12q-11 -3 -15 -4.5t-8 -4t-4.5 -6t-0.5 -9.5v-480q0 -6 0.5 -9.5t4.5 -6t8 -4t15 -4.5l46 -12v-34h-298z" />
    <glyph glyph-name="J" unicode="J" horiz-adv-x="352" 
d="M-28 -71q29 0 45.5 -15.5t16.5 -40.5q0 -23 -8 -42q76 10 76 153v570q0 3 -0.5 5t-0.5 3.5t-1.5 3t-2.5 2t-4 1.5t-5 1.5t-7 2t-8 2.5l-46 11v34h298v-34l-43 -11q-4 -1 -10 -3t-8 -2.5t-5.5 -2t-4 -3t-1.5 -4t-1 -6.5v-543q0 -46 -13 -82.5t-35.5 -60t-53 -39.5
t-63.5 -22.5t-70 -6.5q-48 0 -76 17.5t-28 52.5q0 26 16.5 42.5t42.5 16.5z" />
    <glyph glyph-name="K" unicode="K" horiz-adv-x="664" 
d="M673 0h-191q-36 30 -93 123l-113 187q-3 5 -17 11v8q22 8 40 20l179 200q19 23 -12 29l-37 8v34h225v-37l-34 -8q-34 -7 -63 -36l-162 -153l130 -212q65 -105 108 -130l40 -10v-34zM27 0v34l46 12q11 3 15 4.5t8 4t4.5 6t0.5 9.5v480q0 6 -0.5 9.5t-4.5 6t-8 4t-15 4.5
l-46 12v34h298v-34l-46 -12q-11 -3 -15 -4.5t-8 -4t-4.5 -6t-0.5 -9.5v-480q0 -6 0.5 -9.5t4.5 -6t8 -4t15 -4.5l46 -12v-34h-298z" />
    <glyph glyph-name="L" unicode="L" horiz-adv-x="564" 
d="M27 0v34l46 12q11 3 15 4.5t8 4t4.5 6t0.5 9.5v480q0 6 -0.5 9.5t-4.5 6t-8 4t-15 4.5l-46 12v34h311v-34l-55 -12q-19 -4 -25.5 -9t-6.5 -18v-501q40 -7 78 -7h13q69 0 108 25q16 17 38.5 67.5t31.5 84.5h31l-30 -216h-494z" />
    <glyph glyph-name="M" unicode="M" horiz-adv-x="900" 
d="M10 0v34l57 12q17 4 21.5 7.5t6.5 16.5q4 40 4 116v358q0 12 -5 17t-23 10l-49 15v34h227l200 -408l206 408h215v-34l-43 -12q-11 -3 -15 -4.5t-8 -4t-4.5 -6t-0.5 -9.5v-480q0 -6 0.5 -9.5t4.5 -6t8 -4t15 -4.5l46 -12v-34h-311v34l55 12q19 4 25.5 9t6.5 18v396
l-238 -469h-21l-227 455v-269q0 -76 4 -116q2 -12 8 -16t24 -8l63 -12v-34h-252z" />
    <glyph glyph-name="N" unicode="N" horiz-adv-x="724" 
d="M7 0v34l60 12q17 4 21.5 7.5t6.5 16.5q4 40 4 116v358q0 12 -5 17t-23 10l-57 15v34h213l339 -396v210q0 76 -4 116q-2 12 -8 16t-24 8l-68 12v34h252v-34l-54 -12q-17 -4 -21.5 -7.5t-6.5 -16.5q-4 -40 -4 -116v-445h-65l-400 474v-277q0 -76 4 -116q2 -12 8 -16t24 -8
l68 -12v-34h-260z" />
    <glyph glyph-name="O" unicode="O" horiz-adv-x="728" 
d="M30 316q0 142 91 231t243 89q153 0 243.5 -88.5t90.5 -231.5q0 -144 -91 -236t-243 -92t-243 92t-91 236zM191 316q0 -57 8.5 -105.5t27.5 -91.5t54 -67.5t83 -24.5t83 25t54 68t27.5 91.5t8.5 104.5t-8.5 103.5t-27.5 88.5t-54 65t-83 24t-83 -24t-54 -65t-27.5 -88.5
t-8.5 -103.5z" />
    <glyph glyph-name="P" unicode="P" horiz-adv-x="580" 
d="M27 0v34l46 12q11 3 15 4.5t8 4t4.5 6t0.5 9.5v480q0 6 -0.5 9.5t-4.5 6t-8 4t-15 4.5l-46 12v34h313q110 0 169.5 -44t59.5 -130q0 -101 -59.5 -154t-165.5 -53q-52 0 -93 13v-179q0 -12 7 -17.5t27 -9.5l63 -12v-34h-321zM307 581h-6q-26 0 -50 -8v-294h18
q158 0 158 166q0 136 -120 136z" />
    <glyph glyph-name="Q" unicode="Q" horiz-adv-x="728" 
d="M30 316q0 140 91 230t243 90t243 -89.5t91 -230.5q0 -119 -66 -205.5t-179 -112.5q86 -121 148 -155l68 -19v-28h-176q-57 43 -153 193q-142 8 -226 99t-84 228zM191 316q0 -57 8.5 -105.5t27.5 -91.5t54 -67.5t83 -24.5t83 25t54 68t27.5 91.5t8.5 104.5t-8.5 103.5
t-27.5 88.5t-54 65t-83 24t-83 -24t-54 -65t-27.5 -88.5t-8.5 -103.5z" />
    <glyph glyph-name="R" unicode="R" horiz-adv-x="648" 
d="M27 0v34l46 12q11 3 15 4.5t8 4t4.5 6t0.5 9.5v480q0 6 -0.5 9.5t-4.5 6t-8 4t-15 4.5l-46 12v34h324q236 0 236 -158q0 -75 -46.5 -115.5t-119.5 -54.5q24 -14 73 -90l58 -90q31 -49 56 -65l48 -13v-34h-183q-28 23 -82 112l-91 153h-49v-195q0 -6 0.5 -9.5t4.5 -6t8 -4
t15 -4.5l46 -12v-34h-298zM318 584h-11q-30 0 -56 -8v-268h41q152 0 152 147q0 129 -126 129z" />
    <glyph glyph-name="S" unicode="S" horiz-adv-x="520" 
d="M60 -12h-23q6 76 -3 228h33q17 -88 45 -142q38 -51 107 -51q58 0 89 30.5t31 78.5q0 46 -23 72.5t-71 49.5l-81 37q-65 30 -95 70.5t-30 105.5q0 80 65 124.5t169 44.5q84 0 140 -29l21 25h20l7 -199h-34q-16 80 -38 120q-33 48 -115 48q-43 0 -69.5 -23.5t-26.5 -68.5
q0 -29 11.5 -50t24.5 -30t39 -23l77 -35q79 -36 117.5 -77.5t38.5 -109.5q0 -91 -73.5 -143.5t-194.5 -52.5q-73 0 -142 26z" />
    <glyph glyph-name="T" unicode="T" horiz-adv-x="604" 
d="M143 0v34l54 12q18 4 23 8t5 16v514h-12q-90 0 -129 -28q-22 -35 -45 -124h-31l12 196q32 -8 80 -8h404q48 0 80 8l12 -196h-31q-23 89 -45 124q-35 28 -132 28h-13v-514q0 -12 4.5 -16t23.5 -8l54 -12v-34h-314z" />
    <glyph glyph-name="U" unicode="U" horiz-adv-x="704" 
d="M95 232v315q0 22 -21 27l-41 9v37h281v-37l-54 -12q-11 -2 -14.5 -7t-3.5 -17v-315q0 -96 33.5 -139.5t105.5 -43.5q84 0 127.5 51t43.5 140v306q0 12 -5.5 17t-22.5 8l-64 12v37h219v-37l-45 -11q-20 -4 -20 -24v-308q0 -121 -66 -186.5t-191 -65.5q-262 0 -262 244z
" />
    <glyph glyph-name="V" unicode="V" horiz-adv-x="612" 
d="M260 -12l-218 557q-10 26 -27 32l-24 9v34h268v-34l-36 -9q-32 -9 -20 -38l143 -378l141 377q12 33 -20 39l-38 9v34h195v-34l-24 -8q-15 -6 -23 -13.5t-16 -26.5l-231 -550h-70z" />
    <glyph glyph-name="W" unicode="W" horiz-adv-x="940" 
d="M227 -12l-189 568q-6 14 -24 21l-23 9v34h254v-34l-38 -9q-24 -5 -11 -36l126 -382l111 303l-32 94q-5 15 -23 21l-30 9v34h260v-34l-40 -9q-21 -4 -12 -30l136 -388l126 379q6 17 2.5 26t-20.5 13l-40 9v34h192v-34l-24 -8q-15 -6 -23 -13.5t-16 -26.5l-211 -550h-80
l-134 385l-157 -385h-80z" />
    <glyph glyph-name="X" unicode="X" horiz-adv-x="620" 
d="M-3 0v34l28 8q36 11 56 37l166 204l-185 264q-19 26 -35 31l-22 8v34h271v-34l-37 -8q-28 -4 -11 -28l110 -157l102 147q18 24 -16 34l-41 12v34h218v-34l-28 -8q-35 -10 -56 -37l-149 -190l198 -281q18 -24 32 -28l25 -8v-34h-274v34l37 8q27 6 11 28l-120 170
l-116 -160q-9 -14 -5.5 -21.5t21.5 -12.5l41 -12v-34h-221z" />
    <glyph glyph-name="Y" unicode="Y" horiz-adv-x="604" 
d="M153 0v34l54 12q18 4 23 8t5 16v186l-182 294q-13 20 -29 25l-24 8v37h275v-34l-40 -11q-14 -4 -17 -10t4 -17l137 -225l115 224q12 22 -16 28l-46 11v34h192v-34l-25 -8q-20 -5 -36 -30l-158 -274v-204q0 -12 4.5 -16t23.5 -8l53 -12v-34h-313z" />
    <glyph glyph-name="Z" unicode="Z" horiz-adv-x="564" 
d="M27 0v26l338 551h-109q-82 0 -124 -12q-43 -56 -59 -130h-31l12 196q33 -11 104 -11h378v-23l-336 -550h109q90 0 133 16q41 38 76 134h31l-32 -197h-490z" />
    <glyph glyph-name="bracketleft" unicode="[" horiz-adv-x="303" 
d="M145 -200l146 12v-64h-245v1000h245v-64l-146 12v-896z" />
    <glyph glyph-name="backslash" unicode="\" horiz-adv-x="308" 
d="M234 -76l-220 764h60l220 -764h-60z" />
    <glyph glyph-name="bracketright" unicode="]" horiz-adv-x="303" 
d="M12 -188l146 -12v896l-146 -12v64h245v-1000h-245v64z" />
    <glyph glyph-name="asciicircum" unicode="^" 
d="M42 328l209 322h26l209 -322h-40l-180 217h-4l-180 -217h-40z" />
    <glyph glyph-name="underscore" unicode="_" horiz-adv-x="500" 
d="M0 -80h500v-57h-500v57z" />
    <glyph glyph-name="grave" unicode="`" horiz-adv-x="552" 
d="M312 536l-103 95q-25 23 -25 52q0 19 13 32t32 13q36 0 55 -45l55 -147h-27z" />
    <glyph glyph-name="a" unicode="a" horiz-adv-x="500" 
d="M26 108q0 57 45 87t125 50l95 24v58q0 55 -22.5 79t-69.5 24q-34 0 -60 -14l8 -16q15 -34 15 -50q0 -27 -16 -42.5t-45 -15.5q-26 0 -41.5 16t-15.5 42q0 41 59 79l20 12q64 39 134 39q84 0 127.5 -34t43.5 -110v-191q0 -73 8 -94q22 -12 61 -12v-26q-48 -25 -111 -25
q-79 0 -93 67h-2q-48 -67 -133 -67q-62 0 -97 31t-35 89zM215 53q43 0 76 31v150l-41 -12q-102 -35 -102 -99q0 -34 18 -52t49 -18z" />
    <glyph glyph-name="b" unicode="b" horiz-adv-x="576" 
d="M102 -12h-31q8 49 8 120v488q0 18 -6 25.5t-29 16.5l-25 9v28l174 33h34q-8 -67 -8 -153v-163q56 88 147 88q87 0 133.5 -60t46.5 -172q0 -115 -61 -187.5t-171 -72.5q-81 0 -124 45zM295 403q-42 0 -76 -36v-239q0 -44 21 -67.5t55 -23.5q54 0 83 51t29 148
q0 167 -112 167z" />
    <glyph glyph-name="c" unicode="c" horiz-adv-x="468" 
d="M28 236q0 113 67.5 178.5t174.5 65.5q68 0 116 -34.5t48 -88.5q0 -30 -17.5 -48t-44.5 -18q-28 0 -46 17.5t-18 44.5q0 32 28 60q-18 28 -61 28q-47 0 -76.5 -47.5t-29.5 -131.5q0 -92 40.5 -141t106.5 -49q59 0 106 47l9 -12q-55 -119 -183 -119q-98 0 -159 66t-61 182z
" />
    <glyph glyph-name="d" unicode="d" horiz-adv-x="584" 
d="M30 235q0 111 64 178t159 67q34 0 62.5 -11.5t41.5 -29.5v148q0 27 -7 36t-36 17l-32 10v25l190 33h33q-8 -65 -8 -144v-487q0 -11 5 -16t23 -11l36 -12v-26l-204 -24v80q-15 -31 -49.5 -55.5t-80.5 -24.5q-92 0 -144.5 62t-52.5 185zM290 65q45 0 67 28v322
q-27 15 -59 15q-58 0 -92 -48.5t-34 -141.5q0 -88 33.5 -131.5t84.5 -43.5z" />
    <glyph glyph-name="e" unicode="e" horiz-adv-x="488" 
d="M28 230q0 114 66 182t173 68q84 0 134.5 -41t50.5 -116q0 -26 -8 -58l-281 7v-19q0 -83 39.5 -132t110.5 -49q73 0 123 53l12 -11q-61 -126 -200 -126q-100 0 -160 64.5t-60 177.5zM263 441q-41 0 -66 -37t-30 -100l157 11q7 13 7 39q0 87 -68 87z" />
    <glyph glyph-name="f" unicode="f" horiz-adv-x="336" 
d="M20 402l16 54h49v28q0 109 60.5 166.5t165.5 57.5q99 0 99 -68q0 -24 -15.5 -38t-38.5 -14q-31 0 -47.5 25t-4.5 63q-79 0 -79 -144v-76h108v-54h-108v-333q0 -9 1.5 -13t7.5 -8t20 -6l56 -12v-30h-282v30l25 8q20 7 26 12t6 15v337h-65z" />
    <glyph glyph-name="g" unicode="g" horiz-adv-x="520" 
d="M74 46q0 61 106 105q-74 12 -112 56.5t-38 111.5q0 74 56 117.5t142 43.5q65 0 112.5 -27t69.5 -75q5 46 26 74t55 28q24 0 39 -13.5t15 -36.5q0 -27 -13.5 -42.5t-37.5 -15.5q-29 0 -54 32q-20 -25 -20 -78v-10q0 -78 -53.5 -123t-138.5 -45h-7q-49 -17 -49 -48
q0 -16 13 -22t45 -9l112 -9q139 -12 139 -112q0 -63 -45 -109t-110 -66.5t-138 -20.5q-85 0 -133.5 27.5t-48.5 77.5q0 41 39 71t95 43q-66 20 -66 75zM284 -46l-118 10q-49 -37 -49 -85q0 -41 31.5 -60.5t83.5 -19.5q55 0 92.5 26.5t37.5 73.5q0 26 -18 38.5t-60 16.5z
M228 183q70 0 70 137q0 125 -70 125t-70 -125q0 -137 70 -137z" />
    <glyph glyph-name="h" unicode="h" horiz-adv-x="608" 
d="M340 0v30l28 8q16 5 21 10t5 17v232q0 110 -78 110q-30 0 -54 -17.5t-37 -41.5v-283q0 -12 5 -17t21 -10l29 -8v-30h-249v30l28 8q16 5 21 10t5 17v529q0 17 -8 27.5t-29 18.5l-22 10v28l168 30h39q-8 -72 -8 -144v-181q51 97 156 97q77 0 115 -43t38 -118v-254
q0 -12 5 -17t21 -10l29 -8v-30h-249z" />
    <glyph glyph-name="i" unicode="i" horiz-adv-x="304" 
d="M160 570q-34 0 -55 18.5t-21 50.5t21 50.5t55 18.5t55 -18.5t21 -50.5t-20.5 -50.5t-55.5 -18.5zM32 0v30l28 8q16 5 21 10t5 17v301q0 18 -7 27.5t-28 18.5l-17 8v30l161 30h31v-415q0 -12 5 -17t21 -10l29 -8v-30h-249z" />
    <glyph glyph-name="j" unicode="j" horiz-adv-x="292" 
d="M157 570q-34 0 -55.5 18.5t-21.5 50.5t21.5 50.5t55.5 18.5t55 -18.5t21 -50.5t-21 -50.5t-55 -18.5zM-39 -115q41 0 54 -33.5t-4 -65.5q73 10 73 137v443q0 19 -6.5 28t-29.5 18l-18 8v27l163 33h31v-504q0 -104 -63.5 -164t-170.5 -60q-34 0 -61 19t-27 52q0 28 16 45
t43 17z" />
    <glyph glyph-name="k" unicode="k" horiz-adv-x="548" 
d="M30 0v30l28 8q16 5 21 10t5 17v529q0 17 -8 27.5t-29 18.5l-23 10v28l169 30h39q-8 -72 -8 -144v-499q0 -12 5 -17t21 -10l28 -8v-30h-248zM327 92l-81 147l-17 9v14q32 7 56 23l92 104q20 24 -15 32l-34 8v27h216v-27l-24 -5q-31 -7 -57 -31l-107 -96l83 -144
q50 -90 93 -115l30 -8v-30h-168q-27 20 -67 92z" />
    <glyph glyph-name="l" unicode="l" horiz-adv-x="300" 
d="M31 0v30l28 8q16 5 21 10t5 17v529q0 17 -8 27.5t-29 18.5l-22 10v28l168 30h39q-8 -72 -8 -144v-499q0 -12 5 -17t21 -10l29 -8v-30h-249z" />
    <glyph glyph-name="m" unicode="m" horiz-adv-x="904" 
d="M31 0v30l28 8q16 5 21 10t5 17v301q0 18 -7 27.5t-28 18.5l-18 8v30l162 30h31v-97q51 97 156 97q108 0 143 -97h2q51 97 156 97q74 0 112.5 -43.5t38.5 -117.5v-254q0 -12 5 -17t21 -10l29 -8v-30h-249v30l28 8q16 5 21 10t5 17v232q0 50 -15.5 80t-60.5 30
q-56 0 -88 -59v-283q0 -12 4.5 -17t21.5 -10l29 -8v-30h-249v30l28 8q16 5 21 10t5 17v232q0 24 -2 40.5t-9 34t-22.5 26.5t-39.5 9q-30 0 -54 -17.5t-37 -41.5v-283q0 -12 5 -17t21 -10l29 -8v-30h-249z" />
    <glyph glyph-name="n" unicode="n" horiz-adv-x="608" 
d="M31 0v30l28 8q16 5 21 10t5 17v301q0 17 -7 26.5t-28 19.5l-18 8v30l162 30h31v-97q51 97 156 97q77 0 115 -43t38 -118v-254q0 -12 5 -17t21 -10l29 -8v-30h-249v30l28 8q16 5 21 10t5 17v232q0 110 -78 110q-30 0 -54 -17.5t-37 -41.5v-283q0 -12 5 -17t21 -10l29 -8
v-30h-249z" />
    <glyph glyph-name="o" unicode="o" horiz-adv-x="552" 
d="M26 236q0 107 67.5 175.5t182.5 68.5q116 0 183 -67t67 -177q0 -107 -68 -177.5t-182 -70.5q-116 0 -183 68t-67 180zM177 236q0 -98 25 -154t74 -56q43 0 71 51.5t28 158.5q0 97 -25.5 151.5t-73.5 54.5q-45 0 -72 -50t-27 -156z" />
    <glyph glyph-name="p" unicode="p" horiz-adv-x="580" 
d="M83 -175v541q0 17 -7.5 26.5t-28.5 19.5l-17 8v30l162 30h31v-86q55 86 146 86q90 0 135.5 -59t45.5 -171q0 -116 -58.5 -189t-155.5 -73q-72 0 -113 41v-201q0 -12 6 -17t27 -10l48 -11v-30h-278v30l30 8q17 5 22 10t5 17zM299 403q-46 0 -76 -34v-310q18 -18 64 -18
q58 0 89.5 51.5t31.5 146.5q0 164 -109 164z" />
    <glyph glyph-name="q" unicode="q" horiz-adv-x="576" 
d="M30 235q0 111 64 178t159 67q32 0 62 -11.5t45 -28.5l105 40h32v-658q0 -11 6 -16.5t26 -10.5l26 -5v-30h-284v30l54 12q21 5 26.5 10t5.5 17v239q-15 -31 -49.5 -55.5t-80.5 -24.5q-92 0 -144.5 62t-52.5 185zM290 65q45 0 67 28v322q-27 15 -59 15q-58 0 -92 -48.5
t-34 -141.5q0 -88 33.5 -131.5t84.5 -43.5z" />
    <glyph glyph-name="r" unicode="r" horiz-adv-x="388" 
d="M31 0v30l28 8q16 5 21 10t5 17v301q0 18 -7 27.5t-28 18.5l-18 8v30l162 30h31v-111q16 46 43.5 78.5t64.5 32.5q25 0 42.5 -16t17.5 -45q0 -30 -13.5 -53.5t-26.5 -30.5q-20 36 -60 36q-32 0 -68 -30v-268q0 -15 6.5 -20t29.5 -11l48 -12v-30h-278z" />
    <glyph glyph-name="s" unicode="s" horiz-adv-x="440" 
d="M48 -12l-4 176h31q17 -73 40 -108q35 -32 85 -32q34 0 55 18t21 53q0 30 -15 48t-46 32l-71 31q-96 43 -96 132q0 71 56.5 106.5t139.5 35.5q68 0 108 -21l16 21h22v-152h-26q-11 50 -27 84q-35 33 -88 33q-31 0 -52 -17t-21 -48q0 -30 14 -45.5t45 -29.5l59 -25
q26 -12 41.5 -21t36.5 -25.5t31 -40t10 -52.5q0 -80 -58 -116.5t-155 -36.5q-60 0 -112 25l-16 -25h-24z" />
    <glyph glyph-name="t" unicode="t" horiz-adv-x="346" 
d="M64 120v282h-48v41q42 13 67 38q12 16 30.5 52.5t26.5 58.5h64v-136h119v-54h-119v-253q0 -49 14.5 -70t53.5 -21t66 27l12 -15q-51 -82 -147 -82q-69 0 -104 36t-35 96z" />
    <glyph glyph-name="u" unicode="u" horiz-adv-x="588" 
d="M72 156v219q0 17 -4.5 23t-23.5 13l-25 9v27l171 30h30q-8 -57 -8 -136v-162q0 -35 3.5 -57.5t21 -42t48.5 -19.5q29 0 53 16.5t36 40.5v245q0 24 -5.5 32t-26.5 15l-30 10v27l178 31h32q-8 -64 -8 -144v-255q0 -11 5 -17t20 -11l32 -12v-26l-197 -24v95
q-47 -95 -153 -95q-76 0 -112.5 45t-36.5 123z" />
    <glyph glyph-name="v" unicode="v" horiz-adv-x="457" 
d="M167 -12l-142 403q-10 28 -24 34l-9 4v27h228v-27l-29 -11q-21 -8 -14 -28l92 -268l89 254q7 19 3.5 27.5t-21.5 14.5l-32 11v27h154v-27l-9 -4q-17 -6 -27 -31l-157 -394z" />
    <glyph glyph-name="w" unicode="w" horiz-adv-x="704" 
d="M153 -12l-138 409q-5 16 -28 28l-9 4v27h230v-27l-31 -8q-25 -6 -17 -31l89 -265l77 184l-27 88q-5 17 -28 28l-9 4v27h230v-27l-31 -11q-14 -5 -17.5 -11t0.5 -17l80 -265l84 251q6 17 1.5 26.5t-22.5 15.5l-33 11v27h165v-27l-9 -4q-24 -11 -32 -34l-153 -391l-97 -12
l-78 244l-101 -232z" />
    <glyph glyph-name="x" unicode="x" horiz-adv-x="456" 
d="M-3 0v27l18 5q26 9 48 38l107 135l-123 193q-13 20 -35 27l-13 4v27h188q-4 -20 -3.5 -25.5t8.5 -18.5l70 -112l55 84q10 21 5 28.5t-27 11.5l-30 5v27h181v-27l-17 -5q-26 -8 -43 -31l-101 -129l131 -208q10 -17 33 -25l13 -4v-27h-183q3 24 1.5 29t-11.5 21l-76 119
l-64 -98q-20 -32 20 -39l30 -5v-27h-182z" />
    <glyph glyph-name="y" unicode="y" horiz-adv-x="444" 
d="M29 -104q28 0 44 -14.5t16 -39.5q0 -20 -9 -37q49 0 91 99l24 58l-174 429q-10 26 -27 34l-9 4v27h228v-27l-32 -11q-12 -5 -15 -11t1 -17l99 -256l85 242q7 17 3 26.5t-21 15.5l-32 11v27h154v-25l-9 -6q-17 -10 -26 -31l-195 -479q-15 -39 -26.5 -62t-31 -49.5
t-46.5 -39t-63 -12.5q-40 0 -67 21.5t-27 58.5q0 29 18 46.5t47 17.5z" />
    <glyph glyph-name="z" unicode="z" horiz-adv-x="448" 
d="M24 0v20l241 397h-105q-17 0 -24.5 -2.5t-13.5 -12.5l-60 -106h-28l6 124l-6 36h385v-23l-238 -393h111q18 0 30 18l75 119h30q-10 -46 -16 -116q-4 -43 -5 -61h-382z" />
    <glyph glyph-name="braceleft" unicode="{" horiz-adv-x="369" 
d="M154 -92v192q0 136 -142 136v38q142 0 142 136v178q0 82 51.5 127t151.5 45v-30q-54 0 -79 -32t-25 -104v-175q0 -71 -34 -110t-109 -54q75 -15 109 -54t34 -110v-189q0 -72 25 -104t79 -32v-30q-100 0 -151.5 45t-51.5 127z" />
    <glyph glyph-name="bar" unicode="|" horiz-adv-x="364" 
d="M136 -260v1000h92v-1000h-92z" />
    <glyph glyph-name="braceright" unicode="}" horiz-adv-x="369" 
d="M115 -98v189q0 71 34 110t109 54q-75 15 -109 54t-34 110v175q0 72 -24.5 104t-78.5 32v30q100 0 151.5 -45t51.5 -127v-178q0 -136 142 -136v-38q-142 0 -142 -136v-192q0 -82 -51.5 -127t-151.5 -45v30q54 0 78.5 32t24.5 104z" />
    <glyph glyph-name="asciitilde" unicode="~" 
d="M92 253h-27q0 56 30.5 94t80.5 38q42 0 106.5 -36t89.5 -36q27 0 46 21t22 43h27q0 -59 -30 -95.5t-81 -36.5q-43 0 -107 36t-89 36q-27 0 -45.5 -20.5t-22.5 -43.5z" />
    <glyph glyph-name="exclamdown" unicode="&#xa1;" horiz-adv-x="272" 
d="M136 320q-35 0 -56 20.5t-21 53.5t21 53.5t56 20.5t56 -20.5t21 -53.5t-21 -53.5t-56 -20.5zM58 -156q29 127 42.5 242t13.5 169h44q0 -54 13.5 -169t42.5 -242q-30 -24 -78 -24t-78 24z" />
    <glyph glyph-name="cent" unicode="&#xa2;" 
d="M23 304q0 141 77.5 221.5t196.5 89.5v65h36v-64q60 -4 120 -28l16 20h23l8 -175h-34q-19 67 -49 110q-31 31 -84 35v-548q49 2 75 26q36 42 59 112h34l-29 -151q-60 -25 -139 -29v-80h-36v80q-129 6 -201.5 86t-72.5 230zM164 308q0 -118 35.5 -191.5t97.5 -84.5v543
q-63 -12 -98 -87.5t-35 -179.5z" />
    <glyph glyph-name="sterling" unicode="&#xa3;" 
d="M42 292l20 52h68l6 60q10 100 73 156t161 56q57 0 94.5 -25t37.5 -61q0 -27 -13.5 -43.5t-39.5 -16.5q-28 0 -42.5 14t-14.5 36q0 32 25 45q-15 16 -44 16q-47 0 -70 -38.5t-30 -118.5l-7 -80h136v-52h-141l-4 -51q-3 -37 -19 -67.5t-38.5 -48.5t-44 -28.5t-41.5 -13.5
q69 0 150.5 -12.5t104.5 -12.5q54 0 75.5 20.5t21.5 71.5h30q0 -182 -152 -182q-44 0 -135.5 16t-164.5 16q-26 0 -44 -8v20l47 71q62 0 69 95l10 114h-84z" />
    <glyph glyph-name="currency" unicode="&#xa4;" 
d="M122 125l-60 54l53 43q-31 43 -31 102q0 58 31 101l-53 44l60 54l39 -53q46 30 103 30q56 0 103 -30l39 53l60 -54l-53 -44q31 -46 31 -101q0 -56 -31 -102l53 -43l-60 -54l-39 53q-45 -30 -103 -30q-60 0 -103 30zM264 204q48 0 82 32.5t34 87.5t-34 87.5t-82 32.5
t-82 -32.5t-34 -87.5t34 -87.5t82 -32.5z" />
    <glyph glyph-name="yen" unicode="&#xa5;" 
d="M63 238v46h121l-145 250q-12 20 -29 25l-24 8v37h268v-34l-34 -11q-14 -4 -16.5 -9.5t3.5 -17.5l116 -209l101 208q11 22 -16 28l-40 11v34h186v-34l-25 -8q-23 -6 -36 -30l-139 -248h131v-46h-136v-72h136v-46h-136v-50q0 -12 4.5 -16t23.5 -8l53 -12v-34h-313v34l54 12
q18 4 23 8t5 16v50h-136v46h136v72h-136z" />
    <glyph glyph-name="brokenbar" unicode="&#xa6;" horiz-adv-x="364" 
d="M136 388v352h92v-352h-92zM136 132h92v-392h-92v392z" />
    <glyph glyph-name="section" unicode="&#xa7;" horiz-adv-x="536" 
d="M120 -86q25 0 42.5 -14.5t17.5 -40.5q0 -27 -16 -48q28 -24 73 -24q38 0 63.5 20.5t25.5 59.5q0 33 -20 55.5t-62 47.5l-69 41q-60 35 -88 68.5t-28 92.5q0 108 142 168l-2 2q-44 27 -68.5 58.5t-24.5 81.5t32 86.5t75 52t89 15.5q76 0 124 -28t48 -75q0 -28 -16.5 -43.5
t-38.5 -15.5q-25 0 -42.5 14.5t-17.5 40.5q0 27 16 48q-28 24 -73 24q-38 0 -63.5 -20.5t-25.5 -59.5q0 -33 20 -55.5t61 -47.5l70 -41q60 -35 88 -68.5t28 -92.5q0 -109 -143 -169l3 -1q44 -27 68.5 -58.5t24.5 -81.5t-32 -86.5t-75 -52t-89 -15.5q-76 0 -124 28t-48 75
q0 28 16.5 43.5t38.5 15.5zM314 270l-88 54q-61 -50 -61 -113q0 -32 14 -52.5t46 -40.5l87 -55q62 50 62 114q0 32 -14.5 52.5t-45.5 40.5z" />
    <glyph glyph-name="dieresis" unicode="&#xa8;" horiz-adv-x="552" 
d="M378 533q-26 0 -43.5 18t-17.5 43q0 26 17.5 43t43.5 17q25 0 42.5 -17t17.5 -43q0 -25 -17.5 -43t-42.5 -18zM174 533q-26 0 -43 18t-17 43q0 26 17 43t43 17t43.5 -17t17.5 -43q0 -25 -17.5 -43t-43.5 -18z" />
    <glyph glyph-name="copyright" unicode="&#xa9;" horiz-adv-x="728" 
d="M33 312q0 137 98.5 230.5t232.5 93.5q140 0 234 -91t94 -233q0 -137 -97 -230.5t-231 -93.5q-141 0 -236 91t-95 233zM94 312q0 -120 76 -200.5t194 -80.5q117 0 192 80t75 201t-75 201t-192 80q-118 0 -194 -80.5t-76 -200.5zM174 312q0 81 59.5 130t153.5 49
q36 0 93 -22l13 15h16l8 -121h-23q-23 63 -35 78q-29 23 -72 23q-111 0 -111 -148q0 -75 30 -115.5t77 -40.5q43 0 70 20q18 18 40 74h24l-21 -102q-51 -20 -120 -20q-93 0 -147.5 53t-54.5 127z" />
    <glyph glyph-name="ordfeminine" unicode="&#xaa;" horiz-adv-x="400" 
d="M124 252q-49 0 -77 24t-28 71q0 24 10.5 41.5t32.5 29.5t41 19t51 16l71 19v39q0 39 -17 60.5t-50 21.5q-24 0 -46 -10q19 -27 19 -53q0 -23 -13 -36.5t-37 -13.5q-22 0 -34 13.5t-12 36.5q0 35 43 62l20 12q47 28 104 28q136 0 136 -115v-149q0 -49 6 -64q16 -9 47 -9
v-23q-42 -20 -91 -20q-63 0 -73 50q-40 -50 -103 -50zM170 310q28 0 55 23v107l-31 -9q-73 -23 -73 -66q0 -55 49 -55z" />
    <glyph glyph-name="guillemotleft" unicode="&#xab;" horiz-adv-x="388" 
d="M182 248v48l174 148v-44l-89 -124v-4l89 -128v-44zM194 100l-174 148v48l174 148v-44l-89 -124v-4l89 -128v-44z" />
    <glyph glyph-name="logicalnot" unicode="&#xac;" 
d="M37 283v70h455v-242h-77v172h-378z" />
    <glyph glyph-name="uni00AD" unicode="&#xad;" horiz-adv-x="284" 
d="M28 242v88h228v-88h-228z" />
    <glyph glyph-name="registered" unicode="&#xae;" horiz-adv-x="728" 
d="M33 312q0 137 98.5 230.5t232.5 93.5q140 0 234 -91t94 -233q0 -137 -97 -230.5t-231 -93.5q-141 0 -236 91t-95 233zM94 312q0 -120 76 -200.5t194 -80.5q117 0 192 80t75 201t-75 201t-192 80q-118 0 -194 -80.5t-76 -200.5zM191 144v23l25 8q16 9 17 12v255
q0 6 -2.5 7.5t-13.5 4.5l-26 8v26h187q136 0 136 -92q0 -39 -26.5 -62.5t-64.5 -30.5q13 -8 49 -57l28 -40q17 -23 34 -31l26 -8v-23h-109q-22 15 -50 60l-54 84h-26v-98q0 -8 2 -10t11 -4l31 -8v-24h-174zM321 316h22q40 0 62.5 21t22.5 57q0 62 -67 62h-7q-22 0 -33 -4
v-136z" />
    <glyph glyph-name="macron" unicode="&#xaf;" horiz-adv-x="552" 
d="M142 546v59h268v-59h-268z" />
    <glyph glyph-name="degree" unicode="&#xb0;" horiz-adv-x="432" 
d="M216 289q-78 0 -128 48.5t-50 123.5q0 74 52.5 124.5t125.5 50.5q79 0 128.5 -48t49.5 -124q0 -74 -52.5 -124.5t-125.5 -50.5zM216 344q47 0 77 33t30 87q0 53 -30 85.5t-77 32.5t-77 -33.5t-30 -87.5q0 -53 29.5 -85t77.5 -32z" />
    <glyph glyph-name="plusminus" unicode="&#xb1;" 
d="M36 313v70h190v172h76v-172h190v-70h-190v-183h-76v183h-190zM36 67h456v-67h-456v67z" />
    <glyph glyph-name="acute" unicode="&#xb4;" horiz-adv-x="552" 
d="M207 535l56 147q17 45 55 45q18 0 31 -13t13 -32q0 -29 -25 -52l-103 -95h-27z" />
    <glyph glyph-name="mu" unicode="&#xb5;" horiz-adv-x="564" 
d="M53 84q0 59 -4 202.5t-4 169.5h140v-272q0 -26 2.5 -45t10 -38.5t23.5 -30t40 -10.5q57 0 83 47v349h137v-355q0 -48 31 -48q29 0 54 31l12 -16q-34 -76 -127 -76q-39 0 -69.5 20t-36.5 59q-9 -32 -37 -55.5t-69 -23.5q-53 0 -70 37q12 -128 12 -193q0 -32 -17 -54
t-57 -22q-76 0 -76 73q0 57 11 137t11 114z" />
    <glyph glyph-name="paragraph" unicode="&#xb6;" horiz-adv-x="540" 
d="M278 200h-26q-38 0 -76.5 10.5t-75.5 33.5t-60.5 66.5t-23.5 101.5q0 60 24.5 103t65 64.5t82.5 31t88 9.5h264v-64h-57v-556h-67v556h-71v-804h-67v448z" />
    <glyph glyph-name="periodcentered" unicode="&#xb7;" horiz-adv-x="264" 
d="M136 180q-33 0 -55.5 21t-22.5 55t22.5 54.5t55.5 20.5q34 0 56 -20.5t22 -54.5q0 -35 -22 -55.5t-56 -20.5z" />
    <glyph glyph-name="cedilla" unicode="&#xb8;" horiz-adv-x="552" 
d="M236 -87q0 22 15.5 37.5t36.5 17.5l9 -4q-14 -14 -14 -30t19 -30.5t38 -33t19 -43.5q0 -79 -125 -79q-49 0 -85 23l25 39q23 -40 57 -40q22 0 35.5 12.5t13.5 33.5q0 24 -22 48t-22 49z" />
    <glyph glyph-name="ordmasculine" unicode="&#xba;" horiz-adv-x="440" 
d="M220 252q-91 0 -144 52.5t-53 139.5q0 82 53.5 135t143.5 53q91 0 144 -52.5t53 -139.5q0 -82 -53.5 -135t-143.5 -53zM220 286q72 0 72 154q0 158 -72 158t-72 -154q0 -158 72 -158z" />
    <glyph glyph-name="guillemotright" unicode="&#xbb;" horiz-adv-x="388" 
d="M194 100v44l89 128v4l-89 124v44l174 -148v-48zM32 100v44l89 128v4l-89 124v44l174 -148v-48z" />
    <glyph glyph-name="onequarter" unicode="&#xbc;" horiz-adv-x="912" 
d="M276 -12l348 648h75l-349 -648h-74zM56 261v30l74 11q11 2 14.5 5.5t3.5 11.5v231h-4l-92 -25l-8 30q35 11 94.5 36.5t80.5 41.5h37v-314q0 -5 1 -8t4 -4.5t5 -2t8 -2.5l61 -11v-30h-279zM525 92v24l179 237q16 0 47.5 7.5t37.5 11.5h21v-232h53v-48h-53v-43
q0 -10 11 -12l39 -8v-29h-217v29l49 8q14 2 14 12v43h-181zM584 140h122v162z" />
    <glyph glyph-name="onehalf" unicode="&#xbd;" horiz-adv-x="912" 
d="M245 -12l348 648h75l-349 -648h-74zM56 261v30l74 11q11 2 14.5 5.5t3.5 11.5v231h-4l-92 -25l-8 30q35 11 94.5 36.5t80.5 41.5h37v-314q0 -5 1 -8t4 -4.5t5 -2t8 -2.5l61 -11v-30h-279zM537 0v24l101 86q88 74 88 144q0 61 -72 61q-32 0 -55.5 -15t-23.5 -50
q0 -10 4 -25h-26q-4 15 -4 35q0 49 37 80.5t108 31.5q64 0 102 -27.5t38 -79.5q0 -27 -10 -50t-35 -45.5t-43.5 -36t-59.5 -39.5l-36 -24h146q14 0 23 9.5t35 50.5h23q-28 -82 -36 -130h-304z" />
    <glyph glyph-name="threequarters" unicode="&#xbe;" horiz-adv-x="912" 
d="M266 -12l349 648h75l-349 -648h-75zM175 253q-54 0 -90.5 17.5t-36.5 49.5q0 20 11.5 33t31.5 13q23 0 33.5 -16.5t15.5 -59.5q16 -9 35 -9q82 0 82 81q0 32 -21.5 50.5t-55.5 18.5q-23 0 -42 -9v35q107 10 107 74q0 24 -17 36.5t-45 12.5q-34 0 -60 -17.5t-26 -48.5h-26
q0 54 38.5 86.5t100.5 32.5q132 0 132 -87q0 -57 -80 -84q41 -4 70.5 -26.5t29.5 -63.5q0 -56 -52 -87.5t-135 -31.5zM525 92v24l179 237q16 0 47.5 7.5t37.5 11.5h21v-232h53v-48h-53v-43q0 -10 11 -12l39 -8v-29h-217v29l49 8q14 2 14 12v43h-181zM584 140h122v162z" />
    <glyph glyph-name="questiondown" unicode="&#xbf;" horiz-adv-x="460" 
d="M270 320q-35 0 -55.5 20.5t-20.5 53.5t20.5 53.5t55.5 20.5t56 -20.5t21 -53.5t-21 -53.5t-56 -20.5zM43 -40q0 65 35.5 105.5t102.5 79.5l21 13q42 26 42 61q0 25 -12 47h77q0 -31 -10 -55t-19 -33.5t-28 -26.5l-19 -18q-40 -37 -57.5 -72t-17.5 -93q0 -102 107 -102
q37 0 60 15q-15 41 -15 57q0 30 14.5 49.5t42.5 19.5q51 0 51 -57q0 -53 -65.5 -91.5t-132.5 -38.5q-78 0 -127.5 36.5t-49.5 103.5z" />
    <glyph glyph-name="Agrave" unicode="&#xc0;" horiz-adv-x="604" 
d="M-12 0v34l35 9q27 8 34 32l217 561h81l202 -564q8 -25 32 -31l25 -7v-34h-278v34l44 9q28 6 19 34l-33 93h-205l-32 -93q-10 -28 15 -34l46 -9v-34h-202zM264 464l-86 -245h171zM311 699l-103 95q-25 23 -25 52q0 19 13 32t32 13q36 0 55 -45l55 -147h-27z" />
    <glyph glyph-name="Aacute" unicode="&#xc1;" horiz-adv-x="604" 
d="M-12 0v34l35 9q27 8 34 32l217 561h81l202 -564q8 -25 32 -31l25 -7v-34h-278v34l44 9q28 6 19 34l-33 93h-205l-32 -93q-10 -28 15 -34l46 -9v-34h-202zM264 464l-86 -245h171zM287 698l56 146q16 46 55 46q18 0 31 -13.5t13 -31.5q0 -29 -25 -52l-103 -95h-27z" />
    <glyph glyph-name="Acircumflex" unicode="&#xc2;" horiz-adv-x="604" 
d="M-12 0v34l35 9q27 8 34 32l217 561h81l202 -564q8 -25 32 -31l25 -7v-34h-278v34l44 9q28 6 19 34l-33 93h-205l-32 -93q-10 -28 15 -34l46 -9v-34h-202zM264 464l-86 -245h171zM166 699l124 176h45l121 -176h-38l-104 85h-4l-106 -85h-38z" />
    <glyph glyph-name="Atilde" unicode="&#xc3;" horiz-adv-x="604" 
d="M-12 0v34l35 9q27 8 34 32l217 561h81l202 -564q8 -25 32 -31l25 -7v-34h-278v34l44 9q28 6 19 34l-33 93h-205l-32 -93q-10 -28 15 -34l46 -9v-34h-202zM264 464l-86 -245h171zM192 693h-27q0 47 22 82t69 35q32 0 70 -26t58 -26q23 0 35.5 15t12.5 37h26
q0 -49 -23.5 -83t-66.5 -34q-33 0 -71 26t-57 26q-25 0 -36.5 -15t-11.5 -37z" />
    <glyph glyph-name="Adieresis" unicode="&#xc4;" horiz-adv-x="604" 
d="M-12 0v34l35 9q27 8 34 32l217 561h81l202 -564q8 -25 32 -31l25 -7v-34h-278v34l44 9q28 6 19 34l-33 93h-205l-32 -93q-10 -28 15 -34l46 -9v-34h-202zM264 464l-86 -245h171zM413 696q-26 0 -43 17.5t-17 42.5q0 26 17 43.5t43 17.5t43.5 -17.5t17.5 -43.5
q0 -24 -17.5 -42t-43.5 -18zM210 696q-26 0 -43.5 18t-17.5 42q0 26 17.5 43.5t43.5 17.5q25 0 42.5 -17.5t17.5 -43.5q0 -24 -17.5 -42t-42.5 -18z" />
    <glyph glyph-name="Aring" unicode="&#xc5;" horiz-adv-x="604" 
d="M-12 0v34l35 9q27 8 34 32l217 561h81l202 -564q8 -25 32 -31l25 -7v-34h-278v34l44 9q28 6 19 34l-33 93h-205l-32 -93q-10 -28 15 -34l46 -9v-34h-202zM312 699q-43 0 -71 24.5t-28 63.5t28 63.5t71 24.5t70.5 -24.5t27.5 -63.5t-27.5 -63.5t-70.5 -24.5zM264 464
l-86 -245h171zM312 730q23 0 36.5 16.5t13.5 40.5q0 27 -13 42t-37 15t-37.5 -16.5t-13.5 -40.5q0 -27 13.5 -42t37.5 -15z" />
    <glyph glyph-name="AE" unicode="&#xc6;" horiz-adv-x="872" 
d="M-13 0v34l36 9q25 6 39 33l263 496l-56 14v34h449q48 0 80 8l17 -196h-31q-31 94 -54 121q-39 28 -122 28h-9q-28 0 -66 -8v-225h80q39 22 62 95h23v-241h-23q-21 70 -62 99h-80v-254q46 -8 75 -8h16q73 0 110 25q17 14 37 56t29 76h31l-25 -196h-496v34l45 12
q11 3 15 4.5t8 4t4.5 6t0.5 9.5v113h-195l-54 -106q-14 -29 10 -34l45 -9v-34h-202zM212 231h171v336z" />
    <glyph glyph-name="Ccedilla" unicode="&#xc7;" horiz-adv-x="664" 
d="M31 321q0 148 98.5 231.5t258.5 83.5q90 0 165 -35l20 27h22l7 -215h-28q-22 95 -52 137q-54 48 -133 48q-96 0 -148 -76.5t-52 -200.5q0 -138 54.5 -216t144.5 -78q80 0 119 37q35 42 71 142h28l-33 -185q-76 -33 -188 -33q-162 0 -258 88t-96 245zM337 -87
q0 22 15.5 37.5t36.5 17.5l9 -4q-14 -14 -14 -30t19 -30.5t38 -33t19 -43.5q0 -79 -126 -79q-48 0 -84 23l24 39q23 -40 57 -40q22 0 35.5 12.5t13.5 33.5q0 24 -21.5 48t-21.5 49z" />
    <glyph glyph-name="Egrave" unicode="&#xc8;" horiz-adv-x="604" 
d="M27 0v34l46 12q11 3 15 4.5t8 4t4.5 6t0.5 9.5v480q0 10 -5 14.5t-23 9.5l-46 12v34h423q48 0 80 8l17 -196h-31q-31 94 -54 121q-39 28 -130 28h-10q-37 0 -71 -8v-225h94q39 22 62 95h23v-241h-23q-21 70 -62 99h-94v-254q46 -8 81 -8h15q82 0 119 25q17 14 37 56
t29 76h31l-25 -196h-511zM338 692l-103 95q-25 25 -25 52q0 19 13 32t32 13q36 0 55 -45l55 -147h-27z" />
    <glyph glyph-name="Eacute" unicode="&#xc9;" horiz-adv-x="604" 
d="M27 0v34l46 12q11 3 15 4.5t8 4t4.5 6t0.5 9.5v480q0 10 -5 14.5t-23 9.5l-46 12v34h423q48 0 80 8l17 -196h-31q-31 94 -54 121q-39 28 -130 28h-10q-37 0 -71 -8v-225h94q39 22 62 95h23v-241h-23q-21 70 -62 99h-94v-254q46 -8 81 -8h15q82 0 119 25q17 14 37 56
t29 76h31l-25 -196h-511zM234 691l55 147q17 45 55 45q19 0 31.5 -13t12.5 -32q0 -29 -25 -52l-103 -95h-26z" />
    <glyph glyph-name="Ecircumflex" unicode="&#xca;" horiz-adv-x="604" 
d="M27 0v34l46 12q11 3 15 4.5t8 4t4.5 6t0.5 9.5v480q0 10 -5 14.5t-23 9.5l-46 12v34h423q48 0 80 8l17 -196h-31q-31 94 -54 121q-39 28 -130 28h-10q-37 0 -71 -8v-225h94q39 22 62 95h23v-241h-23q-21 70 -62 99h-94v-254q46 -8 81 -8h15q82 0 119 25q17 14 37 56
t29 76h31l-25 -196h-511zM156 692l124 176h46l121 -176h-38l-104 86h-4l-107 -86h-38z" />
    <glyph glyph-name="Edieresis" unicode="&#xcb;" horiz-adv-x="604" 
d="M27 0v34l46 12q11 3 15 4.5t8 4t4.5 6t0.5 9.5v480q0 10 -5 14.5t-23 9.5l-46 12v34h423q48 0 80 8l17 -196h-31q-31 94 -54 121q-39 28 -130 28h-10q-37 0 -71 -8v-225h94q39 22 62 95h23v-241h-23q-21 70 -62 99h-94v-254q46 -8 81 -8h15q82 0 119 25q17 14 37 56
t29 76h31l-25 -196h-511zM404 689q-26 0 -43.5 18t-17.5 43q0 26 17.5 43t43.5 17q25 0 43 -17t18 -43q0 -25 -18 -43t-43 -18zM200 689q-26 0 -43 18t-17 43q0 26 17 43t43 17t43.5 -17t17.5 -43q0 -25 -17.5 -43t-43.5 -18z" />
    <glyph glyph-name="Igrave" unicode="&#xcc;" horiz-adv-x="352" 
d="M27 0v34l46 12q11 3 15 4.5t8 4t4.5 6t0.5 9.5v480q0 6 -0.5 9.5t-4.5 6t-8 4t-15 4.5l-46 12v34h298v-34l-46 -12q-11 -3 -15 -4.5t-8 -4t-4.5 -6t-0.5 -9.5v-480q0 -6 0.5 -9.5t4.5 -6t8 -4t15 -4.5l46 -12v-34h-298zM209 692l-103 95q-25 23 -25 52q0 19 12.5 32
t31.5 13q38 0 55 -45l56 -147h-27z" />
    <glyph glyph-name="Iacute" unicode="&#xcd;" horiz-adv-x="352" 
d="M27 0v34l46 12q11 3 15 4.5t8 4t4.5 6t0.5 9.5v480q0 6 -0.5 9.5t-4.5 6t-8 4t-15 4.5l-46 12v34h298v-34l-46 -12q-11 -3 -15 -4.5t-8 -4t-4.5 -6t-0.5 -9.5v-480q0 -6 0.5 -9.5t4.5 -6t8 -4t15 -4.5l46 -12v-34h-298zM111 691l55 147q16 45 55 45q19 0 32 -13t13 -32
q0 -28 -26 -52l-102 -95h-27z" />
    <glyph glyph-name="Icircumflex" unicode="&#xce;" horiz-adv-x="352" 
d="M27 0v34l46 12q11 3 15 4.5t8 4t4.5 6t0.5 9.5v480q0 6 -0.5 9.5t-4.5 6t-8 4t-15 4.5l-46 12v34h298v-34l-46 -12q-11 -3 -15 -4.5t-8 -4t-4.5 -6t-0.5 -9.5v-480q0 -6 0.5 -9.5t4.5 -6t8 -4t15 -4.5l46 -12v-34h-298zM30 692l124 176h46l121 -176h-38l-104 86h-4
l-107 -86h-38z" />
    <glyph glyph-name="Idieresis" unicode="&#xcf;" horiz-adv-x="352" 
d="M27 0v34l46 12q11 3 15 4.5t8 4t4.5 6t0.5 9.5v480q0 6 -0.5 9.5t-4.5 6t-8 4t-15 4.5l-46 12v34h298v-34l-46 -12q-11 -3 -15 -4.5t-8 -4t-4.5 -6t-0.5 -9.5v-480q0 -6 0.5 -9.5t4.5 -6t8 -4t15 -4.5l46 -12v-34h-298zM278 689q-26 0 -43.5 18t-17.5 43q0 26 17.5 43
t43.5 17q25 0 42.5 -17t17.5 -43q0 -25 -17.5 -43t-42.5 -18zM74 689q-26 0 -43 18t-17 43q0 26 17 43t43 17t43.5 -17t17.5 -43q0 -25 -17.5 -43t-43.5 -18z" />
    <glyph glyph-name="Eth" unicode="&#xd0;" horiz-adv-x="720" 
d="M34 301v42h70v207q0 6 -0.5 9.5t-4.5 6t-8 4t-15 4.5l-46 12v34h314q160 0 254.5 -80t94.5 -227q0 -135 -85.5 -224t-234.5 -89h-343v34l46 12q11 3 15 4.5t8 4t4.5 6t0.5 9.5v231h-70zM333 584h-16q-29 0 -63 -8v-233h94v-42h-94v-254q38 -8 75 -8h13q98 0 146.5 73.5
t48.5 199.5q0 56 -10.5 102.5t-33 86t-63.5 61.5t-97 22z" />
    <glyph glyph-name="Ntilde" unicode="&#xd1;" horiz-adv-x="724" 
d="M7 0v34l60 12q17 4 21.5 7.5t6.5 16.5q4 40 4 116v358q0 12 -5 17t-23 10l-57 15v34h213l339 -396v210q0 76 -4 116q-2 12 -8 16t-24 8l-68 12v34h252v-34l-54 -12q-17 -4 -21.5 -7.5t-6.5 -16.5q-4 -40 -4 -116v-445h-65l-400 474v-277q0 -76 4 -116q2 -12 8 -16t24 -8
l68 -12v-34h-260zM243 686h-27q0 47 22 82t69 35q33 0 70 -26t58 -26q23 0 35.5 15t12.5 37h27q0 -49 -24 -83t-67 -34q-32 0 -70.5 26t-57.5 26q-25 0 -36.5 -15t-11.5 -37z" />
    <glyph glyph-name="Ograve" unicode="&#xd2;" horiz-adv-x="728" 
d="M30 316q0 142 91 231t243 89q153 0 243.5 -88.5t90.5 -231.5q0 -144 -91 -236t-243 -92t-243 92t-91 236zM191 316q0 -57 8.5 -105.5t27.5 -91.5t54 -67.5t83 -24.5t83 25t54 68t27.5 91.5t8.5 104.5t-8.5 103.5t-27.5 88.5t-54 65t-83 24t-83 -24t-54 -65t-27.5 -88.5
t-8.5 -103.5zM400 692l-103 95q-25 23 -25 52q0 19 13 32t32 13q36 0 55 -45l55 -147h-27z" />
    <glyph glyph-name="Oacute" unicode="&#xd3;" horiz-adv-x="728" 
d="M30 316q0 142 91 231t243 89q153 0 243.5 -88.5t90.5 -231.5q0 -144 -91 -236t-243 -92t-243 92t-91 236zM191 316q0 -57 8.5 -105.5t27.5 -91.5t54 -67.5t83 -24.5t83 25t54 68t27.5 91.5t8.5 104.5t-8.5 103.5t-27.5 88.5t-54 65t-83 24t-83 -24t-54 -65t-27.5 -88.5
t-8.5 -103.5zM295 691l56 147q17 45 55 45q18 0 31 -13t13 -32q0 -29 -25 -52l-103 -95h-27z" />
    <glyph glyph-name="Ocircumflex" unicode="&#xd4;" horiz-adv-x="728" 
d="M30 316q0 142 91 231t243 89q153 0 243.5 -88.5t90.5 -231.5q0 -144 -91 -236t-243 -92t-243 92t-91 236zM191 316q0 -57 8.5 -105.5t27.5 -91.5t54 -67.5t83 -24.5t83 25t54 68t27.5 91.5t8.5 104.5t-8.5 103.5t-27.5 88.5t-54 65t-83 24t-83 -24t-54 -65t-27.5 -88.5
t-8.5 -103.5zM218 692l124 176h46l121 -176h-38l-104 86h-4l-107 -86h-38z" />
    <glyph glyph-name="Otilde" unicode="&#xd5;" horiz-adv-x="728" 
d="M30 316q0 142 91 231t243 89q153 0 243.5 -88.5t90.5 -231.5q0 -144 -91 -236t-243 -92t-243 92t-91 236zM191 316q0 -57 8.5 -105.5t27.5 -91.5t54 -67.5t83 -24.5t83 25t54 68t27.5 91.5t8.5 104.5t-8.5 103.5t-27.5 88.5t-54 65t-83 24t-83 -24t-54 -65t-27.5 -88.5
t-8.5 -103.5zM244 686h-27q0 47 22 82t69 35q32 0 69.5 -26t58.5 -26q23 0 35.5 15t12.5 37h27q0 -49 -24 -83t-67 -34q-32 0 -70.5 26t-57.5 26q-25 0 -36.5 -15t-11.5 -37z" />
    <glyph glyph-name="Odieresis" unicode="&#xd6;" horiz-adv-x="728" 
d="M30 316q0 142 91 231t243 89q153 0 243.5 -88.5t90.5 -231.5q0 -144 -91 -236t-243 -92t-243 92t-91 236zM191 316q0 -57 8.5 -105.5t27.5 -91.5t54 -67.5t83 -24.5t83 25t54 68t27.5 91.5t8.5 104.5t-8.5 103.5t-27.5 88.5t-54 65t-83 24t-83 -24t-54 -65t-27.5 -88.5
t-8.5 -103.5zM466 689q-26 0 -43.5 18t-17.5 43q0 26 17.5 43t43.5 17q25 0 42.5 -17t17.5 -43q0 -25 -17.5 -43t-42.5 -18zM262 689q-26 0 -43 18t-17 43q0 26 17 43t43 17t43.5 -17t17.5 -43q0 -25 -17.5 -43t-43.5 -18z" />
    <glyph glyph-name="multiply" unicode="&#xd7;" 
d="M80 82l-49 49l174 182l-173 180l52 52l172 -178l172 179l49 -49l-173 -181l177 -185l-52 -52l-176 184z" />
    <glyph glyph-name="Oslash" unicode="&#xd8;" horiz-adv-x="728" 
d="M30 316q0 142 91 231t243 89q86 0 158 -32l39 64h43l-50 -81q144 -88 144 -271q0 -144 -91 -236t-243 -92q-85 0 -157 32l-40 -65h-43l51 83q-69 43 -107 115.5t-38 162.5zM191 316q0 -124 35 -195l256 418q-45 58 -118 58q-48 0 -83 -24t-54 -65t-27.5 -88.5
t-8.5 -103.5zM537 316q0 113 -34 187l-256 -418q43 -58 117 -58q48 0 83 25t54 68t27.5 91.5t8.5 104.5z" />
    <glyph glyph-name="Ugrave" unicode="&#xd9;" horiz-adv-x="704" 
d="M95 232v315q0 22 -21 27l-41 9v37h281v-37l-54 -12q-11 -2 -14.5 -7t-3.5 -17v-315q0 -96 33.5 -139.5t105.5 -43.5q84 0 127.5 51t43.5 140v306q0 12 -5.5 17t-22.5 8l-64 12v37h219v-37l-45 -11q-20 -4 -20 -24v-308q0 -121 -66 -186.5t-191 -65.5q-262 0 -262 244z
M422 692l-103 95q-25 23 -25 52q0 19 13 32t31 13q38 0 55 -45l56 -147h-27z" />
    <glyph glyph-name="Uacute" unicode="&#xda;" horiz-adv-x="704" 
d="M95 232v315q0 22 -21 27l-41 9v37h281v-37l-54 -12q-11 -2 -14.5 -7t-3.5 -17v-315q0 -96 33.5 -139.5t105.5 -43.5q84 0 127.5 51t43.5 140v306q0 12 -5.5 17t-22.5 8l-64 12v37h219v-37l-45 -11q-20 -4 -20 -24v-308q0 -121 -66 -186.5t-191 -65.5q-262 0 -262 244z
M317 691l55 147q19 45 55 45q19 0 32 -13t13 -32q0 -29 -25 -52l-103 -95h-27z" />
    <glyph glyph-name="Ucircumflex" unicode="&#xdb;" horiz-adv-x="704" 
d="M95 232v315q0 22 -21 27l-41 9v37h281v-37l-54 -12q-11 -2 -14.5 -7t-3.5 -17v-315q0 -96 33.5 -139.5t105.5 -43.5q84 0 127.5 51t43.5 140v306q0 12 -5.5 17t-22.5 8l-64 12v37h219v-37l-45 -11q-20 -4 -20 -24v-308q0 -121 -66 -186.5t-191 -65.5q-262 0 -262 244z
M240 692l124 176h45l121 -176h-37l-104 86h-4l-107 -86h-38z" />
    <glyph glyph-name="Udieresis" unicode="&#xdc;" horiz-adv-x="704" 
d="M95 232v315q0 22 -21 27l-41 9v37h281v-37l-54 -12q-11 -2 -14.5 -7t-3.5 -17v-315q0 -96 33.5 -139.5t105.5 -43.5q84 0 127.5 51t43.5 140v306q0 12 -5.5 17t-22.5 8l-64 12v37h219v-37l-45 -11q-20 -4 -20 -24v-308q0 -121 -66 -186.5t-191 -65.5q-262 0 -262 244z
M488 689q-26 0 -43.5 18t-17.5 43q0 26 17.5 43t43.5 17q25 0 42.5 -17t17.5 -43q0 -25 -17.5 -43t-42.5 -18zM284 689q-26 0 -43.5 18t-17.5 43q0 26 17.5 43t43.5 17q25 0 43 -17t18 -43q0 -25 -18 -43t-43 -18z" />
    <glyph glyph-name="Yacute" unicode="&#xdd;" horiz-adv-x="604" 
d="M153 0v34l54 12q18 4 23 8t5 16v186l-182 294q-13 20 -29 25l-24 8v37h275v-34l-40 -11q-14 -4 -17 -10t4 -17l137 -225l115 224q12 22 -16 28l-46 11v34h192v-34l-25 -8q-20 -5 -36 -30l-158 -274v-204q0 -12 4.5 -16t23.5 -8l53 -12v-34h-313zM260 691l55 147
q19 45 55 45q19 0 32 -13t13 -32q0 -29 -25 -52l-103 -95h-27z" />
    <glyph glyph-name="Thorn" unicode="&#xde;" horiz-adv-x="580" 
d="M27 0v34l46 12q11 3 15 4.5t8 4t4.5 6t0.5 9.5v480q0 6 -0.5 9.5t-4.5 6t-8 4t-15 4.5l-46 12v34h298v-34l-46 -12q-11 -3 -15 -4.5t-8 -4t-4.5 -6t-0.5 -9.5v-43h89q110 0 169.5 -44t59.5 -130q0 -101 -59.5 -154t-165.5 -53q-49 0 -93 14v-70q0 -6 0.5 -9.5t4.5 -6
t8 -4t15 -4.5l46 -12v-34h-298zM307 468h-6q-26 0 -50 -8v-294h18q158 0 158 166q0 136 -120 136z" />
    <glyph glyph-name="germandbls" unicode="&#xdf;" horiz-adv-x="624" 
d="M20 402l16 54h49v28q0 106 75 165t182 59q82 0 138 -35.5t56 -93.5q0 -16 -4 -29t-8 -21.5t-15.5 -19t-17 -15t-22 -15.5t-21.5 -15q-38 -29 -38 -64q0 -38 51 -76l64 -46q81 -55 81 -140q0 -70 -49.5 -110t-137.5 -40q-64 0 -115 22l-12 133h24q12 -59 35 -95
q25 -25 68 -25q32 0 50.5 19.5t18.5 55.5q0 46 -48 81l-61 45q-35 25 -54.5 52.5t-19.5 68.5q0 29 13.5 53t28.5 35.5t39.5 27t32.5 21.5q34 25 34 85q0 48 -29.5 77t-79.5 29q-53 0 -86 -37t-33 -118v-467q0 -17 5 -18l16 -12v-21h-218v30l25 8q18 6 25 10.5t7 13.5v340
h-65z" />
    <glyph glyph-name="agrave" unicode="&#xe0;" horiz-adv-x="500" 
d="M26 108q0 57 45 87t125 50l95 24v58q0 55 -22.5 79t-69.5 24q-34 0 -60 -14l8 -16q15 -34 15 -50q0 -27 -16 -42.5t-45 -15.5q-26 0 -41.5 16t-15.5 42q0 41 59 79l20 12q64 39 134 39q84 0 127.5 -34t43.5 -110v-191q0 -73 8 -94q22 -12 61 -12v-26q-48 -25 -111 -25
q-79 0 -93 67h-2q-48 -67 -133 -67q-62 0 -97 31t-35 89zM215 53q43 0 76 31v150l-41 -12q-102 -35 -102 -99q0 -34 18 -52t49 -18zM282 536l-103 95q-25 25 -25 52q0 19 13 32t32 13q36 0 55 -45l55 -147h-27z" />
    <glyph glyph-name="aacute" unicode="&#xe1;" horiz-adv-x="500" 
d="M26 108q0 57 45 87t125 50l95 24v58q0 55 -22.5 79t-69.5 24q-34 0 -60 -14l8 -16q15 -34 15 -50q0 -27 -16 -42.5t-45 -15.5q-26 0 -41.5 16t-15.5 42q0 41 59 79l20 12q64 39 134 39q84 0 127.5 -34t43.5 -110v-191q0 -73 8 -94q22 -12 61 -12v-26q-48 -25 -111 -25
q-79 0 -93 67h-2q-48 -67 -133 -67q-62 0 -97 31t-35 89zM215 53q43 0 76 31v150l-41 -12q-102 -35 -102 -99q0 -34 18 -52t49 -18zM178 535l55 147q16 45 55 45q19 0 32 -13t13 -32q0 -28 -26 -52l-102 -95h-27z" />
    <glyph glyph-name="acircumflex" unicode="&#xe2;" horiz-adv-x="500" 
d="M26 108q0 57 45 87t125 50l95 24v58q0 55 -22.5 79t-69.5 24q-34 0 -60 -14l8 -16q15 -34 15 -50q0 -27 -16 -42.5t-45 -15.5q-26 0 -41.5 16t-15.5 42q0 41 59 79l20 12q64 39 134 39q84 0 127.5 -34t43.5 -110v-191q0 -73 8 -94q22 -12 61 -12v-26q-48 -25 -111 -25
q-79 0 -93 67h-2q-48 -67 -133 -67q-62 0 -97 31t-35 89zM101 536l124 176h45l121 -176h-38l-104 86h-4l-107 -86h-37zM215 53q43 0 76 31v150l-41 -12q-102 -35 -102 -99q0 -34 18 -52t49 -18z" />
    <glyph glyph-name="atilde" unicode="&#xe3;" horiz-adv-x="500" 
d="M26 108q0 57 45 87t125 50l95 24v58q0 55 -22.5 79t-69.5 24q-34 0 -60 -14l8 -16q15 -34 15 -50q0 -27 -16 -42.5t-45 -15.5q-26 0 -41.5 16t-15.5 42q0 41 59 79l20 12q64 39 134 39q84 0 127.5 -34t43.5 -110v-191q0 -73 8 -94q22 -12 61 -12v-26q-48 -25 -111 -25
q-79 0 -93 67h-2q-48 -67 -133 -67q-62 0 -97 31t-35 89zM126 530h-27q0 47 22 82t69 35q32 0 70 -26t58 -26q23 0 35.5 15t12.5 37h27q0 -49 -24 -83t-67 -34q-32 0 -70.5 26t-57.5 26q-25 0 -36.5 -15t-11.5 -37zM215 53q43 0 76 31v150l-41 -12q-102 -35 -102 -99
q0 -34 18 -52t49 -18z" />
    <glyph glyph-name="adieresis" unicode="&#xe4;" horiz-adv-x="500" 
d="M26 108q0 57 45 87t125 50l95 24v58q0 55 -22.5 79t-69.5 24q-34 0 -60 -14l8 -16q15 -34 15 -50q0 -27 -16 -42.5t-45 -15.5q-26 0 -41.5 16t-15.5 42q0 41 59 79l20 12q64 39 134 39q84 0 127.5 -34t43.5 -110v-191q0 -73 8 -94q22 -12 61 -12v-26q-48 -25 -111 -25
q-79 0 -93 67h-2q-48 -67 -133 -67q-62 0 -97 31t-35 89zM215 53q43 0 76 31v150l-41 -12q-102 -35 -102 -99q0 -34 18 -52t49 -18zM348 533q-26 0 -43.5 18t-17.5 43q0 26 17.5 43t43.5 17q25 0 43 -17t18 -43q0 -25 -18 -43t-43 -18zM145 533q-26 0 -43.5 18t-17.5 43
q0 26 17.5 43t43.5 17q25 0 42.5 -17t17.5 -43q0 -25 -17.5 -43t-42.5 -18z" />
    <glyph glyph-name="aring" unicode="&#xe5;" horiz-adv-x="500" 
d="M26 108q0 57 45 87t125 50l95 24v58q0 55 -22.5 79t-69.5 24q-34 0 -60 -14l8 -16q15 -34 15 -50q0 -27 -16 -42.5t-45 -15.5q-26 0 -41.5 16t-15.5 42q0 41 59 79l20 12q64 39 134 39q84 0 127.5 -34t43.5 -110v-191q0 -73 8 -94q22 -12 61 -12v-26q-48 -25 -111 -25
q-79 0 -93 67h-2q-48 -67 -133 -67q-62 0 -97 31t-35 89zM246 536q-43 0 -71 24.5t-28 63.5t28 63.5t71 24.5t71 -24.5t28 -63.5t-28 -63.5t-71 -24.5zM215 53q43 0 76 31v150l-41 -12q-102 -35 -102 -99q0 -34 18 -52t49 -18zM246 567q24 0 37.5 16.5t13.5 40.5
q0 57 -51 57q-23 0 -36.5 -16.5t-13.5 -40.5q0 -27 13 -42t37 -15z" />
    <glyph glyph-name="ae" unicode="&#xe6;" horiz-adv-x="747" 
d="M101 292q-26 0 -41.5 16t-15.5 42q0 41 59 79l20 12q64 39 134 39q83 0 126 -42q61 42 143 42q86 0 135.5 -40.5t49.5 -116.5q0 -26 -8 -58l-281 7v-19q0 -83 40 -132t111 -49q72 0 122 53l12 -11q-59 -126 -200 -126q-112 0 -172 80q-71 -81 -177 -80q-62 1 -97 31.5
t-35 88.5q0 57 45 87t125 50l92 22v60q0 54 -21.5 78.5t-67.5 24.5q-34 0 -60 -14l8 -16q15 -34 15 -50q0 -27 -16 -42.5t-45 -15.5zM288 230v2l-38 -10q-102 -35 -102 -99q0 -34 18 -52t49 -18q63 0 105 37q-32 59 -32 140zM522 441q-41 0 -65.5 -37t-30.5 -99l157 10
q7 13 7 39q0 87 -68 87z" />
    <glyph glyph-name="ccedilla" unicode="&#xe7;" horiz-adv-x="468" 
d="M28 236q0 113 67.5 178.5t174.5 65.5q68 0 116 -34.5t48 -88.5q0 -30 -17.5 -48t-44.5 -18q-28 0 -46 17.5t-18 44.5q0 32 28 60q-18 28 -61 28q-47 0 -76.5 -47.5t-29.5 -131.5q0 -92 40.5 -141t106.5 -49q59 0 106 47l9 -12q-55 -119 -183 -119q-98 0 -159 66t-61 182z
M207 -87q0 22 15.5 37.5t36.5 17.5l9 -4q-14 -14 -14 -30t19 -30.5t38 -33t19 -43.5q0 -79 -126 -79q-48 0 -84 23l24 39q23 -40 58 -40q22 0 35.5 12.5t13.5 33.5q0 24 -22 48t-22 49z" />
    <glyph glyph-name="egrave" unicode="&#xe8;" horiz-adv-x="488" 
d="M28 230q0 114 66 182t173 68q84 0 134.5 -41t50.5 -116q0 -26 -8 -58l-281 7v-19q0 -83 39.5 -132t110.5 -49q73 0 123 53l12 -11q-61 -126 -200 -126q-100 0 -160 64.5t-60 177.5zM263 441q-41 0 -66 -37t-30 -100l157 11q7 13 7 39q0 87 -68 87zM291 536l-103 95
q-25 23 -25 52q0 19 12.5 32t31.5 13q38 0 55 -45l55 -147h-26z" />
    <glyph glyph-name="eacute" unicode="&#xe9;" horiz-adv-x="488" 
d="M28 230q0 114 66 182t173 68q84 0 134.5 -41t50.5 -116q0 -26 -8 -58l-281 7v-19q0 -83 39.5 -132t110.5 -49q73 0 123 53l12 -11q-61 -126 -200 -126q-100 0 -160 64.5t-60 177.5zM263 441q-41 0 -66 -37t-30 -100l157 11q7 13 7 39q0 87 -68 87zM186 535l55 147
q19 45 55 45q19 0 32 -13t13 -32q0 -29 -25 -52l-103 -95h-27z" />
    <glyph glyph-name="ecircumflex" unicode="&#xea;" horiz-adv-x="488" 
d="M28 230q0 114 66 182t173 68q84 0 134.5 -41t50.5 -116q0 -26 -8 -58l-281 7v-19q0 -83 39.5 -132t110.5 -49q73 0 123 53l12 -11q-61 -126 -200 -126q-100 0 -160 64.5t-60 177.5zM109 536l124 176h45l121 -176h-38l-104 86h-4l-106 -86h-38zM263 441q-41 0 -66 -37
t-30 -100l157 11q7 13 7 39q0 87 -68 87z" />
    <glyph glyph-name="edieresis" unicode="&#xeb;" horiz-adv-x="488" 
d="M28 230q0 114 66 182t173 68q84 0 134.5 -41t50.5 -116q0 -26 -8 -58l-281 7v-19q0 -83 39.5 -132t110.5 -49q73 0 123 53l12 -11q-61 -126 -200 -126q-100 0 -160 64.5t-60 177.5zM263 441q-41 0 -66 -37t-30 -100l157 11q7 13 7 39q0 87 -68 87zM356 533q-26 0 -43 18
t-17 43q0 26 17 43t43 17t43.5 -17t17.5 -43q0 -25 -17.5 -43t-43.5 -18zM153 533q-26 0 -43.5 18t-17.5 43q0 26 17.5 43t43.5 17q25 0 42.5 -17t17.5 -43q0 -25 -17.5 -43t-42.5 -18z" />
    <glyph glyph-name="igrave" unicode="&#xec;" horiz-adv-x="304" 
d="M32 0v30l28 8q16 5 21 10t5 17v301q0 18 -7 27.5t-28 18.5l-17 8v30l161 30h31v-415q0 -12 5 -17t21 -10l29 -8v-30h-249zM186 536l-103 95q-25 23 -25 52q0 19 13 32t32 13q36 0 55 -45l55 -147h-27z" />
    <glyph glyph-name="iacute" unicode="&#xed;" horiz-adv-x="304" 
d="M32 0v30l28 8q16 5 21 10t5 17v301q0 18 -7 27.5t-28 18.5l-17 8v30l161 30h31v-415q0 -12 5 -17t21 -10l29 -8v-30h-249zM88 535l56 147q17 45 54 45q19 0 32 -13t13 -32q0 -29 -25 -52l-103 -95h-27z" />
    <glyph glyph-name="icircumflex" unicode="&#xee;" horiz-adv-x="304" 
d="M32 0v30l28 8q16 5 21 10t5 17v301q0 18 -7 27.5t-28 18.5l-17 8v30l161 30h31v-415q0 -12 5 -17t21 -10l29 -8v-30h-249zM8 536l124 176h45l121 -176h-38l-104 86h-4l-107 -86h-37z" />
    <glyph glyph-name="idieresis" unicode="&#xef;" horiz-adv-x="304" 
d="M32 0v30l28 8q16 5 21 10t5 17v301q0 18 -7 27.5t-28 18.5l-17 8v30l161 30h31v-415q0 -12 5 -17t21 -10l29 -8v-30h-249zM255 533q-26 0 -43 18t-17 43q0 26 17 43t43 17t43.5 -17t17.5 -43q0 -25 -17.5 -43t-43.5 -18zM52 533q-26 0 -43.5 18t-17.5 43q0 26 17.5 43
t43.5 17q25 0 42.5 -17t17.5 -43q0 -25 -17.5 -43t-42.5 -18z" />
    <glyph glyph-name="eth" unicode="&#xf0;" horiz-adv-x="552" 
d="M216 485v46l89 57q-60 66 -199 78v46q169 -5 273 -76l119 77v-46l-87 -56q115 -104 115 -296q0 -154 -62.5 -240.5t-191.5 -86.5q-123 0 -184.5 61.5t-61.5 162.5q0 103 58 168t162 65q81 0 126 -52q-7 99 -44 164zM275 26q18 0 33 7t25 22.5t17.5 31t12 42t7 46t4 52.5
t1.5 50.5v51.5v17q-48 41 -92 41q-53 0 -79.5 -55t-26.5 -136q0 -73 25 -121.5t73 -48.5z" />
    <glyph glyph-name="ntilde" unicode="&#xf1;" horiz-adv-x="608" 
d="M31 0v30l28 8q16 5 21 10t5 17v301q0 17 -7 26.5t-28 19.5l-18 8v30l162 30h31v-97q51 97 156 97q77 0 115 -43t38 -118v-254q0 -12 5 -17t21 -10l29 -8v-30h-249v30l28 8q16 5 21 10t5 17v232q0 110 -78 110q-30 0 -54 -17.5t-37 -41.5v-283q0 -12 5 -17t21 -10l29 -8
v-30h-249zM184 530h-27q0 47 22 82t69 35q32 0 70 -26t58 -26q23 0 35.5 15t12.5 37h27q0 -49 -24 -83t-67 -34q-32 0 -70.5 26t-57.5 26q-25 0 -36.5 -15t-11.5 -37z" />
    <glyph glyph-name="ograve" unicode="&#xf2;" horiz-adv-x="552" 
d="M26 236q0 107 67.5 175.5t182.5 68.5q116 0 183 -67t67 -177q0 -107 -68 -177.5t-182 -70.5q-116 0 -183 68t-67 180zM177 236q0 -98 25 -154t74 -56q43 0 71 51.5t28 158.5q0 97 -25.5 151.5t-73.5 54.5q-45 0 -72 -50t-27 -156zM312 536l-103 95q-25 23 -25 52
q0 19 13 32t32 13q36 0 55 -45l55 -147h-27z" />
    <glyph glyph-name="oacute" unicode="&#xf3;" horiz-adv-x="552" 
d="M26 236q0 107 67.5 175.5t182.5 68.5q116 0 183 -67t67 -177q0 -107 -68 -177.5t-182 -70.5q-116 0 -183 68t-67 180zM177 236q0 -98 25 -154t74 -56q43 0 71 51.5t28 158.5q0 97 -25.5 151.5t-73.5 54.5q-45 0 -72 -50t-27 -156zM207 535l56 147q17 45 55 45
q18 0 31 -13t13 -32q0 -29 -25 -52l-103 -95h-27z" />
    <glyph glyph-name="ocircumflex" unicode="&#xf4;" horiz-adv-x="552" 
d="M26 236q0 107 67.5 175.5t182.5 68.5q116 0 183 -67t67 -177q0 -107 -68 -177.5t-182 -70.5q-116 0 -183 68t-67 180zM177 236q0 -98 25 -154t74 -56q43 0 71 51.5t28 158.5q0 97 -25.5 151.5t-73.5 54.5q-45 0 -72 -50t-27 -156zM130 536l124 176h46l121 -176h-38
l-104 86h-4l-107 -86h-38z" />
    <glyph glyph-name="otilde" unicode="&#xf5;" horiz-adv-x="552" 
d="M26 236q0 107 67.5 175.5t182.5 68.5q116 0 183 -67t67 -177q0 -107 -68 -177.5t-182 -70.5q-116 0 -183 68t-67 180zM177 236q0 -98 25 -154t74 -56q43 0 71 51.5t28 158.5q0 97 -25.5 151.5t-73.5 54.5q-45 0 -72 -50t-27 -156zM156 530h-27q0 47 22 82t69 35
q32 0 70 -26t58 -26q23 0 35.5 15t12.5 37h27q0 -49 -24 -83t-67 -34q-32 0 -70.5 26t-57.5 26q-25 0 -36.5 -15t-11.5 -37z" />
    <glyph glyph-name="odieresis" unicode="&#xf6;" horiz-adv-x="552" 
d="M26 236q0 107 67.5 175.5t182.5 68.5q116 0 183 -67t67 -177q0 -107 -68 -177.5t-182 -70.5q-116 0 -183 68t-67 180zM177 236q0 -98 25 -154t74 -56q43 0 71 51.5t28 158.5q0 97 -25.5 151.5t-73.5 54.5q-45 0 -72 -50t-27 -156zM378 533q-26 0 -43.5 18t-17.5 43
q0 26 17.5 43t43.5 17q25 0 42.5 -17t17.5 -43q0 -25 -17.5 -43t-42.5 -18zM174 533q-26 0 -43 18t-17 43q0 26 17 43t43 17t43.5 -17t17.5 -43q0 -25 -17.5 -43t-43.5 -18z" />
    <glyph glyph-name="divide" unicode="&#xf7;" 
d="M264 427q-29 0 -48.5 19t-19.5 46t19.5 46t48.5 19t48.5 -19t19.5 -46t-19.5 -46t-48.5 -19zM36 284v70h456v-70h-456zM196 149q0 27 19.5 45.5t48.5 18.5t48.5 -18.5t19.5 -45.5q0 -28 -19.5 -46.5t-48.5 -18.5t-48.5 18.5t-19.5 46.5z" />
    <glyph glyph-name="oslash" unicode="&#xf8;" horiz-adv-x="552" 
d="M26 236q0 107 67.5 175.5t182.5 68.5q72 0 127 -28l37 56h40l-49 -72q95 -67 95 -200q0 -107 -68 -177.5t-182 -70.5q-70 0 -127 27l-37 -55h-40l48 72q-94 66 -94 204zM177 236q0 -64 10 -105l166 248q-25 63 -77 63q-45 0 -72 -50t-27 -156zM375 236q0 60 -10 101
l-166 -247q27 -64 77 -64q43 0 71 51.5t28 158.5z" />
    <glyph glyph-name="ugrave" unicode="&#xf9;" horiz-adv-x="588" 
d="M72 156v219q0 17 -4.5 23t-23.5 13l-25 9v27l171 30h30q-8 -57 -8 -136v-162q0 -35 3.5 -57.5t21 -42t48.5 -19.5q29 0 53 16.5t36 40.5v245q0 24 -5.5 32t-26.5 15l-30 10v27l178 31h32q-8 -64 -8 -144v-255q0 -11 5 -17t20 -11l32 -12v-26l-197 -24v95
q-47 -95 -153 -95q-76 0 -112.5 45t-36.5 123zM330 536l-103 95q-25 23 -25 52q0 19 13 32t31 13q38 0 55 -45l56 -147h-27z" />
    <glyph glyph-name="uacute" unicode="&#xfa;" horiz-adv-x="588" 
d="M72 156v219q0 17 -4.5 23t-23.5 13l-25 9v27l171 30h30q-8 -57 -8 -136v-162q0 -35 3.5 -57.5t21 -42t48.5 -19.5q29 0 53 16.5t36 40.5v245q0 24 -5.5 32t-26.5 15l-30 10v27l178 31h32q-8 -64 -8 -144v-255q0 -11 5 -17t20 -11l32 -12v-26l-197 -24v95
q-47 -95 -153 -95q-76 0 -112.5 45t-36.5 123zM225 535l55 147q19 45 55 45q19 0 32 -13t13 -32q0 -29 -25 -52l-103 -95h-27z" />
    <glyph glyph-name="ucircumflex" unicode="&#xfb;" horiz-adv-x="588" 
d="M72 156v219q0 17 -4.5 23t-23.5 13l-25 9v27l171 30h30q-8 -57 -8 -136v-162q0 -35 3.5 -57.5t21 -42t48.5 -19.5q29 0 53 16.5t36 40.5v245q0 24 -5.5 32t-26.5 15l-30 10v27l178 31h32q-8 -64 -8 -144v-255q0 -11 5 -17t20 -11l32 -12v-26l-197 -24v95
q-47 -95 -153 -95q-76 0 -112.5 45t-36.5 123zM148 536l124 176h45l121 -176h-37l-104 86h-4l-107 -86h-38z" />
    <glyph glyph-name="udieresis" unicode="&#xfc;" horiz-adv-x="588" 
d="M72 156v219q0 17 -4.5 23t-23.5 13l-25 9v27l171 30h30q-8 -57 -8 -136v-162q0 -35 3.5 -57.5t21 -42t48.5 -19.5q29 0 53 16.5t36 40.5v245q0 24 -5.5 32t-26.5 15l-30 10v27l178 31h32q-8 -64 -8 -144v-255q0 -11 5 -17t20 -11l32 -12v-26l-197 -24v95
q-47 -95 -153 -95q-76 0 -112.5 45t-36.5 123zM192 533q-26 0 -43.5 18t-17.5 43q0 26 17.5 43t43.5 17q25 0 43 -17t18 -43q0 -25 -18 -43t-43 -18zM396 533q-26 0 -43.5 18t-17.5 43q0 26 17.5 43t43.5 17q25 0 42.5 -17t17.5 -43q0 -25 -17.5 -43t-42.5 -18z" />
    <glyph glyph-name="yacute" unicode="&#xfd;" horiz-adv-x="444" 
d="M29 -104q28 0 44 -14.5t16 -39.5q0 -20 -9 -37q49 0 91 99l24 58l-174 429q-10 26 -27 34l-9 4v27h228v-27l-32 -11q-12 -5 -15 -11t1 -17l99 -256l85 242q7 17 3 26.5t-21 15.5l-32 11v27h154v-25l-9 -6q-17 -10 -26 -31l-195 -479q-15 -39 -26.5 -62t-31 -49.5
t-46.5 -39t-63 -12.5q-40 0 -67 21.5t-27 58.5q0 29 18 46.5t47 17.5zM182 535l56 147q17 45 55 45q19 0 31.5 -13t12.5 -32q0 -29 -25 -52l-103 -95h-27z" />
    <glyph glyph-name="thorn" unicode="&#xfe;" horiz-adv-x="576" 
d="M82 -175v771q0 18 -6 26t-29 16l-25 9v28l174 33h33q-8 -67 -8 -153v-161q55 86 147 86q90 0 135.5 -59t45.5 -171q0 -116 -58.5 -189t-155.5 -73q-73 0 -114 41v-201q0 -12 6.5 -17t27.5 -10l48 -11v-30h-278v30l30 8q16 5 21.5 10t5.5 17zM298 403q-43 0 -77 -34v-310
q20 -18 65 -18q58 0 89.5 51.5t31.5 146.5q0 164 -109 164z" />
    <glyph glyph-name="ydieresis" unicode="&#xff;" horiz-adv-x="456" 
d="M34 -104q29 0 45 -14.5t16 -39.5q0 -20 -9 -37q49 0 91 99l24 58l-174 429q-12 28 -27 34l-9 4v27h228v-27l-32 -11q-21 -8 -14 -28l99 -256l85 242q6 17 2 26.5t-21 15.5l-32 11v27h155v-25l-9 -6q-18 -8 -27 -31l-194 -479q-11 -27 -15 -36t-15.5 -32t-18.5 -32
t-20.5 -24.5t-26.5 -21.5t-31.5 -11.5t-39.5 -5.5q-40 0 -67 21.5t-27 58.5q0 29 18 46.5t46 17.5zM155 533q-26 0 -43.5 18t-17.5 43q0 26 17.5 43t43.5 17q25 0 43 -17t18 -43q0 -25 -18 -43t-43 -18zM359 533q-26 0 -43.5 18t-17.5 43q0 26 17.5 43t43.5 17
q25 0 42.5 -17t17.5 -43q0 -25 -17.5 -43t-42.5 -18z" />
    <glyph glyph-name="Amacron" unicode="&#x100;" horiz-adv-x="604" 
d="M-12 0v34l35 9q27 8 34 32l217 561h81l202 -564q8 -25 32 -31l25 -7v-34h-278v34l44 9q28 6 19 34l-33 93h-205l-32 -93q-10 -28 15 -34l46 -9v-34h-202zM264 464l-86 -245h171zM178 709v59h267v-59h-267z" />
    <glyph glyph-name="amacron" unicode="&#x101;" horiz-adv-x="500" 
d="M26 108q0 57 45 87t125 50l95 24v58q0 55 -22.5 79t-69.5 24q-34 0 -60 -14l8 -16q15 -34 15 -50q0 -27 -16 -42.5t-45 -15.5q-26 0 -41.5 16t-15.5 42q0 41 59 79l20 12q64 39 134 39q84 0 127.5 -34t43.5 -110v-191q0 -73 8 -94q22 -12 61 -12v-26q-48 -25 -111 -25
q-79 0 -93 67h-2q-48 -67 -133 -67q-62 0 -97 31t-35 89zM215 53q43 0 76 31v150l-41 -12q-102 -35 -102 -99q0 -34 18 -52t49 -18zM113 546v59h267v-59h-267z" />
    <glyph glyph-name="Abreve" unicode="&#x102;" horiz-adv-x="604" 
d="M-12 0v34l35 9q27 8 34 32l217 561h81l202 -564q8 -25 32 -31l25 -7v-34h-278v34l44 9q28 6 19 34l-33 93h-205l-32 -93q-10 -28 15 -34l46 -9v-34h-202zM264 464l-86 -245h171zM312 699q-61 0 -91 42.5t-30 97.5h33q12 -67 88 -67t88 67h32q0 -55 -30.5 -97.5
t-89.5 -42.5z" />
    <glyph glyph-name="abreve" unicode="&#x103;" horiz-adv-x="500" 
d="M26 108q0 57 45 87t125 50l95 24v58q0 55 -22.5 79t-69.5 24q-34 0 -60 -14l8 -16q15 -34 15 -50q0 -27 -16 -42.5t-45 -15.5q-26 0 -41.5 16t-15.5 42q0 41 59 79l20 12q64 39 134 39q84 0 127.5 -34t43.5 -110v-191q0 -73 8 -94q22 -12 61 -12v-26q-48 -25 -111 -25
q-79 0 -93 67h-2q-48 -67 -133 -67q-62 0 -97 31t-35 89zM215 53q43 0 76 31v150l-41 -12q-102 -35 -102 -99q0 -34 18 -52t49 -18zM246 536q-60 0 -90 43t-30 98h32q13 -68 88 -68t88 68h33q0 -56 -30 -98.5t-91 -42.5z" />
    <glyph glyph-name="Aogonek" unicode="&#x104;" horiz-adv-x="604" 
d="M-12 0v34l35 9q27 8 34 32l217 561h81l202 -564q8 -25 32 -31l25 -7v-34h-278v34l44 9q28 6 19 34l-33 93h-205l-32 -93q-10 -28 15 -34l46 -9v-34h-202zM264 464l-86 -245h171zM454 -170q0 54 42.5 88.5t88.5 49.5h29q-82 -49 -82 -132q0 -33 14 -49t34 -16q23 0 58 21
l-12 -32q-19 -12 -63 -12q-50 0 -79.5 17.5t-29.5 64.5z" />
    <glyph glyph-name="aogonek" unicode="&#x105;" horiz-adv-x="500" 
d="M26 108q0 57 45 87t125 50l95 24v58q0 55 -22.5 79t-69.5 24q-34 0 -60 -14l8 -16q15 -34 15 -50q0 -27 -16 -42.5t-45 -15.5q-26 0 -41.5 16t-15.5 42q0 41 59 79l20 12q64 39 134 39q84 0 127.5 -34t43.5 -110v-191q0 -73 8 -94q22 -12 61 -12v-26q-48 -25 -111 -25
q-79 0 -93 67h-2q-48 -67 -133 -67q-62 0 -97 31t-35 89zM215 53q43 0 76 31v150l-41 -12q-102 -35 -102 -99q0 -34 18 -52t49 -18zM334 -170q0 54 42.5 88.5t88.5 49.5h29q-81 -49 -81 -132q0 -33 14 -49t34 -16q23 0 58 21l-12 -32q-19 -12 -63 -12q-110 0 -110 82z" />
    <glyph glyph-name="Cacute" unicode="&#x106;" horiz-adv-x="664" 
d="M31 321q0 148 98.5 231.5t258.5 83.5q90 0 165 -35l20 27h22l7 -215h-28q-22 95 -52 137q-54 48 -133 48q-96 0 -148 -76.5t-52 -200.5q0 -138 54.5 -216t144.5 -78q80 0 119 37q35 42 71 142h28l-33 -185q-76 -33 -188 -33q-162 0 -258 88t-96 245zM311 691l56 147
q17 45 55 45q18 0 31 -13t13 -32q0 -29 -25 -52l-103 -95h-27z" />
    <glyph glyph-name="cacute" unicode="&#x107;" horiz-adv-x="468" 
d="M28 236q0 113 67.5 178.5t174.5 65.5q68 0 116 -34.5t48 -88.5q0 -30 -17.5 -48t-44.5 -18q-28 0 -46 17.5t-18 44.5q0 32 28 60q-18 28 -61 28q-47 0 -76.5 -47.5t-29.5 -131.5q0 -92 40.5 -141t106.5 -49q59 0 106 47l9 -12q-55 -119 -183 -119q-98 0 -159 66t-61 182z
M186 535l55 147q17 45 55 45q19 0 31.5 -13t12.5 -32q0 -29 -25 -52l-103 -95h-26z" />
    <glyph glyph-name="Ccircumflex" unicode="&#x108;" horiz-adv-x="664" 
d="M31 321q0 148 98.5 231.5t258.5 83.5q90 0 165 -35l20 27h22l7 -215h-28q-22 95 -52 137q-54 48 -133 48q-96 0 -148 -76.5t-52 -200.5q0 -138 54.5 -216t144.5 -78q80 0 119 37q35 42 71 142h28l-33 -185q-76 -33 -188 -33q-162 0 -258 88t-96 245zM234 692l124 176h46
l121 -176h-38l-104 86h-4l-107 -86h-38z" />
    <glyph glyph-name="ccircumflex" unicode="&#x109;" horiz-adv-x="468" 
d="M28 236q0 113 67.5 178.5t174.5 65.5q68 0 116 -34.5t48 -88.5q0 -30 -17.5 -48t-44.5 -18q-28 0 -46 17.5t-18 44.5q0 32 28 60q-18 28 -61 28q-47 0 -76.5 -47.5t-29.5 -131.5q0 -92 40.5 -141t106.5 -49q59 0 106 47l9 -12q-55 -119 -183 -119q-98 0 -159 66t-61 182z
M108 536l124 176h46l121 -176h-38l-104 86h-4l-107 -86h-38z" />
    <glyph glyph-name="Cdotaccent" unicode="&#x10a;" horiz-adv-x="664" 
d="M31 321q0 148 98.5 231.5t258.5 83.5q90 0 165 -35l20 27h22l7 -215h-28q-22 95 -52 137q-54 48 -133 48q-96 0 -148 -76.5t-52 -200.5q0 -138 54.5 -216t144.5 -78q80 0 119 37q35 42 71 142h28l-33 -185q-76 -33 -188 -33q-162 0 -258 88t-96 245zM380 693
q-31 0 -50.5 19.5t-19.5 50.5q0 29 20 49t50 20t50 -20t20 -49q0 -30 -19.5 -50t-50.5 -20z" />
    <glyph glyph-name="cdotaccent" unicode="&#x10b;" horiz-adv-x="468" 
d="M28 236q0 113 67.5 178.5t174.5 65.5q68 0 116 -34.5t48 -88.5q0 -30 -17.5 -48t-44.5 -18q-28 0 -46 17.5t-18 44.5q0 32 28 60q-18 28 -61 28q-47 0 -76.5 -47.5t-29.5 -131.5q0 -92 40.5 -141t106.5 -49q59 0 106 47l9 -12q-55 -119 -183 -119q-98 0 -159 66t-61 182z
M254 537q-30 0 -50 19.5t-20 50.5q0 29 20 49t50 20q31 0 51 -20t20 -49q0 -30 -20 -50t-51 -20z" />
    <glyph glyph-name="Ccaron" unicode="&#x10c;" horiz-adv-x="664" 
d="M31 321q0 148 98.5 231.5t258.5 83.5q90 0 165 -35l20 27h22l7 -215h-28q-22 95 -52 137q-54 48 -133 48q-96 0 -148 -76.5t-52 -200.5q0 -138 54.5 -216t144.5 -78q80 0 119 37q35 42 71 142h28l-33 -185q-76 -33 -188 -33q-162 0 -258 88t-96 245zM355 692l-124 176h38
l107 -86h4l104 86h38l-121 -176h-46z" />
    <glyph glyph-name="ccaron" unicode="&#x10d;" horiz-adv-x="468" 
d="M28 236q0 113 67.5 178.5t174.5 65.5q68 0 116 -34.5t48 -88.5q0 -30 -17.5 -48t-44.5 -18q-28 0 -46 17.5t-18 44.5q0 32 28 60q-18 28 -61 28q-47 0 -76.5 -47.5t-29.5 -131.5q0 -92 40.5 -141t106.5 -49q59 0 106 47l9 -12q-55 -119 -183 -119q-98 0 -159 66t-61 182z
M230 536l-124 176h37l107 -86h4l104 86h38l-121 -176h-45z" />
    <glyph glyph-name="Dcaron" unicode="&#x10e;" horiz-adv-x="720" 
d="M30 0v34l46 12q11 3 15 4.5t8 4t4.5 6t0.5 9.5v480q0 6 -0.5 9.5t-4.5 6t-8 4t-15 4.5l-46 12v34h314q160 0 254.5 -80t94.5 -227q0 -135 -85.5 -224t-234.5 -89h-343zM333 584h-16q-29 0 -63 -8v-529q38 -8 75 -8h13q98 0 146.5 73.5t48.5 199.5q0 56 -10.5 102.5
t-33 86t-63.5 61.5t-97 22zM325 692l-124 176h37l107 -86h4l104 86h38l-121 -176h-45z" />
    <glyph glyph-name="dcaron" unicode="&#x10f;" horiz-adv-x="584" 
d="M30 235q0 111 64 178t159 67q34 0 62.5 -11.5t41.5 -29.5v148q0 27 -7 36t-36 17l-32 10v25l190 33h33q-8 -65 -8 -144v-487q0 -11 5 -16t23 -11l36 -12v-26l-204 -24v80q-15 -31 -49.5 -55.5t-80.5 -24.5q-92 0 -144.5 62t-52.5 185zM290 65q45 0 67 28v322
q-27 15 -59 15q-58 0 -92 -48.5t-34 -141.5q0 -88 33.5 -131.5t84.5 -43.5zM618 516h-53q33 40 49 88q-45 11 -45 51q0 24 16 40.5t42 16.5q27 0 44 -15.5t17 -46.5q0 -28 -22 -68t-48 -66z" />
    <glyph glyph-name="Dcroat" unicode="&#x110;" horiz-adv-x="720" 
d="M34 301v42h70v207q0 6 -0.5 9.5t-4.5 6t-8 4t-15 4.5l-46 12v34h314q160 0 254.5 -80t94.5 -227q0 -135 -85.5 -224t-234.5 -89h-343v34l46 12q11 3 15 4.5t8 4t4.5 6t0.5 9.5v231h-70zM333 584h-16q-29 0 -63 -8v-233h94v-42h-94v-254q38 -8 75 -8h13q98 0 146.5 73.5
t48.5 199.5q0 56 -10.5 102.5t-33 86t-63.5 61.5t-97 22z" />
    <glyph glyph-name="dcroat" unicode="&#x111;" horiz-adv-x="584" 
d="M241 544v41h116v2q0 27 -7 36t-36 17l-32 10v25l190 33h33q-8 -54 -8 -123h61v-41h-61v-467q0 -11 5 -16t23 -11l36 -12v-26l-204 -24v80q-15 -31 -49.5 -55.5t-80.5 -24.5q-92 0 -144.5 62t-52.5 185q0 111 64 178t159 67q34 0 62.5 -11.5t41.5 -29.5v105h-116zM290 65
q45 0 67 28v322q-27 15 -59 15q-58 0 -92 -48.5t-34 -141.5q0 -88 33.5 -131.5t84.5 -43.5z" />
    <glyph glyph-name="Emacron" unicode="&#x112;" horiz-adv-x="604" 
d="M27 0v34l46 12q11 3 15 4.5t8 4t4.5 6t0.5 9.5v480q0 10 -5 14.5t-23 9.5l-46 12v34h423q48 0 80 8l17 -196h-31q-31 94 -54 121q-39 28 -130 28h-10q-37 0 -71 -8v-225h94q39 22 62 95h23v-241h-23q-21 70 -62 99h-94v-254q46 -8 81 -8h15q82 0 119 25q17 14 37 56
t29 76h31l-25 -196h-511zM168 702v59h268v-59h-268z" />
    <glyph glyph-name="emacron" unicode="&#x113;" horiz-adv-x="488" 
d="M28 230q0 114 66 182t173 68q84 0 134.5 -41t50.5 -116q0 -26 -8 -58l-281 7v-19q0 -83 39.5 -132t110.5 -49q73 0 123 53l12 -11q-61 -126 -200 -126q-100 0 -160 64.5t-60 177.5zM263 441q-41 0 -66 -37t-30 -100l157 11q7 13 7 39q0 87 -68 87zM121 546v59h267v-59
h-267z" />
    <glyph glyph-name="Ebreve" unicode="&#x114;" horiz-adv-x="604" 
d="M27 0v34l46 12q11 3 15 4.5t8 4t4.5 6t0.5 9.5v480q0 10 -5 14.5t-23 9.5l-46 12v34h423q48 0 80 8l17 -196h-31q-31 94 -54 121q-39 28 -130 28h-10q-37 0 -71 -8v-225h94q39 22 62 95h23v-241h-23q-21 70 -62 99h-94v-254q46 -8 81 -8h15q82 0 119 25q17 14 37 56
t29 76h31l-25 -196h-511zM302 692q-60 0 -90 43t-30 98h32q13 -68 88 -68t88 68h33q0 -56 -30 -98.5t-91 -42.5z" />
    <glyph glyph-name="ebreve" unicode="&#x115;" horiz-adv-x="488" 
d="M28 230q0 114 66 182t173 68q84 0 134.5 -41t50.5 -116q0 -26 -8 -58l-281 7v-19q0 -83 39.5 -132t110.5 -49q73 0 123 53l12 -11q-61 -126 -200 -126q-100 0 -160 64.5t-60 177.5zM255 536q-61 0 -91 42.5t-30 98.5h33q13 -68 88 -68t88 68h32q0 -55 -30.5 -98
t-89.5 -43zM263 441q-41 0 -66 -37t-30 -100l157 11q7 13 7 39q0 87 -68 87z" />
    <glyph glyph-name="Edotaccent" unicode="&#x116;" horiz-adv-x="604" 
d="M27 0v34l46 12q11 3 15 4.5t8 4t4.5 6t0.5 9.5v480q0 10 -5 14.5t-23 9.5l-46 12v34h423q48 0 80 8l17 -196h-31q-31 94 -54 121q-39 28 -130 28h-10q-37 0 -71 -8v-225h94q39 22 62 95h23v-241h-23q-21 70 -62 99h-94v-254q46 -8 81 -8h15q82 0 119 25q17 14 37 56
t29 76h31l-25 -196h-511zM302 693q-30 0 -50 19.5t-20 50.5q0 29 20 49t50 20q31 0 51 -20t20 -49q0 -30 -20 -50t-51 -20z" />
    <glyph glyph-name="edotaccent" unicode="&#x117;" horiz-adv-x="488" 
d="M28 230q0 114 66 182t173 68q84 0 134.5 -41t50.5 -116q0 -26 -8 -58l-281 7v-19q0 -83 39.5 -132t110.5 -49q73 0 123 53l12 -11q-61 -126 -200 -126q-100 0 -160 64.5t-60 177.5zM263 441q-41 0 -66 -37t-30 -100l157 11q7 13 7 39q0 87 -68 87zM255 537
q-31 0 -51 19.5t-20 50.5q0 29 20 49t51 20q30 0 50 -20t20 -49q0 -30 -20 -50t-50 -20z" />
    <glyph glyph-name="Eogonek" unicode="&#x118;" horiz-adv-x="604" 
d="M27 0v34l46 12q11 3 15 4.5t8 4t4.5 6t0.5 9.5v480q0 10 -5 14.5t-23 9.5l-46 12v34h423q48 0 80 8l17 -196h-31q-31 94 -54 121q-39 28 -130 28h-10q-37 0 -71 -8v-225h94q39 22 62 95h23v-241h-23q-21 70 -62 99h-94v-254q46 -8 81 -8h15q82 0 119 25q17 14 37 56
t29 76h31l-25 -196h-511zM374 -170q0 54 42.5 88.5t88.5 49.5h29q-82 -49 -82 -132q0 -33 14 -49t34 -16q23 0 58 21l-12 -32q-19 -12 -63 -12q-50 0 -79.5 17.5t-29.5 64.5z" />
    <glyph glyph-name="eogonek" unicode="&#x119;" horiz-adv-x="488" 
d="M28 230q0 114 66 182t173 68q84 0 134.5 -41t50.5 -116q0 -26 -8 -58l-281 7v-19q0 -83 39.5 -132t110.5 -49q73 0 123 53l12 -11q-61 -126 -200 -126q-100 0 -160 64.5t-60 177.5zM263 441q-41 0 -66 -37t-30 -100l157 11q7 13 7 39q0 87 -68 87zM187 -170
q0 54 42.5 88.5t88.5 49.5h29q-82 -49 -82 -132q0 -33 14 -49t34 -16q24 0 59 21l-12 -32q-19 -12 -64 -12q-109 0 -109 82z" />
    <glyph glyph-name="Ecaron" unicode="&#x11a;" horiz-adv-x="604" 
d="M27 0v34l46 12q11 3 15 4.5t8 4t4.5 6t0.5 9.5v480q0 10 -5 14.5t-23 9.5l-46 12v34h423q48 0 80 8l17 -196h-31q-31 94 -54 121q-39 28 -130 28h-10q-37 0 -71 -8v-225h94q39 22 62 95h23v-241h-23q-21 70 -62 99h-94v-254q46 -8 81 -8h15q82 0 119 25q17 14 37 56
t29 76h31l-25 -196h-511zM278 692l-124 176h37l107 -86h4l104 86h38l-121 -176h-45z" />
    <glyph glyph-name="ecaron" unicode="&#x11b;" horiz-adv-x="488" 
d="M28 230q0 114 66 182t173 68q84 0 134.5 -41t50.5 -116q0 -26 -8 -58l-281 7v-19q0 -83 39.5 -132t110.5 -49q73 0 123 53l12 -11q-61 -126 -200 -126q-100 0 -160 64.5t-60 177.5zM230 536l-124 176h38l107 -86h4l104 86h37l-121 -176h-45zM263 441q-41 0 -66 -37
t-30 -100l157 11q7 13 7 39q0 87 -68 87z" />
    <glyph glyph-name="Gcircumflex" unicode="&#x11c;" horiz-adv-x="700" 
d="M30 325q0 146 103 228.5t269 82.5q96 0 168 -32l20 24h23l9 -214l-28 -1q-8 34 -26 77t-35 66q-50 42 -132 42q-95 0 -154 -71t-59 -199q0 -138 53 -219.5t141 -81.5q69 0 97 25v165q0 20 -20 25l-56 16v34h262v-30l-20 -8q-15 -5 -20 -11t-5 -19v-166l8 -23
q-39 -19 -106 -33t-140 -14q-160 0 -256 87t-96 250zM243 692l124 176h45l121 -176h-37l-104 86h-4l-107 -86h-38z" />
    <glyph glyph-name="gcircumflex" unicode="&#x11d;" horiz-adv-x="520" 
d="M74 46q0 61 106 105q-74 12 -112 56.5t-38 111.5q0 74 56 117.5t142 43.5q65 0 112.5 -27t69.5 -75q5 46 26 74t55 28q24 0 39 -13.5t15 -36.5q0 -27 -13.5 -42.5t-37.5 -15.5q-29 0 -54 32q-20 -25 -20 -78v-10q0 -78 -53.5 -123t-138.5 -45h-7q-49 -17 -49 -48
q0 -16 13 -22t45 -9l112 -9q139 -12 139 -112q0 -63 -45 -109t-110 -66.5t-138 -20.5q-85 0 -133.5 27.5t-48.5 77.5q0 41 39 71t95 43q-66 20 -66 75zM284 -46l-118 10q-49 -37 -49 -85q0 -41 31.5 -60.5t83.5 -19.5q55 0 92.5 26.5t37.5 73.5q0 26 -18 38.5t-60 16.5z
M228 183q70 0 70 137q0 125 -70 125t-70 -125q0 -137 70 -137zM82 536l124 176h46l121 -176h-38l-104 86h-4l-107 -86h-38z" />
    <glyph glyph-name="Gbreve" unicode="&#x11e;" horiz-adv-x="700" 
d="M30 325q0 146 103 228.5t269 82.5q96 0 168 -32l20 24h23l9 -214l-28 -1q-8 34 -26 77t-35 66q-50 42 -132 42q-95 0 -154 -71t-59 -199q0 -138 53 -219.5t141 -81.5q69 0 97 25v165q0 20 -20 25l-56 16v34h262v-30l-20 -8q-15 -5 -20 -11t-5 -19v-166l8 -23
q-39 -19 -106 -33t-140 -14q-160 0 -256 87t-96 250zM389 692q-61 0 -91 42.5t-30 98.5h33q13 -68 88 -68t88 68h32q0 -55 -30 -98t-90 -43z" />
    <glyph glyph-name="gbreve" unicode="&#x11f;" horiz-adv-x="520" 
d="M74 46q0 61 106 105q-74 12 -112 56.5t-38 111.5q0 74 56 117.5t142 43.5q65 0 112.5 -27t69.5 -75q5 46 26 74t55 28q24 0 39 -13.5t15 -36.5q0 -27 -13.5 -42.5t-37.5 -15.5q-29 0 -54 32q-20 -25 -20 -78v-10q0 -78 -53.5 -123t-138.5 -45h-7q-49 -17 -49 -48
q0 -16 13 -22t45 -9l112 -9q139 -12 139 -112q0 -63 -45 -109t-110 -66.5t-138 -20.5q-85 0 -133.5 27.5t-48.5 77.5q0 41 39 71t95 43q-66 20 -66 75zM284 -46l-118 10q-49 -37 -49 -85q0 -41 31.5 -60.5t83.5 -19.5q55 0 92.5 26.5t37.5 73.5q0 26 -18 38.5t-60 16.5z
M228 183q70 0 70 137q0 125 -70 125t-70 -125q0 -137 70 -137zM228 536q-61 0 -91 42.5t-30 98.5h33q13 -68 88 -68t88 68h33q0 -56 -30 -98.5t-91 -42.5z" />
    <glyph glyph-name="Gdotaccent" unicode="&#x120;" horiz-adv-x="700" 
d="M30 325q0 146 103 228.5t269 82.5q96 0 168 -32l20 24h23l9 -214l-28 -1q-8 34 -26 77t-35 66q-50 42 -132 42q-95 0 -154 -71t-59 -199q0 -138 53 -219.5t141 -81.5q69 0 97 25v165q0 20 -20 25l-56 16v34h262v-30l-20 -8q-15 -5 -20 -11t-5 -19v-166l8 -23
q-39 -19 -106 -33t-140 -14q-160 0 -256 87t-96 250zM389 693q-31 0 -51 19.5t-20 50.5q0 29 20 49t51 20q30 0 50 -20t20 -49q0 -30 -20 -50t-50 -20z" />
    <glyph glyph-name="gdotaccent" unicode="&#x121;" horiz-adv-x="520" 
d="M74 46q0 61 106 105q-74 12 -112 56.5t-38 111.5q0 74 56 117.5t142 43.5q65 0 112.5 -27t69.5 -75q5 46 26 74t55 28q24 0 39 -13.5t15 -36.5q0 -27 -13.5 -42.5t-37.5 -15.5q-29 0 -54 32q-20 -25 -20 -78v-10q0 -78 -53.5 -123t-138.5 -45h-7q-49 -17 -49 -48
q0 -16 13 -22t45 -9l112 -9q139 -12 139 -112q0 -63 -45 -109t-110 -66.5t-138 -20.5q-85 0 -133.5 27.5t-48.5 77.5q0 41 39 71t95 43q-66 20 -66 75zM284 -46l-118 10q-49 -37 -49 -85q0 -41 31.5 -60.5t83.5 -19.5q55 0 92.5 26.5t37.5 73.5q0 26 -18 38.5t-60 16.5z
M228 183q70 0 70 137q0 125 -70 125t-70 -125q0 -137 70 -137zM228 537q-31 0 -50.5 19.5t-19.5 50.5q0 29 20 49t50 20t50 -20t20 -49q0 -30 -19.5 -50t-50.5 -20z" />
    <glyph glyph-name="Gcommaaccent" unicode="&#x122;" horiz-adv-x="700" 
d="M30 325q0 146 103 228.5t269 82.5q96 0 168 -32l20 24h23l9 -214l-28 -1q-8 34 -26 77t-35 66q-50 42 -132 42q-95 0 -154 -71t-59 -199q0 -138 53 -219.5t141 -81.5q69 0 97 25v165q0 20 -20 25l-56 16v34h262v-30l-20 -8q-15 -5 -20 -11t-5 -19v-166l8 -23
q-39 -19 -106 -33t-140 -14q-160 0 -256 87t-96 250zM316 -109q0 24 16 40.5t42 16.5t43 -15.5t17 -46.5q0 -28 -22 -68.5t-47 -65.5h-53q34 43 49 88q-45 11 -45 51z" />
    <glyph glyph-name="gcommaaccent" unicode="&#x123;" horiz-adv-x="520" 
d="M74 46q0 61 106 105q-74 12 -112 56.5t-38 111.5q0 74 56 117.5t142 43.5q65 0 112.5 -27t69.5 -75q5 46 26 74t55 28q24 0 39 -13.5t15 -36.5q0 -27 -13.5 -42.5t-37.5 -15.5q-29 0 -54 32q-20 -25 -20 -78v-10q0 -78 -53.5 -123t-138.5 -45h-7q-49 -17 -49 -48
q0 -16 13 -22t45 -9l112 -9q139 -12 139 -112q0 -63 -45 -109t-110 -66.5t-138 -20.5q-85 0 -133.5 27.5t-48.5 77.5q0 41 39 71t95 43q-66 20 -66 75zM284 -46l-118 10q-49 -37 -49 -85q0 -41 31.5 -60.5t83.5 -19.5q55 0 92.5 26.5t37.5 73.5q0 26 -18 38.5t-60 16.5z
M228 183q70 0 70 137q0 125 -70 125t-70 -125q0 -137 70 -137zM227 538q-27 0 -44 15.5t-17 46.5q0 28 22 68t48 66h53q-33 -40 -49 -88q45 -11 45 -51q0 -24 -16 -40.5t-42 -16.5z" />
    <glyph glyph-name="Hcircumflex" unicode="&#x124;" horiz-adv-x="784" 
d="M27 0v34l46 12q11 3 15 4.5t8 4t4.5 6t0.5 9.5v480q0 6 -0.5 9.5t-4.5 6t-8 4t-15 4.5l-46 12v34h295v-34l-43 -12q-11 -3 -15 -4.5t-8 -4t-4.5 -6t-0.5 -9.5v-203h282v203q0 6 -0.5 9.5t-4.5 6t-8 4t-15 4.5l-43 12v34h295v-34l-46 -12q-11 -3 -15 -4.5t-8 -4t-4.5 -6
t-0.5 -9.5v-480q0 -6 0.5 -9.5t4.5 -6t8 -4t15 -4.5l46 -12v-34h-295v34l43 12q11 3 15 4.5t8 4t4.5 6t0.5 9.5v220h-282v-220q0 -6 0.5 -9.5t4.5 -6t8 -4t15 -4.5l43 -12v-34h-295zM246 692l124 176h46l121 -176h-38l-104 86h-4l-107 -86h-38z" />
    <glyph glyph-name="hcircumflex" unicode="&#x125;" horiz-adv-x="608" 
d="M340 0v30l28 8q16 5 21 10t5 17v232q0 110 -78 110q-30 0 -54 -17.5t-37 -41.5v-283q0 -12 5 -17t21 -10l29 -8v-30h-249v30l28 8q16 5 21 10t5 17v529q0 17 -8 27.5t-29 18.5l-22 10v28l168 30h39q-8 -72 -8 -144v-181q51 97 156 97q77 0 115 -43t38 -118v-254
q0 -12 5 -17t21 -10l29 -8v-30h-249zM5 764l124 176h45l122 -176h-38l-104 86h-4l-107 -86h-38z" />
    <glyph glyph-name="Hbar" unicode="&#x126;" horiz-adv-x="784" 
d="M19 449v42h82v59q0 6 -0.5 9.5t-4.5 6t-8 4t-15 4.5l-46 12v34h295v-34l-43 -12q-11 -3 -15 -4.5t-8 -4t-4.5 -6t-0.5 -9.5v-59h282v59q0 6 -0.5 9.5t-4.5 6t-8 4t-15 4.5l-43 12v34h295v-34l-46 -12q-11 -3 -15 -4.5t-8 -4t-4.5 -6t-0.5 -9.5v-59h82v-42h-82v-379
q0 -6 0.5 -9.5t4.5 -6t8 -4t15 -4.5l46 -12v-34h-295v34l43 12q11 3 15 4.5t8 4t4.5 6t0.5 9.5v220h-282v-220q0 -6 0.5 -9.5t4.5 -6t8 -4t15 -4.5l43 -12v-34h-295v34l46 12q11 3 15 4.5t8 4t4.5 6t0.5 9.5v379h-82zM251 449v-102h282v102h-282z" />
    <glyph glyph-name="hbar" unicode="&#x127;" horiz-adv-x="608" 
d="M340 0v30l28 8q16 5 21 10t5 17v232q0 110 -78 110q-30 0 -54 -17.5t-37 -41.5v-283q0 -12 5 -17t21 -10l29 -8v-30h-249v30l28 8q16 5 21 10t5 17v479h-61v41h61v9q0 17 -8 27.5t-29 18.5l-22 10v28l168 30h39q-8 -65 -8 -123h116v-41h-116v-161q51 97 156 97
q77 0 115 -43t38 -118v-254q0 -12 5 -17t21 -10l29 -8v-30h-249z" />
    <glyph glyph-name="Itilde" unicode="&#x128;" horiz-adv-x="352" 
d="M27 0v34l46 12q11 3 15 4.5t8 4t4.5 6t0.5 9.5v480q0 6 -0.5 9.5t-4.5 6t-8 4t-15 4.5l-46 12v34h298v-34l-46 -12q-11 -3 -15 -4.5t-8 -4t-4.5 -6t-0.5 -9.5v-480q0 -6 0.5 -9.5t4.5 -6t8 -4t15 -4.5l46 -12v-34h-298zM56 686h-27q0 47 22 82t69 35q32 0 70 -26t58 -26
q23 0 35.5 15t12.5 37h27q0 -49 -24 -83t-67 -34q-32 0 -70.5 26t-57.5 26q-25 0 -36.5 -15t-11.5 -37z" />
    <glyph glyph-name="itilde" unicode="&#x129;" horiz-adv-x="304" 
d="M32 0v30l28 8q16 5 21 10t5 17v301q0 18 -7 27.5t-28 18.5l-17 8v30l161 30h31v-415q0 -12 5 -17t21 -10l29 -8v-30h-249zM33 530h-26q0 47 21.5 82t68.5 35q33 0 70 -26t58 -26q23 0 35.5 15t12.5 37h27q0 -49 -24 -83t-67 -34q-33 0 -70.5 26t-57.5 26q-25 0 -36.5 -15
t-11.5 -37z" />
    <glyph glyph-name="Imacron" unicode="&#x12a;" horiz-adv-x="352" 
d="M27 0v34l46 12q11 3 15 4.5t8 4t4.5 6t0.5 9.5v480q0 6 -0.5 9.5t-4.5 6t-8 4t-15 4.5l-46 12v34h298v-34l-46 -12q-11 -3 -15 -4.5t-8 -4t-4.5 -6t-0.5 -9.5v-480q0 -6 0.5 -9.5t4.5 -6t8 -4t15 -4.5l46 -12v-34h-298zM42 702v59h268v-59h-268z" />
    <glyph glyph-name="imacron" unicode="&#x12b;" horiz-adv-x="304" 
d="M32 0v30l28 8q16 5 21 10t5 17v301q0 18 -7 27.5t-28 18.5l-17 8v30l161 30h31v-415q0 -12 5 -17t21 -10l29 -8v-30h-249zM20 546v59h267v-59h-267z" />
    <glyph glyph-name="Ibreve" unicode="&#x12c;" horiz-adv-x="352" 
d="M27 0v34l46 12q11 3 15 4.5t8 4t4.5 6t0.5 9.5v480q0 6 -0.5 9.5t-4.5 6t-8 4t-15 4.5l-46 12v34h298v-34l-46 -12q-11 -3 -15 -4.5t-8 -4t-4.5 -6t-0.5 -9.5v-480q0 -6 0.5 -9.5t4.5 -6t8 -4t15 -4.5l46 -12v-34h-298zM176 692q-61 0 -91 42.5t-30 98.5h33
q13 -68 88 -68t88 68h33q0 -56 -30 -98.5t-91 -42.5z" />
    <glyph glyph-name="ibreve" unicode="&#x12d;" horiz-adv-x="304" 
d="M32 0v30l28 8q16 5 21 10t5 17v301q0 18 -7 27.5t-28 18.5l-17 8v30l161 30h31v-415q0 -12 5 -17t21 -10l29 -8v-30h-249zM153 536q-59 0 -89.5 43t-30.5 98h32q13 -68 88 -68t88 68h33q0 -56 -30 -98.5t-91 -42.5z" />
    <glyph glyph-name="Iogonek" unicode="&#x12e;" horiz-adv-x="352" 
d="M27 0v34l46 12q11 3 15 4.5t8 4t4.5 6t0.5 9.5v480q0 6 -0.5 9.5t-4.5 6t-8 4t-15 4.5l-46 12v34h298v-34l-46 -12q-11 -3 -15 -4.5t-8 -4t-4.5 -6t-0.5 -9.5v-480q0 -6 0.5 -9.5t4.5 -6t8 -4t15 -4.5l46 -12v-34h-298zM165 -170q0 54 42.5 88.5t88.5 49.5h29
q-82 -49 -82 -132q0 -33 14 -49t34 -16q23 0 58 21l-12 -32q-19 -12 -63 -12q-50 0 -79.5 17.5t-29.5 64.5z" />
    <glyph glyph-name="iogonek" unicode="&#x12f;" horiz-adv-x="304" 
d="M160 570q-34 0 -55 18.5t-21 50.5t21 50.5t55 18.5t55 -18.5t21 -50.5t-20.5 -50.5t-55.5 -18.5zM32 0v30l28 8q16 5 21 10t5 17v301q0 18 -7 27.5t-28 18.5l-17 8v30l161 30h31v-415q0 -12 5 -17t21 -10l29 -8v-30h-249zM120 -170q0 54 42 88.5t88 49.5h30
q-82 -49 -82 -132q0 -33 14 -49t34 -16q23 0 58 21l-12 -32q-19 -12 -63 -12q-50 0 -79.5 17.5t-29.5 64.5z" />
    <glyph glyph-name="Idotaccent" unicode="&#x130;" horiz-adv-x="352" 
d="M27 0v34l46 12q11 3 15 4.5t8 4t4.5 6t0.5 9.5v480q0 6 -0.5 9.5t-4.5 6t-8 4t-15 4.5l-46 12v34h298v-34l-46 -12q-11 -3 -15 -4.5t-8 -4t-4.5 -6t-0.5 -9.5v-480q0 -6 0.5 -9.5t4.5 -6t8 -4t15 -4.5l46 -12v-34h-298zM176 693q-31 0 -50.5 19.5t-19.5 50.5q0 29 20 49
t50 20t50 -20t20 -49q0 -30 -19.5 -50t-50.5 -20z" />
    <glyph glyph-name="dotlessi" unicode="&#x131;" horiz-adv-x="304" 
d="M32 0v30l28 8q16 5 21 10t5 17v301q0 18 -7 27.5t-28 18.5l-17 8v30l161 30h31v-415q0 -12 5 -17t21 -10l29 -8v-30h-249z" />
    <glyph glyph-name="IJ" unicode="&#x132;" horiz-adv-x="704" 
d="M268 -130q0 26 16.5 42.5t42.5 16.5q29 0 45 -15.5t16 -40.5q0 -29 -8 -42q77 11 77 153v570q0 3 -0.5 5.5t-1.5 4t-2 2.5t-4 2.5t-5 2t-7.5 2t-8.5 2.5l-46 11v34h295v-34l-43 -11q-4 -1 -10 -3t-8 -2.5t-5.5 -2t-4 -3t-1.5 -4t-1 -6.5v-543q0 -57 -19.5 -99.5t-53 -66
t-73 -34.5t-86.5 -11q-48 0 -76 17.5t-28 52.5zM27 0v34l46 12q11 3 15 4.5t8 4t4.5 6t0.5 9.5v480q0 6 -0.5 9.5t-4.5 6t-8 4t-15 4.5l-46 12v34h298v-34l-46 -12q-11 -3 -15 -4.5t-8 -4t-4.5 -6t-0.5 -9.5v-480q0 -6 0.5 -9.5t4.5 -6t8 -4t15 -4.5l46 -12v-34h-298z" />
    <glyph glyph-name="ij" unicode="&#x133;" horiz-adv-x="596" 
d="M461 570q-34 0 -55.5 18.5t-21.5 50.5t21.5 50.5t55.5 18.5t55 -18.5t21 -50.5t-21 -50.5t-55 -18.5zM160 570q-34 0 -55 18.5t-21 50.5t21 50.5t55 18.5t55 -18.5t21 -50.5t-20.5 -50.5t-55.5 -18.5zM206 -177q0 28 16 45t43 17q41 0 54 -33.5t-4 -65.5q73 10 73 137
v443q0 19 -6.5 28t-29.5 18l-18 8v27l163 33h31v-504q0 -104 -63.5 -164t-170.5 -60q-34 0 -61 19t-27 52zM32 0v30l28 8q16 5 21 10t5 17v301q0 18 -7 27.5t-28 18.5l-17 8v30l161 30h31v-415q0 -12 5 -17t21 -10l29 -8v-30h-249z" />
    <glyph glyph-name="Jcircumflex" unicode="&#x134;" horiz-adv-x="352" 
d="M-28 -71q29 0 45.5 -15.5t16.5 -40.5q0 -23 -8 -42q76 10 76 153v570q0 3 -0.5 5t-0.5 3.5t-1.5 3t-2.5 2t-4 1.5t-5 1.5t-7 2t-8 2.5l-46 11v34h298v-34l-43 -11q-4 -1 -10 -3t-8 -2.5t-5.5 -2t-4 -3t-1.5 -4t-1 -6.5v-543q0 -46 -13 -82.5t-35.5 -60t-53 -39.5
t-63.5 -22.5t-70 -6.5q-48 0 -76 17.5t-28 52.5q0 26 16.5 42.5t42.5 16.5zM31 692l124 176h46l121 -176h-38l-104 86h-4l-107 -86h-38z" />
    <glyph glyph-name="jcircumflex" unicode="&#x135;" horiz-adv-x="292" 
d="M-38 -114q39 0 52.5 -34t-3.5 -66q73 10 73 137v443q0 19 -6.5 28t-29.5 18l-18 8v27l163 33h31v-504q0 -104 -63.5 -164t-170.5 -60q-34 0 -61 19t-27 52q0 28 16 45.5t44 17.5zM2 536l124 176h45l121 -176h-38l-104 86h-4l-107 -86h-37z" />
    <glyph glyph-name="Kcommaaccent" unicode="&#x136;" horiz-adv-x="664" 
d="M673 0h-191q-36 30 -93 123l-113 187q-3 5 -17 11v8q22 8 40 20l179 200q19 23 -12 29l-37 8v34h225v-37l-34 -8q-34 -7 -63 -36l-162 -153l130 -212q65 -105 108 -130l40 -10v-34zM27 0v34l46 12q11 3 15 4.5t8 4t4.5 6t0.5 9.5v480q0 6 -0.5 9.5t-4.5 6t-8 4t-15 4.5
l-46 12v34h298v-34l-46 -12q-11 -3 -15 -4.5t-8 -4t-4.5 -6t-0.5 -9.5v-480q0 -6 0.5 -9.5t4.5 -6t8 -4t15 -4.5l46 -12v-34h-298zM298 -109q0 24 16 40.5t42 16.5t43 -15.5t17 -46.5q0 -29 -22 -68.5t-48 -65.5h-52q34 43 49 88q-45 11 -45 51z" />
    <glyph glyph-name="kcommaaccent" unicode="&#x137;" horiz-adv-x="548" 
d="M30 0v30l28 8q16 5 21 10t5 17v529q0 17 -8 27.5t-29 18.5l-23 10v28l169 30h39q-8 -72 -8 -144v-499q0 -12 5 -17t21 -10l28 -8v-30h-248zM327 92l-81 147l-17 9v14q32 7 56 23l92 104q20 24 -15 32l-34 8v27h216v-27l-24 -5q-31 -7 -57 -31l-107 -96l83 -144
q50 -90 93 -115l30 -8v-30h-168q-27 20 -67 92zM230 -109q0 25 15.5 41t41.5 16q27 0 44 -15.5t17 -46.5q0 -29 -22 -68.5t-48 -65.5h-52q34 43 49 88q-45 10 -45 51z" />
    <glyph glyph-name="Lacute" unicode="&#x139;" horiz-adv-x="564" 
d="M27 0v34l46 12q11 3 15 4.5t8 4t4.5 6t0.5 9.5v480q0 6 -0.5 9.5t-4.5 6t-8 4t-15 4.5l-46 12v34h311v-34l-55 -12q-19 -4 -25.5 -9t-6.5 -18v-501q40 -7 78 -7h13q69 0 108 25q16 17 38.5 67.5t31.5 84.5h31l-30 -216h-494zM110 691l55 147q17 45 55 45q19 0 31.5 -13
t12.5 -32q0 -29 -25 -52l-103 -95h-26z" />
    <glyph glyph-name="lacute" unicode="&#x13a;" horiz-adv-x="300" 
d="M31 0v30l28 8q16 5 21 10t5 17v529q0 17 -8 27.5t-29 18.5l-22 10v28l168 30h39q-8 -72 -8 -144v-499q0 -12 5 -17t21 -10l29 -8v-30h-249zM84 763l55 147q19 45 55 45q19 0 32 -13t13 -32q0 -27 -25 -52l-103 -95h-27z" />
    <glyph glyph-name="Lcommaaccent" unicode="&#x13b;" horiz-adv-x="564" 
d="M27 0v34l46 12q11 3 15 4.5t8 4t4.5 6t0.5 9.5v480q0 6 -0.5 9.5t-4.5 6t-8 4t-15 4.5l-46 12v34h311v-34l-55 -12q-19 -4 -25.5 -9t-6.5 -18v-501q40 -7 78 -7h13q69 0 108 25q16 17 38.5 67.5t31.5 84.5h31l-30 -216h-494zM220 -109q0 24 16 40.5t42 16.5t43 -15.5
t17 -46.5q0 -28 -22 -68.5t-47 -65.5h-53q34 43 49 88q-45 11 -45 51z" />
    <glyph glyph-name="lcommaaccent" unicode="&#x13c;" horiz-adv-x="300" 
d="M31 0v30l28 8q16 5 21 10t5 17v529q0 17 -8 27.5t-29 18.5l-22 10v28l168 30h39q-8 -72 -8 -144v-499q0 -12 5 -17t21 -10l29 -8v-30h-249zM92 -109q0 24 16 40.5t42 16.5q27 0 44 -15.5t17 -46.5q0 -28 -22 -68t-48 -66h-53q33 40 49 88q-45 11 -45 51z" />
    <glyph glyph-name="Lcaron" unicode="&#x13d;" horiz-adv-x="564" 
d="M27 0v34l46 12q11 3 15 4.5t8 4t4.5 6t0.5 9.5v480q0 6 -0.5 9.5t-4.5 6t-8 4t-15 4.5l-46 12v34h311v-34l-55 -12q-19 -4 -25.5 -9t-6.5 -18v-501q40 -7 78 -7h13q69 0 108 25q16 17 38.5 67.5t31.5 84.5h31l-30 -216h-494zM445 432h-52q34 43 49 88q-45 10 -45 51
q0 25 15.5 41t41.5 16q27 0 44 -15.5t17 -46.5q0 -29 -22 -68.5t-48 -65.5z" />
    <glyph glyph-name="lcaron" unicode="&#x13e;" horiz-adv-x="300" 
d="M345 516h-52q34 43 49 88q-45 11 -45 51q0 24 16 40.5t42 16.5t43 -15.5t17 -46.5q0 -29 -22 -68.5t-48 -65.5zM31 0v30l28 8q16 5 21 10t5 17v529q0 17 -8 27.5t-29 18.5l-22 10v28l168 30h39q-8 -72 -8 -144v-499q0 -12 5 -17t21 -10l29 -8v-30h-249z" />
    <glyph glyph-name="Ldot" unicode="&#x13f;" horiz-adv-x="564" 
d="M27 0v34l46 12q11 3 15 4.5t8 4t4.5 6t0.5 9.5v480q0 6 -0.5 9.5t-4.5 6t-8 4t-15 4.5l-46 12v34h311v-34l-55 -12q-19 -4 -25.5 -9t-6.5 -18v-501q40 -7 78 -7h13q69 0 108 25q16 17 38.5 67.5t31.5 84.5h31l-30 -216h-494zM318 342q0 30 21 50t51 20q31 0 52 -20
t21 -50t-21 -50t-52 -20q-30 0 -51 20t-21 50z" />
    <glyph glyph-name="ldot" unicode="&#x140;" horiz-adv-x="436" 
d="M31 0v30l28 8q16 5 21 10t5 17v529q0 17 -8 27.5t-29 18.5l-22 10v28l168 30h39q-8 -72 -8 -144v-499q0 -12 5 -17t21 -10l29 -8v-30h-249zM301 327q-7 22 3 42t34 28q23 8 44 -1.5t28 -32.5q7 -22 -3 -42t-34 -28q-23 -8 -44 2t-28 32z" />
    <glyph glyph-name="Lslash" unicode="&#x141;" horiz-adv-x="564" 
d="M31 203v50l70 41v256q0 6 -0.5 9.5t-4.5 6t-8 4t-15 4.5l-46 12v34h311v-34l-55 -12q-19 -4 -25.5 -9t-6.5 -18v-164l97 58v-50l-97 -58v-287q40 -7 78 -7h13q69 0 108 25q16 17 38.5 67.5t31.5 84.5h31l-30 -216h-494v34l46 12q11 3 15 4.5t8 4t4.5 6t0.5 9.5v174z" />
    <glyph glyph-name="lslash" unicode="&#x142;" horiz-adv-x="300" 
d="M12 222v46l73 47v279q0 17 -8 27.5t-29 18.5l-22 10v28l168 30h39q-8 -72 -8 -144v-159l69 45v-46l-69 -45v-294q0 -12 5 -17t21 -10l29 -8v-30h-249v30l28 8q16 5 21 10t5 17v204z" />
    <glyph glyph-name="Nacute" unicode="&#x143;" horiz-adv-x="724" 
d="M7 0v34l60 12q17 4 21.5 7.5t6.5 16.5q4 40 4 116v358q0 12 -5 17t-23 10l-57 15v34h213l339 -396v210q0 76 -4 116q-2 12 -8 16t-24 8l-68 12v34h252v-34l-54 -12q-17 -4 -21.5 -7.5t-6.5 -16.5q-4 -40 -4 -116v-445h-65l-400 474v-277q0 -76 4 -116q2 -12 8 -16t24 -8
l68 -12v-34h-260zM294 691l56 147q17 45 54 45q19 0 32 -13t13 -32q0 -29 -25 -52l-103 -95h-27z" />
    <glyph glyph-name="nacute" unicode="&#x144;" horiz-adv-x="608" 
d="M31 0v30l28 8q16 5 21 10t5 17v301q0 17 -7 26.5t-28 19.5l-18 8v30l162 30h31v-97q51 97 156 97q77 0 115 -43t38 -118v-254q0 -12 5 -17t21 -10l29 -8v-30h-249v30l28 8q16 5 21 10t5 17v232q0 110 -78 110q-30 0 -54 -17.5t-37 -41.5v-283q0 -12 5 -17t21 -10l29 -8
v-30h-249zM235 535l56 147q17 45 55 45q18 0 31 -13t13 -32q0 -29 -25 -52l-103 -95h-27z" />
    <glyph glyph-name="Ncommaaccent" unicode="&#x145;" horiz-adv-x="724" 
d="M7 0v34l60 12q17 4 21.5 7.5t6.5 16.5q4 40 4 116v358q0 12 -5 17t-23 10l-57 15v34h213l339 -396v210q0 76 -4 116q-2 12 -8 16t-24 8l-68 12v34h252v-34l-54 -12q-17 -4 -21.5 -7.5t-6.5 -16.5q-4 -40 -4 -116v-445h-65l-400 474v-277q0 -76 4 -116q2 -12 8 -16t24 -8
l68 -12v-34h-260zM298 -109q0 24 16 40.5t42 16.5q27 0 44 -15.5t17 -46.5q0 -28 -22 -68t-48 -66h-53q33 40 49 88q-45 11 -45 51z" />
    <glyph glyph-name="ncommaaccent" unicode="&#x146;" horiz-adv-x="608" 
d="M31 0v30l28 8q16 5 21 10t5 17v301q0 17 -7 26.5t-28 19.5l-18 8v30l162 30h31v-97q51 97 156 97q77 0 115 -43t38 -118v-254q0 -12 5 -17t21 -10l29 -8v-30h-249v30l28 8q16 5 21 10t5 17v232q0 110 -78 110q-30 0 -54 -17.5t-37 -41.5v-283q0 -12 5 -17t21 -10l29 -8
v-30h-249zM250 -109q0 24 16 40.5t42 16.5q27 0 44 -15.5t17 -46.5q0 -28 -22 -68t-48 -66h-53q33 40 49 88q-45 11 -45 51z" />
    <glyph glyph-name="Ncaron" unicode="&#x147;" horiz-adv-x="724" 
d="M7 0v34l60 12q17 4 21.5 7.5t6.5 16.5q4 40 4 116v358q0 12 -5 17t-23 10l-57 15v34h213l339 -396v210q0 76 -4 116q-2 12 -8 16t-24 8l-68 12v34h252v-34l-54 -12q-17 -4 -21.5 -7.5t-6.5 -16.5q-4 -40 -4 -116v-445h-65l-400 474v-277q0 -76 4 -116q2 -12 8 -16t24 -8
l68 -12v-34h-260zM338 692l-124 176h38l107 -86h4l104 86h38l-121 -176h-46z" />
    <glyph glyph-name="ncaron" unicode="&#x148;" horiz-adv-x="608" 
d="M31 0v30l28 8q16 5 21 10t5 17v301q0 17 -7 26.5t-28 19.5l-18 8v30l162 30h31v-97q51 97 156 97q77 0 115 -43t38 -118v-254q0 -12 5 -17t21 -10l29 -8v-30h-249v30l28 8q16 5 21 10t5 17v232q0 110 -78 110q-30 0 -54 -17.5t-37 -41.5v-283q0 -12 5 -17t21 -10l29 -8
v-30h-249zM279 536l-124 176h38l107 -86h4l104 86h38l-121 -176h-46z" />
    <glyph glyph-name="napostrophe" unicode="&#x149;" horiz-adv-x="608" 
d="M31 0v30l28 8q16 5 21 10t5 17v301q0 17 -7 26.5t-28 19.5l-18 8v30l162 30h31v-97q51 97 156 97q77 0 115 -43t38 -118v-254q0 -12 5 -17t21 -10l29 -8v-30h-249v30l28 8q16 5 21 10t5 17v232q0 110 -78 110q-30 0 -54 -17.5t-37 -41.5v-283q0 -12 5 -17t21 -10l29 -8
v-30h-249zM149 538h-53q35 42 50 88q-46 10 -46 51q0 24 16 40.5t42 16.5q27 0 44 -15.5t17 -46.5q0 -29 -22 -68.5t-48 -65.5z" />
    <glyph glyph-name="Eng" unicode="&#x14a;" horiz-adv-x="724" 
d="M7 0v34l60 12q17 4 21.5 7.5t6.5 16.5q4 40 4 116v358q0 12 -5 17t-23 10l-57 15v34h213l339 -396v210q0 76 -4 116q-2 12 -8 16t-24 8l-68 12v34h252v-34l-54 -12q-17 -4 -21.5 -7.5t-6.5 -16.5q-4 -40 -4 -116v-422q0 -108 -41.5 -162t-110.5 -54q-40 0 -64.5 17.5
t-24.5 50.5q0 24 16 40t40 16q35 0 48 -32t-7 -60q37 5 60 37.5t23 118.5v1l-404 478v-277q0 -76 4 -116q2 -12 8 -16t24 -8l68 -12v-34h-260z" />
    <glyph glyph-name="eng" unicode="&#x14b;" horiz-adv-x="608" 
d="M31 0v30l28 8q16 5 21 10t5 17v301q0 17 -7 26.5t-28 19.5l-18 8v30l162 30h31v-97q51 97 156 97q77 0 115 -43t38 -118v-343q0 -104 -63.5 -164t-170.5 -60q-34 0 -61.5 19t-27.5 52q0 28 15.5 45t43.5 17q40 0 52.5 -33.5t-2.5 -64.5q74 10 74 137v373q0 110 -78 110
q-30 0 -54 -17.5t-37 -41.5v-283q0 -12 5 -17t21 -10l29 -8v-30h-249z" />
    <glyph glyph-name="Omacron" unicode="&#x14c;" horiz-adv-x="728" 
d="M30 316q0 142 91 231t243 89q153 0 243.5 -88.5t90.5 -231.5q0 -144 -91 -236t-243 -92t-243 92t-91 236zM191 316q0 -57 8.5 -105.5t27.5 -91.5t54 -67.5t83 -24.5t83 25t54 68t27.5 91.5t8.5 104.5t-8.5 103.5t-27.5 88.5t-54 65t-83 24t-83 -24t-54 -65t-27.5 -88.5
t-8.5 -103.5zM230 702v59h268v-59h-268z" />
    <glyph glyph-name="omacron" unicode="&#x14d;" horiz-adv-x="552" 
d="M26 236q0 107 67.5 175.5t182.5 68.5q116 0 183 -67t67 -177q0 -107 -68 -177.5t-182 -70.5q-116 0 -183 68t-67 180zM177 236q0 -98 25 -154t74 -56q43 0 71 51.5t28 158.5q0 97 -25.5 151.5t-73.5 54.5q-45 0 -72 -50t-27 -156zM142 546v59h268v-59h-268z" />
    <glyph glyph-name="Obreve" unicode="&#x14e;" horiz-adv-x="728" 
d="M30 316q0 142 91 231t243 89q153 0 243.5 -88.5t90.5 -231.5q0 -144 -91 -236t-243 -92t-243 92t-91 236zM191 316q0 -57 8.5 -105.5t27.5 -91.5t54 -67.5t83 -24.5t83 25t54 68t27.5 91.5t8.5 104.5t-8.5 103.5t-27.5 88.5t-54 65t-83 24t-83 -24t-54 -65t-27.5 -88.5
t-8.5 -103.5zM364 692q-61 0 -91 42.5t-30 98.5h33q13 -68 88 -68t88 68h33q0 -56 -30 -98.5t-91 -42.5z" />
    <glyph glyph-name="obreve" unicode="&#x14f;" horiz-adv-x="552" 
d="M26 236q0 107 67.5 175.5t182.5 68.5q116 0 183 -67t67 -177q0 -107 -68 -177.5t-182 -70.5q-116 0 -183 68t-67 180zM177 236q0 -98 25 -154t74 -56q43 0 71 51.5t28 158.5q0 97 -25.5 151.5t-73.5 54.5q-45 0 -72 -50t-27 -156zM276 536q-61 0 -91 42.5t-30 98.5h33
q13 -68 88 -68t88 68h33q0 -56 -30 -98.5t-91 -42.5z" />
    <glyph glyph-name="Ohungarumlaut" unicode="&#x150;" horiz-adv-x="728" 
d="M30 316q0 142 91 231t243 89q153 0 243.5 -88.5t90.5 -231.5q0 -144 -91 -236t-243 -92t-243 92t-91 236zM191 316q0 -57 8.5 -105.5t27.5 -91.5t54 -67.5t83 -24.5t83 25t54 68t27.5 91.5t8.5 104.5t-8.5 103.5t-27.5 88.5t-54 65t-83 24t-83 -24t-54 -65t-27.5 -88.5
t-8.5 -103.5zM418 692l55 147q19 45 55 45q19 0 32 -13t13 -32q0 -27 -25 -52l-103 -95h-27zM246 692l55 147q19 45 55 45q19 0 32 -13t13 -32q0 -27 -25 -52l-103 -95h-27z" />
    <glyph glyph-name="ohungarumlaut" unicode="&#x151;" horiz-adv-x="552" 
d="M26 236q0 107 67.5 175.5t182.5 68.5q116 0 183 -67t67 -177q0 -107 -68 -177.5t-182 -70.5q-116 0 -183 68t-67 180zM177 236q0 -98 25 -154t74 -56q43 0 71 51.5t28 158.5q0 97 -25.5 151.5t-73.5 54.5q-45 0 -72 -50t-27 -156zM330 536l55 147q19 45 55 45
q19 0 32 -13t13 -32q0 -27 -25 -52l-103 -95h-27zM158 536l55 147q19 45 55 45q19 0 32 -13t13 -32q0 -27 -25 -52l-103 -95h-27z" />
    <glyph glyph-name="OE" unicode="&#x152;" horiz-adv-x="1040" 
d="M557 0v61q-84 -73 -193 -73q-152 0 -243 92t-91 236q0 142 91 231t243 89q112 0 194 -71v55h328q48 0 80 8l17 -196h-31q-31 94 -54 121q-39 28 -127 28h-9q-34 0 -72 -8v-225h91q39 22 62 95h23v-241h-23q-21 70 -62 99h-91v-254q46 -8 81 -8h15q79 0 116 25
q17 14 37 56t29 76h31l-25 -196h-417zM191 316q0 -57 8.5 -105.5t27.5 -91.5t54 -67.5t83 -24.5q62 0 102.5 44.5t55.5 106.5t15 138q0 55 -9 103t-28 89t-54 65t-82 24q-48 0 -83 -24t-54 -65t-27.5 -88.5t-8.5 -103.5z" />
    <glyph glyph-name="oe" unicode="&#x153;" horiz-adv-x="860" 
d="M26 236q0 107 67.5 175.5t182.5 68.5q119 0 186 -73q67 73 177 73q84 0 134.5 -41t50.5 -116q0 -26 -8 -58l-280 7q-1 -9 -1 -19q2 -84 41 -132.5t109 -48.5q73 0 123 53l12 -11q-61 -126 -200 -126q-104 0 -165 70q-68 -70 -179 -70q-116 0 -183 68t-67 180zM177 236
q0 -98 25 -154t74 -56q43 0 71 51.5t28 158.5q0 97 -25.5 151.5t-73.5 54.5q-45 0 -72 -50t-27 -156zM635 441q-41 0 -66 -37t-30 -100l157 11q7 13 7 39q0 87 -68 87z" />
    <glyph glyph-name="Racute" unicode="&#x154;" horiz-adv-x="648" 
d="M27 0v34l46 12q11 3 15 4.5t8 4t4.5 6t0.5 9.5v480q0 6 -0.5 9.5t-4.5 6t-8 4t-15 4.5l-46 12v34h324q236 0 236 -158q0 -75 -46.5 -115.5t-119.5 -54.5q24 -14 73 -90l58 -90q31 -49 56 -65l48 -13v-34h-183q-28 23 -82 112l-91 153h-49v-195q0 -6 0.5 -9.5t4.5 -6t8 -4
t15 -4.5l46 -12v-34h-298zM318 584h-11q-30 0 -56 -8v-268h41q152 0 152 147q0 129 -126 129zM252 691l55 147q19 45 55 45q19 0 32 -13t13 -32q0 -29 -25 -52l-103 -95h-27z" />
    <glyph glyph-name="racute" unicode="&#x155;" horiz-adv-x="388" 
d="M31 0v30l28 8q16 5 21 10t5 17v301q0 18 -7 27.5t-28 18.5l-18 8v30l162 30h31v-111q16 46 43.5 78.5t64.5 32.5q25 0 42.5 -16t17.5 -45q0 -30 -13.5 -53.5t-26.5 -30.5q-20 36 -60 36q-32 0 -68 -30v-268q0 -15 6.5 -20t29.5 -11l48 -12v-30h-278zM137 535l55 147
q19 45 55 45q19 0 32 -13t13 -32q0 -29 -25 -52l-103 -95h-27z" />
    <glyph glyph-name="Rcommaaccent" unicode="&#x156;" horiz-adv-x="648" 
d="M27 0v34l46 12q11 3 15 4.5t8 4t4.5 6t0.5 9.5v480q0 6 -0.5 9.5t-4.5 6t-8 4t-15 4.5l-46 12v34h324q236 0 236 -158q0 -75 -46.5 -115.5t-119.5 -54.5q24 -14 73 -90l58 -90q31 -49 56 -65l48 -13v-34h-183q-28 23 -82 112l-91 153h-49v-195q0 -6 0.5 -9.5t4.5 -6t8 -4
t15 -4.5l46 -12v-34h-298zM318 584h-11q-30 0 -56 -8v-268h41q152 0 152 147q0 129 -126 129zM291 -109q0 24 16 40.5t42 16.5t43 -15.5t17 -46.5q0 -28 -22 -68.5t-47 -65.5h-53q34 43 49 88q-45 11 -45 51z" />
    <glyph glyph-name="rcommaaccent" unicode="&#x157;" horiz-adv-x="388" 
d="M31 0v30l28 8q16 5 21 10t5 17v301q0 18 -7 27.5t-28 18.5l-18 8v30l162 30h31v-111q16 46 43.5 78.5t64.5 32.5q25 0 42.5 -16t17.5 -45q0 -30 -13.5 -53.5t-26.5 -30.5q-20 36 -60 36q-32 0 -68 -30v-268q0 -15 6.5 -20t29.5 -11l48 -12v-30h-278zM97 -109
q0 24 16 40.5t42 16.5q27 0 44 -15.5t17 -46.5q0 -28 -22 -68t-48 -66h-53q33 40 49 88q-45 11 -45 51z" />
    <glyph glyph-name="Rcaron" unicode="&#x158;" horiz-adv-x="648" 
d="M27 0v34l46 12q11 3 15 4.5t8 4t4.5 6t0.5 9.5v480q0 6 -0.5 9.5t-4.5 6t-8 4t-15 4.5l-46 12v34h324q236 0 236 -158q0 -75 -46.5 -115.5t-119.5 -54.5q24 -14 73 -90l58 -90q31 -49 56 -65l48 -13v-34h-183q-28 23 -82 112l-91 153h-49v-195q0 -6 0.5 -9.5t4.5 -6t8 -4
t15 -4.5l46 -12v-34h-298zM318 584h-11q-30 0 -56 -8v-268h41q152 0 152 147q0 129 -126 129zM296 692l-124 176h38l107 -86h4l104 86h37l-121 -176h-45z" />
    <glyph glyph-name="rcaron" unicode="&#x159;" horiz-adv-x="388" 
d="M31 0v30l28 8q16 5 21 10t5 17v301q0 18 -7 27.5t-28 18.5l-18 8v30l162 30h31v-111q16 46 43.5 78.5t64.5 32.5q25 0 42.5 -16t17.5 -45q0 -30 -13.5 -53.5t-26.5 -30.5q-20 36 -60 36q-32 0 -68 -30v-268q0 -15 6.5 -20t29.5 -11l48 -12v-30h-278zM181 536l-124 176h38
l107 -86h4l104 86h37l-121 -176h-45z" />
    <glyph glyph-name="Sacute" unicode="&#x15a;" horiz-adv-x="520" 
d="M60 -12h-23q6 76 -3 228h33q17 -88 45 -142q38 -51 107 -51q58 0 89 30.5t31 78.5q0 46 -23 72.5t-71 49.5l-81 37q-65 30 -95 70.5t-30 105.5q0 80 65 124.5t169 44.5q84 0 140 -29l21 25h20l7 -199h-34q-16 80 -38 120q-33 48 -115 48q-43 0 -69.5 -23.5t-26.5 -68.5
q0 -29 11.5 -50t24.5 -30t39 -23l77 -35q79 -36 117.5 -77.5t38.5 -109.5q0 -91 -73.5 -143.5t-194.5 -52.5q-73 0 -142 26zM191 691l56 147q17 45 55 45q18 0 31 -13t13 -32q0 -29 -25 -52l-103 -95h-27z" />
    <glyph glyph-name="sacute" unicode="&#x15b;" horiz-adv-x="440" 
d="M48 -12l-4 176h31q17 -73 40 -108q35 -32 85 -32q34 0 55 18t21 53q0 30 -15 48t-46 32l-71 31q-96 43 -96 132q0 71 56.5 106.5t139.5 35.5q68 0 108 -21l16 21h22v-152h-26q-11 50 -27 84q-35 33 -88 33q-31 0 -52 -17t-21 -48q0 -30 14 -45.5t45 -29.5l59 -25
q26 -12 41.5 -21t36.5 -25.5t31 -40t10 -52.5q0 -80 -58 -116.5t-155 -36.5q-60 0 -112 25l-16 -25h-24zM161 535l55 147q19 45 55 45q19 0 32 -13t13 -32q0 -29 -25 -52l-103 -95h-27z" />
    <glyph glyph-name="Scircumflex" unicode="&#x15c;" horiz-adv-x="520" 
d="M60 -12h-23q6 76 -3 228h33q17 -88 45 -142q38 -51 107 -51q58 0 89 30.5t31 78.5q0 46 -23 72.5t-71 49.5l-81 37q-65 30 -95 70.5t-30 105.5q0 80 65 124.5t169 44.5q84 0 140 -29l21 25h20l7 -199h-34q-16 80 -38 120q-33 48 -115 48q-43 0 -69.5 -23.5t-26.5 -68.5
q0 -29 11.5 -50t24.5 -30t39 -23l77 -35q79 -36 117.5 -77.5t38.5 -109.5q0 -91 -73.5 -143.5t-194.5 -52.5q-73 0 -142 26zM114 692l124 176h46l121 -176h-38l-104 86h-4l-107 -86h-38z" />
    <glyph glyph-name="scircumflex" unicode="&#x15d;" horiz-adv-x="440" 
d="M48 -12l-4 176h31q17 -73 40 -108q35 -32 85 -32q34 0 55 18t21 53q0 30 -15 48t-46 32l-71 31q-96 43 -96 132q0 71 56.5 106.5t139.5 35.5q68 0 108 -21l16 21h22v-152h-26q-11 50 -27 84q-35 33 -88 33q-31 0 -52 -17t-21 -48q0 -30 14 -45.5t45 -29.5l59 -25
q26 -12 41.5 -21t36.5 -25.5t31 -40t10 -52.5q0 -80 -58 -116.5t-155 -36.5q-60 0 -112 25l-16 -25h-24zM84 536l124 176h45l121 -176h-37l-104 86h-4l-107 -86h-38z" />
    <glyph glyph-name="Scedilla" unicode="&#x15e;" horiz-adv-x="520" 
d="M60 -12h-23q6 76 -3 228h33q17 -88 45 -142q38 -51 107 -51q58 0 89 30.5t31 78.5q0 46 -23 72.5t-71 49.5l-81 37q-65 30 -95 70.5t-30 105.5q0 80 65 124.5t169 44.5q84 0 140 -29l21 25h20l7 -199h-34q-16 80 -38 120q-33 48 -115 48q-43 0 -69.5 -23.5t-26.5 -68.5
q0 -29 11.5 -50t24.5 -30t39 -23l77 -35q79 -36 117.5 -77.5t38.5 -109.5q0 -91 -73.5 -143.5t-194.5 -52.5q-73 0 -142 26zM200 -87q0 22 15.5 37.5t35.5 17.5l9 -4q-14 -14 -14 -30t19 -30.5t38 -33t19 -43.5q0 -43 -31.5 -61t-93.5 -18q-49 0 -85 23l25 39q23 -40 57 -40
q22 0 35.5 12.5t13.5 33.5q0 24 -21.5 48t-21.5 49z" />
    <glyph glyph-name="scedilla" unicode="&#x15f;" horiz-adv-x="440" 
d="M48 -12l-4 176h31q17 -73 40 -108q35 -32 85 -32q34 0 55 18t21 53q0 30 -15 48t-46 32l-71 31q-96 43 -96 132q0 71 56.5 106.5t139.5 35.5q68 0 108 -21l16 21h22v-152h-26q-11 50 -27 84q-35 33 -88 33q-31 0 -52 -17t-21 -48q0 -30 14 -45.5t45 -29.5l59 -25
q26 -12 41.5 -21t36.5 -25.5t31 -40t10 -52.5q0 -80 -58 -116.5t-155 -36.5q-60 0 -112 25l-16 -25h-24zM180 -87q0 22 15.5 37.5t36.5 17.5l9 -4q-14 -14 -14 -30t19 -30.5t38 -33t19 -43.5q0 -79 -125 -79q-49 0 -85 23l25 39q23 -40 57 -40q22 0 35.5 12.5t13.5 33.5
q0 24 -22 48t-22 49z" />
    <glyph glyph-name="Scaron" unicode="&#x160;" horiz-adv-x="520" 
d="M60 -12h-23q6 76 -3 228h33q17 -88 45 -142q38 -51 107 -51q58 0 89 30.5t31 78.5q0 46 -23 72.5t-71 49.5l-81 37q-65 30 -95 70.5t-30 105.5q0 80 65 124.5t169 44.5q84 0 140 -29l21 25h20l7 -199h-34q-16 80 -38 120q-33 48 -115 48q-43 0 -69.5 -23.5t-26.5 -68.5
q0 -29 11.5 -50t24.5 -30t39 -23l77 -35q79 -36 117.5 -77.5t38.5 -109.5q0 -91 -73.5 -143.5t-194.5 -52.5q-73 0 -142 26zM235 692l-124 176h38l107 -86h4l104 86h38l-121 -176h-46z" />
    <glyph glyph-name="scaron" unicode="&#x161;" horiz-adv-x="440" 
d="M48 -12l-4 176h31q17 -73 40 -108q35 -32 85 -32q34 0 55 18t21 53q0 30 -15 48t-46 32l-71 31q-96 43 -96 132q0 71 56.5 106.5t139.5 35.5q68 0 108 -21l16 21h22v-152h-26q-11 50 -27 84q-35 33 -88 33q-31 0 -52 -17t-21 -48q0 -30 14 -45.5t45 -29.5l59 -25
q26 -12 41.5 -21t36.5 -25.5t31 -40t10 -52.5q0 -80 -58 -116.5t-155 -36.5q-60 0 -112 25l-16 -25h-24zM205 536l-124 176h38l107 -86h4l104 86h38l-122 -176h-45z" />
    <glyph glyph-name="Tcommaaccent" unicode="&#x162;" horiz-adv-x="604" 
d="M143 0v34l54 12q18 4 23 8t5 16v514h-12q-90 0 -129 -28q-22 -35 -45 -124h-31l12 196q32 -8 80 -8h404q48 0 80 8l12 -196h-31q-23 89 -45 124q-35 28 -132 28h-13v-514q0 -12 4.5 -16t23.5 -8l54 -12v-34h-314zM244 -109q0 24 16 40.5t42 16.5q27 0 44 -15.5t17 -46.5
q0 -28 -22 -68t-48 -66h-53q33 40 49 88q-45 11 -45 51z" />
    <glyph glyph-name="tcommaaccent" unicode="&#x163;" horiz-adv-x="340" 
d="M64 120v282h-48v41q42 13 67 38q12 16 30.5 52.5t26.5 58.5h64v-136h119v-54h-119v-253q0 -49 14.5 -70t53.5 -21t66 27l12 -15q-51 -82 -147 -82q-69 0 -104 36t-35 96zM129 -109q0 24 16 40.5t42 16.5t43 -15.5t17 -46.5q0 -28 -22 -68.5t-47 -65.5h-53q34 43 49 88
q-45 11 -45 51z" />
    <glyph glyph-name="Tcaron" unicode="&#x164;" horiz-adv-x="604" 
d="M143 0v34l54 12q18 4 23 8t5 16v514h-12q-90 0 -129 -28q-22 -35 -45 -124h-31l12 196q32 -8 80 -8h404q48 0 80 8l12 -196h-31q-23 89 -45 124q-35 28 -132 28h-13v-514q0 -12 4.5 -16t23.5 -8l54 -12v-34h-314zM277 692l-124 176h38l107 -86h4l104 86h38l-121 -176h-46
z" />
    <glyph glyph-name="tcaron" unicode="&#x165;" horiz-adv-x="340" 
d="M327 514h-53q36 42 50 88q-46 10 -46 50q0 24 16 40.5t42 16.5q27 0 44 -15.5t17 -46.5q0 -28 -22.5 -69t-47.5 -64zM64 120v282h-48v41q42 13 67 38q12 16 30.5 52.5t26.5 58.5h64v-136h119v-54h-119v-253q0 -49 14.5 -70t53.5 -21t66 27l12 -15q-51 -82 -148 -82
q-69 0 -103.5 35.5t-34.5 96.5z" />
    <glyph glyph-name="Tbar" unicode="&#x166;" horiz-adv-x="604" 
d="M106 286v42h119v256h-12q-90 0 -129 -28q-22 -35 -45 -124h-31l12 196q32 -8 80 -8h404q48 0 80 8l12 -196h-31q-23 89 -45 124q-35 28 -132 28h-13v-256h122v-42h-122v-216q0 -12 4.5 -16t23.5 -8l54 -12v-34h-314v34l54 12q18 4 23 8t5 16v216h-119z" />
    <glyph glyph-name="tbar" unicode="&#x167;" horiz-adv-x="340" 
d="M14 233v41h50v128h-48v41q42 13 67 38q12 16 30.5 52.5t26.5 58.5h64v-136h119v-54h-119v-128h114v-41h-114v-84q0 -49 14.5 -70t53.5 -21t66 27l12 -15q-51 -82 -147 -82q-69 0 -104 36t-35 96v113h-50z" />
    <glyph glyph-name="Utilde" unicode="&#x168;" horiz-adv-x="704" 
d="M95 232v315q0 22 -21 27l-41 9v37h281v-37l-54 -12q-11 -2 -14.5 -7t-3.5 -17v-315q0 -96 33.5 -139.5t105.5 -43.5q84 0 127.5 51t43.5 140v306q0 12 -5.5 17t-22.5 8l-64 12v37h219v-37l-45 -11q-20 -4 -20 -24v-308q0 -121 -66 -186.5t-191 -65.5q-262 0 -262 244z
M266 686h-27q0 47 22 82t69 35q33 0 70.5 -26t57.5 -26q23 0 35.5 15t12.5 37h27q0 -49 -24 -83t-67 -34q-32 0 -70.5 26t-57.5 26q-25 0 -36.5 -15t-11.5 -37z" />
    <glyph glyph-name="utilde" unicode="&#x169;" horiz-adv-x="588" 
d="M72 156v219q0 17 -4.5 23t-23.5 13l-25 9v27l171 30h30q-8 -57 -8 -136v-162q0 -35 3.5 -57.5t21 -42t48.5 -19.5q29 0 53 16.5t36 40.5v245q0 24 -5.5 32t-26.5 15l-30 10v27l178 31h32q-8 -64 -8 -144v-255q0 -11 5 -17t20 -11l32 -12v-26l-197 -24v95
q-47 -95 -153 -95q-76 0 -112.5 45t-36.5 123zM174 530h-27q0 47 22 82t69 35q32 0 70 -26t58 -26q23 0 35.5 15t12.5 37h27q0 -49 -24 -83t-67 -34q-32 0 -70.5 26t-57.5 26q-25 0 -36.5 -15t-11.5 -37z" />
    <glyph glyph-name="Umacron" unicode="&#x16a;" horiz-adv-x="704" 
d="M95 232v315q0 22 -21 27l-41 9v37h281v-37l-54 -12q-11 -2 -14.5 -7t-3.5 -17v-315q0 -96 33.5 -139.5t105.5 -43.5q84 0 127.5 51t43.5 140v306q0 12 -5.5 17t-22.5 8l-64 12v37h219v-37l-45 -11q-20 -4 -20 -24v-308q0 -121 -66 -186.5t-191 -65.5q-262 0 -262 244z
M252 702v59h268v-59h-268z" />
    <glyph glyph-name="umacron" unicode="&#x16b;" horiz-adv-x="588" 
d="M72 156v219q0 17 -4.5 23t-23.5 13l-25 9v27l171 30h30q-8 -57 -8 -136v-162q0 -35 3.5 -57.5t21 -42t48.5 -19.5q29 0 53 16.5t36 40.5v245q0 24 -5.5 32t-26.5 15l-30 10v27l178 31h32q-8 -64 -8 -144v-255q0 -11 5 -17t20 -11l32 -12v-26l-197 -24v95
q-47 -95 -153 -95q-76 0 -112.5 45t-36.5 123zM160 546v59h268v-59h-268z" />
    <glyph glyph-name="Ubreve" unicode="&#x16c;" horiz-adv-x="704" 
d="M95 232v315q0 22 -21 27l-41 9v37h281v-37l-54 -12q-11 -2 -14.5 -7t-3.5 -17v-315q0 -96 33.5 -139.5t105.5 -43.5q84 0 127.5 51t43.5 140v306q0 12 -5.5 17t-22.5 8l-64 12v37h219v-37l-45 -11q-20 -4 -20 -24v-308q0 -121 -66 -186.5t-191 -65.5q-262 0 -262 244z
M386 692q-61 0 -91 42.5t-30 98.5h33q13 -68 88 -68t88 68h32q0 -55 -30 -98t-90 -43z" />
    <glyph glyph-name="ubreve" unicode="&#x16d;" horiz-adv-x="588" 
d="M72 156v219q0 17 -4.5 23t-23.5 13l-25 9v27l171 30h30q-8 -57 -8 -136v-162q0 -35 3.5 -57.5t21 -42t48.5 -19.5q29 0 53 16.5t36 40.5v245q0 24 -5.5 32t-26.5 15l-30 10v27l178 31h32q-8 -64 -8 -144v-255q0 -11 5 -17t20 -11l32 -12v-26l-197 -24v95
q-47 -95 -153 -95q-76 0 -112.5 45t-36.5 123zM294 536q-61 0 -91 42.5t-30 98.5h33q13 -68 88 -68t88 68h32q0 -55 -30 -98t-90 -43z" />
    <glyph glyph-name="Uring" unicode="&#x16e;" horiz-adv-x="704" 
d="M95 232v315q0 22 -21 27l-41 9v37h281v-37l-54 -12q-11 -2 -14.5 -7t-3.5 -17v-315q0 -96 33.5 -139.5t105.5 -43.5q84 0 127.5 51t43.5 140v306q0 12 -5.5 17t-22.5 8l-64 12v37h219v-37l-45 -11q-20 -4 -20 -24v-308q0 -121 -66 -186.5t-191 -65.5q-262 0 -262 244z
M386 692q-43 0 -71 24.5t-28 63.5t28 63.5t71 24.5t71 -24.5t28 -63.5t-28 -63.5t-71 -24.5zM386 723q23 0 36.5 16.5t13.5 40.5q0 57 -50 57q-24 0 -37 -16.5t-13 -40.5q0 -57 50 -57z" />
    <glyph glyph-name="uring" unicode="&#x16f;" horiz-adv-x="588" 
d="M72 156v219q0 17 -4.5 23t-23.5 13l-25 9v27l171 30h30q-8 -57 -8 -136v-162q0 -35 3.5 -57.5t21 -42t48.5 -19.5q29 0 53 16.5t36 40.5v245q0 24 -5.5 32t-26.5 15l-30 10v27l178 31h32q-8 -64 -8 -144v-255q0 -11 5 -17t20 -11l32 -12v-26l-197 -24v95
q-47 -95 -153 -95q-76 0 -112.5 45t-36.5 123zM294 536q-43 0 -71 24.5t-28 63.5t28 63.5t71 24.5t71 -24.5t28 -63.5t-28 -63.5t-71 -24.5zM294 567q23 0 36.5 16.5t13.5 40.5q0 57 -50 57q-24 0 -37 -16.5t-13 -40.5q0 -57 50 -57z" />
    <glyph glyph-name="Uhungarumlaut" unicode="&#x170;" horiz-adv-x="704" 
d="M95 232v315q0 22 -21 27l-41 9v37h281v-37l-54 -12q-11 -2 -14.5 -7t-3.5 -17v-315q0 -96 33.5 -139.5t105.5 -43.5q84 0 127.5 51t43.5 140v306q0 12 -5.5 17t-22.5 8l-64 12v37h219v-37l-45 -11q-20 -4 -20 -24v-308q0 -121 -66 -186.5t-191 -65.5q-262 0 -262 244z
M440 692l55 147q17 45 55 45q19 0 31.5 -13t12.5 -32q0 -29 -25 -52l-103 -95h-26zM268 692l55 147q17 45 55 45q19 0 31.5 -13t12.5 -32q0 -29 -25 -52l-103 -95h-26z" />
    <glyph glyph-name="uhungarumlaut" unicode="&#x171;" horiz-adv-x="588" 
d="M72 156v219q0 17 -4.5 23t-23.5 13l-25 9v27l171 30h30q-8 -57 -8 -136v-162q0 -35 3.5 -57.5t21 -42t48.5 -19.5q29 0 53 16.5t36 40.5v245q0 24 -5.5 32t-26.5 15l-30 10v27l178 31h32q-8 -64 -8 -144v-255q0 -11 5 -17t20 -11l32 -12v-26l-197 -24v95
q-47 -95 -153 -95q-76 0 -112.5 45t-36.5 123zM176 536l55 147q17 45 55 45q19 0 31.5 -13t12.5 -32q0 -29 -25 -52l-103 -95h-26zM348 536l55 147q17 45 55 45q19 0 31.5 -13t12.5 -32q0 -29 -25 -52l-103 -95h-26z" />
    <glyph glyph-name="Uogonek" unicode="&#x172;" horiz-adv-x="704" 
d="M95 232v315q0 22 -21 27l-41 9v37h281v-37l-54 -12q-11 -2 -14.5 -7t-3.5 -17v-315q0 -96 33.5 -139.5t105.5 -43.5q84 0 127.5 51t43.5 140v306q0 12 -5.5 17t-22.5 8l-64 12v37h219v-37l-45 -11q-20 -4 -20 -24v-308q0 -121 -66 -186.5t-191 -65.5q-262 0 -262 244z
M293 -170q0 54 42.5 88.5t88.5 49.5h29q-81 -49 -81 -132q0 -33 14 -49t34 -16q23 0 58 21l-12 -32q-19 -12 -64 -12q-109 0 -109 82z" />
    <glyph glyph-name="uogonek" unicode="&#x173;" horiz-adv-x="588" 
d="M72 156v219q0 17 -4.5 23t-23.5 13l-25 9v27l171 30h30q-8 -57 -8 -136v-162q0 -35 3.5 -57.5t21 -42t48.5 -19.5q29 0 53 16.5t36 40.5v245q0 24 -5.5 32t-26.5 15l-30 10v27l178 31h32q-8 -64 -8 -144v-255q0 -11 5 -17t20 -11l32 -12v-26l-197 -24v95
q-47 -95 -153 -95q-76 0 -112.5 45t-36.5 123zM408 -170q0 54 42.5 88.5t88.5 49.5h29q-81 -49 -81 -132q0 -33 14 -49t34 -16q23 0 58 21l-12 -32q-19 -12 -64 -12q-109 0 -109 82z" />
    <glyph glyph-name="Wcircumflex" unicode="&#x174;" horiz-adv-x="940" 
d="M227 -12l-189 568q-6 14 -24 21l-23 9v34h254v-34l-38 -9q-24 -5 -11 -36l126 -382l111 303l-32 94q-5 15 -23 21l-30 9v34h260v-34l-40 -9q-21 -4 -12 -30l136 -388l126 379q6 17 2.5 26t-20.5 13l-40 9v34h192v-34l-24 -8q-15 -6 -23 -13.5t-16 -26.5l-211 -550h-80
l-134 385l-157 -385h-80zM326 692l124 176h46l121 -176h-38l-104 86h-4l-107 -86h-38z" />
    <glyph glyph-name="wcircumflex" unicode="&#x175;" horiz-adv-x="704" 
d="M153 -12l-138 409q-5 16 -28 28l-9 4v27h230v-27l-31 -8q-25 -6 -17 -31l89 -265l77 184l-27 88q-5 17 -28 28l-9 4v27h230v-27l-31 -11q-14 -5 -17.5 -11t0.5 -17l80 -265l84 251q6 17 1.5 26.5t-22.5 15.5l-33 11v27h165v-27l-9 -4q-24 -11 -32 -34l-153 -391l-97 -12
l-78 244l-101 -232zM215 536l124 176h45l121 -176h-37l-104 86h-4l-107 -86h-38z" />
    <glyph glyph-name="Ycircumflex" unicode="&#x176;" horiz-adv-x="604" 
d="M153 0v34l54 12q18 4 23 8t5 16v186l-182 294q-13 20 -29 25l-24 8v37h275v-34l-40 -11q-14 -4 -17 -10t4 -17l137 -225l115 224q12 22 -16 28l-46 11v34h192v-34l-25 -8q-20 -5 -36 -30l-158 -274v-204q0 -12 4.5 -16t23.5 -8l53 -12v-34h-313zM183 692l124 176h45
l121 -176h-37l-104 86h-4l-107 -86h-38z" />
    <glyph glyph-name="ycircumflex" unicode="&#x177;" horiz-adv-x="444" 
d="M29 -104q28 0 44 -14.5t16 -39.5q0 -20 -9 -37q49 0 91 99l24 58l-174 429q-10 26 -27 34l-9 4v27h228v-27l-32 -11q-12 -5 -15 -11t1 -17l99 -256l85 242q7 17 3 26.5t-21 15.5l-32 11v27h154v-25l-9 -6q-17 -10 -26 -31l-195 -479q-15 -39 -26.5 -62t-31 -49.5
t-46.5 -39t-63 -12.5q-40 0 -67 21.5t-27 58.5q0 29 18 46.5t47 17.5zM105 536l124 176h46l121 -176h-38l-104 86h-4l-107 -86h-38z" />
    <glyph glyph-name="Ydieresis" unicode="&#x178;" horiz-adv-x="604" 
d="M153 0v34l54 12q18 4 23 8t5 16v186l-182 294q-13 20 -29 25l-24 8v37h275v-34l-40 -11q-14 -4 -17 -10t4 -17l137 -225l115 224q12 22 -16 28l-46 11v34h192v-34l-25 -8q-20 -5 -36 -30l-158 -274v-204q0 -12 4.5 -16t23.5 -8l53 -12v-34h-313zM227 689q-26 0 -43.5 18
t-17.5 43q0 26 17.5 43t43.5 17q25 0 43 -17t18 -43q0 -25 -18 -43t-43 -18zM430 689q-26 0 -43 18t-17 43q0 26 17 43t43 17t43.5 -17t17.5 -43q0 -25 -17.5 -43t-43.5 -18z" />
    <glyph glyph-name="Zacute" unicode="&#x179;" horiz-adv-x="564" 
d="M27 0v26l338 551h-109q-82 0 -124 -12q-43 -56 -59 -130h-31l12 196q33 -11 104 -11h378v-23l-336 -550h109q90 0 133 16q41 38 76 134h31l-32 -197h-490zM231 691l56 147q17 45 55 45q18 0 31 -13t13 -32q0 -29 -25 -52l-103 -95h-27z" />
    <glyph glyph-name="zacute" unicode="&#x17a;" horiz-adv-x="448" 
d="M24 0v20l241 397h-105q-17 0 -24.5 -2.5t-13.5 -12.5l-60 -106h-28l6 124l-6 36h385v-23l-238 -393h111q18 0 30 18l75 119h30q-10 -46 -16 -116q-4 -43 -5 -61h-382zM164 535l55 147q19 45 55 45q19 0 32 -13t13 -32q0 -29 -25 -52l-103 -95h-27z" />
    <glyph glyph-name="Zdotaccent" unicode="&#x17b;" horiz-adv-x="564" 
d="M27 0v26l338 551h-109q-82 0 -124 -12q-43 -56 -59 -130h-31l12 196q33 -11 104 -11h378v-23l-336 -550h109q90 0 133 16q41 38 76 134h31l-32 -197h-490zM300 693q-31 0 -50.5 19.5t-19.5 50.5q0 29 20 49t50 20t50 -20t20 -49q0 -30 -19.5 -50t-50.5 -20z" />
    <glyph glyph-name="zdotaccent" unicode="&#x17c;" horiz-adv-x="448" 
d="M24 0v20l241 397h-105q-17 0 -24.5 -2.5t-13.5 -12.5l-60 -106h-28l6 124l-6 36h385v-23l-238 -393h111q18 0 30 18l75 119h30q-10 -46 -16 -116q-4 -43 -5 -61h-382zM233 537q-31 0 -51 19.5t-20 50.5q0 29 20 49t51 20q30 0 50 -20t20 -49q0 -30 -20 -50t-50 -20z" />
    <glyph glyph-name="Zcaron" unicode="&#x17d;" horiz-adv-x="564" 
d="M27 0v26l338 551h-109q-82 0 -124 -12q-43 -56 -59 -130h-31l12 196q33 -11 104 -11h378v-23l-336 -550h109q90 0 133 16q41 38 76 134h31l-32 -197h-490zM275 692l-124 176h38l107 -86h4l104 86h38l-121 -176h-46z" />
    <glyph glyph-name="zcaron" unicode="&#x17e;" horiz-adv-x="448" 
d="M24 0v20l241 397h-105q-17 0 -24.5 -2.5t-13.5 -12.5l-60 -106h-28l6 124l-6 36h385v-23l-238 -393h111q18 0 30 18l75 119h30q-10 -46 -16 -116q-4 -43 -5 -61h-382zM208 536l-124 176h38l107 -86h4l104 86h37l-121 -176h-45z" />
    <glyph glyph-name="longs" unicode="&#x17f;" horiz-adv-x="336" 
d="M20 402l16 54h49v28q0 109 60.5 166.5t165.5 57.5q99 0 99 -68q0 -24 -15.5 -38t-38.5 -14q-31 0 -47.5 25t-4.5 63q-79 0 -79 -144v-463q0 -12 4.5 -17t24.5 -10l56 -12v-30h-282v30l25 8q27 10 30 17q2 4 2 10v337h-65z" />
    <glyph glyph-name="florin" unicode="&#x192;" 
d="M82 292l20 52h94l4 36q15 127 80 181.5t157 54.5q43 0 73 -19.5t30 -54.5q0 -28 -17 -43t-42 -15q-24 0 -39 14.5t-16 40.5q0 18 8 39q-91 0 -106 -138l-9 -96h133v-52h-138l-26 -268q-14 -141 -77.5 -208.5t-176.5 -67.5q-43 0 -71 20t-28 57q0 29 18 44.5t45 15.5
q25 0 42 -15t17 -42q0 -22 -11 -42q56 0 80.5 48.5t37.5 169.5l27 288h-109z" />
    <glyph glyph-name="AEacute" unicode="&#x1fc;" horiz-adv-x="872" 
d="M-13 0v34l36 9q25 6 39 33l263 496l-56 14v34h449q48 0 80 8l17 -196h-31q-31 94 -54 121q-39 28 -122 28h-9q-28 0 -66 -8v-225h80q39 22 62 95h23v-241h-23q-21 70 -62 99h-80v-254q46 -8 75 -8h16q73 0 110 25q17 14 37 56t29 76h31l-25 -196h-496v34l45 12
q11 3 15 4.5t8 4t4.5 6t0.5 9.5v113h-195l-54 -106q-14 -29 10 -34l45 -9v-34h-202zM212 231h171v336zM395 691l56 147q17 45 55 45q18 0 31 -13t13 -32q0 -29 -25 -52l-103 -95h-27z" />
    <glyph glyph-name="aeacute" unicode="&#x1fd;" horiz-adv-x="747" 
d="M101 292q-26 0 -41.5 16t-15.5 42q0 41 59 79l20 12q64 39 134 39q83 0 126 -42q61 42 143 42q86 0 135.5 -40.5t49.5 -116.5q0 -26 -8 -58l-281 7v-27q2 -80 41.5 -126.5t109.5 -46.5q72 0 122 53l12 -11q-59 -126 -200 -126q-112 0 -172 80q-71 -81 -177 -80
q-62 1 -97 31.5t-35 88.5q0 57 45 87t125 50l92 22v60q0 54 -21.5 78.5t-67.5 24.5q-34 0 -60 -14l8 -16q15 -34 15 -50q0 -27 -16 -42.5t-45 -15.5zM288 230v2l-38 -10q-102 -35 -102 -99q0 -34 18 -52t49 -18q63 0 105 37q-32 59 -32 140zM522 441q-41 0 -65.5 -37
t-30.5 -99l157 10q7 13 7 39q0 87 -68 87zM336 535l55 147q19 45 55 45q19 0 32 -13t13 -32q0 -27 -25 -52l-103 -95h-27z" />
    <glyph glyph-name="Oslashacute" unicode="&#x1fe;" horiz-adv-x="728" 
d="M30 316q0 142 91 231t243 89q86 0 158 -32l39 64h43l-50 -81q144 -88 144 -271q0 -144 -91 -236t-243 -92q-85 0 -157 32l-40 -65h-43l51 83q-69 43 -107 115.5t-38 162.5zM191 316q0 -124 35 -195l256 418q-45 58 -118 58q-48 0 -83 -24t-54 -65t-27.5 -88.5
t-8.5 -103.5zM537 316q0 113 -34 187l-256 -418q43 -58 117 -58q48 0 83 25t54 68t27.5 91.5t8.5 104.5zM295 691l56 147q17 45 55 45q18 0 31 -13t13 -32q0 -29 -25 -52l-103 -95h-27z" />
    <glyph glyph-name="oslashacute" unicode="&#x1ff;" horiz-adv-x="552" 
d="M26 236q0 107 67.5 175.5t182.5 68.5q72 0 127 -28l37 56h40l-49 -72q95 -67 95 -200q0 -107 -68 -177.5t-182 -70.5q-70 0 -127 27l-37 -55h-40l48 72q-94 66 -94 204zM177 236q0 -64 10 -105l166 248q-25 63 -77 63q-45 0 -72 -50t-27 -156zM375 236q0 60 -10 101
l-166 -247q27 -64 77 -64q43 0 71 51.5t28 158.5zM207 535l56 147q17 45 55 45q18 0 31 -13t13 -32q0 -29 -25 -52l-103 -95h-27z" />
    <glyph glyph-name="Scommaaccent" unicode="&#x218;" horiz-adv-x="520" 
d="M60 -12h-23q6 76 -3 228h33q17 -88 45 -142q38 -51 107 -51q58 0 89 30.5t31 78.5q0 46 -23 72.5t-71 49.5l-81 37q-65 30 -95 70.5t-30 105.5q0 80 65 124.5t169 44.5q84 0 140 -29l21 25h20l7 -199h-34q-16 80 -38 120q-33 48 -115 48q-43 0 -69.5 -23.5t-26.5 -68.5
q0 -29 11.5 -50t24.5 -30t39 -23l77 -35q79 -36 117.5 -77.5t38.5 -109.5q0 -91 -73.5 -143.5t-194.5 -52.5q-73 0 -142 26zM182 -109q0 25 15.5 41t41.5 16q27 0 44 -15.5t17 -46.5q0 -29 -22 -68.5t-48 -65.5h-52q34 43 49 88q-45 10 -45 51z" />
    <glyph glyph-name="scommaaccent" unicode="&#x219;" horiz-adv-x="440" 
d="M48 -12l-4 176h31q17 -73 40 -108q35 -32 85 -32q34 0 55 18t21 53q0 30 -15 48t-46 32l-71 31q-96 43 -96 132q0 71 56.5 106.5t139.5 35.5q68 0 108 -21l16 21h22v-152h-26q-11 50 -27 84q-35 33 -88 33q-31 0 -52 -17t-21 -48q0 -30 14 -45.5t45 -29.5l59 -25
q26 -12 41.5 -21t36.5 -25.5t31 -40t10 -52.5q0 -80 -58 -116.5t-155 -36.5q-60 0 -112 25l-16 -25h-24zM162 -109q0 24 16 40.5t42 16.5q27 0 44 -15.5t17 -46.5q0 -28 -22 -68t-48 -66h-53q33 40 49 88q-45 11 -45 51z" />
    <glyph glyph-name="uni021A" unicode="&#x21a;" horiz-adv-x="604" 
d="M143 0v34l54 12q18 4 23 8t5 16v514h-12q-90 0 -129 -28q-22 -35 -45 -124h-31l12 196q32 -8 80 -8h404q48 0 80 8l12 -196h-31q-23 89 -45 124q-35 28 -132 28h-13v-514q0 -12 4.5 -16t23.5 -8l54 -12v-34h-314zM262 -87q0 22 15.5 37.5t36.5 17.5l9 -4q-14 -14 -14 -30
t19 -30.5t38 -33t19 -43.5q0 -79 -125 -79q-49 0 -85 23l25 39q23 -40 57 -40q22 0 35.5 12.5t13.5 33.5q0 24 -22 48t-22 49z" />
    <glyph glyph-name="uni021B" unicode="&#x21b;" horiz-adv-x="340" 
d="M64 120v282h-48v41q42 13 67 38q12 16 30.5 52.5t26.5 58.5h64v-136h119v-54h-119v-253q0 -49 14.5 -70t53.5 -21t66 27l12 -15q-51 -82 -147 -82q-69 0 -104 36t-35 96zM143 -87q0 22 15 37.5t36 17.5l9 -4q-14 -14 -14 -30t19 -30.5t38 -33t19 -43.5q0 -43 -31.5 -61
t-93.5 -18q-49 0 -85 23l25 39q23 -40 57 -40q22 0 35.5 12.5t13.5 33.5q0 24 -21.5 48t-21.5 49z" />
    <glyph glyph-name="circumflex" unicode="&#x2c6;" horiz-adv-x="552" 
d="M130 536l124 176h46l121 -176h-38l-104 86h-4l-107 -86h-38z" />
    <glyph glyph-name="caron" unicode="&#x2c7;" horiz-adv-x="552" 
d="M251 536l-124 176h38l107 -86h4l104 86h38l-121 -176h-46z" />
    <glyph glyph-name="uni02C9" unicode="&#x2c9;" horiz-adv-x="552" 
d="M142 546v56h268v-56h-268z" />
    <glyph glyph-name="breve" unicode="&#x2d8;" horiz-adv-x="552" 
d="M276 536q-61 0 -91 42.5t-30 98.5h33q13 -68 88 -68t88 68h33q0 -56 -30 -98.5t-91 -42.5z" />
    <glyph glyph-name="dotaccent" unicode="&#x2d9;" horiz-adv-x="552" 
d="M276 537q-31 0 -50.5 19.5t-19.5 50.5q0 29 20 49t50 20t50 -20t20 -49q0 -30 -19.5 -50t-50.5 -20z" />
    <glyph glyph-name="ring" unicode="&#x2da;" horiz-adv-x="552" 
d="M276 536q-43 0 -71 24.5t-28 63.5t28 63.5t71 24.5t71 -24.5t28 -63.5t-28 -63.5t-71 -24.5zM276 567q24 0 37 16.5t13 40.5q0 57 -50 57q-24 0 -37 -16.5t-13 -40.5q0 -57 50 -57z" />
    <glyph glyph-name="ogonek" unicode="&#x2db;" horiz-adv-x="552" 
d="M174 -170q0 54 42.5 88.5t88.5 49.5h29q-81 -49 -81 -132q0 -33 14 -49t34 -16q23 0 58 21l-12 -32q-19 -12 -63 -12q-110 0 -110 82z" />
    <glyph glyph-name="tilde" unicode="&#x2dc;" horiz-adv-x="552" 
d="M156 530h-27q0 47 22 82t69 35q32 0 70 -26t58 -26q23 0 35.5 15t12.5 37h27q0 -49 -24 -83t-67 -34q-32 0 -70.5 26t-57.5 26q-25 0 -36.5 -15t-11.5 -37z" />
    <glyph glyph-name="hungarumlaut" unicode="&#x2dd;" horiz-adv-x="552" 
d="M330 536l55 147q19 45 55 45q19 0 32 -13t13 -32q0 -27 -25 -52l-103 -95h-27zM158 536l55 147q19 45 55 45q19 0 32 -13t13 -32q0 -27 -25 -52l-103 -95h-27z" />
    <glyph glyph-name="uni0394" unicode="&#x394;" horiz-adv-x="652" 
d="M6 0l305 636h43l292 -636h-640zM287 463l-199 -413h392z" />
    <glyph glyph-name="uni03A9" unicode="&#x3a9;" horiz-adv-x="720" 
d="M43 0v168h29l12 -38q6 -17 12 -24t19 -7h150v41q-237 54 -237 241q0 124 92 189.5t240 65.5t240 -65.5t92 -189.5q0 -187 -237 -241v-41h150q13 0 19 7t12 24l12 38h29v-168h-268v165q68 21 95.5 76t27.5 144q0 95 -44.5 156.5t-127.5 61.5t-127.5 -61.5t-44.5 -156.5
q0 -89 27.5 -144t95.5 -76v-165h-268z" />
    <glyph glyph-name="uni03BC" unicode="&#x3bc;" horiz-adv-x="564" 
d="M53 84q0 59 -4 202.5t-4 169.5h140v-272q0 -26 2.5 -45t10 -38.5t23.5 -30t40 -10.5q57 0 83 47v349h137v-355q0 -48 31 -48q29 0 54 31l12 -16q-34 -76 -127 -76q-39 0 -69.5 20t-36.5 59q-9 -32 -37 -55.5t-69 -23.5q-53 0 -70 37q12 -128 12 -193q0 -32 -17 -54
t-57 -22q-76 0 -76 73q0 57 11 137t11 114z" />
    <glyph glyph-name="pi" unicode="&#x3c0;" horiz-adv-x="568" 
d="M49 46q0 54 86 98q12 40 18 200h-17q-40 0 -74 -18l-8 -4l-18 15q12 69 39.5 96t78.5 27l323 -8q11 0 16.5 5.5t11.5 18.5l8 20h22q7 -23 7 -66q0 -49 -21 -67.5t-68 -18.5h-2v-243q0 -48 30 -48q28 0 53 31l12 -16q-34 -76 -123 -76q-109 0 -109 104v248h-117v-115
q0 -60 -3.5 -101t-13 -74.5t-27 -49.5t-43.5 -16q-27 0 -44 15.5t-17 42.5z" />
    <glyph glyph-name="Wgrave" unicode="&#x1e80;" horiz-adv-x="940" 
d="M227 -12l-189 568q-6 14 -24 21l-23 9v34h254v-34l-38 -9q-24 -5 -11 -36l126 -382l111 303l-32 94q-5 15 -23 21l-30 9v34h260v-34l-40 -9q-21 -4 -12 -30l136 -388l126 379q6 17 2.5 26t-20.5 13l-40 9v34h192v-34l-24 -8q-15 -6 -23 -13.5t-16 -26.5l-211 -550h-80
l-134 385l-157 -385h-80zM508 692l-103 95q-25 23 -25 52q0 19 13 32t32 13q36 0 55 -45l55 -147h-27z" />
    <glyph glyph-name="wgrave" unicode="&#x1e81;" horiz-adv-x="704" 
d="M153 -12l-138 409q-5 16 -28 28l-9 4v27h230v-27l-31 -8q-25 -6 -17 -31l89 -265l77 184l-27 88q-5 17 -28 28l-9 4v27h230v-27l-31 -11q-14 -5 -17.5 -11t0.5 -17l80 -265l84 251q6 17 1.5 26.5t-22.5 15.5l-33 11v27h165v-27l-9 -4q-24 -11 -32 -34l-153 -391l-97 -12
l-78 244l-101 -232zM397 536l-103 95q-25 23 -25 52q0 19 12.5 32t31.5 13q38 0 55 -45l56 -147h-27z" />
    <glyph glyph-name="Wacute" unicode="&#x1e82;" horiz-adv-x="940" 
d="M227 -12l-189 568q-6 14 -24 21l-23 9v34h254v-34l-38 -9q-24 -5 -11 -36l126 -382l111 303l-32 94q-5 15 -23 21l-30 9v34h260v-34l-40 -9q-21 -4 -12 -30l136 -388l126 379q6 17 2.5 26t-20.5 13l-40 9v34h192v-34l-24 -8q-15 -6 -23 -13.5t-16 -26.5l-211 -550h-80
l-134 385l-157 -385h-80zM403 691l56 147q17 45 55 45q18 0 31 -13t13 -32q0 -29 -25 -52l-103 -95h-27z" />
    <glyph glyph-name="wacute" unicode="&#x1e83;" horiz-adv-x="704" 
d="M153 -12l-138 409q-5 16 -28 28l-9 4v27h230v-27l-31 -8q-25 -6 -17 -31l89 -265l77 184l-27 88q-5 17 -28 28l-9 4v27h230v-27l-31 -11q-14 -5 -17.5 -11t0.5 -17l80 -265l84 251q6 17 1.5 26.5t-22.5 15.5l-33 11v27h165v-27l-9 -4q-24 -11 -32 -34l-153 -391l-97 -12
l-78 244l-101 -232zM292 535l55 147q19 45 55 45q19 0 32 -13t13 -32q0 -29 -25 -52l-103 -95h-27z" />
    <glyph glyph-name="Wdieresis" unicode="&#x1e84;" horiz-adv-x="940" 
d="M227 -12l-189 568q-6 14 -24 21l-23 9v34h254v-34l-38 -9q-24 -5 -11 -36l126 -382l111 303l-32 94q-5 15 -23 21l-30 9v34h260v-34l-40 -9q-21 -4 -12 -30l136 -388l126 379q6 17 2.5 26t-20.5 13l-40 9v34h192v-34l-24 -8q-15 -6 -23 -13.5t-16 -26.5l-211 -550h-80
l-134 385l-157 -385h-80zM370 689q-26 0 -43 18t-17 43q0 26 17 43t43 17t43.5 -17t17.5 -43q0 -25 -17.5 -43t-43.5 -18zM574 689q-26 0 -43.5 18t-17.5 43q0 26 17.5 43t43.5 17q25 0 42.5 -17t17.5 -43q0 -25 -17.5 -43t-42.5 -18z" />
    <glyph glyph-name="wdieresis" unicode="&#x1e85;" horiz-adv-x="704" 
d="M153 -12l-138 409q-5 16 -28 28l-9 4v27h230v-27l-31 -8q-25 -6 -17 -31l89 -265l77 184l-27 88q-5 17 -28 28l-9 4v27h230v-27l-31 -11q-14 -5 -17.5 -11t0.5 -17l80 -265l84 251q6 17 1.5 26.5t-22.5 15.5l-33 11v27h165v-27l-9 -4q-24 -11 -32 -34l-153 -391l-97 -12
l-78 244l-101 -232zM259 533q-26 0 -43.5 18t-17.5 43q0 26 17.5 43t43.5 17q25 0 43 -17t18 -43q0 -25 -18 -43t-43 -18zM462 533q-26 0 -43 18t-17 43q0 26 17 43t43 17t43.5 -17t17.5 -43q0 -25 -17.5 -43t-43.5 -18z" />
    <glyph glyph-name="Ygrave" unicode="&#x1ef2;" horiz-adv-x="604" 
d="M153 0v34l54 12q18 4 23 8t5 16v186l-182 294q-13 20 -29 25l-24 8v37h275v-34l-40 -11q-14 -4 -17 -10t4 -17l137 -225l115 224q12 22 -16 28l-46 11v34h192v-34l-25 -8q-20 -5 -36 -30l-158 -274v-204q0 -12 4.5 -16t23.5 -8l53 -12v-34h-313zM365 692l-103 95
q-25 23 -25 52q0 19 12.5 32t31.5 13q38 0 55 -45l56 -147h-27z" />
    <glyph glyph-name="ygrave" unicode="&#x1ef3;" horiz-adv-x="444" 
d="M29 -104q28 0 44 -14.5t16 -39.5q0 -20 -9 -37q49 0 91 99l24 58l-174 429q-10 26 -27 34l-9 4v27h228v-27l-32 -11q-12 -5 -15 -11t1 -17l99 -256l85 242q7 17 3 26.5t-21 15.5l-32 11v27h154v-25l-9 -6q-17 -10 -26 -31l-195 -479q-15 -39 -26.5 -62t-31 -49.5
t-46.5 -39t-63 -12.5q-40 0 -67 21.5t-27 58.5q0 29 18 46.5t47 17.5zM287 536l-103 95q-25 23 -25 52q0 19 13 32t32 13q36 0 55 -45l55 -147h-27z" />
    <glyph glyph-name="endash" unicode="&#x2013;" horiz-adv-x="488" 
d="M28 223v66h432v-66h-432z" />
    <glyph glyph-name="emdash" unicode="&#x2014;" horiz-adv-x="976" 
d="M28 223v66h920v-66h-920z" />
    <glyph glyph-name="quoteleft" unicode="&#x2018;" horiz-adv-x="264" 
d="M136 362q-31 0 -53.5 21t-22.5 65q0 99 96 188h56q-32 -27 -53 -64t-21 -72q68 -14 68 -69q0 -31 -20 -50t-50 -19z" />
    <glyph glyph-name="quoteright" unicode="&#x2019;" horiz-adv-x="264" 
d="M108 362h-56q32 27 53 64t21 72q-68 14 -68 69q0 31 20 50t50 19q31 0 53.5 -21t22.5 -65q0 -62 -31.5 -111.5t-64.5 -76.5z" />
    <glyph glyph-name="quotesinglbase" unicode="&#x201a;" horiz-adv-x="264" 
d="M58 58q0 31 20 49.5t50 18.5q31 0 53.5 -20.5t22.5 -64.5q0 -62 -31 -111.5t-65 -77.5h-56q32 27 53 64t21 72q-68 14 -68 70z" />
    <glyph glyph-name="quotedblleft" unicode="&#x201c;" horiz-adv-x="444" 
d="M322 362q-31 0 -53.5 21t-22.5 65q0 99 96 188h55q-32 -28 -52.5 -64.5t-20.5 -71.5q68 -14 68 -69q0 -31 -20 -50t-50 -19zM130 362q-31 0 -53 21t-22 65q0 100 95 188h56q-32 -27 -53 -64t-21 -72q69 -14 69 -69q0 -31 -20.5 -50t-50.5 -19z" />
    <glyph glyph-name="quotedblright" unicode="&#x201d;" horiz-adv-x="444" 
d="M294 362h-56q32 27 53 64t21 72q-69 14 -69 69q0 31 20.5 50t50.5 19q31 0 53 -21t22 -65q0 -63 -31 -112.5t-64 -75.5zM102 362h-55q32 28 52.5 64.5t20.5 71.5q-68 14 -68 69q0 31 20 50t50 19q31 0 53.5 -21t22.5 -65q0 -62 -31.5 -111.5t-64.5 -76.5z" />
    <glyph glyph-name="quotedblbase" unicode="&#x201e;" horiz-adv-x="444" 
d="M243 58q0 31 20.5 49.5t50.5 18.5q31 0 53 -20.5t22 -64.5q0 -62 -31 -111.5t-64 -77.5h-56q32 27 53 64t21 72q-69 14 -69 70zM52 58q0 31 20 49.5t50 18.5q31 0 53.5 -20.5t22.5 -64.5q0 -62 -31 -111.5t-65 -77.5h-55q32 28 52.5 64.5t20.5 71.5q-68 14 -68 70z" />
    <glyph glyph-name="dagger" unicode="&#x2020;" horiz-adv-x="448" 
d="M190 -232v716h-166v68h166v196h72v-196h166v-68h-166v-716h-72z" />
    <glyph glyph-name="daggerdbl" unicode="&#x2021;" horiz-adv-x="448" 
d="M24 112v68h166v304h-166v68h166v196h72v-196h166v-68h-166v-304h166v-68h-166v-344h-72v344h-166z" />
    <glyph glyph-name="bullet" unicode="&#x2022;" horiz-adv-x="392" 
d="M196 140q-49 0 -82.5 34t-33.5 82q0 49 33.5 82.5t82.5 33.5q48 0 82 -33.5t34 -82.5q0 -48 -34 -82t-82 -34z" />
    <glyph glyph-name="ellipsis" unicode="&#x2026;" horiz-adv-x="816" 
d="M603 62q0 33 21 53.5t56 20.5t56 -20.5t21 -53.5t-21 -53.5t-56 -20.5t-56 20.5t-21 53.5zM331 62q0 33 21 53.5t56 20.5t56 -20.5t21 -53.5t-21 -53.5t-56 -20.5t-56 20.5t-21 53.5zM59 62q0 33 21 53.5t56 20.5t56 -20.5t21 -53.5t-21 -53.5t-56 -20.5t-56 20.5
t-21 53.5z" />
    <glyph glyph-name="perthousand" unicode="&#x2030;" horiz-adv-x="1325" 
d="M242 -12l349 648h75l-349 -648h-75zM213 253q-80 0 -125.5 50.5t-45.5 138.5q0 85 46.5 138t124.5 53q81 0 126.5 -50t45.5 -138q0 -85 -46.5 -138.5t-125.5 -53.5zM213 284q20 0 33 11.5t18.5 35.5t7 48t1.5 63q0 79 -12 119.5t-48 40.5q-20 0 -33 -11t-18.5 -35.5
t-7 -48t-1.5 -62.5q0 -79 12 -120t48 -41zM940 177q0 85 46.5 138t125.5 53q80 0 125.5 -50t45.5 -138q0 -85 -46 -138.5t-125 -53.5q-81 0 -126.5 51t-45.5 138zM527 177q0 85 46.5 138t125.5 53q81 0 126 -50t45 -138q0 -85 -46 -138.5t-125 -53.5q-81 0 -126.5 51
t-45.5 138zM1052 180q0 -79 12 -120t48 -41q26 0 39.5 23t16.5 53t3 82q0 79 -12 119.5t-47 40.5q-20 0 -33 -11t-18.5 -35.5t-7 -48t-1.5 -62.5zM639 180q0 -79 12 -120t48 -41q20 0 33 11.5t18.5 35.5t7 48t1.5 63q0 79 -12 119.5t-48 40.5q-20 0 -33 -11t-18.5 -35.5
t-7 -48t-1.5 -62.5z" />
    <glyph glyph-name="guilsinglleft" unicode="&#x2039;" horiz-adv-x="220" 
d="M194 100l-174 148v48l174 148v-44l-89 -124v-4l89 -128v-44z" />
    <glyph glyph-name="guilsinglright" unicode="&#x203a;" horiz-adv-x="220" 
d="M26 100v44l89 128v4l-89 124v44l174 -148v-48z" />
    <glyph glyph-name="fraction" unicode="&#x2044;" horiz-adv-x="56" 
d="M-108 -12h-74l349 648h74z" />
    <glyph glyph-name="uni2070" unicode="&#x2070;" horiz-adv-x="391" 
d="M22 601q0 85 46.5 138t125.5 53q80 0 125.5 -50t45.5 -138q0 -85 -46 -138.5t-125 -53.5q-81 0 -126.5 51t-45.5 138zM194 443q20 0 33 11.5t18.5 35.5t7 48t1.5 63q0 79 -12 119.5t-48 40.5q-20 0 -33 -11t-18.5 -35.5t-7 -48t-1.5 -62.5q0 -79 12 -120t48 -41z" />
    <glyph glyph-name="uni2074" unicode="&#x2074;" horiz-adv-x="391" 
d="M16 512v24l179 237q16 0 47.5 7.5t37.5 11.5h21v-232h53v-48h-53v-43q0 -10 11 -12l38 -8v-29h-216v29l49 8q13 1 13 12v43h-180zM74 560h122v162z" />
    <glyph glyph-name="uni2075" unicode="&#x2075;" horiz-adv-x="391" 
d="M36 480q0 20 11 32t32 12q24 0 34 -18.5t17 -57.5q14 -8 33 -8q41 0 61 23t20 63q0 82 -84 82q-39 0 -70 -18h-23q15 85 16 194h261l-27 -73h-202q0 -42 -8 -84q31 25 90 25q72 0 113.5 -29.5t41.5 -85.5q0 -58 -54 -91.5t-135 -33.5q-54 0 -90.5 17.5t-36.5 50.5z" />
    <glyph glyph-name="uni2076" unicode="&#x2076;" horiz-adv-x="391" 
d="M28 583q0 102 62.5 155.5t160.5 53.5q29 0 55.5 -9t39.5 -20v-28q-33 12 -80 12q-51 0 -85.5 -32t-43.5 -87q34 34 89 34q63 0 101.5 -30.5t38.5 -88.5q0 -60 -45 -95.5t-122 -35.5q-72 0 -121.5 41t-49.5 130zM133 597v-21q0 -133 69 -133q31 0 46.5 26t15.5 67
q0 81 -68 81q-34 0 -63 -20z" />
    <glyph glyph-name="uni2077" unicode="&#x2077;" horiz-adv-x="391" 
d="M67 420l215 298h-252l11 73h320v-22l-207 -349h-87z" />
    <glyph glyph-name="uni2078" unicode="&#x2078;" horiz-adv-x="391" 
d="M33 501q0 66 92 89q-79 36 -79 98q0 48 41.5 76t110.5 28q75 0 113 -23t38 -61q0 -29 -23 -51t-60 -34q90 -38 90 -104q0 -54 -46 -80.5t-117 -26.5t-115.5 22t-44.5 67zM197 563l-40 14q-35 -25 -35 -68q0 -69 68 -69q31 0 49.5 15.5t18.5 43.5q0 45 -61 64zM139 710
q0 -24 13.5 -37.5t40.5 -22.5l43 -16q29 24 29 67q0 63 -64 63q-28 0 -45 -13.5t-17 -40.5z" />
    <glyph glyph-name="uni2079" unicode="&#x2079;" horiz-adv-x="391" 
d="M44 444v28q27 -15 82 -15q51 0 86 31.5t44 85.5q-35 -32 -91 -32q-63 0 -101.5 30t-38.5 90t44 95t121 35q76 0 125 -39.5t49 -121.5q0 -107 -59.5 -163t-158.5 -56q-70 0 -102 32zM196 591q39 0 63 13v24q0 133 -72 133q-27 0 -44 -22.5t-17 -63.5q0 -84 70 -84z" />
    <glyph glyph-name="parenleft.superior" unicode="&#x207d;" horiz-adv-x="196" 
d="M19 552v45q0 98 47.5 157t113.5 59v-23q-37 0 -60.5 -51t-23.5 -142v-45q0 -91 23.5 -142t60.5 -51v-23q-66 0 -113.5 59t-47.5 157z" />
    <glyph glyph-name="parenright.superior" unicode="&#x207e;" horiz-adv-x="196" 
d="M13 336v23q37 0 61 51.5t24 141.5v45q0 90 -24 141.5t-61 51.5v23q66 0 113.5 -59t47.5 -157v-45q0 -98 -47.5 -157t-113.5 -59z" />
    <glyph glyph-name="n.superior" unicode="&#x207f;" horiz-adv-x="485" 
d="M23 420v26l25 8q11 3 15 7t4 13v231q0 11 -5.5 17t-21.5 13l-17 8v26l129 23h28v-75q40 75 120 75q118 0 118 -128v-190q0 -9 4 -13t14 -7l24 -8v-26h-196v26l23 8q11 4 14.5 7.5t3.5 12.5v176q0 77 -56 77q-45 0 -69 -44v-209q0 -16 17 -20l28 -8v-26h-202z" />
    <glyph glyph-name="uni2080" unicode="&#x2080;" horiz-adv-x="391" 
d="M22 21q0 85 46.5 138t125.5 53q80 0 125.5 -50t45.5 -138q0 -86 -45.5 -139t-125.5 -53q-81 0 -126.5 51t-45.5 138zM194 -137q20 0 33 11.5t18.5 35.5t7 48t1.5 63q0 79 -12 119.5t-48 40.5q-20 0 -33 -11t-18.5 -35.5t-7 -48t-1.5 -62.5q0 -79 12 -120t48 -41z" />
    <glyph glyph-name="uni2081" unicode="&#x2081;" horiz-adv-x="391" 
d="M56 -160v30l74 11q11 2 14.5 5.5t3.5 11.5v230h-4l-92 -24l-8 30q35 11 94.5 36.5t80.5 41.5h37v-314q0 -5 1 -8t4 -4.5t5 -2t8 -2.5l61 -11v-30h-279z" />
    <glyph glyph-name="uni2082" unicode="&#x2082;" horiz-adv-x="391" 
d="M34 -160v24l101 86q88 77 88 144q0 61 -73 61q-31 0 -54.5 -15t-23.5 -50q0 -10 4 -25h-26q-4 11 -4 35q0 48 37 80t107 32q65 0 102.5 -27.5t37.5 -79.5q0 -51 -37 -89.5t-111 -81.5l-35 -24h145q14 0 23 9t35 51h23q-28 -82 -36 -130h-303z" />
    <glyph glyph-name="uni2083" unicode="&#x2083;" horiz-adv-x="391" 
d="M37 -101q0 19 11.5 32.5t31.5 13.5q23 0 33.5 -16.5t15.5 -59.5q16 -9 35 -9q38 0 60 20.5t22 60.5q0 32 -21 50.5t-57 18.5q-21 0 -42 -9v35q108 10 108 74q0 24 -18 36.5t-46 12.5q-33 0 -58.5 -17t-25.5 -49h-26q0 54 38 86.5t101 32.5q131 0 131 -87q0 -31 -23 -53
t-57 -31q41 -4 70.5 -26.5t29.5 -63.5q0 -56 -52 -87.5t-134 -31.5q-55 0 -91 17.5t-36 49.5z" />
    <glyph glyph-name="uni2084" unicode="&#x2084;" horiz-adv-x="391" 
d="M16 -68v24l179 237q16 0 47.5 7.5t37.5 11.5h21v-232h53v-48h-53v-43q0 -10 11 -12l38 -8v-29h-216v29l49 8q13 1 13 12v43h-180zM74 -20h122v162z" />
    <glyph glyph-name="uni2085" unicode="&#x2085;" horiz-adv-x="391" 
d="M36 -100q0 20 11 32t32 12q24 0 34.5 -19.5t16.5 -56.5q14 -8 33 -8q41 0 61 23t20 63q0 82 -84 82q-39 0 -70 -18h-23q15 85 16 194h261l-27 -73h-202q0 -42 -8 -84q31 25 90 25q72 0 113.5 -29.5t41.5 -85.5q0 -58 -54 -91.5t-135 -33.5q-54 0 -90.5 17.5t-36.5 50.5z
" />
    <glyph glyph-name="uni2086" unicode="&#x2086;" horiz-adv-x="391" 
d="M28 3q0 102 62.5 155.5t160.5 53.5q29 0 55.5 -9t39.5 -20v-28q-33 12 -80 12q-51 0 -85.5 -32t-43.5 -87q34 34 89 34q63 0 101.5 -30.5t38.5 -88.5q0 -60 -45 -95.5t-122 -35.5q-72 0 -121.5 41t-49.5 130zM133 17v-21q0 -133 69 -133q31 0 46.5 26t15.5 67
q0 81 -68 81q-34 0 -63 -20z" />
    <glyph glyph-name="uni2087" unicode="&#x2087;" horiz-adv-x="391" 
d="M67 -160l215 298h-252l11 73h320v-22l-207 -349h-87z" />
    <glyph glyph-name="uni2088" unicode="&#x2088;" horiz-adv-x="391" 
d="M33 -79q0 66 92 89q-79 36 -79 98q0 48 41.5 76t110.5 28q75 0 113 -23t38 -61q0 -29 -23 -51t-60 -34q90 -38 90 -104q0 -54 -46 -80.5t-117 -26.5t-115.5 22t-44.5 67zM197 -17l-40 14q-15 -10 -25 -29.5t-10 -38.5q0 -69 68 -69q31 0 49.5 15.5t18.5 43.5q0 45 -61 64
zM139 130q0 -24 13.5 -37.5t40.5 -22.5l43 -16q29 24 29 67q0 63 -64 63q-28 0 -45 -13.5t-17 -40.5z" />
    <glyph glyph-name="uni2089" unicode="&#x2089;" horiz-adv-x="391" 
d="M44 -136v28q27 -15 82 -15q51 0 86 31.5t44 85.5q-35 -32 -91 -32q-63 0 -101.5 30t-38.5 90t44 95t121 35q76 0 125 -39.5t49 -121.5q0 -107 -59.5 -163t-158.5 -56q-70 0 -102 32zM196 11q39 0 63 13v24q0 133 -72 133q-27 0 -44 -22.5t-17 -63.5q0 -84 70 -84z" />
    <glyph glyph-name="parenleft.inferior" unicode="&#x208d;" horiz-adv-x="196" 
d="M19 -28v45q0 98 47.5 157t113.5 59v-23q-37 0 -60.5 -51t-23.5 -142v-45q0 -91 23.5 -142t60.5 -51v-23q-66 0 -113.5 59t-47.5 157z" />
    <glyph glyph-name="parenright.inferior" unicode="&#x208e;" horiz-adv-x="196" 
d="M13 -244v23q37 0 61 51.5t24 141.5v45q0 90 -24 141.5t-61 51.5v23q66 0 113.5 -59t47.5 -157v-45q0 -98 -47.5 -157t-113.5 -59z" />
    <glyph glyph-name="Euro" unicode="&#x20ac;" 
d="M-20 224l20 46h63q-1 11 -1 30q0 27 3 54h-57l20 46h46q24 99 97.5 157.5t181.5 58.5q64 0 106 -28.5t57 -69.5l-31 -60q-31 116 -132 116q-112 0 -138 -174h209l-20 -46h-194q-1 -16 -1 -50v-34h167l-20 -46h-144q9 -95 39 -144.5t90 -49.5q112 0 132 128h39
q-10 -72 -50 -121t-124 -49q-113 0 -183.5 59t-87.5 177h-87z" />
    <glyph glyph-name="afii61289" unicode="&#x2113;" horiz-adv-x="399" 
d="M119 22q-34 37 -34 127v67l-2 1l-54 -37l-11 22l67 55v125q0 93 16 143.5t50 80.5q34 31 78 31t68 -31t24 -86q0 -43 -16 -82.5t-45.5 -73.5t-51 -53t-52.5 -44v-100q0 -126 83 -126q58 0 108 73l20 -15q-47 -112 -154 -112q-61 0 -94 35zM156 311l2 -1q47 40 78.5 95
t31.5 116q0 83 -50 83q-62 0 -62 -164v-129z" />
    <glyph glyph-name="afii61352" unicode="&#x2116;" horiz-adv-x="1174" 
d="M7 0v34l60 12q17 4 21.5 7.5t6.5 16.5q4 40 4 116v358q0 12 -5 17t-23 10l-57 15v34h213l339 -396v210q0 76 -4 116q-2 12 -8 16t-24 8l-68 12v34h252v-34l-54 -12q-17 -4 -21.5 -7.5t-6.5 -16.5q-4 -40 -4 -116v-445h-65l-400 474v-277q0 -76 4 -116q2 -12 8 -16t24 -8
l68 -12v-34h-260zM734 446q0 82 53.5 135t143.5 53q91 0 144 -51.5t53 -137.5q0 -83 -53.5 -137.5t-143.5 -54.5q-91 0 -144 53t-53 140zM858 446q0 -71 18.5 -111t54.5 -40q32 0 52 37t20 113q0 148 -72 148q-73 0 -73 -147zM755 154v38h354v-38h-354z" />
    <glyph glyph-name="trademark" unicode="&#x2122;" horiz-adv-x="1064" 
d="M125 263v23l34 8q11 2 14 4t3 8v287h-10q-59 0 -79 -13q-16 -21 -29 -68h-19l4 116q21 -8 59 -8h249q34 0 52 8l4 -116h-20q-12 44 -29 68q-23 13 -71 13h-18v-287q0 -6 2.5 -8t13.5 -4l38 -8v-23h-198zM452 263v23l38 5q16 1 18 13q4 17 4 59v208q0 4 -1 6.5t-4.5 4
t-5.5 2t-9 2.5l-30 7v27h142l119 -238l139 238h121v-26l-33 -8q-13 -3 -13 -12v-271q0 -6 3.5 -8t15.5 -4l27 -5v-23h-185v23l29 5q11 2 13.5 4t2.5 8v214l-150 -254h-4l-141 269v-169q0 -42 4 -59q1 -11 12 -13l42 -5v-23h-154z" />
    <glyph glyph-name="Omega" unicode="&#x2126;" horiz-adv-x="720" 
d="M43 0v168h29l12 -38q6 -17 12 -24t19 -7h150v41q-237 54 -237 241q0 124 92 189.5t240 65.5t240 -65.5t92 -189.5q0 -187 -237 -241v-41h150q13 0 19 7t12 24l12 38h29v-168h-268v165q68 21 95.5 76t27.5 144q0 95 -44.5 156.5t-127.5 61.5t-127.5 -61.5t-44.5 -156.5
q0 -89 27.5 -144t95.5 -76v-165h-268z" />
    <glyph glyph-name="estimated" unicode="&#x212e;" horiz-adv-x="780" 
d="M170 102q90 -95 221 -95q143 0 232 107h53q-50 -58 -125 -92.5t-161 -34.5q-149 0 -255 95t-106 230q0 134 106 229t255 95t255 -95t106 -229v-9h-584q-6 0 -6 -4v-176q0 -11 9 -21zM167 322h448q4 0 4 5v176q0 13 -9 22q-91 91 -219 91t-220 -94q-10 -10 -10 -23v-172
q0 -5 6 -5z" />
    <glyph glyph-name="uni2153" unicode="&#x2153;" horiz-adv-x="912" 
d="M258 -12l349 648h74l-349 -648h-74zM56 261v30l74 11q11 2 14.5 5.5t3.5 11.5v231h-4l-92 -25l-8 30q35 11 94.5 36.5t80.5 41.5h37v-314q0 -5 1 -8t4 -4.5t5 -2t8 -2.5l61 -11v-30h-279zM543 59q0 19 11.5 32.5t31.5 13.5q23 0 33.5 -17t14.5 -59q18 -9 36 -9
q38 0 59.5 20.5t21.5 60.5q0 32 -21 50.5t-56 18.5q-21 0 -42 -9v35q107 10 107 74q0 24 -17 36.5t-45 12.5q-33 0 -59 -17.5t-26 -48.5h-26q0 54 38 86.5t101 32.5q131 0 131 -87q0 -31 -23 -53t-57 -31q41 -4 70.5 -26.5t29.5 -63.5q0 -56 -52 -87.5t-134 -31.5
q-55 0 -91 17.5t-36 49.5z" />
    <glyph glyph-name="uni2154" unicode="&#x2154;" horiz-adv-x="912" 
d="M262 -12l349 648h74l-349 -648h-74zM543 59q0 19 11.5 32.5t31.5 13.5q23 0 33.5 -17t14.5 -59q18 -9 36 -9q38 0 59.5 20.5t21.5 60.5q0 32 -21 50.5t-56 18.5q-21 0 -42 -9v35q107 10 107 74q0 24 -17 36.5t-45 12.5q-33 0 -59 -17.5t-26 -48.5h-26q0 54 38 86.5
t101 32.5q131 0 131 -87q0 -31 -23 -53t-57 -31q41 -4 70.5 -26.5t29.5 -63.5q0 -56 -52 -87.5t-134 -31.5q-55 0 -91 17.5t-36 49.5zM40 261v24l100 86q88 74 88 144q0 61 -72 61q-31 0 -54.5 -15t-23.5 -50q0 -9 3 -25h-25q-4 11 -4 35q0 48 37 80t107 32q64 0 102 -27.5
t38 -79.5q0 -27 -10 -50t-35 -45.5t-43.5 -36t-59.5 -39.5l-36 -23h146q14 0 23.5 9t34.5 50h23q-28 -82 -36 -130h-303z" />
    <glyph glyph-name="uni2155" unicode="&#x2155;" horiz-adv-x="912" 
d="M253 -12l349 648h74l-348 -648h-75zM56 261v30l74 11q11 2 14.5 5.5t3.5 11.5v231h-4l-92 -25l-8 30q35 11 94.5 36.5t80.5 41.5h37v-314q0 -5 1 -8t4 -4.5t5 -2t8 -2.5l61 -11v-30h-279zM541 60q0 20 11 32t32 12q24 0 34 -18.5t17 -57.5q16 -8 33 -8q41 0 61.5 23
t20.5 63q0 41 -22.5 61.5t-62.5 20.5q-39 0 -70 -18h-23q15 85 16 194h261l-27 -73h-202q0 -42 -8 -84q31 25 90 25q72 0 113.5 -29.5t41.5 -85.5q0 -58 -54 -91.5t-135 -33.5q-54 0 -90.5 17.5t-36.5 50.5z" />
    <glyph glyph-name="uni2156" unicode="&#x2156;" horiz-adv-x="912" 
d="M262 -12l349 648h74l-349 -648h-74zM541 60q0 20 11 32t32 12q24 0 34 -18.5t17 -57.5q16 -8 33 -8q41 0 61.5 23t20.5 63q0 41 -22.5 61.5t-62.5 20.5q-39 0 -70 -18h-23q15 85 16 194h261l-27 -73h-202q0 -42 -8 -84q31 25 90 25q72 0 113.5 -29.5t41.5 -85.5
q0 -58 -54 -91.5t-135 -33.5q-54 0 -90.5 17.5t-36.5 50.5zM40 261v24l100 86q88 74 88 144q0 61 -72 61q-31 0 -54.5 -15t-23.5 -50q0 -9 3 -25h-25q-4 11 -4 35q0 48 37 80t107 32q64 0 102 -27.5t38 -79.5q0 -27 -10 -50t-35 -45.5t-43.5 -36t-59.5 -39.5l-36 -23h146
q14 0 23.5 9t34.5 50h23q-28 -82 -36 -130h-303z" />
    <glyph glyph-name="uni2157" unicode="&#x2157;" horiz-adv-x="912" 
d="M251 -12l349 648h74l-349 -648h-74zM178 253q-55 0 -91 17.5t-36 49.5q0 20 11.5 33t31.5 13q23 0 33.5 -16.5t15.5 -59.5q16 -9 35 -9q82 0 82 81q0 32 -21.5 50.5t-55.5 18.5q-22 0 -43 -9v35q108 10 108 74q0 24 -17 36.5t-45 12.5q-34 0 -60 -17.5t-26 -48.5h-26
q0 54 38 86.5t101 32.5q132 0 132 -87q0 -57 -80 -84q41 -4 70.5 -26.5t29.5 -63.5q0 -56 -52 -87.5t-135 -31.5zM541 60q0 20 11 32t32 12q24 0 34 -18.5t17 -57.5q16 -8 33 -8q41 0 61.5 23t20.5 63q0 41 -22.5 61.5t-62.5 20.5q-39 0 -70 -18h-23q15 85 16 194h261
l-27 -73h-202q0 -42 -8 -84q31 25 90 25q72 0 113.5 -29.5t41.5 -85.5q0 -58 -54 -91.5t-135 -33.5q-54 0 -90.5 17.5t-36.5 50.5z" />
    <glyph glyph-name="uni2158" unicode="&#x2158;" horiz-adv-x="912" 
d="M265 -12l349 648h74l-348 -648h-75zM138 261v29l48 8q14 2 14 12v43h-181v24l180 237q15 0 46.5 7.5t37.5 11.5h22v-232h52v-48h-52v-43q0 -10 11 -12l38 -8v-29h-216zM78 401h122v162zM541 60q0 20 11 32t32 12q24 0 34 -18.5t17 -57.5q16 -8 33 -8q41 0 61.5 23
t20.5 63q0 41 -22.5 61.5t-62.5 20.5q-39 0 -70 -18h-23q15 85 16 194h261l-27 -73h-202q0 -42 -8 -84q31 25 90 25q72 0 113.5 -29.5t41.5 -85.5q0 -58 -54 -91.5t-135 -33.5q-54 0 -90.5 17.5t-36.5 50.5z" />
    <glyph glyph-name="uni2159" unicode="&#x2159;" horiz-adv-x="912" 
d="M250 -12l349 648h75l-349 -648h-75zM56 261v30l74 11q11 2 14.5 5.5t3.5 11.5v231h-4l-92 -25l-8 30q35 11 94.5 36.5t80.5 41.5h37v-314q0 -5 1 -8t4 -4.5t5 -2t8 -2.5l61 -11v-30h-279zM528 163q0 102 62.5 155.5t160.5 53.5q29 0 55.5 -9t39.5 -20v-28q-33 12 -80 12
q-51 0 -85.5 -32t-43.5 -87q34 34 89 34q63 0 101.5 -30.5t38.5 -88.5q0 -60 -45 -95.5t-122 -35.5q-72 0 -121.5 41t-49.5 130zM633 177v-21q0 -133 69 -133q31 0 46.5 26t15.5 67q0 81 -68 81q-34 0 -63 -20z" />
    <glyph glyph-name="uni215A" unicode="&#x215a;" horiz-adv-x="912" 
d="M245 -12l349 648h74l-348 -648h-75zM180 249q-54 0 -90.5 17.5t-36.5 50.5q0 20 11 32t32 12q24 0 34 -18.5t17 -57.5q16 -8 33 -8q41 0 61.5 23t20.5 63q0 41 -23 62t-62 21q-37 0 -70 -19h-23q15 85 16 194h261l-27 -73h-202q0 -42 -8 -84q31 25 90 25
q72 0 113.5 -29.5t41.5 -85.5q0 -58 -54 -91.5t-135 -33.5zM528 163q0 102 62.5 155.5t160.5 53.5q29 0 55.5 -9t39.5 -20v-28q-33 12 -80 12q-51 0 -85.5 -32t-43.5 -87q34 34 89 34q63 0 101.5 -30.5t38.5 -88.5q0 -60 -45 -95.5t-122 -35.5q-72 0 -121.5 41t-49.5 130z
M633 177v-21q0 -133 69 -133q31 0 46.5 26t15.5 67q0 81 -68 81q-34 0 -63 -20z" />
    <glyph glyph-name="uni215B" unicode="&#x215b;" horiz-adv-x="912" 
d="M535 81q0 66 92 89q-79 36 -79 98q0 48 41.5 76t110.5 28q75 0 113.5 -23t38.5 -61q0 -29 -23 -51t-60 -34q89 -38 89 -104q0 -54 -45.5 -80.5t-117.5 -26.5q-71 0 -115.5 22t-44.5 67zM56 261v30l74 11q11 2 14.5 5.5t3.5 11.5v231h-4l-92 -25l-8 30q35 11 94.5 36.5
t80.5 41.5h37v-314q0 -5 1 -8t4 -4.5t5 -2t8 -2.5l61 -11v-30h-279zM252 -12l348 648h75l-349 -648h-74zM699 143l-40 14q-34 -24 -34 -68q0 -69 67 -69q31 0 49.5 15.5t18.5 43.5q0 45 -61 64zM641 290q0 -40 54 -60l44 -16q28 27 28 67q0 63 -64 63q-28 0 -45 -13.5
t-17 -40.5z" />
    <glyph glyph-name="uni215C" unicode="&#x215c;" horiz-adv-x="912" 
d="M535 81q0 66 92 89q-79 36 -79 98q0 48 41.5 76t110.5 28q75 0 113.5 -23t38.5 -61q0 -29 -23 -51t-60 -34q89 -38 89 -104q0 -54 -45.5 -80.5t-117.5 -26.5q-71 0 -115.5 22t-44.5 67zM178 253q-55 0 -91 17.5t-36 49.5q0 20 11.5 33t31.5 13q23 0 33.5 -16.5
t15.5 -59.5q16 -9 35 -9q82 0 82 81q0 32 -21.5 50.5t-55.5 18.5q-22 0 -43 -9v35q108 10 108 74q0 24 -17 36.5t-45 12.5q-34 0 -60 -17.5t-26 -48.5h-26q0 54 38 86.5t101 32.5q132 0 132 -87q0 -57 -80 -84q41 -4 70.5 -26.5t29.5 -63.5q0 -56 -52 -87.5t-135 -31.5z
M242 -12l349 648h75l-349 -648h-75zM699 143l-40 14q-34 -24 -34 -68q0 -69 67 -69q31 0 49.5 15.5t18.5 43.5q0 45 -61 64zM641 290q0 -40 54 -60l44 -16q28 27 28 67q0 63 -64 63q-28 0 -45 -13.5t-17 -40.5z" />
    <glyph glyph-name="uni215D" unicode="&#x215d;" horiz-adv-x="912" 
d="M535 81q0 66 92 89q-79 36 -79 98q0 48 41.5 76t110.5 28q75 0 113.5 -23t38.5 -61q0 -29 -23 -51t-60 -34q89 -38 89 -104q0 -54 -45.5 -80.5t-117.5 -26.5q-71 0 -115.5 22t-44.5 67zM180 249q-54 0 -90.5 17.5t-36.5 50.5q0 20 11 32t32 12q24 0 34 -18.5t17 -57.5
q16 -8 33 -8q41 0 61.5 23t20.5 63q0 41 -23 62t-62 21q-37 0 -70 -19h-23q15 85 16 194h261l-27 -73h-202q0 -42 -8 -84q31 25 90 25q72 0 113.5 -29.5t41.5 -85.5q0 -58 -54 -91.5t-135 -33.5zM242 -12l349 648h75l-349 -648h-75zM699 143l-40 14q-34 -24 -34 -68
q0 -69 67 -69q31 0 49.5 15.5t18.5 43.5q0 45 -61 64zM641 290q0 -40 54 -60l44 -16q28 25 28 67q0 63 -64 63q-28 0 -45 -13.5t-17 -40.5z" />
    <glyph glyph-name="uni215E" unicode="&#x215e;" horiz-adv-x="912" 
d="M535 81q0 66 92 89q-79 36 -79 98q0 48 41.5 76t110.5 28q75 0 113.5 -23t38.5 -61q0 -29 -23 -51t-60 -34q89 -38 89 -104q0 -54 -45.5 -80.5t-117.5 -26.5q-71 0 -115.5 22t-44.5 67zM191 -12l349 648h74l-349 -648h-74zM72 258l215 298h-252l11 73h319v-22l-207 -349
h-86zM699 143l-40 14q-34 -24 -34 -68q0 -69 67 -69q31 0 49.5 15.5t18.5 43.5q0 45 -61 64zM641 290q0 -40 54 -60l44 -16q28 25 28 67q0 63 -64 63q-28 0 -45 -13.5t-17 -40.5z" />
    <glyph glyph-name="uni2190" unicode="&#x2190;" horiz-adv-x="668" 
d="M65 244l232 204v-42l-92 -129l396 7v-80l-396 7l92 -129v-42z" />
    <glyph glyph-name="uni2191" unicode="&#x2191;" horiz-adv-x="512" 
d="M52 301l204 232l204 -232h-42l-129 92l7 -396h-80l7 396l-129 -92h-42z" />
    <glyph glyph-name="uni2192" unicode="&#x2192;" horiz-adv-x="668" 
d="M371 448l232 -204l-232 -204v42l92 129l-396 -7v80l396 -7l-92 129v42z" />
    <glyph glyph-name="uni2193" unicode="&#x2193;" horiz-adv-x="512" 
d="M256 -18l-204 232h42l129 -92l-7 396h80l-7 -396l129 92h42z" />
    <glyph glyph-name="uni2196" unicode="&#x2196;" horiz-adv-x="524" 
d="M88 128l-20 309l309 -20l-29 -30l-157 -27l285 -274l-56 -57l-275 285l-27 -157z" />
    <glyph glyph-name="uni2197" unicode="&#x2197;" horiz-adv-x="524" 
d="M456 437l-20 -309l-30 29l-27 157l-275 -285l-56 57l285 274l-157 27l-29 30z" />
    <glyph glyph-name="uni2198" unicode="&#x2198;" horiz-adv-x="524" 
d="M447 319l20 -309l-309 20l29 30l157 27l-285 275l56 56l275 -285l27 157z" />
    <glyph glyph-name="uni2199" unicode="&#x2199;" horiz-adv-x="524" 
d="M57 10l20 309l30 -29l27 -157l275 285l56 -56l-285 -275l157 -27l29 -30z" />
    <glyph glyph-name="partialdiff" unicode="&#x2202;" 
d="M36 192q0 96 52.5 158t152.5 62q77 -1 115 -50q-6 53 -21.5 92t-37 63t-55 39.5t-68 22.5t-82.5 11v46q88 -1 155.5 -19t124.5 -59t87 -116t30 -182q0 -115 -60.5 -193.5t-176.5 -78.5q-107 0 -161.5 56t-54.5 148zM252 26q22 0 39 10t28 24.5t19 38.5t12 45t6 51.5
t2.5 51t0.5 49.5v17q-44 41 -87 41q-54 0 -81 -52t-27 -126q0 -65 21.5 -107.5t66.5 -42.5z" />
    <glyph glyph-name="Delta" unicode="&#x2206;" horiz-adv-x="652" 
d="M6 0l305 636h43l292 -636h-640zM287 463l-199 -413h392z" />
    <glyph glyph-name="product" unicode="&#x220f;" horiz-adv-x="784" 
d="M27 0v34l46 12q11 3 15 4.5t8 4t4.5 6t0.5 9.5v480q0 6 -0.5 9.5t-4.5 6t-8 4t-15 4.5l-46 12v34h730v-34l-46 -12q-11 -3 -15 -4.5t-8 -4t-4.5 -6t-0.5 -9.5v-480q0 -6 0.5 -9.5t4.5 -6t8 -4t15 -4.5l46 -12v-34h-295v34l43 12q11 3 15 4.5t8 4t4.5 6t0.5 9.5v493h-282
v-493q0 -6 0.5 -9.5t4.5 -6t8 -4t15 -4.5l43 -12v-34h-295z" />
    <glyph glyph-name="summation" unicode="&#x2211;" horiz-adv-x="580" 
d="M12 0v29l241 248l-241 314v29h421q58 0 88 8l14 -193h-30q-27 92 -56 121q-38 24 -124 24h-128l186 -240l-225 -231h150q104 0 142 16q48 56 70 115h28l-36 -240h-500z" />
    <glyph glyph-name="minus" unicode="&#x2212;" 
d="M36 284v70h456v-70h-456z" />
    <glyph glyph-name="uni2215" unicode="&#x2215;" horiz-adv-x="56" 
d="M-108 -12h-74l349 648h74z" />
    <glyph glyph-name="uni2219" unicode="&#x2219;" horiz-adv-x="264" 
d="M136 233q-33 0 -55.5 20.5t-22.5 54.5t22.5 55t55.5 21q34 0 56 -20.5t22 -55.5q0 -34 -22 -54.5t-56 -20.5z" />
    <glyph glyph-name="radical" unicode="&#x221a;" 
d="M260 -12l-158 407l-71 -31l-16 28l168 72l125 -331l242 615h40l-304 -760h-26z" />
    <glyph glyph-name="infinity" unicode="&#x221e;" 
d="M147 145q-62 0 -93.5 47.5t-31.5 118.5q0 69 31 114t89 45q73 0 110 -103q52 105 129 105q62 0 93.5 -47.5t31.5 -118.5q0 -68 -31.5 -113t-88.5 -45q-75 0 -112 100q-27 -49 -56.5 -76t-70.5 -27zM306 315l-20 -43q38 -41 96 -41q47 0 73.5 21t26.5 54q0 32 -23 52
t-64 20q-59 0 -89 -63zM133 239q58 0 89 64l20 42q-39 41 -99 41q-47 0 -72 -20.5t-25 -54.5q0 -32 23 -52t64 -20z" />
    <glyph glyph-name="integral" unicode="&#x222b;" 
d="M45 -114q32 0 46.5 -24t-1.5 -72q60 0 77.5 45.5t17.5 175.5v432q0 136 66.5 200.5t174.5 64.5q38 0 65.5 -16.5t27.5 -51.5q0 -31 -16 -46t-42 -15q-32 0 -46.5 25t1.5 72q-52 0 -73.5 -40t-21.5 -124v-457q0 -157 -66 -227t-175 -70q-38 0 -65.5 16.5t-27.5 51.5
q0 31 16 45.5t42 14.5z" />
    <glyph glyph-name="approxequal" unicode="&#x2248;" 
d="M92 354h-27q0 58 30 95t81 37q42 0 106.5 -36t89.5 -36q27 0 46 21t22 43h27q0 -58 -30 -95t-81 -37q-43 0 -107 36t-89 36q-27 0 -45.5 -20.5t-22.5 -43.5zM92 161h-27q0 56 30.5 94t80.5 38q42 0 106.5 -36t89.5 -36q27 0 46 21t22 43h27q0 -59 -30 -95.5t-81 -36.5
q-43 0 -107 36t-89 36q-27 0 -45.5 -20.5t-22.5 -43.5z" />
    <glyph glyph-name="notequal" unicode="&#x2260;" 
d="M36 374v70h299l95 136l31 -23l-79 -113h110v-70h-158l-87 -124h245v-70h-293l-107 -154l-31 22l91 132h-116v70h165l86 124h-251z" />
    <glyph glyph-name="lessequal" unicode="&#x2264;" 
d="M469 528l26 -66l-306 -125l306 -126l-26 -66l-453 192zM36 67h456v-67h-456v67z" />
    <glyph glyph-name="greaterequal" unicode="&#x2265;" 
d="M33 462l26 66l453 -191l-453 -192l-26 66l305 126zM36 67h456v-67h-456v67z" />
    <glyph glyph-name="uni25A0" unicode="&#x25a0;" horiz-adv-x="620" 
d="M0 0v620h620v-620h-620z" />
    <glyph glyph-name="uni25A1" unicode="&#x25a1;" horiz-adv-x="620" 
d="M0 0v620h620v-620h-620zM98 94h424v432h-424v-432z" />
    <glyph glyph-name="uni25B6" unicode="&#x25b6;" horiz-adv-x="480" 
d="M44 -12v476l412 -240z" />
    <glyph glyph-name="uni25B7" unicode="&#x25b7;" horiz-adv-x="480" 
d="M44 -12v476l412 -240zM135 131l164 93l-164 97v-190z" />
    <glyph glyph-name="uni25C0" unicode="&#x25c0;" horiz-adv-x="480" 
d="M24 224l412 240v-476z" />
    <glyph glyph-name="uni25C1" unicode="&#x25c1;" horiz-adv-x="480" 
d="M24 225l412 239v-476zM181 225l164 -94v190z" />
    <glyph glyph-name="lozenge" unicode="&#x25ca;" 
d="M268 640l236 -320l-240 -332l-236 320zM249 546l-152 -212l185 -252l153 211z" />
    <glyph glyph-name="uni25CB" unicode="&#x25cb;" horiz-adv-x="524" 
d="M24 226q0 99 69.5 168.5t168.5 69.5q100 0 169 -68.5t69 -169.5q0 -99 -69.5 -168.5t-168.5 -69.5q-100 0 -169 68.5t-69 169.5zM114 226q0 -68 42 -110.5t106 -42.5q66 0 107 42.5t41 110.5t-42 112t-106 44q-65 0 -106.5 -43.5t-41.5 -112.5z" />
    <glyph glyph-name="uni25CF" unicode="&#x25cf;" horiz-adv-x="524" 
d="M24 226q0 99 69.5 168.5t168.5 69.5q100 0 169 -68.5t69 -169.5q0 -99 -69.5 -168.5t-168.5 -69.5q-100 0 -169 68.5t-69 169.5z" />
    <glyph glyph-name="uni25FB" unicode="&#x25fb;" horiz-adv-x="456" 
d="M0 0v456h456v-456h-456zM90 90h276v276h-276v-276z" />
    <glyph glyph-name="uni25FC" unicode="&#x25fc;" horiz-adv-x="456" 
d="M0 0v456h456v-456h-456z" />
    <glyph glyph-name="uni2605" unicode="&#x2605;" horiz-adv-x="546" 
d="M106 5l68 183l-162 108l5 16l195 -9l53 189h16l52 -189l196 9l5 -16l-163 -108l69 -183l-14 -10l-153 121l-153 -121z" />
    <glyph glyph-name="dotlessi.sc" unicode="&#xe08e;" horiz-adv-x="340" 
d="M35 0v33l38 9q19 4 23.5 8t4.5 16v364q0 12 -4.5 15.5t-23.5 8.5l-38 9v33h270v-33l-38 -9q-19 -4 -23.5 -8t-4.5 -16v-364q0 -12 4.5 -15.5t23.5 -8.5l38 -9v-33h-270z" />
    <glyph glyph-name="g.superior" unicode="&#xe0a3;" horiz-adv-x="416" 
d="M11 316q0 58 97 87q-52 15 -52 57t78 76q-110 19 -110 127q0 59 44 94t112 35q100 0 142 -73q15 73 63 73q21 0 34 -11.5t13 -31.5q0 -23 -12.5 -36.5t-33.5 -13.5q-30 0 -40 28q-16 -16 -16 -60v-5q0 -62 -41 -96t-109 -34h-13q-26 -11 -26 -31q0 -8 5.5 -12t12 -5.5
t21.5 -3.5l87 -10q112 -10 112 -88q0 -71 -70 -109t-161 -38q-66 0 -101.5 21t-35.5 60zM101 334q0 -29 23 -44t60 -15q42 0 69.5 19t27.5 55q0 37 -57 41l-64 6l-20 2q-39 -23 -39 -64zM128 664q0 -101 52 -101t52 98q0 100 -52 100t-52 -97z" />
    <glyph glyph-name="germandbls.sc" unicode="&#xe0a4;" horiz-adv-x="948" 
d="M541 -8h-25q0 85 -6 187h41q13 -78 35 -111q34 -41 99 -41q47 0 71 21.5t24 58.5q0 34 -19 53t-59 35l-73 28q-59 24 -86.5 57.5t-27.5 85.5q0 68 57.5 105t153.5 37q66 0 118 -25l20 21h23l8 -162h-39q-18 70 -38 95q-35 35 -95 35q-36 0 -58.5 -17.5t-22.5 -49.5
q0 -31 16 -48.5t50 -30.5l77 -29q63 -24 97.5 -57.5t34.5 -93.5q0 -75 -62.5 -116.5t-167.5 -41.5q-64 0 -129 25zM67 -8h-25q0 85 -6 187h41q13 -78 35 -111q34 -41 99 -41q47 0 71 21.5t24 58.5q0 34 -19 53t-59 35l-73 28q-59 24 -86.5 57.5t-27.5 85.5q0 68 57.5 105
t153.5 37q66 0 118 -25l20 21h23l8 -162h-39q-18 70 -38 95q-35 35 -95 35q-36 0 -58.5 -17.5t-22.5 -49.5q0 -31 16 -48.5t50 -30.5l77 -29q63 -24 97.5 -57.5t34.5 -93.5q0 -75 -62.5 -116.5t-167.5 -41.5q-64 0 -129 25z" />
    <glyph glyph-name="onesuperior" unicode="&#xe105;" horiz-adv-x="391" 
d="M56 420v30l74 11q11 2 14.5 5.5t3.5 11.5v230h-4l-92 -24l-8 30q35 11 94.5 36.5t80.5 41.5h37v-314q0 -5 1 -8t4 -4.5t5 -2t8 -2.5l61 -11v-30h-279z" />
    <glyph glyph-name="twosuperior" unicode="&#xe107;" horiz-adv-x="391" 
d="M34 420v24l101 86q88 77 88 144q0 61 -73 61q-31 0 -54.5 -15t-23.5 -50q0 -10 4 -25h-26q-4 11 -4 35q0 48 37 80t107 32q65 0 102.5 -27.5t37.5 -79.5q0 -27 -10 -50t-34 -45t-44.5 -36.5t-59.5 -39.5l-35 -24h145q14 0 23 9t35 51h23q-28 -82 -36 -130h-303z" />
    <glyph glyph-name="threesuperior" unicode="&#xe108;" horiz-adv-x="391" 
d="M37 479q0 19 11.5 32.5t31.5 13.5q23 0 33.5 -16.5t15.5 -59.5q16 -9 35 -9q38 0 60 20.5t22 60.5q0 32 -21 50.5t-57 18.5q-21 0 -42 -9v35q108 10 108 74q0 24 -18 36.5t-46 12.5q-33 0 -58.5 -17t-25.5 -49h-26q0 54 38 86.5t101 32.5q131 0 131 -87q0 -31 -23 -53
t-57 -31q41 -4 70.5 -26.5t29.5 -63.5q0 -56 -52 -87.5t-134 -31.5q-55 0 -91 17.5t-36 49.5z" />
    <glyph glyph-name="cent.denominator" unicode="&#xf629;" horiz-adv-x="391" 
d="M14 186q0 84 58 132.5t143 52.5v49h32v-48q59 -6 83 -19l12 15h20l4 -138h-26q-2 6 -8.5 29t-12.5 39t-13 25q-20 12 -59 17v-313q29 4 54 17q17 23 43 87h26l-24 -118q-31 -15 -99 -20v-55h-32v55q-91 4 -146 53.5t-55 139.5zM127 190q0 -68 24 -112t64 -51v312
q-43 -8 -65.5 -48.5t-22.5 -100.5z" />
    <glyph glyph-name="dollar.denominator" unicode="&#xf62a;" horiz-adv-x="391" 
d="M72 -8h-25q0 4 -1 72t-1 74h31q9 -56 27 -86q32 -28 73 -29v121l-42 15q-95 30 -95 107q0 47 36.5 74t100.5 31v49h33v-48q53 -5 81 -17l16 16h23l4 -129h-29q-11 42 -28 74q-21 21 -67 24v-105l38 -13q51 -16 79.5 -42t28.5 -70q0 -51 -39.5 -81.5t-106.5 -35.5v-55h-33
v54q-54 1 -91 16zM251 82q0 32 -42 50v-105q42 14 42 55zM134 294q0 -17 10 -27.5t32 -19.5v92q-42 -11 -42 -45z" />
    <glyph glyph-name="hyphen.denominator" unicode="&#xf62b;" horiz-adv-x="227" 
d="M20 156v76h184v-76h-184z" />
    <glyph glyph-name="parenleft.denominator" unicode="&#xf62c;" horiz-adv-x="196" 
d="M19 132v45q0 98 47.5 157t113.5 59v-23q-37 0 -60.5 -51t-23.5 -142v-45q0 -91 23.5 -142t60.5 -51v-23q-66 0 -113.5 59t-47.5 157z" />
    <glyph glyph-name="parenright.denominator" unicode="&#xf62d;" horiz-adv-x="196" 
d="M13 -84v23q37 0 61 51.5t24 141.5v45q0 90 -24 141.5t-61 51.5v23q66 0 113.5 -59t47.5 -157v-45q0 -98 -47.5 -157t-113.5 -59z" />
    <glyph glyph-name="cent.numerator" unicode="&#xf62e;" horiz-adv-x="391" 
d="M14 446q0 84 58 132.5t143 52.5v49h32v-48q59 -6 83 -19l12 15h20l4 -138h-26q-2 6 -8.5 29t-12.5 39t-13 25q-20 12 -59 17v-313q29 4 54 17q17 23 43 87h26l-24 -118q-34 -16 -99 -21v-54h-32v54q-90 4 -145.5 54t-55.5 140zM127 450q0 -68 24 -112t64 -51v312
q-43 -8 -65.5 -48.5t-22.5 -100.5z" />
    <glyph glyph-name="dollar.numerator" unicode="&#xf62f;" horiz-adv-x="391" 
d="M72 252h-25q0 4 -1 72t-1 74h31q9 -56 27 -86q32 -28 73 -29v121l-42 15q-95 30 -95 107q0 47 36.5 74t100.5 31v49h33v-48q53 -5 81 -17l16 16h23l4 -129h-29q-11 42 -28 74q-21 21 -67 24v-105l38 -13q51 -16 79.5 -42t28.5 -70q0 -51 -39.5 -81.5t-106.5 -35.5v-55
h-33v54q-58 0 -91 16zM251 342q0 32 -42 50v-105q42 14 42 55zM134 554q0 -17 10 -27.5t32 -19.5v92q-42 -11 -42 -45z" />
    <glyph glyph-name="hyphen.numerator" unicode="&#xf630;" horiz-adv-x="227" 
d="M20 416v76h184v-76h-184z" />
    <glyph glyph-name="parenleft.numerator" unicode="&#xf631;" horiz-adv-x="196" 
d="M19 392v45q0 98 47.5 157t113.5 59v-23q-37 0 -60.5 -51t-23.5 -142v-45q0 -91 23.5 -142t60.5 -51v-23q-66 0 -113.5 59t-47.5 157z" />
    <glyph glyph-name="parenright.numerator" unicode="&#xf632;" horiz-adv-x="196" 
d="M13 176v23q37 0 61 51.5t24 141.5v45q0 90 -24 141.5t-61 51.5v23q66 0 113.5 -59t47.5 -157v-45q0 -98 -47.5 -157t-113.5 -59z" />
    <glyph glyph-name="h.superior" unicode="&#xf637;" horiz-adv-x="485" 
d="M264 420v26l23 8q11 4 14.5 7.5t3.5 12.5v176q0 77 -56 77q-45 0 -69 -44v-209q0 -16 17 -20l28 -8v-26h-202v26l25 8q11 3 15 7t4 13v403q0 11 -5.5 17t-21.5 13l-17 8v26l129 23h35q-7 -55 -7 -115v-132q40 75 120 75q118 0 118 -128v-190q0 -9 4 -13t14 -7l24 -8v-26
h-196z" />
    <glyph glyph-name="zero.denominator" unicode="&#xf655;" horiz-adv-x="391" 
d="M22 181q0 85 46.5 138t125.5 53q80 0 125.5 -50t45.5 -138q0 -85 -46 -138.5t-125 -53.5q-81 0 -126.5 51t-45.5 138zM194 23q20 0 33 11.5t18.5 35.5t7 48t1.5 63q0 79 -12 119.5t-48 40.5q-20 0 -33 -11t-18.5 -35.5t-7 -48t-1.5 -62.5q0 -79 12 -120t48 -41z" />
    <glyph glyph-name="one.denominator" unicode="&#xf656;" horiz-adv-x="391" 
d="M56 0v30l74 11q11 2 14.5 5.5t3.5 11.5v230h-4l-92 -24l-8 30q35 11 94.5 36.5t80.5 41.5h37v-314q0 -5 1 -8t4 -4.5t5 -2t8 -2.5l61 -11v-30h-279z" />
    <glyph glyph-name="two.denominator" unicode="&#xf657;" horiz-adv-x="391" 
d="M34 0v24l101 86q88 77 88 144q0 61 -73 61q-31 0 -54.5 -15t-23.5 -50q0 -10 4 -25h-26q-4 11 -4 35q0 48 37 80t107 32q65 0 102.5 -27.5t37.5 -79.5q0 -27 -10 -50t-34 -45t-44.5 -36.5t-59.5 -39.5l-35 -24h145q14 0 23 9t35 51h23q-28 -82 -36 -130h-303z" />
    <glyph glyph-name="three.denominator" unicode="&#xf658;" horiz-adv-x="391" 
d="M37 59q0 19 11.5 32.5t31.5 13.5q23 0 33.5 -16.5t15.5 -59.5q16 -9 35 -9q38 0 60 20.5t22 60.5q0 32 -21 50.5t-57 18.5q-21 0 -42 -9v35q108 10 108 74q0 24 -18 36.5t-46 12.5q-33 0 -58.5 -17t-25.5 -49h-26q0 54 38 86.5t101 32.5q131 0 131 -87q0 -31 -23 -53
t-57 -31q41 -4 70.5 -26.5t29.5 -63.5q0 -56 -52 -87.5t-134 -31.5q-55 0 -91 17.5t-36 49.5z" />
    <glyph glyph-name="four.denominator" unicode="&#xf659;" horiz-adv-x="391" 
d="M16 92v24l179 237q16 0 47.5 7.5t37.5 11.5h21v-232h53v-48h-53v-43q0 -10 11 -12l38 -8v-29h-216v29l49 8q13 1 13 12v43h-180zM74 140h122v162z" />
    <glyph glyph-name="five.denominator" unicode="&#xf65a;" horiz-adv-x="391" 
d="M36 60q0 20 11 32t32 12q24 0 34 -18.5t17 -57.5q14 -8 33 -8q41 0 61 23t20 63q0 82 -84 82q-39 0 -70 -18h-23q15 85 16 194h261l-27 -73h-202q0 -42 -8 -84q31 25 90 25q72 0 113.5 -29.5t41.5 -85.5q0 -58 -54 -91.5t-135 -33.5q-54 0 -90.5 17.5t-36.5 50.5z" />
    <glyph glyph-name="six.denominator" unicode="&#xf65b;" horiz-adv-x="391" 
d="M28 163q0 102 62.5 155.5t160.5 53.5q29 0 55.5 -9t39.5 -20v-28q-33 12 -80 12q-51 0 -85.5 -32t-43.5 -87q34 34 89 34q63 0 101.5 -30.5t38.5 -88.5q0 -60 -45 -95.5t-122 -35.5q-72 0 -121.5 41t-49.5 130zM133 177v-21q0 -133 69 -133q31 0 46.5 26t15.5 67
q0 81 -68 81q-34 0 -63 -20z" />
    <glyph glyph-name="seven.denominator" unicode="&#xf65c;" horiz-adv-x="391" 
d="M67 0l215 298h-252l11 73h320v-22l-207 -349h-87z" />
    <glyph glyph-name="eight.denominator" unicode="&#xf65d;" horiz-adv-x="391" 
d="M33 81q0 66 92 89q-79 36 -79 98q0 48 41.5 76t110.5 28q75 0 113 -23t38 -61q0 -29 -23 -51t-60 -34q90 -38 90 -104q0 -54 -46 -80.5t-117 -26.5t-115.5 22t-44.5 67zM197 143l-40 14q-35 -25 -35 -68q0 -69 68 -69q31 0 49.5 15.5t18.5 43.5q0 45 -61 64zM139 290
q0 -24 13.5 -37.5t40.5 -22.5l43 -16q29 24 29 67q0 63 -64 63q-28 0 -45 -13.5t-17 -40.5z" />
    <glyph glyph-name="nine.denominator" unicode="&#xf65e;" horiz-adv-x="391" 
d="M44 24v28q27 -15 82 -15q51 0 86 31.5t44 85.5q-35 -32 -91 -32q-63 0 -101.5 30t-38.5 90t44 95t121 35q76 0 125 -39.5t49 -121.5q0 -107 -59.5 -163t-158.5 -56q-70 0 -102 32zM196 171q39 0 63 13v24q0 133 -72 133q-27 0 -44 -22.5t-17 -63.5q0 -84 70 -84z" />
    <glyph glyph-name="comma.denominator" unicode="&#xf65f;" horiz-adv-x="211" 
d="M44 56q0 26 18 44.5t46 18.5q30 0 48 -19.5t18 -58.5q0 -61 -29.5 -111t-56.5 -70h-52q61 67 66 132q-26 2 -42 20t-16 44z" />
    <glyph glyph-name="period.denominator" unicode="&#xf660;" horiz-adv-x="211" 
d="M44 56q0 29 18 46t46 17t46 -17t18 -46t-18 -46.5t-46 -17.5t-46 17.5t-18 46.5z" />
    <glyph glyph-name="zero.numerator" unicode="&#xf661;" horiz-adv-x="391" 
d="M22 441q0 85 46.5 138t125.5 53q80 0 125.5 -50t45.5 -138q0 -85 -46 -138.5t-125 -53.5q-81 0 -126.5 51t-45.5 138zM194 283q20 0 33 11.5t18.5 35.5t7 48t1.5 63q0 79 -12 119.5t-48 40.5q-20 0 -33 -11t-18.5 -35.5t-7 -48t-1.5 -62.5q0 -79 12 -120t48 -41z" />
    <glyph glyph-name="one.numerator" unicode="&#xf662;" horiz-adv-x="391" 
d="M56 260v30l74 11q11 2 14.5 5.5t3.5 11.5v230h-4l-92 -24l-8 30q35 11 94.5 36.5t80.5 41.5h37v-314q0 -5 1 -8t4 -4.5t5 -2t8 -2.5l61 -11v-30h-279z" />
    <glyph glyph-name="two.numerator" unicode="&#xf663;" horiz-adv-x="391" 
d="M34 260v24l101 86q88 77 88 144q0 61 -73 61q-31 0 -54.5 -15t-23.5 -50q0 -10 4 -25h-26q-4 11 -4 35q0 48 37 80t107 32q65 0 102.5 -27.5t37.5 -79.5q0 -27 -10 -50t-34 -45t-44.5 -36.5t-59.5 -39.5l-35 -24h145q14 0 23 9t35 51h23q-28 -82 -36 -130h-303z" />
    <glyph glyph-name="three.numerator" unicode="&#xf664;" horiz-adv-x="391" 
d="M37 319q0 19 11.5 32.5t31.5 13.5q23 0 33.5 -16.5t15.5 -59.5q16 -9 35 -9q38 0 60 20.5t22 60.5q0 32 -21 50.5t-57 18.5q-21 0 -42 -9v35q108 10 108 74q0 24 -18 36.5t-46 12.5q-33 0 -58.5 -17t-25.5 -49h-26q0 54 38 86.5t101 32.5q131 0 131 -87q0 -31 -23 -53
t-57 -31q41 -4 70.5 -26.5t29.5 -63.5q0 -56 -52 -87.5t-134 -31.5q-55 0 -91 17.5t-36 49.5z" />
    <glyph glyph-name="four.numerator" unicode="&#xf665;" horiz-adv-x="391" 
d="M16 352v24l179 237q16 0 47.5 7.5t37.5 11.5h21v-232h53v-48h-53v-43q0 -10 11 -12l38 -8v-29h-216v29l49 8q13 1 13 12v43h-180zM74 400h122v162z" />
    <glyph glyph-name="five.numerator" unicode="&#xf666;" horiz-adv-x="391" 
d="M36 320q0 20 11 32t32 12q24 0 34 -18.5t17 -57.5q14 -8 33 -8q41 0 61 23t20 63q0 82 -84 82q-39 0 -70 -18h-23q15 85 16 194h261l-27 -73h-202q0 -42 -8 -84q31 25 90 25q72 0 113.5 -29.5t41.5 -85.5q0 -58 -54 -91.5t-135 -33.5q-54 0 -90.5 17.5t-36.5 50.5z" />
    <glyph glyph-name="six.numerator" unicode="&#xf667;" horiz-adv-x="391" 
d="M28 423q0 102 62.5 155.5t160.5 53.5q29 0 55.5 -9t39.5 -20v-28q-33 12 -80 12q-51 0 -85.5 -32t-43.5 -87q34 34 89 34q63 0 101.5 -30.5t38.5 -88.5q0 -60 -45 -95.5t-122 -35.5q-72 0 -121.5 41t-49.5 130zM133 437v-21q0 -133 69 -133q31 0 46.5 26t15.5 67
q0 81 -68 81q-34 0 -63 -20z" />
    <glyph glyph-name="seven.numerator" unicode="&#xf668;" horiz-adv-x="391" 
d="M67 260l215 298h-252l11 73h320v-22l-207 -349h-87z" />
    <glyph glyph-name="eight.numerator" unicode="&#xf669;" horiz-adv-x="391" 
d="M33 341q0 66 92 89q-79 36 -79 98q0 48 41.5 76t110.5 28q75 0 113 -23t38 -61q0 -29 -23 -51t-60 -34q90 -38 90 -104q0 -54 -46 -80.5t-117 -26.5t-115.5 22t-44.5 67zM197 403l-40 14q-35 -25 -35 -68q0 -69 68 -69q31 0 49.5 15.5t18.5 43.5q0 45 -61 64zM139 550
q0 -24 13.5 -37.5t40.5 -22.5l43 -16q29 24 29 67q0 63 -64 63q-28 0 -45 -13.5t-17 -40.5z" />
    <glyph glyph-name="nine.numerator" unicode="&#xf66a;" horiz-adv-x="391" 
d="M44 284v28q27 -15 82 -15q51 0 86 31.5t44 85.5q-35 -32 -91 -32q-63 0 -101.5 30t-38.5 90t44 95t121 35q76 0 125 -39.5t49 -121.5q0 -107 -59.5 -163t-158.5 -56q-70 0 -102 32zM196 431q39 0 63 13v24q0 133 -72 133q-27 0 -44 -22.5t-17 -63.5q0 -84 70 -84z" />
    <glyph glyph-name="comma.numerator" unicode="&#xf66b;" horiz-adv-x="211" 
d="M44 316q0 26 18 44.5t46 18.5q30 0 48 -19.5t18 -58.5q0 -61 -29.5 -111t-56.5 -70h-52q61 67 66 132q-26 2 -42 20t-16 44z" />
    <glyph glyph-name="period.numerator" unicode="&#xf66c;" horiz-adv-x="211" 
d="M44 316q0 29 18 46t46 17t46 -17t18 -46t-18 -46.5t-46 -17.5t-46 17.5t-18 46.5z" />
    <glyph glyph-name="abreve.sc" unicode="&#xf66d;" horiz-adv-x="544" 
d="M-9 0v33l35 9q20 5 28 26l189 440h74l173 -436q9 -23 31 -30l28 -9v-33h-253v33l38 9q14 3 16.5 9t-3.5 23l-22 58h-179l-24 -62q-12 -25 11 -29l42 -8v-33h-184zM279 564q-60 0 -90 43t-30 98h32q13 -68 88 -68t88 68h33q0 -56 -30 -98.5t-91 -42.5zM238 363l-72 -182
h140z" />
    <glyph glyph-name="amacron.sc" unicode="&#xf66e;" horiz-adv-x="544" 
d="M-9 0v33l35 9q20 5 28 26l189 440h74l173 -436q9 -23 31 -30l28 -9v-33h-253v33l38 9q14 3 16.5 9t-3.5 23l-22 58h-179l-24 -62q-12 -25 11 -29l42 -8v-33h-184zM145 574v59h268v-59h-268zM238 363l-72 -182h140z" />
    <glyph glyph-name="aogonek.sc" unicode="&#xf66f;" horiz-adv-x="544" 
d="M-9 0v33l35 9q20 5 28 26l189 440h74l173 -436q9 -23 31 -30l28 -9v-33h-253v33l38 9q14 3 16.5 9t-3.5 23l-22 58h-179l-24 -62q-12 -25 11 -29l42 -8v-33h-184zM387 -170q0 54 42.5 88.5t88.5 49.5h29q-82 -49 -82 -132q0 -33 14 -49t34 -16q24 0 59 21l-12 -32
q-19 -12 -64 -12q-109 0 -109 82zM238 363l-72 -182h140z" />
    <glyph glyph-name="aeacute.sc" unicode="&#xf670;" horiz-adv-x="780" 
d="M-9 0v33l35 9q20 5 32 26l239 382l-14 4l-37 9v33h386q44 0 72 8l16 -160h-33q-18 61 -47 95q-41 19 -94 19h-13q-46 0 -69 -9v-174h80q38 21 46 72h26v-194h-26q-15 59 -46 77h-80v-180q36 -12 80 -12h12q60 0 91 21q32 38 52 101h33l-24 -160h-448v33l38 9q19 4 23.5 8
t4.5 16v66h-164l-37 -62q-16 -25 8 -29l42 -8v-33h-184zM191 181h135v226zM340 563l56 147q17 45 55 45q18 0 31 -13t13 -32q0 -29 -25 -52l-103 -95h-27z" />
    <glyph glyph-name="cacute.sc" unicode="&#xf671;" horiz-adv-x="588" 
d="M31 254q0 86 44.5 144.5t113 84t154.5 25.5q76 0 141 -28l16 20h23l8 -175h-34q-19 67 -49 110q-33 35 -105 35q-78 0 -121 -60.5t-43 -151.5q0 -103 44 -165.5t118 -62.5q60 0 98 29q34 40 59 109h34l-29 -151q-68 -29 -168 -29q-140 0 -222 67.5t-82 198.5zM262 563
l56 147q17 45 54 45q19 0 32 -13t13 -32q0 -29 -25 -52l-103 -95h-27z" />
    <glyph glyph-name="ccaron.sc" unicode="&#xf672;" horiz-adv-x="588" 
d="M31 254q0 86 44.5 144.5t113 84t154.5 25.5q76 0 141 -28l16 20h23l8 -175h-34q-19 67 -49 110q-33 35 -105 35q-78 0 -121 -60.5t-43 -151.5q0 -103 44 -165.5t118 -62.5q60 0 98 29q34 40 59 109h34l-29 -151q-68 -29 -168 -29q-140 0 -222 67.5t-82 198.5zM306 564
l-124 176h38l107 -86h4l104 86h38l-121 -176h-46z" />
    <glyph glyph-name="ccircumflex.sc" unicode="&#xf673;" horiz-adv-x="588" 
d="M31 254q0 86 44.5 144.5t113 84t154.5 25.5q76 0 141 -28l16 20h23l8 -175h-34q-19 67 -49 110q-33 35 -105 35q-78 0 -121 -60.5t-43 -151.5q0 -103 44 -165.5t118 -62.5q60 0 98 29q34 40 59 109h34l-29 -151q-68 -29 -168 -29q-140 0 -222 67.5t-82 198.5zM185 564
l124 176h45l122 -176h-38l-104 86h-4l-107 -86h-38z" />
    <glyph glyph-name="cdotaccent.sc" unicode="&#xf674;" horiz-adv-x="588" 
d="M31 254q0 86 44.5 144.5t113 84t154.5 25.5q76 0 141 -28l16 20h23l8 -175h-34q-19 67 -49 110q-33 35 -105 35q-78 0 -121 -60.5t-43 -151.5q0 -103 44 -165.5t118 -62.5q60 0 98 29q34 40 59 109h34l-29 -151q-68 -29 -168 -29q-140 0 -222 67.5t-82 198.5zM331 565
q-31 0 -51 19.5t-20 50.5q0 29 20 49t51 20t50.5 -20t19.5 -49q0 -30 -19.5 -50t-50.5 -20z" />
    <glyph glyph-name="dcaron.sc" unicode="&#xf675;" horiz-adv-x="652" 
d="M32 0v33l38 9q19 4 23.5 8t4.5 16v364q0 13 -4 16.5t-24 7.5l-38 9v33h284q145 0 225 -62t80 -181q0 -117 -74.5 -185t-202.5 -68h-312zM301 458h-9q-32 0 -56 -8v-400q26 -12 62 -12h10q78 0 123.5 55t45.5 156t-41 155t-135 54zM295 564l-124 176h38l107 -86h4l104 86
h37l-121 -176h-45z" />
    <glyph glyph-name="dcroat.sc" unicode="&#xf676;" horiz-adv-x="652" 
d="M31 233v41h67v156q0 13 -4 16.5t-24 7.5l-38 9v33h284q145 0 225 -62t80 -181q0 -117 -74.5 -185t-202.5 -68h-312v33l38 9q19 4 23.5 8t4.5 16v167h-67zM301 458h-9q-32 0 -56 -8v-176h81v-41h-81v-183q26 -12 62 -12h10q78 0 123.5 55t45.5 156t-41 155t-135 54z" />
    <glyph glyph-name="ebreve.sc" unicode="&#xf677;" horiz-adv-x="552" 
d="M32 0v33l38 9q19 4 23.5 8t4.5 16v364q0 13 -4 16.5t-24 7.5l-38 9v33h372q44 0 72 8l16 -160h-33q-18 61 -47 95q-41 19 -93 19h-13q-47 0 -70 -9v-174h80q39 22 47 72h26v-194h-26q-15 59 -47 77h-80v-180q36 -12 81 -12h11q60 0 91 21q32 38 52 101h33l-24 -160h-448z
M280 564q-61 0 -91 42.5t-30 98.5h33q13 -68 88 -68t88 68h32q0 -55 -30.5 -98t-89.5 -43z" />
    <glyph glyph-name="ecaron.sc" unicode="&#xf678;" horiz-adv-x="552" 
d="M32 0v33l38 9q19 4 23.5 8t4.5 16v364q0 13 -4 16.5t-24 7.5l-38 9v33h372q44 0 72 8l16 -160h-33q-18 61 -47 95q-41 19 -93 19h-13q-47 0 -70 -9v-174h80q39 22 47 72h26v-194h-26q-15 59 -47 77h-80v-180q36 -12 81 -12h11q60 0 91 21q32 38 52 101h33l-24 -160h-448z
M255 564l-124 176h38l107 -86h4l104 86h37l-121 -176h-45z" />
    <glyph glyph-name="edotaccent.sc" unicode="&#xf679;" horiz-adv-x="552" 
d="M32 0v33l38 9q19 4 23.5 8t4.5 16v364q0 13 -4 16.5t-24 7.5l-38 9v33h372q44 0 72 8l16 -160h-33q-18 61 -47 95q-41 19 -93 19h-13q-47 0 -70 -9v-174h80q39 22 47 72h26v-194h-26q-15 59 -47 77h-80v-180q36 -12 81 -12h11q60 0 91 21q32 38 52 101h33l-24 -160h-448z
M280 565q-31 0 -51 19.5t-20 50.5q0 29 20 49t51 20q30 0 50 -20t20 -49q0 -30 -20 -50t-50 -20z" />
    <glyph glyph-name="emacron.sc" unicode="&#xf67a;" horiz-adv-x="552" 
d="M32 0v33l38 9q19 4 23.5 8t4.5 16v364q0 13 -4 16.5t-24 7.5l-38 9v33h372q44 0 72 8l16 -160h-33q-18 61 -47 95q-41 19 -93 19h-13q-47 0 -70 -9v-174h80q39 22 47 72h26v-194h-26q-15 59 -47 77h-80v-180q36 -12 81 -12h11q60 0 91 21q32 38 52 101h33l-24 -160h-448z
M146 574v59h267v-59h-267z" />
    <glyph glyph-name="eng.sc" unicode="&#xf67b;" horiz-adv-x="652" 
d="M22 0v33l46 9q9 1 13.5 4.5t6 7t3.5 12.5q4 35 4 85v274q0 12 -6.5 18t-24.5 11l-35 9v33h180l293 -314v163q0 50 -4 85q-3 19 -32 24l-57 9v33h225v-33l-46 -9q-9 -1 -13.5 -4.5t-5.5 -6.5t-3 -13q-4 -35 -4 -85v-354q0 -90 -49.5 -136.5t-118.5 -46.5q-95 0 -95 59
q0 20 15 33.5t36 13.5q31 0 44.5 -24t1.5 -51q44 4 73 35.5t29 93.5v15l-3 -1l-341 373v-204q0 -50 4 -85q3 -19 32 -24l57 -9v-33h-225z" />
    <glyph glyph-name="eogonek.sc" unicode="&#xf67c;" horiz-adv-x="552" 
d="M32 0v33l38 9q19 4 23.5 8t4.5 16v364q0 13 -4 16.5t-24 7.5l-38 9v33h372q44 0 72 8l16 -160h-33q-18 61 -47 95q-41 19 -93 19h-13q-47 0 -70 -9v-174h80q39 22 47 72h26v-194h-26q-15 59 -47 77h-80v-180q36 -12 81 -12h11q60 0 91 21q32 38 52 101h33l-24 -160h-448z
M316 -170q0 54 42.5 88.5t88.5 49.5h29q-82 -49 -82 -132q0 -33 14 -49t34 -16q24 0 59 21l-12 -32q-19 -12 -64 -12q-109 0 -109 82z" />
    <glyph glyph-name="gbreve.sc" unicode="&#xf67d;" horiz-adv-x="624" 
d="M31 257q0 122 91.5 186.5t238.5 64.5q90 0 148 -25l13 17h26l9 -175h-34q-16 66 -44 107q-43 38 -118 38q-84 0 -133 -55.5t-49 -151.5q0 -108 44.5 -172t118.5 -64q54 0 83 23v120q0 17 -18 21l-53 13v33h242v-31l-22 -8q-11 -6 -14 -9.5t-3 -14.5v-129l6 -16
q-88 -41 -224 -41q-143 0 -225.5 70.5t-82.5 198.5zM347 564q-61 0 -91 42.5t-30 98.5h33q13 -68 88 -68t88 68h33q0 -56 -30 -98.5t-91 -42.5z" />
    <glyph glyph-name="gcircumflex.sc" unicode="&#xf67e;" horiz-adv-x="624" 
d="M31 257q0 122 91.5 186.5t238.5 64.5q90 0 148 -25l13 17h26l9 -175h-34q-16 66 -44 107q-43 38 -118 38q-84 0 -133 -55.5t-49 -151.5q0 -108 44.5 -172t118.5 -64q54 0 83 23v120q0 17 -18 21l-53 13v33h242v-31l-22 -8q-11 -6 -14 -9.5t-3 -14.5v-129l6 -16
q-88 -41 -224 -41q-143 0 -225.5 70.5t-82.5 198.5zM201 564l124 176h45l122 -176h-38l-104 86h-4l-107 -86h-38z" />
    <glyph glyph-name="gcommaaccent.sc" unicode="&#xf67f;" horiz-adv-x="624" 
d="M31 257q0 122 91.5 186.5t238.5 64.5q90 0 148 -25l13 17h26l9 -175h-34q-16 66 -44 107q-43 38 -118 38q-84 0 -133 -55.5t-49 -151.5q0 -108 44.5 -172t118.5 -64q54 0 83 23v120q0 17 -18 21l-53 13v33h242v-31l-22 -8q-11 -6 -14 -9.5t-3 -14.5v-129l6 -16
q-88 -41 -224 -41q-143 0 -225.5 70.5t-82.5 198.5zM277 -109q0 24 16 40.5t42 16.5q27 0 44 -15.5t17 -46.5q0 -28 -22 -68t-48 -66h-53q33 40 49 88q-45 11 -45 51z" />
    <glyph glyph-name="gdotaccent.sc" unicode="&#xf680;" horiz-adv-x="624" 
d="M31 257q0 122 91.5 186.5t238.5 64.5q90 0 148 -25l13 17h26l9 -175h-34q-16 66 -44 107q-43 38 -118 38q-84 0 -133 -55.5t-49 -151.5q0 -108 44.5 -172t118.5 -64q54 0 83 23v120q0 17 -18 21l-53 13v33h242v-31l-22 -8q-11 -6 -14 -9.5t-3 -14.5v-129l6 -16
q-88 -41 -224 -41q-143 0 -225.5 70.5t-82.5 198.5zM347 565q-31 0 -50.5 19.5t-19.5 50.5q0 29 19.5 49t50.5 20t50.5 -20t19.5 -49q0 -30 -19.5 -50t-50.5 -20z" />
    <glyph glyph-name="hbar.sc" unicode="&#xf681;" horiz-adv-x="716" 
d="M28 347v41h70v42q0 13 -4 16.5t-24 7.5l-38 9v33h270v-33l-38 -9q-19 -4 -23.5 -8t-4.5 -16v-42h244v42q0 12 -4.5 15.5t-23.5 8.5l-38 9v33h270v-33l-38 -9q-19 -4 -23.5 -8t-4.5 -16v-42h68v-41h-68v-281q0 -12 4.5 -15.5t23.5 -8.5l38 -9v-33h-270v33l38 9
q19 4 23.5 8t4.5 16v161h-244v-161q0 -12 4.5 -15.5t23.5 -8.5l38 -9v-33h-270v33l38 9q19 4 23.5 8t4.5 16v281h-70zM236 347v-65h244v65h-244z" />
    <glyph glyph-name="hcircumflex.sc" unicode="&#xf682;" horiz-adv-x="716" 
d="M32 0v33l38 9q19 4 23.5 8t4.5 16v364q0 13 -4 16.5t-24 7.5l-38 9v33h270v-33l-38 -9q-19 -4 -23.5 -8t-4.5 -16v-148h244v148q0 12 -4.5 15.5t-23.5 8.5l-38 9v33h270v-33l-38 -9q-19 -4 -23.5 -8t-4.5 -16v-364q0 -12 4.5 -15.5t23.5 -8.5l38 -9v-33h-270v33l38 9
q19 4 23.5 8t4.5 16v161h-244v-161q0 -12 4.5 -15.5t23.5 -8.5l38 -9v-33h-270zM212 564l124 176h46l121 -176h-38l-104 86h-4l-107 -86h-38z" />
    <glyph glyph-name="ibreve.sc" unicode="&#xf683;" horiz-adv-x="340" 
d="M35 0v33l38 9q19 4 23.5 8t4.5 16v364q0 12 -4.5 15.5t-23.5 8.5l-38 9v33h270v-33l-38 -9q-19 -4 -23.5 -8t-4.5 -16v-364q0 -12 4.5 -15.5t23.5 -8.5l38 -9v-33h-270zM170 564q-61 0 -91 42.5t-30 98.5h33q13 -68 88 -68t88 68h33q0 -56 -30 -98.5t-91 -42.5z" />
    <glyph glyph-name="ij.sc" unicode="&#xf684;" horiz-adv-x="668" 
d="M277 -130q0 21 14 34t37 13q32 0 45.5 -25t0.5 -53q31 7 47 33.5t16 95.5v462q0 12 -4.5 16t-23.5 8l-46 9v33h278v-33l-38 -9q-19 -4 -23.5 -8t-4.5 -16v-442q0 -90 -58 -135t-145 -45q-95 0 -95 62zM35 0v33l38 9q19 4 23.5 8t4.5 16v364q0 12 -4.5 15.5t-23.5 8.5
l-38 9v33h270v-33l-38 -9q-19 -4 -23.5 -8t-4.5 -16v-364q0 -12 4.5 -15.5t23.5 -8.5l38 -9v-33h-270z" />
    <glyph glyph-name="imacron.sc" unicode="&#xf685;" horiz-adv-x="340" 
d="M35 0v33l38 9q19 4 23.5 8t4.5 16v364q0 12 -4.5 15.5t-23.5 8.5l-38 9v33h270v-33l-38 -9q-19 -4 -23.5 -8t-4.5 -16v-364q0 -12 4.5 -15.5t23.5 -8.5l38 -9v-33h-270zM36 574v59h268v-59h-268z" />
    <glyph glyph-name="iogonek.sc" unicode="&#xf686;" horiz-adv-x="340" 
d="M35 0v33l38 9q19 4 23.5 8t4.5 16v364q0 12 -4.5 15.5t-23.5 8.5l-38 9v33h270v-33l-38 -9q-19 -4 -23.5 -8t-4.5 -16v-364q0 -12 4.5 -15.5t23.5 -8.5l38 -9v-33h-270zM144 -170q0 54 42.5 88.5t88.5 49.5h29q-82 -49 -82 -132q0 -33 14 -49t34 -16q23 0 58 21l-12 -32
q-19 -12 -63 -12q-50 0 -79.5 17.5t-29.5 64.5z" />
    <glyph glyph-name="itilde.sc" unicode="&#xf687;" horiz-adv-x="340" 
d="M35 0v33l38 9q19 4 23.5 8t4.5 16v364q0 12 -4.5 15.5t-23.5 8.5l-38 9v33h270v-33l-38 -9q-19 -4 -23.5 -8t-4.5 -16v-364q0 -12 4.5 -15.5t23.5 -8.5l38 -9v-33h-270zM50 558h-27q0 47 22 82t69 35q32 0 70 -26t58 -26q23 0 35.5 15t12.5 37h27q0 -49 -24 -83t-67 -34
q-32 0 -70.5 26t-57.5 26q-25 0 -36.5 -15t-11.5 -37z" />
    <glyph glyph-name="jcircumflex.sc" unicode="&#xf688;" horiz-adv-x="328" 
d="M-12 -83q32 0 45.5 -25t0.5 -53q31 7 47 33.5t16 95.5v462q0 12 -4.5 16t-23.5 8l-46 9v33h278v-33l-38 -9q-19 -4 -23.5 -8t-4.5 -16v-442q0 -90 -58 -135t-145 -45q-95 0 -95 62q0 21 14 34t37 13zM18 564l124 176h45l121 -176h-38l-104 86h-4l-107 -86h-37z" />
    <glyph glyph-name="kcommaaccent.sc" unicode="&#xf689;" horiz-adv-x="612" 
d="M241 251v17q17 4 34 14l151 149q23 21 -6 26l-36 6v33h214v-33l-38 -8q-32 -7 -63 -35l-132 -116l116 -162q57 -78 91 -100l44 -9v-33h-176q-38 29 -86 100l-96 143q-5 8 -17 8zM32 0v33l38 9q19 4 23.5 8t4.5 16v364q0 13 -4 16.5t-24 7.5l-38 9v33h270v-33l-38 -9
q-19 -4 -23.5 -8t-4.5 -16v-364q0 -12 4.5 -15.5t23.5 -8.5l38 -9v-33h-270zM270 -109q0 25 15.5 41t41.5 16q27 0 44 -15.5t17 -46.5q0 -29 -22 -68.5t-48 -65.5h-52q34 43 49 88q-45 10 -45 51z" />
    <glyph glyph-name="lacute.sc" unicode="&#xf68a;" horiz-adv-x="520" 
d="M32 0v33l38 9q19 4 23.5 8t4.5 16v364q0 13 -4 16.5t-24 7.5l-38 9v33h296v-33l-55 -12q-26 -5 -31.5 -8.5t-5.5 -15.5v-377q36 -12 76 -12h12q63 0 94 22q30 35 56 127h33l-28 -187h-447zM107 563l56 147q17 45 55 45q18 0 31 -13t13 -32q0 -29 -25 -52l-103 -95h-27z
" />
    <glyph glyph-name="lcaron.sc" unicode="&#xf68b;" horiz-adv-x="520" 
d="M32 0v33l38 9q19 4 23.5 8t4.5 16v364q0 13 -4 16.5t-24 7.5l-38 9v33h296v-33l-55 -12q-26 -5 -31.5 -8.5t-5.5 -15.5v-377q36 -12 76 -12h12q63 0 94 22q30 35 56 127h33l-28 -187h-447zM418 308h-53q33 40 49 88q-45 11 -45 51q0 24 16 40.5t42 16.5q27 0 44 -15.5
t17 -46.5q0 -28 -22 -68t-48 -66z" />
    <glyph glyph-name="lcommaaccent.sc" unicode="&#xf68c;" horiz-adv-x="520" 
d="M32 0v33l38 9q19 4 23.5 8t4.5 16v364q0 13 -4 16.5t-24 7.5l-38 9v33h296v-33l-55 -12q-26 -5 -31.5 -8.5t-5.5 -15.5v-377q36 -12 76 -12h12q63 0 94 22q30 35 56 127h33l-28 -187h-447zM209 -109q0 24 16 40.5t42 16.5q27 0 44 -15.5t17 -46.5q0 -28 -22 -68t-48 -66
h-53q33 40 49 88q-45 11 -45 51z" />
    <glyph glyph-name="ldot.sc" unicode="&#xf68d;" horiz-adv-x="520" 
d="M32 0v33l38 9q19 4 23.5 8t4.5 16v364q0 13 -4 16.5t-24 7.5l-38 9v33h296v-33l-55 -12q-26 -5 -31.5 -8.5t-5.5 -15.5v-377q36 -12 76 -12h12q63 0 94 22q30 35 56 127h33l-28 -187h-447zM289 275q0 30 21 50t51 20q31 0 52 -20t21 -50t-21 -50t-52 -20q-30 0 -51 20
t-21 50z" />
    <glyph glyph-name="nacute.sc" unicode="&#xf68e;" horiz-adv-x="652" 
d="M22 0v33l46 9q9 1 13.5 4.5t6 7t3.5 12.5q4 35 4 85v274q0 12 -6.5 18t-24.5 11l-35 9v33h180l293 -314v163q0 50 -4 85q-3 19 -32 24l-57 9v33h225v-33l-46 -9q-9 -1 -13.5 -4.5t-5.5 -6.5t-3 -13q-4 -35 -4 -85v-357h-73l-335 367v-204q0 -50 4 -85q3 -19 32 -24l57 -9
v-33h-225zM258 563l56 147q17 45 54 45q19 0 32 -13t13 -32q0 -29 -25 -52l-103 -95h-27z" />
    <glyph glyph-name="ncaron.sc" unicode="&#xf68f;" horiz-adv-x="652" 
d="M22 0v33l46 9q9 1 13.5 4.5t6 7t3.5 12.5q4 35 4 85v274q0 12 -6.5 18t-24.5 11l-35 9v33h180l293 -314v163q0 50 -4 85q-3 19 -32 24l-57 9v33h225v-33l-46 -9q-9 -1 -13.5 -4.5t-5.5 -6.5t-3 -13q-4 -35 -4 -85v-357h-73l-335 367v-204q0 -50 4 -85q3 -19 32 -24l57 -9
v-33h-225zM302 564l-124 176h38l107 -86h4l104 86h38l-121 -176h-46z" />
    <glyph glyph-name="ncommaaccent.sc" unicode="&#xf690;" horiz-adv-x="652" 
d="M22 0v33l46 9q9 1 13.5 4.5t6 7t3.5 12.5q4 35 4 85v274q0 12 -6.5 18t-24.5 11l-35 9v33h180l293 -314v163q0 50 -4 85q-3 19 -32 24l-57 9v33h225v-33l-46 -9q-9 -1 -13.5 -4.5t-5.5 -6.5t-3 -13q-4 -35 -4 -85v-357h-73l-335 367v-204q0 -50 4 -85q3 -19 32 -24l57 -9
v-33h-225zM262 -109q0 25 15.5 41t41.5 16q27 0 44 -15.5t17 -46.5q0 -29 -22 -68.5t-48 -65.5h-52q34 43 49 88q-45 10 -45 51z" />
    <glyph glyph-name="obreve.sc" unicode="&#xf691;" horiz-adv-x="648" 
d="M31 252q0 110 78.5 183t214.5 73q135 0 214 -75.5t79 -183.5q0 -112 -78 -186.5t-215 -74.5t-215 76.5t-78 187.5zM179 252q0 -43 6.5 -81t22 -72.5t45.5 -55t71 -20.5t71 20.5t45 55t22 72.5t7 81t-7 80t-22.5 70t-45 52t-70.5 19q-55 0 -89 -34.5t-45 -80.5t-11 -106z
M324 564q-61 0 -91 42.5t-30 98.5h33q13 -68 88 -68t88 68h33q0 -56 -30 -98.5t-91 -42.5z" />
    <glyph glyph-name="ohungarumlaut.sc" unicode="&#xf692;" horiz-adv-x="648" 
d="M31 252q0 110 78.5 183t214.5 73q135 0 214 -75.5t79 -183.5q0 -112 -78 -186.5t-215 -74.5t-215 76.5t-78 187.5zM179 252q0 -43 6.5 -81t22 -72.5t45.5 -55t71 -20.5t71 20.5t45 55t22 72.5t7 81t-7 80t-22.5 70t-45 52t-70.5 19q-55 0 -89 -34.5t-45 -80.5t-11 -106z
M378 564l55 147q19 45 55 45q19 0 32 -13t13 -32q0 -27 -25 -52l-103 -95h-27zM206 564l55 147q19 45 55 45q19 0 32 -13t13 -32q0 -27 -25 -52l-103 -95h-27z" />
    <glyph glyph-name="omacron.sc" unicode="&#xf693;" horiz-adv-x="648" 
d="M31 252q0 110 78.5 183t214.5 73q135 0 214 -75.5t79 -183.5q0 -112 -78 -186.5t-215 -74.5t-215 76.5t-78 187.5zM179 252q0 -43 6.5 -81t22 -72.5t45.5 -55t71 -20.5t71 20.5t45 55t22 72.5t7 81t-7 80t-22.5 70t-45 52t-70.5 19q-55 0 -89 -34.5t-45 -80.5t-11 -106z
M190 574v59h268v-59h-268z" />
    <glyph glyph-name="oslashacute.sc" unicode="&#xf694;" horiz-adv-x="648" 
d="M31 252q0 110 78.5 183t214.5 73q81 0 146 -30l39 54h40l-51 -70q57 -36 88 -92t31 -121q0 -112 -78 -186.5t-215 -74.5q-83 0 -146 30l-39 -54h-40l50 69q-58 36 -88 93.5t-30 125.5zM179 252q0 -90 24 -144l225 312q-38 53 -104 53q-55 0 -89 -34.5t-45 -80.5t-11 -106
zM469 252q0 81 -24 137l-225 -312q38 -54 104 -54q41 0 71 20.5t45 55t22 72.5t7 81zM255 563l56 147q17 45 55 45q18 0 31 -13t13 -32q0 -29 -25 -52l-103 -95h-27z" />
    <glyph glyph-name="racute.sc" unicode="&#xf695;" horiz-adv-x="596" 
d="M32 0v33l38 9q19 4 23.5 8t4.5 16v364q0 13 -4 16.5t-24 7.5l-38 9v33h297q211 0 211 -132q0 -54 -40.5 -87.5t-97.5 -44.5q27 -20 67 -77l44 -63q23 -32 48 -52l41 -9v-31h-169q-24 18 -67 84l-80 122h-50v-140q0 -12 4.5 -15.5t23.5 -8.5l38 -9v-33h-270zM300 458h-13
q-28 0 -51 -9v-198h45q125 0 125 110q0 97 -106 97zM227 563l55 147q17 45 55 45q19 0 31.5 -13t12.5 -32q0 -29 -25 -52l-103 -95h-26z" />
    <glyph glyph-name="rcaron.sc" unicode="&#xf696;" horiz-adv-x="596" 
d="M32 0v33l38 9q19 4 23.5 8t4.5 16v364q0 13 -4 16.5t-24 7.5l-38 9v33h297q211 0 211 -132q0 -54 -40.5 -87.5t-97.5 -44.5q27 -20 67 -77l44 -63q23 -32 48 -52l41 -9v-31h-169q-24 18 -67 84l-80 122h-50v-140q0 -12 4.5 -15.5t23.5 -8.5l38 -9v-33h-270zM300 458h-13
q-28 0 -51 -9v-198h45q125 0 125 110q0 97 -106 97zM271 564l-124 176h37l107 -86h4l104 86h38l-121 -176h-45z" />
    <glyph glyph-name="rcommaaccent.sc" unicode="&#xf697;" horiz-adv-x="596" 
d="M32 0v33l38 9q19 4 23.5 8t4.5 16v364q0 13 -4 16.5t-24 7.5l-38 9v33h297q211 0 211 -132q0 -54 -40.5 -87.5t-97.5 -44.5q27 -20 67 -77l44 -63q23 -32 48 -52l41 -9v-31h-169q-24 18 -67 84l-80 122h-50v-140q0 -12 4.5 -15.5t23.5 -8.5l38 -9v-33h-270zM300 458h-13
q-28 0 -51 -9v-198h45q125 0 125 110q0 97 -106 97zM250 -109q0 24 16 40.5t42 16.5t43 -15.5t17 -46.5q0 -29 -22 -68.5t-48 -65.5h-52q34 43 49 88q-45 11 -45 51z" />
    <glyph glyph-name="sacute.sc" unicode="&#xf698;" horiz-adv-x="474" 
d="M67 -8h-25q0 85 -6 187h41q13 -78 35 -111q34 -41 99 -41q47 0 71 21.5t24 58.5q0 34 -19 53t-59 35l-73 28q-59 24 -86.5 57.5t-27.5 85.5q0 68 57.5 105t153.5 37q66 0 118 -25l20 21h23l8 -162h-39q-18 70 -38 95q-35 35 -95 35q-36 0 -58.5 -17.5t-22.5 -49.5
q0 -31 16 -48.5t50 -30.5l77 -29q63 -24 97.5 -57.5t34.5 -93.5q0 -75 -62.5 -116.5t-167.5 -41.5q-64 0 -129 25zM171 563l55 147q17 45 55 45q19 0 31.5 -13t12.5 -32q0 -29 -25 -52l-103 -95h-26z" />
    <glyph glyph-name="scedilla.sc" unicode="&#xf699;" horiz-adv-x="474" 
d="M67 -8h-25q0 85 -6 187h41q13 -78 35 -111q34 -41 99 -41q47 0 71 21.5t24 58.5q0 34 -19 53t-59 35l-73 28q-59 24 -86.5 57.5t-27.5 85.5q0 68 57.5 105t153.5 37q66 0 118 -25l20 21h23l8 -162h-39q-18 70 -38 95q-35 35 -95 35q-36 0 -58.5 -17.5t-22.5 -49.5
q0 -31 16 -48.5t50 -30.5l77 -29q63 -24 97.5 -57.5t34.5 -93.5q0 -75 -62.5 -116.5t-167.5 -41.5q-64 0 -129 25zM196 -87q0 22 15 37.5t36 17.5l9 -4q-14 -14 -14 -30t19 -30.5t38 -33t19 -43.5q0 -43 -31.5 -61t-93.5 -18q-49 0 -85 23l25 39q23 -40 57 -40
q22 0 35.5 12.5t13.5 33.5q0 24 -21.5 48t-21.5 49z" />
    <glyph glyph-name="scircumflex.sc" unicode="&#xf69a;" horiz-adv-x="474" 
d="M67 -8h-25q0 85 -6 187h41q13 -78 35 -111q34 -41 99 -41q47 0 71 21.5t24 58.5q0 34 -19 53t-59 35l-73 28q-59 24 -86.5 57.5t-27.5 85.5q0 68 57.5 105t153.5 37q66 0 118 -25l20 21h23l8 -162h-39q-18 70 -38 95q-35 35 -95 35q-36 0 -58.5 -17.5t-22.5 -49.5
q0 -31 16 -48.5t50 -30.5l77 -29q63 -24 97.5 -57.5t34.5 -93.5q0 -75 -62.5 -116.5t-167.5 -41.5q-64 0 -129 25zM93 564l124 176h46l121 -176h-38l-104 86h-4l-107 -86h-38z" />
    <glyph glyph-name="scommaaccent.sc" unicode="&#xf69b;" horiz-adv-x="474" 
d="M67 -8h-25q0 85 -6 187h41q13 -78 35 -111q34 -41 99 -41q47 0 71 21.5t24 58.5q0 34 -19 53t-59 35l-73 28q-59 24 -86.5 57.5t-27.5 85.5q0 68 57.5 105t153.5 37q66 0 118 -25l20 21h23l8 -162h-39q-18 70 -38 95q-35 35 -95 35q-36 0 -58.5 -17.5t-22.5 -49.5
q0 -31 16 -48.5t50 -30.5l77 -29q63 -24 97.5 -57.5t34.5 -93.5q0 -75 -62.5 -116.5t-167.5 -41.5q-64 0 -129 25zM175 -109q0 25 15.5 41t41.5 16q27 0 44 -15.5t17 -46.5q0 -29 -22 -68.5t-48 -65.5h-52q34 43 49 88q-45 10 -45 51z" />
    <glyph glyph-name="tbar.sc" unicode="&#xf69c;" horiz-adv-x="540" 
d="M8 328l8 178q28 -10 72 -10h364q49 0 72 10l8 -178h-33q-20 80 -42 110q-27 20 -97 20h-21v-199h110v-41h-110v-148q0 -12 4.5 -15.5t23.5 -8.5l58 -13v-33h-310v33l58 13q19 4 23.5 8t4.5 16v148h-110v41h110v199h-21q-70 0 -97 -20q-22 -30 -42 -110h-33z" />
    <glyph glyph-name="tcaron.sc" unicode="&#xf69d;" horiz-adv-x="540" 
d="M8 328l8 178q28 -10 72 -10h364q49 0 72 10l8 -178h-33q-20 80 -42 110q-27 20 -97 20h-21v-388q0 -12 4.5 -15.5t23.5 -8.5l58 -13v-33h-310v33l58 13q19 4 23.5 8t4.5 16v388h-21q-70 0 -97 -20q-22 -30 -42 -110h-33zM245 564l-124 176h38l107 -86h4l104 86h38
l-121 -176h-46z" />
    <glyph glyph-name="tcommaaccent.sc" unicode="&#xf69e;" horiz-adv-x="540" 
d="M8 328l8 178q28 -10 72 -10h364q49 0 72 10l8 -178h-33q-20 80 -42 110q-27 20 -97 20h-21v-388q0 -12 4.5 -15.5t23.5 -8.5l58 -13v-33h-310v33l58 13q19 4 23.5 8t4.5 16v388h-21q-70 0 -97 -20q-22 -30 -42 -110h-33zM212 -109q0 24 16 40.5t42 16.5q27 0 44 -15.5
t17 -46.5q0 -28 -22 -68t-48 -66h-53q33 40 49 88q-45 11 -45 51z" />
    <glyph glyph-name="ubreve.sc" unicode="&#xf69f;" horiz-adv-x="640" 
d="M92 188v242q0 12 -4 15.5t-24 8.5l-35 9v33h270v-33l-40 -9q-19 -4 -23.5 -8t-4.5 -16v-242q0 -74 31 -108t92 -34q68 0 101 41.5t33 109.5v230q0 20 -19 24l-62 12v33h208v-30l-48 -15q-16 -4 -16 -24v-231q0 -95 -56.5 -151.5t-162.5 -56.5q-240 0 -240 200zM348 564
q-60 0 -90 43t-30 98h32q13 -68 88 -68t88 68h33q0 -56 -30 -98.5t-91 -42.5z" />
    <glyph glyph-name="uhungarumlaut.sc" unicode="&#xf6a0;" horiz-adv-x="640" 
d="M92 188v242q0 12 -4 15.5t-24 8.5l-35 9v33h270v-33l-40 -9q-19 -4 -23.5 -8t-4.5 -16v-242q0 -74 31 -108t92 -34q68 0 101 41.5t33 109.5v230q0 20 -19 24l-62 12v33h208v-30l-48 -15q-16 -4 -16 -24v-231q0 -95 -56.5 -151.5t-162.5 -56.5q-240 0 -240 200zM402 564
l55 147q19 45 55 45q19 0 32 -13t13 -32q0 -29 -25 -52l-103 -95h-27zM230 564l55 147q19 45 55 45q19 0 32 -13t13 -32q0 -29 -25 -52l-103 -95h-27z" />
    <glyph glyph-name="umacron.sc" unicode="&#xf6a1;" horiz-adv-x="640" 
d="M92 188v242q0 12 -4 15.5t-24 8.5l-35 9v33h270v-33l-40 -9q-19 -4 -23.5 -8t-4.5 -16v-242q0 -74 31 -108t92 -34q68 0 101 41.5t33 109.5v230q0 20 -19 24l-62 12v33h208v-30l-48 -15q-16 -4 -16 -24v-231q0 -95 -56.5 -151.5t-162.5 -56.5q-240 0 -240 200zM215 574
v59h267v-59h-267z" />
    <glyph glyph-name="uogonek.sc" unicode="&#xf6a2;" horiz-adv-x="640" 
d="M92 188v242q0 12 -4 15.5t-24 8.5l-35 9v33h270v-33l-40 -9q-19 -4 -23.5 -8t-4.5 -16v-242q0 -74 31 -108t92 -34q68 0 101 41.5t33 109.5v230q0 20 -19 24l-62 12v33h208v-30l-48 -15q-16 -4 -16 -24v-231q0 -95 -56.5 -151.5t-162.5 -56.5q-240 0 -240 200zM266 -170
q0 54 42.5 88.5t88.5 49.5h29q-82 -49 -82 -132q0 -33 14 -49t34 -16q24 0 59 21l-12 -32q-19 -12 -64 -12q-109 0 -109 82z" />
    <glyph glyph-name="uring.sc" unicode="&#xf6a3;" horiz-adv-x="640" 
d="M92 188v242q0 12 -4 15.5t-24 8.5l-35 9v33h270v-33l-40 -9q-19 -4 -23.5 -8t-4.5 -16v-242q0 -74 31 -108t92 -34q68 0 101 41.5t33 109.5v230q0 20 -19 24l-62 12v33h208v-30l-48 -15q-16 -4 -16 -24v-231q0 -95 -56.5 -151.5t-162.5 -56.5q-240 0 -240 200zM348 564
q-43 0 -71 24.5t-28 63.5t28 63.5t71 24.5t71 -24.5t28 -63.5t-28 -63.5t-71 -24.5zM348 595q24 0 37.5 16.5t13.5 40.5q0 57 -51 57q-23 0 -36.5 -16.5t-13.5 -40.5q0 -27 13 -42t37 -15z" />
    </font>
</defs>
</svg>
