<?xml version="1.0" standalone="no"?>
<!DOCTYPE svg PUBLIC "-//W3C//DTD SVG 1.1//EN" "http://www.w3.org/Graphics/SVG/1.1/DTD/svg11.dtd" >
<svg>
<metadata>
Created by FontForge 20090622 at Fri Jul 24 18:33:51 2015
 By deploy user
&#194;&#169; Copyright (c) 2001-2010. All rights reserved. Arnhem is a design by Fred Smeijers, published by OurType. www.ourtype.com. wf-rip
</metadata>
<defs>
<font id="ArnhemPro-NormalItalic" horiz-adv-x="528" >
  <font-face 
    font-family="Arnhem Pro Normal"
    font-weight="400"
    font-style="italic"
    font-stretch="normal"
    units-per-em="1000"
    panose-1="2 0 0 0 0 0 0 0 0 0"
    ascent="752"
    descent="-248"
    x-height="480"
    cap-height="620"
    bbox="-251 -352 1254 968"
    underline-thickness="21"
    underline-position="-113"
    slope="-12"
    unicode-range="U+0020-U+FB04"
  />
<missing-glyph horiz-adv-x="628" 
d="M-49 0l100 635h629l-101 -635h-628zM181 179l131 114l95 -115l35 31l-95 115l130 114l-26 30l-131 -114l-92 112l-35 -31l93 -111l-131 -113z" />
    <glyph glyph-name="f_b" unicode="fb" horiz-adv-x="826" 
d="M48 409v27l100 27l4 17q50 228 243 228q77 0 108 -28l70 28h39l-36 -103l-73 -277q23 40 44 68.5t60.5 56t82.5 27.5t70.5 -33.5t27.5 -96.5q0 -94 -33 -175.5t-99.5 -134t-152.5 -52.5q-72 0 -100 38l-39 -36h-48l171 612l1 13q-9 29 -35 44.5t-60 15.5
q-52 0 -85.5 -45.5t-54.5 -141.5l-8 -32h106v-47h-116l-82 -361q-34 -153 -85.5 -224.5t-150.5 -71.5q-46 0 -77.5 20t-31.5 54q0 24 15 39t36 15q22 0 34.5 -11.5t23.5 -37.5l20 -46q58 0 99 175l100 449h-88zM641 412q-31 0 -77.5 -44.5t-76.5 -99.5l-58 -218
q21 -17 66 -17q80 0 137 91.5t57 210.5q0 77 -48 77z" />
    <glyph glyph-name="f_f_b" unicode="ffb" horiz-adv-x="1110" 
d="M48 409v27l94 26q49 218 198 218q45 0 72.5 -17.5t27.5 -44.5q0 -22 -12.5 -35.5t-32.5 -13.5q-60 0 -67 78q-48 -3 -87 -187l-1 -4h192l5 24q47 228 242 228q70 0 111 -27l67 27h39l-36 -103l-73 -277q87 152 187 152q43 0 70.5 -33.5t27.5 -96.5q0 -94 -33 -175.5
t-99 -134t-152 -52.5q-73 0 -101 38l-39 -36h-48l172 611l1 11q-19 63 -96 63q-102 0 -139 -187l-7 -32h124v-47h-134l-75 -354q-34 -159 -87.5 -221t-126.5 -62q-46 0 -74.5 19t-28.5 52q0 23 14 37.5t35 14.5q26 0 42.5 -19.5t25.5 -70.5q49 6 88 187l88 417h-192
l-77 -361q-32 -152 -84.5 -224t-151.5 -72q-46 0 -77.5 20t-31.5 54q0 24 15 39t36 15q22 0 34.5 -11.5t23.5 -37.5l20 -46q28 0 54.5 45t44.5 130l95 449h-83zM926 412q-32 0 -78.5 -44.5t-76.5 -99.5l-57 -217q18 -18 65 -18q80 0 137 91.5t57 210.5q0 77 -47 77z" />
    <glyph glyph-name="f_f_h" unicode="ffh" horiz-adv-x="1128" 
d="M48 409v27l94 26q49 218 198 218q45 0 72.5 -17.5t27.5 -44.5q0 -22 -12.5 -35.5t-32.5 -13.5q-60 0 -67 78q-48 -3 -87 -187l-1 -4h192l5 24q47 228 242 228q70 0 111 -27l68 27h39l-36 -103l-88 -333q110 208 221 208q83 0 83 -76q0 -24 -17 -83l-55 -175
q-19 -65 -19 -83q0 -16 4 -23q28 3 53 23t39 44l16 -26q-20 -38 -59.5 -65.5t-86.5 -27.5q-29 0 -45 17t-16 47q0 35 19 97l55 173q15 43 15 61q0 25 -28 25q-34 0 -90.5 -55.5t-102.5 -133.5l-58 -219h-97l168 602v10q-18 63 -95 63q-102 0 -139 -187l-7 -32h124v-47h-134
l-75 -354q-34 -159 -87.5 -221t-126.5 -62q-46 0 -74.5 19t-28.5 52q0 23 14 37.5t35 14.5q26 0 42.5 -19.5t25.5 -70.5q49 6 88 187l88 417h-192l-77 -361q-32 -152 -84 -224t-152 -72q-46 0 -77.5 20t-31.5 54q0 24 15 39t36 15q22 0 34.5 -11.5t23.5 -37.5l20 -46
q28 0 54.5 45t44.5 130l95 449h-83z" />
    <glyph glyph-name="f_f_j" unicode="ffj" horiz-adv-x="882" 
d="M426 -134q0 23 14 37.5t35 14.5q26 0 42 -19.5t25 -70.5q21 3 45.5 48.5t42.5 138.5l74 369q4 18 1 21.5t-20 3.5h-164l-76 -354q-31 -146 -80.5 -214.5t-136.5 -68.5q-43 0 -72.5 19.5t-29.5 51.5q0 23 14 37.5t35 14.5q25 0 41 -20t30 -70q22 2 45 48t40 130l91 426
h-192l-77 -361q-32 -152 -84.5 -224t-151.5 -72q-46 0 -77.5 20t-31.5 54q0 24 15 39t36 15q22 0 34.5 -11.5t23.5 -37.5l20 -46q28 0 54.5 45t44.5 130l95 449h-83v27l94 26q49 218 198 218q45 0 72.5 -17.5t27.5 -44.5q0 -22 -12.5 -35.5t-32.5 -13.5q-29 0 -43.5 17.5
t-23.5 60.5q-48 -3 -87 -187l-1 -4h192l5 24q27 119 94 172t158 53q69 0 115 -21.5t46 -58.5q0 -21 -15 -35.5t-36 -14.5q-46 0 -59 50l-8 39q-20 11 -49 11q-56 0 -90 -46.5t-55 -140.5l-7 -32h114l119 24h56l-79 -402q-29 -158 -84 -220.5t-129 -62.5q-45 0 -73.5 19.5
t-28.5 51.5z" />
    <glyph glyph-name="f_f_k" unicode="ffk" horiz-adv-x="1071" 
d="M48 409v27l94 26q49 218 198 218q45 0 72.5 -17.5t27.5 -44.5q0 -22 -12.5 -35.5t-32.5 -13.5q-60 0 -67 78q-48 -3 -87 -187l-1 -4h192l5 24q50 228 242 228q73 0 112 -28l67 28h39l-36 -103l-160 -605h-97l168 602v10q-18 63 -95 63q-102 0 -139 -187l-7 -32h124v-47
h-134l-75 -354q-34 -159 -87.5 -221t-126.5 -62q-46 0 -74.5 19t-28.5 52q0 23 14 37.5t35 14.5q26 0 42.5 -19.5t25.5 -70.5q49 6 88 187l88 417h-192l-77 -361q-32 -152 -84 -224t-152 -72q-46 0 -77.5 20t-31.5 54q0 24 15 39t36 15q22 0 34.5 -11.5t23.5 -37.5l20 -46
q28 0 54.5 45t44.5 130l95 449h-83zM772 230l112 143q2 3 16.5 21l20 25t20 22t24.5 21t24 12t28 6q26 0 43.5 -13t17.5 -37q0 -28 -16.5 -45t-45.5 -17q-39 0 -57 22l-111 -106q28 -16 52 -96l28 -91q17 -57 49 -57q20 0 37 17.5t26 42.5l21 -24q-35 -88 -126 -88
q-68 0 -96 83l-33 108q-14 43 -34 51z" />
    <glyph glyph-name="f_f_t" unicode="fft" horiz-adv-x="912" 
d="M521 409l-75 -354q-34 -159 -87.5 -221t-126.5 -62q-46 0 -74.5 19t-28.5 52q0 23 14 37.5t35 14.5q26 0 42.5 -19.5t25.5 -70.5q49 6 88 187l88 417h-192l-77 -361q-32 -152 -84.5 -224t-151.5 -72q-46 0 -77.5 20t-31.5 54q0 24 15 39t36 15q22 0 34.5 -11.5
t23.5 -37.5l20 -46q28 0 54.5 45t44.5 130l95 449h-83v27l94 26q49 218 198 218q45 0 72.5 -17.5t27.5 -44.5q0 -22 -12.5 -35.5t-32.5 -13.5q-28 0 -44 18.5t-23 59.5q-48 -3 -87 -187l-1 -4h192l5 24q25 123 78.5 175.5t133.5 52.5q55 0 86.5 -18t31.5 -45
q0 -23 -12.5 -36t-33.5 -13q-40 0 -62 46l-15 33q-40 -2 -63 -45.5t-43 -141.5l-7 -32h193l86 144h47l-40 -144h106v-47h-119l-54 -194q-23 -75 -23 -114q0 -35 9 -53q38 0 69 28t44 60l25 -24q-24 -56 -68 -88.5t-102 -32.5q-37 0 -58 22t-21 66q0 24 23 113l62 217h-189z
" />
    <glyph glyph-name="f_h" unicode="fh" horiz-adv-x="843" 
d="M48 409v27l100 27l4 17q50 228 243 228q77 0 108 -28l70 28h39l-36 -103l-88 -333q110 208 221 208q83 0 83 -76q0 -24 -17 -83l-55 -175q-19 -65 -19 -83q0 -16 4 -23q28 3 52.5 23t38.5 44l17 -26q-20 -38 -59.5 -65.5t-86.5 -27.5q-29 0 -45 17t-16 47q0 35 19 97
l55 173q15 43 15 61q0 25 -28 25q-34 0 -90.5 -55.5t-102.5 -133.5l-58 -219h-97l168 602l1 13q-9 29 -35 44.5t-60 15.5q-52 0 -85.5 -45.5t-54.5 -141.5l-8 -32h106v-47h-116l-82 -361q-34 -153 -85.5 -224.5t-150.5 -71.5q-46 0 -77.5 20t-31.5 54q0 24 15 39t36 15
q22 0 34.5 -11.5t23.5 -37.5l20 -46q58 0 99 175l100 449h-88z" />
    <glyph glyph-name="f_j" unicode="fj" horiz-adv-x="570" 
d="M129 -157q0 23 14 37.5t35 14.5q26 0 42.5 -19.5t25.5 -70.5q21 3 44.5 48t43.5 139l85 392q4 15 -0.5 20t-21.5 5h-162l-82 -361q-34 -153 -85 -224.5t-151 -71.5q-46 0 -77.5 20t-31.5 54q0 24 15 39t36 15q22 0 34.5 -11.5t23.5 -37.5l20 -46q58 0 99 175l100 449h-88
v27l100 27l4 17q27 119 94.5 172t158.5 53q69 0 115 -21.5t46 -58.5q0 -21 -15 -35.5t-36 -14.5q-46 0 -59 50l-8 39q-22 11 -49 11q-57 0 -90.5 -46t-55.5 -141l-8 -32h116l119 24h56l-90 -425q-34 -159 -87.5 -221t-126.5 -62q-46 0 -74.5 19t-28.5 52z" />
    <glyph glyph-name="f_k" unicode="fk" horiz-adv-x="786" 
d="M48 409v27l100 27l4 17q50 228 243 228q74 0 107 -27l71 27h39l-36 -103l-160 -605h-97l168 602l1 13q-9 29 -35 44.5t-60 15.5q-52 0 -85.5 -45.5t-54.5 -141.5l-8 -32h106v-47h-116l-82 -361q-34 -153 -85.5 -224.5t-150.5 -71.5q-46 0 -77.5 20t-31.5 54q0 24 15 39
t36 15q22 0 34.5 -11.5t23.5 -37.5l20 -46q58 0 99 175l100 449h-88zM487 230l111 143l14 18.5t16.5 21t17 19t20 19.5t20 14.5t22.5 11t23 3.5q27 0 44.5 -13t17.5 -37q0 -28 -17 -45t-46 -17q-40 0 -56 22l-111 -106q27 -15 51 -96l28 -91q17 -57 50 -57q19 0 36.5 17.5
t26.5 42.5l21 -24q-38 -88 -126 -88q-71 0 -96 83l-34 108q-12 42 -33 51z" />
    <glyph glyph-name="f_t" unicode="ft" horiz-adv-x="628" 
d="M341 79q0 40 23 113l62 217h-191l-82 -361q-34 -153 -85.5 -224.5t-150.5 -71.5q-46 0 -77.5 20t-31.5 54q0 24 15 39t36 15q22 0 34.5 -11.5t23.5 -37.5l20 -46q58 0 99 175l100 449h-88v27l100 27l4 17q27 121 80 174.5t133 53.5q55 0 86 -18t31 -45q0 -23 -12.5 -36
t-33.5 -13q-41 0 -61 46l-15 33q-39 -2 -62 -45t-45 -142l-8 -32h186l10 2l85 142h47l-40 -144h105v-47h-118l-54 -194q-24 -79 -24 -114t9 -53q38 0 68.5 27.5t45.5 60.5l25 -24q-24 -56 -68 -88.5t-102 -32.5q-37 0 -58 22t-21 66z" />
    <glyph glyph-name="fi" unicode="fi" horiz-adv-x="573" 
d="M330 52q0 38 16 88l73 244q5 14 2.5 19t-14.5 6h-172l-82 -361q-34 -153 -85 -224.5t-151 -71.5q-46 0 -77.5 20t-31.5 54q0 24 15 39t36 15q22 0 34.5 -11.5t23.5 -37.5l20 -46q58 0 99 175l100 449h-88v27l100 27l4 17q27 118 96 171.5t160 53.5q68 0 114.5 -22
t46.5 -58q0 -21 -15 -35.5t-36 -14.5q-46 0 -59 50l-8 39q-20 11 -49 11q-57 0 -92 -46.5t-57 -140.5l-8 -32h123l124 24h52l-36 -101l-67 -238q-15 -51 -15 -77q0 -17 4 -24q28 3 52 22.5t38 44.5l17 -26q-20 -38 -59.5 -65.5t-86.5 -27.5q-29 0 -45 17t-16 47z" />
    <glyph glyph-name="fl" unicode="fl" horiz-adv-x="583" 
d="M48 409v27l100 27l4 17q50 228 243 228q72 0 110 -27l68 27h39l-36 -103l-124 -464q-15 -51 -15 -78q0 -16 4 -23q28 3 52 22.5t38 44.5l17 -26q-20 -38 -59.5 -65.5t-86.5 -27.5q-29 0 -45 17t-16 47q0 32 16 88l130 462v16q-22 57 -94 57q-52 0 -85.5 -45.5
t-54.5 -141.5l-8 -32h106v-47h-116l-82 -361q-34 -153 -85.5 -224.5t-150.5 -71.5q-46 0 -77.5 20t-31.5 54q0 24 15 39t36 15q22 0 34.5 -11.5t23.5 -37.5l20 -46q58 0 99 175l100 449h-88z" />
    <glyph glyph-name="ff" unicode="ff" horiz-adv-x="607" 
d="M48 409v27l94 26q49 218 198 218q45 0 72.5 -17.5t27.5 -44.5q0 -22 -12.5 -35.5t-32.5 -13.5q-60 0 -67 78q-48 -3 -87 -187l-1 -4h192l5 24q25 121 80.5 174.5t140.5 53.5q55 0 86 -18t31 -45q0 -23 -12 -36t-33 -13q-42 0 -62 46l-15 33q-45 0 -70 -44t-45 -143
l-7 -32h124v-47h-134l-75 -354q-34 -159 -87.5 -221t-126.5 -62q-46 0 -74.5 19t-28.5 52q0 23 14 37.5t35 14.5q26 0 42.5 -19.5t25.5 -70.5q49 6 88 187l88 417h-192l-77 -361q-32 -152 -84.5 -224t-151.5 -72q-46 0 -77.5 20t-31.5 54q0 24 15 39t36 15q22 0 34.5 -11.5
t23.5 -37.5l20 -46q28 0 54.5 45t44.5 130l95 449h-83z" />
    <glyph glyph-name="ffi" unicode="ffi" horiz-adv-x="857" 
d="M614 52q0 32 16 88l74 244q5 17 2 21t-21 4h-164l-75 -354q-34 -159 -87.5 -221t-126.5 -62q-46 0 -74.5 19t-28.5 52q0 23 14 37.5t35 14.5q26 0 42.5 -19.5t25.5 -70.5q49 6 88 187l88 417h-192l-77 -361q-32 -152 -84.5 -224t-151.5 -72q-46 0 -77.5 20t-31.5 54
q0 24 15 39t36 15q22 0 34.5 -11.5t23.5 -37.5l20 -46q28 0 54.5 45t44.5 130l95 449h-83v27l94 26q49 218 198 218q45 0 72.5 -17.5t27.5 -44.5q0 -22 -12.5 -35.5t-32.5 -13.5q-28 0 -44 18.5t-23 59.5q-48 -3 -87 -187l-1 -4h192l5 24q26 120 94.5 172.5t160.5 52.5
q69 0 115.5 -21.5t46.5 -58.5q0 -21 -15.5 -35.5t-36.5 -14.5q-46 0 -59 50l-8 39q-20 11 -49 11q-109 0 -148 -187l-7 -32h122l124 24h51l-36 -101l-67 -238q-15 -58 -15 -77q0 -17 4 -24q28 3 52.5 23t38.5 44l17 -26q-21 -38 -61 -65.5t-86 -27.5q-29 0 -45 17t-16 47z
" />
    <glyph glyph-name="ffl" unicode="ffl" horiz-adv-x="867" 
d="M48 409v27l94 26q49 218 198 218q45 0 72.5 -17.5t27.5 -44.5q0 -22 -12.5 -35.5t-32.5 -13.5q-60 0 -67 78q-48 -3 -87 -187l-1 -4h192l5 24q50 228 242 228q72 0 110 -27l68 27h39l-36 -103l-124 -464q-15 -51 -15 -78q0 -15 4 -23q28 3 52.5 23t38.5 44l17 -26
q-20 -38 -59.5 -65.5t-86.5 -27.5q-29 0 -45.5 17.5t-16.5 46.5q0 32 16 88l131 462l-1 14q-20 59 -94 59q-99 0 -139 -187l-7 -32h124v-47h-134l-75 -354q-34 -159 -87.5 -221t-126.5 -62q-46 0 -74.5 19t-28.5 52q0 23 14 37.5t35 14.5q26 0 42.5 -19.5t25.5 -70.5
q49 6 88 187l88 417h-192l-77 -361q-32 -152 -84 -224t-152 -72q-46 0 -77.5 20t-31.5 54q0 24 15 39t36 15q22 0 34.5 -11.5t23.5 -37.5l20 -46q28 0 54.5 45t44.5 130l95 449h-83z" />
    <glyph glyph-name=".notdef" horiz-adv-x="628" 
d="M-49 0l100 635h629l-101 -635h-628zM181 179l131 114l95 -115l35 31l-95 115l130 114l-26 30l-131 -114l-92 112l-35 -31l93 -111l-131 -113z" />
    <glyph glyph-name=".null" horiz-adv-x="0" 
 />
    <glyph glyph-name="nonmarkingreturn" horiz-adv-x="333" 
 />
    <glyph glyph-name="space" unicode=" " horiz-adv-x="226" 
 />
    <glyph glyph-name="space" unicode="&#xa0;" horiz-adv-x="226" 
 />
    <glyph glyph-name="exclam" unicode="!" horiz-adv-x="272" 
d="M136 189h-36q12 47 28.5 171.5t23.5 251.5q32 24 77 24q38 0 60 -24q-55 -124 -97 -245.5t-56 -177.5zM22 39q0 31 22 55.5t55 24.5q25 0 39.5 -14t14.5 -37q0 -31 -22 -55.5t-54 -24.5q-26 0 -40.5 13.5t-14.5 37.5z" />
    <glyph glyph-name="quotedbl" unicode="&#x22;" horiz-adv-x="394" 
d="M343 444h-28q4 25 3.5 80t-8.5 88q26 24 67 24q37 0 51 -24q-23 -34 -48.5 -86t-36.5 -82zM177 444h-28q4 25 3.5 80t-8.5 88q26 24 67 24q37 0 51 -24q-23 -34 -48.5 -86t-36.5 -82z" />
    <glyph glyph-name="numbersign" unicode="#" 
d="M82 450l9 49h98l44 170l56 -10l-42 -160h151l45 170l56 -10l-42 -160h96l-9 -49h-100l-74 -281h104l-9 -49h-108l-45 -174l-56 10l43 164h-151l-45 -174l-56 10l43 164h-87l9 49h91l73 281h-94zM234 450l-73 -281h151l73 281h-151z" />
    <glyph glyph-name="dollar" unicode="$" 
d="M24 -12h-20l58 229h30q-8 -40 -8 -87q0 -44 26 -72t76 -33l55 257l-31 23q-30 23 -46.5 38.5t-32 46.5t-15.5 67q0 71 57 112.5t151 45.5l17 81h31l-17 -81q74 -4 123 -35l25 31h24l-44 -195h-30q5 25 5 57q0 44 -30.5 74t-80.5 32l-44 -206l56 -42q48 -37 71.5 -73
t23.5 -87q0 -78 -66.5 -129.5t-179.5 -53.5l-17 -80h-30l17 81q-80 5 -122 34zM271 260l-4 2l-51 -237q57 4 91 39.5t34 80.5q0 37 -15.5 61.5t-54.5 53.5zM217 486q0 -32 15 -51.5t44 -41.5l40 184q-47 -6 -73 -31.5t-26 -59.5z" />
    <glyph glyph-name="percent" unicode="%" horiz-adv-x="912" 
d="M180 -12l500 648h60l-500 -648h-60zM207 256q-65 0 -100 34.5t-35 97.5q0 104 63 176t148 72q65 0 100 -34.5t35 -97.5q0 -104 -62.5 -176t-148.5 -72zM211 285q76 0 110 162q13 65 13 89q0 71 -55 71q-76 0 -110 -162q-13 -65 -13 -89q0 -71 55 -71zM506 124
q0 104 62.5 176t148.5 72q65 0 100 -34.5t35 -97.5q0 -104 -63 -176t-148 -72q-65 0 -100 34.5t-35 97.5zM590 92q0 -71 55 -71q76 0 110 162q13 65 13 89q0 71 -55 71q-76 0 -110 -162q-13 -65 -13 -89z" />
    <glyph glyph-name="ampersand" unicode="&#x26;" horiz-adv-x="703" 
d="M24 148q0 41 15.5 73.5t44 55t52.5 35.5t58 27q-35 87 -35 144q0 71 48 112t134 41q64 0 97 -28t33 -77q0 -32 -16 -61t-46 -51.5t-57.5 -38t-64.5 -32.5q25 -54 54 -99q39 -61 72 -99q12 18 47 90.5t66.5 110t70.5 37.5q30 0 48 -16t18 -42q0 -31 -18 -49.5t-47 -18.5
q-31 0 -49 24q-16 -8 -33.5 -31t-41.5 -62.5t-43 -63.5q69 -74 124 -74q37 0 56 25t31 77h28q-14 -82 -45.5 -125.5t-101.5 -43.5q-75 0 -150 75q-67 -75 -169 -75q-86 0 -133 43.5t-47 116.5zM238 44q63 0 114 41q-34 38 -85 116q-34 52 -61 111q-87 -49 -87 -138
q0 -62 32 -96t87 -34zM248 497q0 -49 28 -123q117 66 117 158q0 74 -60 74q-37 0 -61 -28.5t-24 -80.5z" />
    <glyph glyph-name="quotesingle" unicode="'" horiz-adv-x="231" 
d="M175 444h-28q4 25 3.5 80t-8.5 88q26 24 67 24q37 0 51 -24q-23 -34 -48.5 -86t-36.5 -82z" />
    <glyph glyph-name="parenleft" unicode="(" horiz-adv-x="323" 
d="M32 160l42 170q50 197 153.5 307.5t207.5 110.5l-9 -30q-76 0 -147.5 -100.5t-118.5 -287.5l-43 -170q-44 -183 -22.5 -282.5t97.5 -99.5l-5 -30q-103 0 -152.5 109.5t-2.5 302.5z" />
    <glyph glyph-name="parenright" unicode=")" horiz-adv-x="323" 
d="M-113 -252l9 30q75 0 145.5 100t117.5 288l42 170q44 184 22.5 283t-96.5 99l8 30q103 0 151.5 -109.5t0.5 -302.5l-42 -170q-50 -197 -152 -307.5t-206 -110.5z" />
    <glyph glyph-name="asterisk" unicode="*" horiz-adv-x="469" 
d="M175 312l-16 12l73 122l-133 50l4 16l141 -1l-25 137l16 8l69 -124l107 92l16 -12l-72 -119l132 -49l-4 -16l-140 -3l24 -137l-16 -4l-69 120z" />
    <glyph glyph-name="plus" unicode="+" 
d="M46 292l11 52h198l57 224h56l-57 -224h199l-11 -52h-201l-58 -232h-56l58 232h-196z" />
    <glyph glyph-name="comma" unicode="," horiz-adv-x="272" 
d="M14 48q0 30 19.5 50.5t52.5 20.5q27 0 43 -17.5t16 -49.5q0 -65 -45 -127t-81 -85h-51q27 22 59 65.5t41 82.5q-23 3 -38.5 18.5t-15.5 41.5z" />
    <glyph glyph-name="hyphen" unicode="-" horiz-adv-x="284" 
d="M22 227l19 73h228l-19 -73h-228z" />
    <glyph glyph-name="period" unicode="." horiz-adv-x="272" 
d="M14 39q0 31 22 55.5t55 24.5q25 0 39.5 -14t14.5 -37q0 -31 -22 -55.5t-54 -24.5q-26 0 -40.5 13.5t-14.5 37.5z" />
    <glyph glyph-name="slash" unicode="/" horiz-adv-x="308" 
d="M-21 -76l320 764h49l-320 -764h-49z" />
    <glyph glyph-name="zero" unicode="0" 
d="M44 173q0 182 88.5 312.5t210.5 130.5q80 0 120.5 -50.5t40.5 -134.5q0 -182 -87.5 -312.5t-210.5 -130.5q-79 0 -120.5 50.5t-41.5 134.5zM144 132q0 -111 69 -111q110 0 170 279q22 92 22 172q0 111 -69 111q-110 0 -170 -279q-22 -92 -22 -172z" />
    <glyph glyph-name="one" unicode="1" 
d="M23 0l6 30l112 15q18 2 23.5 7.5t11.5 21.5l110 426h-9l-157 -42l3 34q40 13 133.5 55t129.5 69h31l-139 -542q-5 -17 -1.5 -22t19.5 -7l93 -15l-6 -30h-360z" />
    <glyph glyph-name="two" unicode="2" 
d="M-26 0l8 31l182 148q47 39 75 64.5t59.5 62t46.5 74.5t15 78q0 45 -24.5 70.5t-71.5 25.5q-63 0 -102 -45.5t-49 -116.5h-28q6 103 62 163.5t160 60.5q77 0 121 -41t44 -108q0 -20 -4.5 -39.5t-10 -35t-19 -34l-22 -30.5t-29 -31l-30 -28t-35 -28t-35 -25.5l-38.5 -27
t-37 -25.5l-118 -86h229q25 0 40 19l71 94h26q-42 -92 -74 -190h-412z" />
    <glyph glyph-name="three" unicode="3" 
d="M11 89q0 26 14.5 41t34.5 15q27 0 39 -14t22 -43l16 -55q13 -12 51 -12q60 0 102 44t42 116q0 109 -113 109q-30 0 -56 -9l12 42q84 6 144 48t60 109q0 81 -92 81q-49 0 -85 -29t-48 -89h-32q13 84 63 128.5t131 44.5q79 0 120 -32.5t41 -90.5q0 -59 -43 -100t-107 -58
q54 -11 85 -47.5t31 -90.5q0 -99 -77 -154t-186 -55q-61 0 -115 26t-54 75z" />
    <glyph glyph-name="four" unicode="4" 
d="M132 0l7 29l78 12q12 2 15.5 5t6.5 14l26 99h-271l7 30l374 398q21 2 53.5 11.5t43.5 17.5h14l-106 -406h82l-12 -51h-83l-26 -99q-2 -9 0.5 -13t11.5 -6l53 -12l-6 -29h-268zM359 516l-287 -306h206z" />
    <glyph glyph-name="five" unicode="5" 
d="M4 88q0 28 15.5 42t36.5 14q45 0 61 -58l15 -54q18 -12 47 -12q71 0 116 55t45 133q0 59 -28 94t-84 35q-61 0 -110 -38h-20l95 305h315l-37 -87h-263l-50 -163q41 29 108 29q86 0 134 -43t48 -118q0 -103 -77.5 -168.5t-193.5 -65.5q-71 0 -122 25t-51 75z" />
    <glyph glyph-name="six" unicode="6" 
d="M41 192q0 182 110 303t291 121q44 0 77.5 -13t48.5 -30l-15 -34q-39 39 -116 39q-88 0 -162 -65.5t-108 -171.5q62 51 133 51q81 0 131 -42.5t50 -125.5q0 -104 -69.5 -170t-179.5 -66q-91 0 -141 52.5t-50 151.5zM267 342q-61 0 -112 -46q-12 -51 -12 -109
q0 -166 99 -166q58 0 98 53.5t40 141.5q0 62 -30 94t-83 32z" />
    <glyph glyph-name="seven" unicode="7" 
d="M38 0l418 517h-357l35 87h413l-1 -19l-413 -585h-95z" />
    <glyph glyph-name="eight" unicode="8" 
d="M20 119q0 127 173 183q-71 53 -71 137q0 80 68.5 128.5t164.5 48.5q82 0 124 -32.5t42 -90.5q0 -62 -53.5 -109.5t-120.5 -68.5q45 -26 70 -57t25 -80q0 -90 -74.5 -140t-173.5 -50q-85 0 -129.5 33.5t-44.5 97.5zM336 157q0 17 -5.5 32t-12 24.5t-21 21.5t-23 17.5
t-29 17t-27.5 16.5q-106 -61 -106 -163t93 -102q53 0 92 40.5t39 95.5zM220 454q0 -30 16 -54.5t33.5 -37.5t50.5 -32q113 61 113 163q0 90 -89 90q-53 0 -88.5 -37.5t-35.5 -91.5z" />
    <glyph glyph-name="nine" unicode="9" 
d="M-17 31l15 34q39 -39 122 -39q90 0 160.5 68t98.5 180q-58 -54 -134 -54q-80 0 -130.5 46.5t-50.5 127.5q0 97 65 159.5t168 62.5q92 0 146 -57.5t54 -152.5q0 -192 -100 -305t-282 -113q-45 0 -81.5 13t-50.5 30zM278 270q61 0 110 47q8 50 8 94q0 85 -27 128.5
t-76 43.5q-52 0 -90 -47.5t-38 -130.5q0 -66 29.5 -100.5t83.5 -34.5z" />
    <glyph glyph-name="colon" unicode=":" horiz-adv-x="272" 
d="M154 298q-24 0 -39 14t-15 36q0 32 22 56.5t54 24.5q26 0 40.5 -13.5t14.5 -37.5q0 -31 -22.5 -55.5t-54.5 -24.5zM13 39q0 31 22.5 55.5t54.5 24.5q25 0 39.5 -14t14.5 -37q0 -31 -22 -55.5t-54 -24.5q-26 0 -40.5 13.5t-14.5 37.5z" />
    <glyph glyph-name="semicolon" unicode=";" horiz-adv-x="272" 
d="M156 298q-26 0 -40.5 14t-14.5 36q0 32 22.5 56.5t54.5 24.5q25 0 39.5 -14t14.5 -37q0 -31 -22 -55.5t-54 -24.5zM14 47q0 30 19.5 51t52.5 21q27 0 43 -17.5t16 -49.5q0 -65 -45 -127t-81 -85h-51q27 22 59 65.5t41 82.5q-23 3 -38.5 18.5t-15.5 40.5z" />
    <glyph glyph-name="less" unicode="&#x3c;" 
d="M533 535l18 -51l-398 -167l310 -169l-36 -47l-391 221z" />
    <glyph glyph-name="equal" unicode="=" 
d="M66 384l11 52h453l-11 -52h-453zM20 189l11 52h452l-10 -52h-453z" />
    <glyph glyph-name="greater" unicode="&#x3e;" 
d="M90 489l35 47l392 -221l-498 -213l-18 51l398 167z" />
    <glyph glyph-name="question" unicode="?" horiz-adv-x="460" 
d="M178 178h-32q4 36 21 65.5t39.5 48.5l48 41t47 43t35.5 54t14 74q0 47 -24.5 73.5t-62.5 26.5q-28 0 -48 -9q24 -28 24 -56q0 -27 -16 -45t-44 -18q-24 0 -38.5 16t-14.5 40q0 46 54 75t115 29q70 0 115 -33.5t45 -86.5q0 -55 -26.5 -95t-65 -64.5t-78 -47t-70.5 -55.5
t-38 -76zM67 39q0 31 22 55.5t55 24.5q25 0 39.5 -14t14.5 -37q0 -31 -22 -55.5t-54 -24.5q-26 0 -40.5 13.5t-14.5 37.5z" />
    <glyph glyph-name="at" unicode="@" horiz-adv-x="952" 
d="M45 176q0 193 136.5 326.5t346.5 133.5q176 0 277.5 -93t101.5 -262q0 -129 -80 -225t-199 -96q-120 0 -120 114q0 36 12 72q-43 -73 -86.5 -115.5t-100.5 -42.5q-44 0 -68.5 32t-24.5 96q0 93 32.5 174.5t100 135.5t156.5 54q58 0 79 -37l71 37h32q-15 -33 -32 -92
l-60 -210q-20 -75 -20 -113q0 -60 65 -60q53 0 95 43.5t61.5 103.5t19.5 121q0 322 -316 322q-182 0 -297 -121t-115 -294q0 -148 81.5 -236t233.5 -88q112 0 194 40l12 -24q-90 -56 -210 -56q-180 0 -279 96t-99 264zM342 132q0 -43 8 -59.5t28 -16.5q38 0 85 49t76 108
l57 199q-21 23 -63 23q-77 0 -134 -94t-57 -209z" />
    <glyph glyph-name="A" unicode="A" horiz-adv-x="566" 
d="M-70 29l34 9q30 8 48 38l337 560h38l80 -556q2 -20 9.5 -28.5t27.5 -13.5l29 -8v-30h-241v30l45 11q17 4 22.5 10.5t3.5 20.5l-15 105h-214l-47 -82q-26 -47 8 -54l46 -11v-30h-211v29zM306 474l-145 -251h180z" />
    <glyph glyph-name="B" unicode="B" horiz-adv-x="592" 
d="M-18 0v30l55 12q18 4 25 10.5t11 21.5l119 457q7 27 3.5 35.5t-19.5 11.5l-50 12v30h277q76 0 123.5 -32.5t47.5 -93.5q0 -67 -48 -110.5t-115 -58.5q56 -12 90 -46.5t34 -84.5q0 -93 -66 -143.5t-181 -50.5h-306zM296 302h-58l-65 -256q34 -9 83 -9h11q73 0 116.5 42.5
t43.5 116.5q0 54 -31.5 80t-99.5 26zM365 582q-36 0 -58 -8l-60 -234h58q80 0 124.5 41.5t44.5 111.5q0 89 -109 89z" />
    <glyph glyph-name="C" unicode="C" horiz-adv-x="647" 
d="M52 226q0 74 26 145.5t75.5 131.5t131 96.5t181.5 36.5q93 0 154 -39l27 28h17l-52 -214h-28q0 98 -10 138q-34 50 -122 50q-67 0 -123 -35.5t-91 -91t-54 -120.5t-19 -128q0 -100 44.5 -149.5t114.5 -49.5q37 0 71.5 11.5t53.5 27.5q40 40 99 148h29l-64 -189
q-74 -35 -204 -35q-113 0 -185 56.5t-72 181.5z" />
    <glyph glyph-name="D" unicode="D" horiz-adv-x="687" 
d="M-18 0v30l55 12q18 4 25 10.5t11 21.5l119 457q7 27 3.5 35.5t-19.5 11.5l-50 12v30h279q123 0 193.5 -59.5t70.5 -169.5q0 -166 -105.5 -278.5t-271.5 -112.5h-310zM388 583h-11q-37 0 -70 -10l-134 -523q37 -13 82 -13h14q87 0 155 52.5t101 131.5t33 167
q0 195 -170 195z" />
    <glyph glyph-name="E" unicode="E" horiz-adv-x="573" 
d="M-18 0v30l55 12q18 4 25 10.5t11 21.5l119 457q7 27 3.5 35.5t-19.5 11.5l-50 12v30h389q40 0 72 8l-32 -196h-28q0 89 -18 122q-33 28 -116 28h-9q-45 0 -78 -11l-58 -228h100q22 13 44.5 40.5t30.5 49.5h24l-60 -234h-24q0 74 -24 102h-102l-64 -254q27 -9 93 -9h12
q84 0 126 25q23 21 50 60.5t39 68.5h29l-68 -192h-472z" />
    <glyph glyph-name="F" unicode="F" horiz-adv-x="531" 
d="M-18 0v30l55 12q18 4 25 10.5t11 21.5l119 457q7 27 3.5 35.5t-19.5 11.5l-50 12v30h389q40 0 72 8l-32 -196h-28q0 89 -18 122q-33 28 -116 28h-9q-45 0 -78 -11l-61 -240h105q22 13 44.5 40.5t30.5 49.5h24l-60 -234h-24q0 73 -25 102h-106l-51 -201q-6 -24 0 -33.5
t22 -12.5l69 -13v-29h-292z" />
    <glyph glyph-name="G" unicode="G" horiz-adv-x="684" 
d="M52 225q0 179 117 295t284 116q106 0 170 -39l27 27h17l-51 -213h-28q0 94 -11 138q-37 50 -131 50q-78 0 -143 -53.5t-101.5 -139.5t-36.5 -184q0 -97 44 -147t114 -50q73 0 123 41l47 164q9 24 -25 32l-52 14v30h237v-27l-29 -8q-15 -5 -20.5 -10.5t-10.5 -21.5
l-50 -175v-20q-87 -56 -239 -56q-110 0 -181 57t-71 180z" />
    <glyph glyph-name="H" unicode="H" horiz-adv-x="742" 
d="M-18 0v30l55 12q18 4 25 10.5t11 21.5l119 457q7 27 3.5 35.5t-19.5 11.5l-50 12v30h266v-30l-50 -12q-32 -6 -39 -30l-53 -203h294l49 186q7 27 3 35.5t-20 11.5l-49 12v30h266v-30l-50 -12q-32 -6 -39 -30l-120 -460q-6 -26 -2 -34.5t19 -11.5l50 -12v-30h-268v30
l55 12q18 4 25 10.5t11 21.5l58 224h-294l-55 -210q-6 -26 -2 -34.5t19 -11.5l50 -12v-30h-268z" />
    <glyph glyph-name="I" unicode="I" horiz-adv-x="338" 
d="M-18 0v30l55 12q18 4 25 10.5t11 21.5l119 457q7 27 3.5 35.5t-19.5 11.5l-50 12v30h267v-30l-51 -12q-32 -6 -39 -30l-120 -460q-6 -26 -2 -34.5t19 -11.5l50 -12v-30h-268z" />
    <glyph glyph-name="J" unicode="J" horiz-adv-x="339" 
d="M54 -34l141 565q6 27 2 35.5t-19 11.5l-49 12v30h266v-30l-51 -12q-33 -7 -38 -30l-135 -537q-54 -212 -236 -212q-37 0 -66 18.5t-29 51.5q0 23 16 39t39 16t37.5 -14.5t13.5 -35.5q0 -24 -9 -43q82 0 117 135z" />
    <glyph glyph-name="K" unicode="K" horiz-adv-x="632" 
d="M350 129l-79 160q-8 14 -20 17v8q12 4 44 30l227 204q7 7 10 10.5t6 9t-0.5 9t-12.5 5.5l-39 8v30h221v-30l-37 -9q-37 -9 -74 -38l-240 -195l96 -187q49 -96 86 -119l59 -12v-30h-161q-42 40 -86 129zM-18 0v30l55 12q18 4 25 10.5t11 21.5l119 457q7 27 3.5 35.5
t-19.5 11.5l-50 12v30h267v-30l-51 -12q-32 -6 -39 -30l-120 -460q-6 -26 -2 -34.5t19 -11.5l50 -12v-30h-268z" />
    <glyph glyph-name="L" unicode="L" horiz-adv-x="518" 
d="M-18 0v30l55 12q18 4 25 10.5t11 21.5l119 457q7 27 3.5 35.5t-19.5 11.5l-50 12v30h273v-30l-60 -12q-32 -6 -39 -30l-128 -501q30 -9 94 -9h9q72 0 117 25q25 22 54 70t42 83h29l-76 -216h-459z" />
    <glyph glyph-name="M" unicode="M" horiz-adv-x="857" 
d="M-18 0v30l49 12q12 2 19.5 8t9.5 9.5t7 14.5q12 29 28 93l102 385q-10 14 -45 26l-36 11v31h180l109 -448l324 448h183v-30l-51 -12q-33 -7 -38 -30l-120 -460q-7 -27 -3.5 -35t19.5 -11l50 -12v-30h-271v30l58 12q31 5 40 41l104 409l-356 -492h-7l-113 463l-74 -296
q-20 -75 -20 -97q0 -23 25 -28l57 -12v-30h-230z" />
    <glyph glyph-name="N" unicode="N" horiz-adv-x="696" 
d="M-18 0v30l49 12q12 2 19.5 8t9.5 9.5t7 14.5q11 27 28 94l100 374q-20 29 -52 38l-31 9v31h164l239 -446l70 278q20 75 20 98t-25 28l-58 12v30h230v-30l-48 -12q-12 -3 -19.5 -9.5t-9 -9t-7.5 -13.5q-9 -18 -28 -94l-124 -464h-23l-265 494l-78 -314q-20 -75 -20 -98
t25 -28l57 -12v-30h-230z" />
    <glyph glyph-name="O" unicode="O" horiz-adv-x="699" 
d="M52 230q0 175 110.5 290.5t272.5 115.5q115 0 177.5 -66.5t62.5 -175.5q0 -175 -110.5 -290.5t-272.5 -115.5q-115 0 -177.5 66.5t-62.5 175.5zM168 218q0 -84 35 -138.5t101 -54.5q79 0 139 61.5t88 146.5t28 173q0 84 -34.5 138.5t-100.5 54.5q-60 0 -110.5 -35.5
t-81 -92t-47.5 -122.5t-17 -131z" />
    <glyph glyph-name="P" unicode="P" horiz-adv-x="564" 
d="M-18 0v30l55 12q18 4 25 10.5t11 21.5l119 457q7 27 3.5 35.5t-19.5 11.5l-50 12v30h267q99 0 149 -41t50 -113q0 -91 -71 -152.5t-191 -61.5q-62 0 -103 12l-44 -176q-6 -24 0 -33.5t22 -12.5l69 -13v-29h-292zM371 583h-7q-34 0 -60 -9l-70 -279h68q86 0 137.5 50.5
t49.5 126.5q0 51 -30 81t-88 30z" />
    <glyph glyph-name="Q" unicode="Q" horiz-adv-x="699" 
d="M52 229q0 177 110.5 292t277.5 115q115 0 177 -65t62 -173q0 -160 -92.5 -273t-237.5 -133q21 -41 54 -84t65 -65q12 -5 40 -11l28 -6l2 -27h-149q-30 26 -68 80.5t-61 110.5q-102 9 -155 72.5t-53 166.5zM168 229q0 -95 35.5 -149.5t100.5 -54.5q76 0 136.5 59t91 143
t30.5 171q0 201 -138 201q-58 0 -107.5 -34t-81 -87.5t-49.5 -118.5t-18 -130z" />
    <glyph glyph-name="R" unicode="R" horiz-adv-x="618" 
d="M-18 0v30l55 12q18 4 25 10.5t11 21.5l119 457q7 27 3.5 35.5t-19.5 11.5l-50 12v30h279q99 0 142 -37t43 -92q0 -84 -58.5 -137t-138.5 -64q13 -12 38 -67l47 -103q30 -63 45 -75l61 -16v-29h-153q-23 26 -60 111l-68 162h-74l-46 -185q-5 -26 -1.5 -34.5t18.5 -11.5
l53 -12v-30h-271zM378 583h-10q-40 0 -63 -8l-66 -261h71q76 0 126.5 51t50.5 122q0 96 -109 96z" />
    <glyph glyph-name="S" unicode="S" 
d="M6 -12l58 229h30q-8 -50 -8 -87q0 -48 31 -76.5t90 -28.5q62 0 99.5 37t37.5 90q0 38 -15.5 63t-54.5 53l-61 45q-29 22 -46 39t-32.5 48t-15.5 67q0 79 62 124t163 45q83 0 136 -36l25 31h24l-44 -195h-29q4 20 4 57q0 46 -32 76t-85 30q-60 0 -92 -28.5t-32 -74.5
q0 -22 10.5 -41.5t21.5 -29.5t31 -25l80 -61q47 -36 71 -72.5t24 -88.5q0 -84 -67.5 -137t-182.5 -53q-96 0 -149 35l-32 -35h-20z" />
    <glyph glyph-name="T" unicode="T" horiz-adv-x="585" 
d="M96 0v29l64 13q18 4 26.5 10.5t12.5 21.5l130 508h-32q-82 0 -120 -20q-39 -39 -83 -131h-30l56 198q24 -9 83 -9h383q49 0 75 9l-43 -198h-26q0 99 -16 131q-25 20 -110 20h-33l-124 -494q-6 -27 -0.5 -34.5t22.5 -11.5l63 -13v-29h-298z" />
    <glyph glyph-name="U" unicode="U" horiz-adv-x="664" 
d="M88 152q0 30 12 80l76 299q7 27 3.5 35.5t-19.5 11.5l-49 12v30h266v-30l-50 -12q-33 -7 -40 -30l-76 -297q-16 -55 -16 -92q0 -58 29 -85t89 -27q154 0 206 193l76 299q7 29 -27 39l-49 12v30h209v-30l-39 -11q-31 -9 -37 -35l-79 -304q-31 -124 -100.5 -188t-187.5 -64
q-97 0 -147 42t-50 122z" />
    <glyph glyph-name="V" unicode="V" horiz-adv-x="578" 
d="M206 -12l-71 566q-2 10 -7 15t-18 10l-31 11v30h237v-30l-45 -11q-11 -2 -17.5 -4.5t-11 -8.5t-3.5 -15l49 -403l234 383q25 40 -6 48l-47 11v30h201v-30l-28 -8q-28 -8 -41 -30l-366 -564h-29z" />
    <glyph glyph-name="W" unicode="W" horiz-adv-x="884" 
d="M206 -12l-71 566q-2 10 -7 15t-18 10l-31 11v30h237v-30l-45 -11q-11 -2 -17.5 -4.5t-11 -8.5t-3.5 -15l49 -403l179 291l-14 115q-3 18 -25 25l-31 11v30h237v-30l-45 -11q-11 -2 -17.5 -4.5t-11 -8.5t-3.5 -15l49 -403l220 383q24 41 -7 48l-46 11v30h200v-30l-28 -8
q-24 -7 -41 -30l-351 -564h-30l-46 372l-242 -372h-29z" />
    <glyph glyph-name="X" unicode="X" horiz-adv-x="608" 
d="M291 0v30l50 8q41 6 27 39l-75 174l-163 -177q-22 -25 7 -32l44 -12v-30h-218v29l39 12q27 7 48 28l224 226l-108 254q-12 26 -28 30l-42 11v30h264v-30l-50 -8q-42 -6 -27 -39l70 -164l153 167q22 25 -7 32l-44 12v30h218v-29l-39 -12q-29 -9 -48 -28l-214 -216
l113 -264q12 -26 28 -30l41 -11v-30h-263z" />
    <glyph glyph-name="Y" unicode="Y" horiz-adv-x="576" 
d="M97 0v29l64 13q19 4 27 10.5t12 21.5l50 191l-110 289q-7 19 -28 25l-30 11v30h247v-33l-44 -9q-39 -7 -27 -40l81 -216l183 221q24 27 -13 36l-40 11v30h199v-30l-25 -8q-31 -11 -55 -40l-232 -268l-45 -186q-6 -27 -1 -34.5t22 -11.5l63 -13v-29h-298z" />
    <glyph glyph-name="Z" unicode="Z" horiz-adv-x="569" 
d="M-4 0v22l474 556h-124q-88 0 -130 -12q-40 -38 -78 -125h-30l47 187q32 -8 76 -8h378v-22l-474 -556h132q102 0 141 16q41 41 91 129h29l-61 -187h-471z" />
    <glyph glyph-name="bracketleft" unicode="[" horiz-adv-x="301" 
d="M18 -208l160 12l-13 -56h-233l248 1000h233l-17 -56l-152 12z" />
    <glyph glyph-name="backslash" unicode="\" horiz-adv-x="308" 
d="M157 -76l-52 764h49l52 -764h-49z" />
    <glyph glyph-name="bracketright" unicode="]" horiz-adv-x="301" 
d="M53 -208l227 912l-160 -12l13 56h233l-248 -1000h-233l17 56z" />
    <glyph glyph-name="asciicircum" unicode="^" 
d="M58 328l288 312h17l131 -312h-32l-131 221h-1l-236 -221h-36z" />
    <glyph glyph-name="underscore" unicode="_" horiz-adv-x="500" 
d="M-93 -80h500v-51h-500v51z" />
    <glyph glyph-name="grave" unicode="`" horiz-adv-x="515" 
d="M351 536l-103 100q-28 25 -28 50q0 16 11 27.5t28 11.5q29 0 49 -44l65 -145h-22z" />
    <glyph glyph-name="a" unicode="a" horiz-adv-x="538" 
d="M38 117q0 93 35.5 175.5t103 135t150.5 52.5q58 0 92 -40l56 40h40l-35 -94l-68 -243q-15 -51 -15 -80q0 -16 4 -23q28 3 52.5 23t38.5 44l17 -26q-20 -38 -59.5 -65.5t-86.5 -27.5q-29 0 -45 17t-16 47q0 38 11 77q-80 -141 -180 -141q-43 0 -69 32.5t-26 96.5zM181 56
q31 0 76.5 45t77.5 100l63 212q-23 22 -62 22q-80 0 -139.5 -93.5t-59.5 -209.5q0 -41 10.5 -58.5t33.5 -17.5z" />
    <glyph glyph-name="b" unicode="b" horiz-adv-x="538" 
d="M28 -10l171 612q4 16 -2 25.5t-28 14.5l-53 12v23l168 31h39l-36 -103l-73 -277h1q23 40 44 68.5t60.5 56t82.5 27.5q42 0 69.5 -33.5t27.5 -96.5q0 -94 -32.5 -175.5t-99 -134t-152.5 -52.5q-73 0 -101 38l-38 -36h-48zM353 412q-33 0 -78.5 -44t-75.5 -99l-58 -219
q21 -17 66 -17q79 0 136 91.5t57 210.5q0 77 -47 77z" />
    <glyph glyph-name="c" unicode="c" horiz-adv-x="419" 
d="M38 144q0 84 34 160.5t97.5 126t139.5 49.5q47 0 77.5 -21t30.5 -51q0 -22 -11.5 -34.5t-31.5 -12.5q-28 0 -42 18.5t-20 55.5q-7 7 -26 7q-49 -9 -96.5 -93t-47.5 -201q0 -84 49 -100q50 0 85 27.5t64 78.5l23 -21q-29 -61 -79 -103t-112 -42q-134 0 -134 156z" />
    <glyph glyph-name="d" unicode="d" horiz-adv-x="551" 
d="M38 117q0 93 35.5 175.5t103 135t150.5 52.5q47 0 78 -27l42 149q5 18 -1 26.5t-29 13.5l-52 12v23l168 31h39l-36 -104l-124 -463q-15 -51 -15 -78q0 -16 4 -23q28 3 52.5 23t38.5 44l17 -26q-21 -38 -61 -65.5t-86 -27.5q-29 0 -44.5 17t-15.5 47q0 36 12 77
q-82 -141 -181 -141q-43 0 -69 32.5t-26 96.5zM181 56q31 0 75.5 43.5t76.5 98.5l62 218q-23 19 -59 19q-80 0 -139.5 -93.5t-59.5 -209.5q0 -41 10.5 -58.5t33.5 -17.5z" />
    <glyph glyph-name="e" unicode="e" horiz-adv-x="452" 
d="M38 141q0 132 78 235.5t199 103.5q117 0 117 -91q0 -64 -51 -97.5t-137 -50.5l-95 -16q-7 -39 -7 -80q0 -43 17.5 -68t38.5 -29q112 0 162 102l23 -21q-32 -63 -86 -102t-121 -39q-66 0 -102 38t-36 115zM300 442q-49 0 -86 -52t-57 -131l71 15q53 11 83 41t30 73
q0 54 -41 54z" />
    <glyph glyph-name="f" unicode="f" horiz-adv-x="303" 
d="M48 409v27l100 27l4 17q27 122 81.5 175t140.5 53q55 0 86 -18t31 -45q0 -23 -12.5 -36t-33.5 -13q-40 0 -62 46l-15 33q-43 0 -68 -43.5t-47 -143.5l-8 -32h106v-47h-116l-82 -361q-34 -153 -85.5 -224.5t-150.5 -71.5q-46 0 -77.5 20t-31.5 54q0 24 15 39t36 15
q22 0 34.5 -11.5t23.5 -37.5l20 -46q58 0 99 175l100 449h-88z" />
    <glyph glyph-name="g" unicode="g" horiz-adv-x="472" 
d="M66 -34l41 15q-43 21 -43 59q0 51 97 101q-105 11 -105 117q0 93 60.5 157.5t156.5 64.5q45 0 77 -19t42 -54q31 109 87 109q21 0 32.5 -11t11.5 -30q0 -23 -12.5 -37t-30.5 -14q-23 0 -47 20q-24 -35 -37 -112q-14 -86 -70.5 -139t-138.5 -53q-42 -30 -42 -58
q0 -26 40 -31l108 -12q51 -6 75.5 -25.5t24.5 -57.5q0 -73 -85 -138.5t-200 -65.5q-69 0 -114 23.5t-45 77.5q0 71 117 113zM228 -40l-81 9q-15 2 -22 5q-37 -19 -62 -46.5t-25 -58.5q0 -65 87 -65q81 0 130 28.5t49 78.5q0 43 -76 49zM208 174q39 0 69.5 56t30.5 138
q0 74 -63 74q-39 0 -69 -55t-30 -136q0 -42 13.5 -59.5t48.5 -17.5z" />
    <glyph glyph-name="h" unicode="h" horiz-adv-x="550" 
d="M313 52q0 35 19 97l56 173q15 49 15 61q0 25 -29 25q-34 0 -90.5 -55.5t-102.5 -133.5l-58 -219h-96l168 602q4 16 -2 25.5t-28 14.5l-53 12v23l168 31h39l-36 -103l-88 -333q110 208 222 208q82 0 82 -76q0 -28 -16 -83l-56 -175q-19 -65 -19 -83q0 -15 4 -23
q29 3 53.5 22.5t38.5 44.5l17 -26q-20 -38 -59.5 -65.5t-86.5 -27.5q-30 0 -46 17t-16 47z" />
    <glyph glyph-name="i" unicode="i" horiz-adv-x="294" 
d="M238 581q-39 0 -39 44q0 34 20 58.5t51 24.5q40 0 40 -44q0 -32 -20 -57.5t-52 -25.5zM52 52q0 38 16 88l73 244q5 16 -1.5 23t-26.5 11l-49 11v23l150 28h52l-36 -101l-67 -238q-16 -54 -16 -77q0 -15 4 -24q56 5 91 67l17 -26q-20 -38 -59.5 -65.5t-86.5 -27.5
q-29 0 -45 17t-16 47z" />
    <glyph glyph-name="j" unicode="j" horiz-adv-x="285" 
d="M24 -55l114 439q5 17 -2 23.5t-26 10.5l-50 11v23l139 28h56l-128 -522q-26 -108 -81.5 -157t-141.5 -49q-48 0 -80 22t-32 56q0 23 13 37.5t36 14.5q39 0 51 -42l15 -54h5q39 0 65 37.5t47 121.5zM237 581q-39 0 -39 44q0 34 20 58.5t51 24.5q40 0 40 -44
q0 -32 -20 -57.5t-52 -25.5z" />
    <glyph glyph-name="k" unicode="k" horiz-adv-x="494" 
d="M27 0l168 602q4 16 -2 25.5t-28 14.5l-53 12v23l168 31h39l-36 -103l-160 -605h-96zM261 71l-33 108q-14 43 -33 51l111 143l14 18.5t16.5 21t17 19t20 19.5t20 14.5t22.5 11t23 3.5q27 0 44.5 -13t17.5 -37q0 -28 -17 -45t-46 -17q-39 0 -57 22l-111 -106q28 -16 52 -96
l28 -91q17 -57 49 -57q20 0 37 17.5t26 42.5l21 -24q-35 -88 -125 -88q-69 0 -97 83z" />
    <glyph glyph-name="l" unicode="l" horiz-adv-x="293" 
d="M51 52q0 32 16 88l130 462q5 18 -1 26.5t-29 13.5l-52 12v23l168 31h39l-36 -103l-124 -464q-15 -51 -15 -78q0 -16 4 -23q28 3 52 22.5t38 44.5l17 -26q-20 -38 -59.5 -65.5t-86.5 -27.5q-29 0 -45 17t-16 47z" />
    <glyph glyph-name="m" unicode="m" horiz-adv-x="802" 
d="M28 0l108 374q7 21 3 30.5t-23 13.5l-57 11v23l132 28q28 -1 37.5 -23.5t2.5 -55.5l-32 -123q108 202 209 202q79 0 79 -76q0 -27 -16 -89l-8 -28q51 95 101 144t105 49q82 0 82 -76q0 -28 -16 -83l-56 -175q-19 -65 -19 -83q0 -15 4 -23q29 3 53.5 22.5t38.5 44.5
l17 -26q-20 -38 -59.5 -65.5t-86.5 -27.5q-30 0 -46 17t-16 47q0 35 19 97l56 173q15 49 15 61q0 25 -29 25q-31 0 -82 -52t-98 -128l-65 -228h-95l94 315q14 46 14 68q0 25 -28 25q-30 0 -82.5 -53.5t-98.5 -129.5l-58 -225h-99z" />
    <glyph glyph-name="n" unicode="n" horiz-adv-x="551" 
d="M28 0l108 374q7 21 3 30.5t-23 13.5l-57 11v23l132 28q28 -1 37.5 -23.5t2.5 -55.5l-32 -123q108 202 219 202q82 0 82 -76q0 -24 -17 -83l-55 -175q-19 -65 -19 -83q0 -15 4 -23q29 3 53.5 22.5t38.5 44.5l17 -26q-20 -38 -59.5 -65.5t-86.5 -27.5q-30 0 -46 17t-16 47
q0 35 19 97l55 173q16 46 16 61q0 25 -29 25q-33 0 -88.5 -53.5t-101.5 -129.5l-58 -225h-99z" />
    <glyph glyph-name="o" unicode="o" horiz-adv-x="515" 
d="M38 143q0 134 80.5 235.5t203.5 101.5q156 0 156 -156q0 -134 -80.5 -235t-202.5 -101q-78 0 -117.5 37t-39.5 118zM141 139q0 -109 76 -109q45 0 83 47t60 131q15 60 15 121q0 109 -73 109q-45 0 -85 -48t-61 -133q-15 -59 -15 -118z" />
    <glyph glyph-name="p" unicode="p" horiz-adv-x="535" 
d="M-22 -165l158 539q7 21 3.5 31t-22.5 13l-57 11v23l132 28q29 0 37.5 -24t1.5 -56l-20 -72h1q87 152 187 152q43 0 70.5 -33.5t27.5 -96.5q0 -94 -33 -175.5t-99 -134t-152 -52.5q-52 0 -84 30l-42 -158q-7 -18 -4.5 -36.5t25.5 -21.5l71 -12v-30h-281v30l49 13
q15 4 20.5 10t10.5 22zM351 412q-33 0 -80 -46t-76 -101l-56 -209q23 -23 65 -23q80 0 137 91.5t57 210.5q0 77 -47 77z" />
    <glyph glyph-name="q" unicode="q" horiz-adv-x="531" 
d="M38 117q0 144 82.5 253.5t207.5 109.5q51 0 86 -35l58 35h32l-29 -92l-135 -556q-4 -14 -1 -20.5t15 -9.5l48 -12v-30h-274v30l76 16q13 2 20.5 7.5t10.5 11.5t6 16l77 294q-84 -147 -185 -147q-43 0 -69 32.5t-26 96.5zM181 56q31 0 76.5 44t77.5 99l58 219
q-23 17 -56 17q-80 0 -140 -93.5t-60 -209.5q0 -41 10.5 -58.5t33.5 -17.5z" />
    <glyph glyph-name="r" unicode="r" horiz-adv-x="390" 
d="M28 0l108 374q7 21 3 30.5t-23 13.5l-57 11v23l132 28q28 0 38 -24t2 -55l-19 -71l15 24q37 60 68.5 93t66.5 33q57 0 57 -55q0 -29 -15 -47.5t-42 -18.5q-37 0 -50 32q-37 -4 -111 -105l-74 -286h-99z" />
    <glyph glyph-name="s" unicode="s" horiz-adv-x="411" 
d="M8 96q0 30 17 45t41 15q23 0 38.5 -12t15.5 -37q0 -27 -24 -53q21 -28 72 -28q43 0 65 21t22 55q0 38 -44 76l-66 56q-53 45 -53 110q0 60 47.5 98t114.5 38q57 0 96 -20.5t39 -51.5q0 -49 -46 -49q-47 0 -62 79q-13 8 -34 8q-29 0 -49 -18t-20 -49q0 -47 41 -79l53 -41
q81 -61 81 -127q0 -70 -54 -107t-132 -37q-65 0 -112 30t-47 78z" />
    <glyph glyph-name="t" unicode="t" horiz-adv-x="337" 
d="M48 409v27l105 29l82 135h47l-40 -144h106v-47h-119l-54 -194q-23 -75 -23 -114q0 -35 9 -53q38 0 69 28t44 60l25 -24q-24 -56 -68 -88.5t-102 -32.5q-37 0 -58 22t-21 66q0 24 23 113l62 217h-87z" />
    <glyph glyph-name="u" unicode="u" horiz-adv-x="552" 
d="M56 69q0 31 16 81l58 183q23 64 18 95q-48 -6 -88 -64l-14 26q19 38 55.5 64t80.5 26q29 0 44.5 -11t16.5 -33.5t-3 -44t-15 -56.5l-55 -177q-1 -6 -6.5 -22.5t-9 -30t-3.5 -20.5q0 -28 26 -28q72 0 182 186l55 186l76 51h36l-35 -94l-68 -246q-15 -51 -15 -77
q0 -16 4 -23q28 3 52.5 23t38.5 44l17 -26q-20 -38 -59.5 -65.5t-86.5 -27.5q-29 0 -45 18t-16 46q0 41 16 88l8 29q-52 -91 -98.5 -136t-101.5 -45q-81 0 -81 81z" />
    <glyph glyph-name="v" unicode="v" horiz-adv-x="453" 
d="M163 0l-76 -12q20 128 20 252q0 150 -28 184q-14 0 -33 -13.5t-32 -32.5l-13 30q49 72 119 72q49 0 67 -52t18 -164q0 -107 -20 -207q71 41 124 119.5t53 141.5q-4 6 -14 23t-15 26.5t-10 25t-5 29.5q0 24 13.5 41t38.5 17q32 0 47.5 -20.5t15.5 -52.5q0 -131 -82 -249
t-188 -158z" />
    <glyph glyph-name="w" unicode="w" horiz-adv-x="696" 
d="M168 0l-81 -12q20 128 20 252q0 150 -28 184q-14 0 -33 -13.5t-32 -32.5l-13 30q49 72 119 72q49 0 67 -52t18 -164q0 -107 -20 -207q55 43 102.5 111.5t65.5 128.5q-5 96 -18 163l5 2q4 1 12 3.5l14 4.5l29 10h31q16 -88 16 -210q-2 -116 -14 -213q70 41 123.5 121
t53.5 140q-4 7 -14 23t-15.5 26t-10.5 25.5t-5 29.5q0 24 14 41t39 17q62 0 62 -73q0 -130 -80.5 -249t-185.5 -158l-76 -12q15 101 19 194q-39 -64 -87.5 -112t-96.5 -70z" />
    <glyph glyph-name="x" unicode="x" horiz-adv-x="502" 
d="M254 57l-27 103l-66 -108q-20 -31 -40.5 -46t-52.5 -15q-29 0 -47.5 14.5t-18.5 40.5t15.5 42t39.5 16t48 -24l12 -12l98 142l-36 140q-12 46 -19.5 58.5t-23.5 12.5q-29 0 -60 -48l-20 23q55 84 124 84q61 0 76 -66l25 -99l61 104q36 61 93 61q29 0 47.5 -14.5
t18.5 -39.5q0 -26 -15.5 -42t-39.5 -16t-48 24l-12 12l-92 -140l37 -143q13 -44 20.5 -57.5t19.5 -13.5q31 0 64 48l20 -23q-17 -30 -51.5 -57t-72.5 -27q-32 0 -50 14.5t-27 51.5z" />
    <glyph glyph-name="y" unicode="y" horiz-adv-x="469" 
d="M158 -92l-7 123q-7 133 -27 245t-51 145q-20 0 -55 -49l-16 29q49 79 116 79q17 0 31 -8t24.5 -25t19 -34t14.5 -45l10 -48t7.5 -52.5t5 -49t3.5 -48t3 -38.5l5 -121q55 79 90 160.5t39 140.5q-3 5 -14 22t-17.5 28.5t-13 28.5t-6.5 31q0 25 15 41.5t41 16.5
q30 0 46.5 -19t16.5 -52q0 -83 -31.5 -178.5t-82.5 -178t-110 -151.5t-119.5 -109t-106.5 -40q-36 0 -57.5 17t-21.5 46q0 25 16 39.5t39 14.5q6 0 12.5 -1.5t11 -3t10.5 -4.5t9 -5t9 -6.5t8 -5.5l28 -22q46 27 106 87z" />
    <glyph glyph-name="z" unicode="z" horiz-adv-x="426" 
d="M86 348q-40 0 -40 46q0 33 31.5 59.5t78.5 26.5q88 0 200 -34l8 -2l32 36l36 -34l-333 -355q24 8 47 8q35 0 84.5 -39.5t82.5 -39.5q18 6 29.5 38t0.5 76l42 -18q0 -69 -28 -108.5t-86 -39.5q-52 0 -117 28t-110 28h-8l-23 -25l-25 22l318 358q-9 -3 -30 -3
q-28 0 -62 23.5t-54 52.5l-20 -54q-14 -50 -54 -50z" />
    <glyph glyph-name="braceleft" unicode="{" horiz-adv-x="363" 
d="M80 -92l48 192q17 73 -18 104.5t-102 31.5l8 34q149 0 184 136l48 182q43 172 227 172l-5 -26q-57 0 -92 -32.5t-53 -103.5l-44 -181q-31 -132 -181 -164q134 -32 101 -164l-48 -191q-18 -72 0 -104t75 -32l-5 -26q-97 0 -129.5 43.5t-13.5 128.5z" />
    <glyph glyph-name="bar" unicode="|" horiz-adv-x="364" 
d="M20 -260l248 1000h76l-248 -1000h-76z" />
    <glyph glyph-name="braceright" unicode="}" horiz-adv-x="363" 
d="M33 -102l48 191q33 132 181 164q-134 32 -101 164l44 181q18 72 0 104t-74 32l5 26q189 0 144 -172l-44 -182q-19 -72 16 -104t103 -32l-8 -34q-67 0 -119 -32t-69 -104l-44 -192q-40 -172 -227 -172l4 26q56 0 89.5 32t51.5 104z" />
    <glyph glyph-name="asciitilde" unicode="~" 
d="M88 255h-25q13 49 50.5 86.5t86.5 37.5q41 0 98.5 -36t82.5 -36q28 0 51.5 20.5t32.5 43.5h25q-13 -50 -52 -87t-89 -37q-43 0 -97.5 36t-79.5 36q-28 0 -51.5 -20.5t-32.5 -43.5z" />
    <glyph glyph-name="exclamdown" unicode="&#xa1;" horiz-adv-x="272" 
d="M159 349q-26 0 -40.5 13.5t-14.5 37.5q0 31 22 55.5t54 24.5q26 0 40.5 -13.5t14.5 -37.5q0 -31 -22 -55.5t-54 -24.5zM-32 -144q98 221 154 423h35q-12 -45 -28 -170.5t-24 -252.5q-32 -24 -77 -24q-38 0 -60 24z" />
    <glyph glyph-name="cent" unicode="&#xa2;" 
d="M31 204q0 175 101 288.5t239 122.5l14 65h31l-14 -64q66 -4 119 -28l20 20h21l-28 -173h-30q-1 29 -2.5 45t-8 37.5t-17.5 33t-31.5 21t-49.5 10.5l-118 -556q65 3 101 36.5t73 105.5h30l-63 -149q-54 -25 -149 -30l-17 -81h-31l17 80q-207 6 -207 216zM142 204
q0 -78 27 -125.5t77 -52.5l118 554q-68 -9 -120.5 -72.5t-77 -144t-24.5 -159.5z" />
    <glyph glyph-name="sterling" unicode="&#xa3;" 
d="M52 292l20 44h63l6 70q8 93 70 151t155 58q56 0 93 -22.5t37 -55.5q0 -27 -14.5 -42.5t-40.5 -15.5q-36 0 -46.5 35.5t13.5 54.5q-12 14 -43 14q-56 0 -77.5 -38t-28.5 -119l-7 -90h132v-44h-136l-4 -57q-3 -39 -18 -70.5t-37 -50.5t-41 -29.5t-37 -15.5q69 0 148.5 -13
t102.5 -13q52 0 74 23.5t22 75.5l27 1q0 -175 -154 -175q-43 0 -127 16t-158 16q-32 0 -46 -6v18l44 58q32 0 52.5 26t24.5 76l10 120h-79z" />
    <glyph glyph-name="currency" unicode="&#xa4;" 
d="M88 127l-39 48l59 44q-17 32 -17 69q0 82 56 141l-41 44l59 48l31 -53q53 32 112 32q58 0 101 -32l51 53l42 -48l-60 -43q18 -33 18 -70q0 -80 -59 -142l44 -43l-62 -48l-30 54q-55 -33 -113 -33t-99 32zM249 196q57 0 106 43.5t49 111.5q0 47 -29.5 74t-75.5 27
q-58 0 -104.5 -43t-46.5 -112q0 -47 28 -74t73 -27z" />
    <glyph glyph-name="yen" unicode="&#xa5;" 
d="M68 242v39h139l-98 257q-7 18 -28 25l-30 11v30h246v-33l-43 -9q-39 -7 -27 -40l75 -200l171 204q22 27 -13 36l-40 11v30h199v-30l-25 -8q-28 -9 -55 -40l-214 -244h141v-39h-155l-21 -83h153v-40h-163l-7 -31q-6 -24 0 -33.5t22 -12.5l69 -13v-29h-310v29l70 13
q18 4 26.5 10.5t12.5 21.5l11 45h-128v40h139l21 83h-138z" />
    <glyph glyph-name="brokenbar" unicode="&#xa6;" horiz-adv-x="364" 
d="M180 388l88 352h76l-88 -352h-76zM116 132h76l-96 -392h-76z" />
    <glyph glyph-name="section" unicode="&#xa7;" horiz-adv-x="523" 
d="M34 -79q23 0 38.5 -14.5t15.5 -36.5q0 -29 -28 -53q26 -26 75 -26q46 0 79 27.5t33 72.5t-66 101l-57 49q-24 19 -39 34.5t-28 43.5t-13 60q0 56 41.5 100.5t117.5 72.5q-55 50 -55 119t61 113t153 44q68 0 114.5 -27.5t46.5 -70.5q0 -27 -17 -45.5t-44 -18.5
q-23 0 -38.5 14.5t-15.5 36.5q0 29 28 53q-26 26 -75 26q-46 0 -79 -27.5t-33 -72.5t66 -101l57 -49q24 -19 39 -34.5t28 -43.5t13 -60q0 -112 -159 -173q55 -55 55 -119q0 -69 -61 -113t-153 -44q-68 0 -114.5 27.5t-46.5 70.5q0 27 17 45.5t44 18.5zM232 326l-11 9
q-76 -57 -76 -124q0 -27 13.5 -48.5t48.5 -51.5l57 -50l10 -9q77 57 77 124q0 27 -13.5 48.5t-48.5 51.5z" />
    <glyph glyph-name="dieresis" unicode="&#xa8;" horiz-adv-x="515" 
d="M425 537q-19 0 -31 12t-12 32q0 29 17 47t42 18q19 0 31.5 -11.5t12.5 -31.5q0 -29 -17.5 -47.5t-42.5 -18.5zM242 537q-19 0 -31.5 12t-12.5 32q0 29 17.5 47t42.5 18q19 0 31 -11.5t12 -31.5q0 -29 -17 -47.5t-42 -18.5z" />
    <glyph glyph-name="copyright" unicode="&#xa9;" horiz-adv-x="728" 
d="M40 239q0 103 55.5 194.5t149.5 147t200 55.5q120 0 194.5 -69.5t74.5 -181.5q0 -103 -55.5 -195t-149.5 -147t-200 -55q-120 0 -194.5 69.5t-74.5 181.5zM95 244q0 -96 59.5 -155.5t162.5 -59.5q135 0 238.5 106.5t103.5 244.5q0 96 -59.5 155.5t-162.5 59.5
q-137 0 -239.5 -106t-102.5 -245zM187 270q0 95 71 158t176 63q43 0 91 -20l19 13h16l-19 -123h-21q0 3 -0.5 16t-1 16.5t-1.5 14.5t-3 14t-5.5 11.5t-7.5 11t-11 7.5t-15.5 7t-19.5 3.5t-25 1.5q-72 0 -115 -59.5t-43 -142.5q0 -49 24.5 -75.5t65.5 -26.5q52 0 76.5 20
t57.5 78h24l-47 -106q-49 -20 -124 -20q-80 0 -121 38.5t-41 99.5z" />
    <glyph glyph-name="ordfeminine" unicode="&#xaa;" horiz-adv-x="422" 
d="M157 252q-34 0 -55.5 25.5t-21.5 74.5q0 112 64 196t163 84q42 0 71 -29l42 29h41l-27 -74l-52 -187q-11 -31 -11 -59q0 -12 4 -17q43 4 68 48l13 -19q-17 -31 -47.5 -51.5t-69.5 -20.5q-52 0 -52 52q0 24 6 52q-62 -104 -136 -104zM200 308q21 0 51 27.5t56 66.5l52 176
q-17 17 -42 17q-59 0 -104 -72.5t-45 -162.5q0 -30 8 -41t24 -11z" />
    <glyph glyph-name="guillemotleft" unicode="&#xab;" horiz-adv-x="388" 
d="M191 264l6 24l206 156l-9 -36l-122 -137v-4l59 -131l-9 -36zM150 100l-131 164l6 24l206 156l-9 -36l-122 -137v-4l59 -131z" />
    <glyph glyph-name="logicalnot" unicode="&#xac;" 
d="M42 292l11 52h453l-54 -235h-57l42 183h-395z" />
    <glyph glyph-name="uni00AD" unicode="&#xad;" horiz-adv-x="284" 
d="M33 256l19 70h228l-19 -70h-228z" />
    <glyph glyph-name="registered" unicode="&#xae;" horiz-adv-x="728" 
d="M40 239q0 103 55.5 194.5t149.5 147t200 55.5q120 0 194.5 -69.5t74.5 -181.5q0 -103 -55.5 -195t-149.5 -147t-200 -55q-120 0 -194.5 69.5t-74.5 181.5zM95 244q0 -96 59.5 -155.5t162.5 -59.5q135 0 238.5 106.5t103.5 244.5q0 96 -59.5 155.5t-162.5 59.5
q-137 0 -239.5 -106t-102.5 -245zM169 144v21l30 8q13 3 16 5t5 10l55 258q3 8 -9 11q-3 1 -4 1l-29 8v22h175q63 0 96.5 -18t31.5 -58q-2 -47 -37 -74t-84 -37q16 -12 34 -45l25 -46q14 -22 31 -37l35 -8v-21h-107q-13 8 -42 60l-42 84h-36l-19 -99q-3 -13 11 -16l34 -8
v-21h-170zM321 316h32q44 0 72.5 22t30.5 64q2 25 -13.5 39.5t-47.5 14.5h-11q-20 0 -35 -4z" />
    <glyph glyph-name="macron" unicode="&#xaf;" horiz-adv-x="515" 
d="M203 550l13 49h248l-13 -49h-248z" />
    <glyph glyph-name="degree" unicode="&#xb0;" horiz-adv-x="433" 
d="M230 291q-63 0 -100 34.5t-37 92.5q0 88 65.5 153t150.5 65q63 0 100 -34.5t37 -92.5q0 -88 -65.5 -153t-150.5 -65zM240 336q59 0 103.5 48.5t44.5 115.5q0 41 -23.5 66.5t-65.5 25.5q-59 0 -103 -49.5t-44 -115.5q0 -41 23 -66t65 -25z" />
    <glyph glyph-name="plusminus" unicode="&#xb1;" 
d="M45 301l11 52h202l44 178h57l-45 -178h194l-10 -52h-196l-48 -189h-57l48 189h-200zM-14 51h455l-13 -51h-455z" />
    <glyph glyph-name="acute" unicode="&#xb4;" horiz-adv-x="515" 
d="M285 536l64 140q12 26 24 37.5t33 11.5q14 0 24 -10t10 -25q0 -26 -32 -56l-101 -98h-22z" />
    <glyph glyph-name="mu" unicode="&#xb5;" horiz-adv-x="559" 
d="M110 14l-47 -170q-8 -28 -22.5 -45.5t-39 -25t-42.5 -10t-54 -3.5v30l40 16q18 6 30 36l181 587l76 51h38l-35 -94l-73 -228q-15 -43 -15 -69q0 -29 31 -29q70 0 173 183l55 186l76 51h36l-35 -94l-68 -246q-15 -51 -15 -77q0 -16 4 -23q28 3 52.5 23t38.5 44l17 -26
q-20 -38 -59.5 -65.5t-86.5 -27.5q-29 0 -45 18t-16 46q0 41 16 88l6 22q-49 -86 -90.5 -130t-82.5 -44q-29 0 -44 26z" />
    <glyph glyph-name="paragraph" unicode="&#xb6;" horiz-adv-x="540" 
d="M168 -248l112 448h-36q-44 0 -85.5 14.5t-74 52.5t-32.5 93q0 65 26.5 116t72 82t102 46.5t119.5 15.5h264l-14 -50h-73l-142 -570h-51l142 570h-77l-202 -818h-51z" />
    <glyph glyph-name="periodcentered" unicode="&#xb7;" horiz-adv-x="264" 
d="M123 197q-25 0 -40 14t-15 37q0 31 22.5 55.5t54.5 24.5q25 0 40 -14t15 -37q0 -31 -22.5 -55.5t-54.5 -24.5z" />
    <glyph glyph-name="cedilla" unicode="&#xb8;" horiz-adv-x="515" 
d="M157 -87q0 41 46 55l8 -4q-17 -9 -17 -32q0 -15 17 -30t33.5 -34.5t16.5 -44.5q0 -75 -113 -75q-47 0 -78 21l19 35q6 -14 23.5 -24.5t36.5 -10.5q48 0 48 48q0 22 -20 46t-20 50z" />
    <glyph glyph-name="ordmasculine" unicode="&#xba;" horiz-adv-x="406" 
d="M212 252q-132 0 -132 124q0 102 64 179t161 77q63 0 96 -32.5t33 -95.5q0 -102 -62.5 -177t-159.5 -75zM224 285q36 0 65.5 40.5t44.5 111.5q9 41 9 79q0 83 -49 83q-37 0 -68 -40.5t-46 -111.5q-9 -41 -9 -80q0 -82 53 -82z" />
    <glyph glyph-name="guillemotright" unicode="&#xbb;" horiz-adv-x="388" 
d="M162 100l9 36l123 137v4l-59 131l9 36l130 -164l-6 -24zM-10 100l9 36l123 137v4l-59 131l9 36l130 -164l-6 -24z" />
    <glyph glyph-name="onequarter" unicode="&#xbc;" horiz-adv-x="912" 
d="M221 -12l501 648h59l-500 -648h-60zM491 91l3 16l242 243q13 0 38 6.5t34 11.5h17l-60 -244h54l-3 -33h-59l-11 -51q-2 -7 -1 -8t10 -3l37 -7v-22h-200v22l59 8q10 3 12 10q1 2 1 3l12 48h-185zM546 124h138l44 181zM80 260v22l81 11q19 3 23 18l63 247h-5l-112 -23l3 25
q138 41 191 72h21l-80 -324q-2 -8 1 -10t14 -5l68 -11v-22h-268z" />
    <glyph glyph-name="onehalf" unicode="&#xbd;" horiz-adv-x="912" 
d="M202 -12l501 648h59l-500 -648h-60zM491 0l3 16l120 88q43 31 67 51.5t45 52t21 62.5q0 58 -68 58q-91 0 -102 -88h-21q0 64 40 98t113 34q60 0 94.5 -26t34.5 -71q0 -28 -13.5 -53t-45 -49.5t-54 -39t-69.5 -41.5l-76 -44h166q13 0 24 11l51 54h22q-10 -15 -20.5 -38.5
t-20 -48.5t-9.5 -26h-302zM80 260v22l81 11q19 3 23 18l63 247h-5l-112 -23l3 25q138 41 191 72h21l-80 -324q-2 -8 1 -10t14 -5l68 -11v-22h-268z" />
    <glyph glyph-name="threequarters" unicode="&#xbe;" horiz-adv-x="912" 
d="M212 -12l500 648h60l-500 -648h-60zM195 252q-50 0 -89.5 15t-39.5 45q0 17 10.5 27t26.5 10q14 0 23 -6t12 -11t11 -20l15 -32q12 -7 32 -7q43 0 69.5 24.5t26.5 66.5q0 31 -21 50.5t-59 19.5q-16 0 -42 -6l5 23q57 4 99 29t42 63q0 52 -67 52q-80 0 -95 -68h-21
q6 51 43.5 78t100.5 27q53 0 86 -21.5t33 -58.5q0 -33 -29.5 -57.5t-71.5 -35.5q41 -9 66 -31.5t25 -55.5q0 -58 -56.5 -89t-134.5 -31zM491 91l3 16l242 243q13 0 38 6.5t34 11.5h17l-60 -244h54l-3 -33h-59l-11 -51q-2 -7 -1 -8t10 -3l37 -7v-22h-200v22l59 8q10 3 12 10
q1 2 1 3l12 48h-185zM546 124h138l44 181z" />
    <glyph glyph-name="questiondown" unicode="&#xbf;" horiz-adv-x="460" 
d="M301 349q-25 0 -39.5 14t-14.5 37q0 31 22 55.5t54 24.5q26 0 40.5 -13.5t14.5 -37.5q0 -31 -22 -55.5t-55 -24.5zM-12 -48q0 55 26.5 95.5t65 64.5t78.5 46.5t71 55.5t38 76h32q-4 -36 -21 -65.5t-39.5 -48.5l-48 -41t-47 -43t-35.5 -54t-14 -74q0 -47 24.5 -73.5
t61.5 -26.5q32 0 48 9q-24 28 -24 56q0 27 16.5 45t44.5 18q24 0 38.5 -16t14.5 -40q0 -46 -54 -75t-116 -29q-69 0 -114.5 33.5t-45.5 86.5z" />
    <glyph glyph-name="Agrave" unicode="&#xc0;" horiz-adv-x="566" 
d="M-70 29l34 9q30 8 48 38l337 560h38l80 -556q2 -20 9.5 -28.5t27.5 -13.5l29 -8v-30h-241v30l45 11q17 4 22.5 10.5t3.5 20.5l-15 105h-214l-47 -82q-26 -47 8 -54l46 -11v-30h-211v29zM306 474l-145 -251h180zM360 695l-103 100q-29 27 -29 50q0 16 11.5 27.5t28.5 11.5
q29 0 49 -44l65 -145h-22z" />
    <glyph glyph-name="Aacute" unicode="&#xc1;" horiz-adv-x="566" 
d="M-70 29l34 9q30 8 48 38l337 560h38l80 -556q2 -20 9.5 -28.5t27.5 -13.5l29 -8v-30h-241v30l45 11q17 4 22.5 10.5t3.5 20.5l-15 105h-214l-47 -82q-26 -47 8 -54l46 -11v-30h-211v29zM306 474l-145 -251h180zM369 695l64 140q12 26 24 37.5t33 11.5q14 0 24 -10t10 -25
q0 -26 -32 -56l-101 -98h-22z" />
    <glyph glyph-name="Acircumflex" unicode="&#xc2;" horiz-adv-x="566" 
d="M-70 29l34 9q30 8 48 38l337 560h38l80 -556q2 -20 9.5 -28.5t27.5 -13.5l29 -8v-30h-241v30l45 11q17 4 22.5 10.5t3.5 20.5l-15 105h-214l-47 -82q-26 -47 8 -54l46 -11v-30h-211v29zM306 474l-145 -251h180zM227 695l168 176h32l80 -176h-34l-77 96h-4l-131 -96h-34z
" />
    <glyph glyph-name="Atilde" unicode="&#xc3;" horiz-adv-x="566" 
d="M-70 29l34 9q30 8 48 38l337 560h38l80 -556q2 -20 9.5 -28.5t27.5 -13.5l29 -8v-30h-241v30l45 11q17 4 22.5 10.5t3.5 20.5l-15 105h-214l-47 -82q-26 -47 8 -54l46 -11v-30h-211v29zM306 474l-145 -251h180zM260 693h-25q29 111 106 111q30 0 61.5 -26t51.5 -26
q18 0 32.5 15.5t20.5 36.5h25q-11 -49 -37 -80t-68 -31q-30 0 -62 26t-51 26t-33.5 -15t-20.5 -37z" />
    <glyph glyph-name="Adieresis" unicode="&#xc4;" horiz-adv-x="566" 
d="M-70 29l34 9q30 8 48 38l337 560h38l80 -556q2 -20 9.5 -28.5t27.5 -13.5l29 -8v-30h-241v30l45 11q17 4 22.5 10.5t3.5 20.5l-15 105h-214l-47 -82q-26 -47 8 -54l46 -11v-30h-211v29zM306 474l-145 -251h180zM285 696q-19 0 -31.5 12t-12.5 32q0 29 17.5 47t42.5 18
q19 0 31 -11.5t12 -31.5q0 -29 -17 -47.5t-42 -18.5zM468 696q-19 0 -31 12t-12 32q0 29 17 47t42 18q19 0 31.5 -11.5t12.5 -31.5q0 -29 -17.5 -47.5t-42.5 -18.5z" />
    <glyph glyph-name="Aring" unicode="&#xc5;" horiz-adv-x="566" 
d="M-70 29l34 9q30 8 48 38l337 560h38l80 -556q2 -20 9.5 -28.5t27.5 -13.5l29 -8v-30h-241v30l45 11q17 4 22.5 10.5t3.5 20.5l-15 105h-214l-47 -82q-26 -47 8 -54l46 -11v-30h-211v29zM376 695q-34 0 -57 20t-23 50q0 47 34 76.5t84 29.5q35 0 57.5 -20t22.5 -50
q0 -47 -34 -76.5t-84 -29.5zM306 474l-145 -251h180zM384 724q27 0 47.5 21.5t20.5 51.5q0 19 -13 32t-33 13q-27 0 -47 -21t-20 -52q0 -19 12.5 -32t32.5 -13z" />
    <glyph glyph-name="AE" unicode="&#xc6;" horiz-adv-x="837" 
d="M-82 30l45 11q25 6 47 35l338 470q9 12 5.5 19.5t-23.5 12.5l-40 9v33h480q38 0 72 8l-32 -196h-28q0 89 -18 122q-33 28 -116 28h-9q-48 0 -79 -11l-58 -228h101q22 13 44.5 40.5t30.5 49.5h24l-60 -234h-24q0 73 -25 102h-102l-64 -253q30 -10 94 -10h12q81 0 126 25
q46 43 89 129h29l-68 -192h-472v30l55 12q18 4 25 10.5t11 21.5l36 138h-196l-85 -120q-32 -43 0 -51l46 -11v-30h-211v30zM417 574l-217 -317h175l83 317h-41z" />
    <glyph glyph-name="Ccedilla" unicode="&#xc7;" horiz-adv-x="647" 
d="M52 226q0 74 26 145.5t75.5 131.5t131 96.5t181.5 36.5q93 0 154 -39l27 28h17l-52 -214h-28q0 98 -10 138q-34 50 -122 50q-67 0 -123 -35.5t-91 -91t-54 -120.5t-19 -128q0 -100 44.5 -149.5t114.5 -49.5q37 0 71.5 11.5t53.5 27.5q40 40 99 148h29l-64 -189
q-74 -35 -204 -35q-113 0 -185 56.5t-72 181.5zM260 -87q0 41 46 55l8 -4q-17 -9 -17 -32q0 -15 16.5 -30t33.5 -34.5t17 -44.5q0 -75 -114 -75q-46 0 -77 21l19 35q6 -14 23.5 -24.5t36.5 -10.5q48 0 48 48q0 22 -20 46t-20 50z" />
    <glyph glyph-name="Egrave" unicode="&#xc8;" horiz-adv-x="573" 
d="M-18 0v30l55 12q18 4 25 10.5t11 21.5l119 457q7 27 3.5 35.5t-19.5 11.5l-50 12v30h389q40 0 72 8l-32 -196h-28q0 89 -18 122q-33 28 -116 28h-9q-45 0 -78 -11l-58 -228h100q22 13 44.5 40.5t30.5 49.5h24l-60 -234h-24q0 74 -24 102h-102l-64 -254q27 -9 93 -9h12
q84 0 126 25q23 21 50 60.5t39 68.5h29l-68 -192h-472zM418 695l-102 100q-29 27 -29 50q0 16 11.5 27.5t27.5 11.5q30 0 50 -44l65 -145h-23z" />
    <glyph glyph-name="Eacute" unicode="&#xc9;" horiz-adv-x="573" 
d="M-18 0v30l55 12q18 4 25 10.5t11 21.5l119 457q7 27 3.5 35.5t-19.5 11.5l-50 12v30h389q40 0 72 8l-32 -196h-28q0 89 -18 122q-33 28 -116 28h-9q-45 0 -78 -11l-58 -228h100q22 13 44.5 40.5t30.5 49.5h24l-60 -234h-24q0 74 -24 102h-102l-64 -254q27 -9 93 -9h12
q84 0 126 25q23 21 50 60.5t39 68.5h29l-68 -192h-472zM352 695l65 140q12 26 24 37.5t32 11.5q14 0 24.5 -10t10.5 -25q0 -26 -32 -56l-102 -98h-22z" />
    <glyph glyph-name="Ecircumflex" unicode="&#xca;" horiz-adv-x="573" 
d="M-18 0v30l55 12q18 4 25 10.5t11 21.5l119 457q7 27 3.5 35.5t-19.5 11.5l-50 12v30h389q40 0 72 8l-32 -196h-28q0 89 -18 122q-33 28 -116 28h-9q-45 0 -78 -11l-58 -228h100q22 13 44.5 40.5t30.5 49.5h24l-60 -234h-24q0 74 -24 102h-102l-64 -254q27 -9 93 -9h12
q84 0 126 25q23 21 50 60.5t39 68.5h29l-68 -192h-472zM251 695l168 176h33l80 -176h-34l-78 96h-4l-130 -96h-35z" />
    <glyph glyph-name="Edieresis" unicode="&#xcb;" horiz-adv-x="573" 
d="M-18 0v30l55 12q18 4 25 10.5t11 21.5l119 457q7 27 3.5 35.5t-19.5 11.5l-50 12v30h389q40 0 72 8l-32 -196h-28q0 89 -18 122q-33 28 -116 28h-9q-45 0 -78 -11l-58 -228h100q22 13 44.5 40.5t30.5 49.5h24l-60 -234h-24q0 74 -24 102h-102l-64 -254q27 -9 93 -9h12
q84 0 126 25q23 21 50 60.5t39 68.5h29l-68 -192h-472zM493 696q-19 0 -31.5 12t-12.5 32q0 29 17.5 47t42.5 18q19 0 31 -11.5t12 -31.5q0 -29 -17 -47.5t-42 -18.5zM309 696q-19 0 -31 12t-12 32q0 29 17 47t42 18q19 0 31.5 -11.5t12.5 -31.5q0 -29 -17.5 -47.5
t-42.5 -18.5z" />
    <glyph glyph-name="Igrave" unicode="&#xcc;" horiz-adv-x="338" 
d="M-18 0v30l55 12q18 4 25 10.5t11 21.5l119 457q7 27 3.5 35.5t-19.5 11.5l-50 12v30h267v-30l-51 -12q-32 -6 -39 -30l-120 -460q-6 -26 -2 -34.5t19 -11.5l50 -12v-30h-268zM302 695l-102 100q-29 26 -29 50q0 16 11 27.5t28 11.5q29 0 49 -44l65 -145h-22z" />
    <glyph glyph-name="Iacute" unicode="&#xcd;" horiz-adv-x="338" 
d="M-18 0v30l55 12q18 4 25 10.5t11 21.5l119 457q7 27 3.5 35.5t-19.5 11.5l-50 12v30h267v-30l-51 -12q-32 -6 -39 -30l-120 -460q-6 -26 -2 -34.5t19 -11.5l50 -12v-30h-268zM236 695l64 140q12 26 24 37.5t33 11.5q14 0 24.5 -10t10.5 -25q0 -25 -33 -56l-101 -98h-22z
" />
    <glyph glyph-name="Icircumflex" unicode="&#xce;" horiz-adv-x="338" 
d="M-18 0v30l55 12q18 4 25 10.5t11 21.5l119 457q7 27 3.5 35.5t-19.5 11.5l-50 12v30h267v-30l-51 -12q-32 -6 -39 -30l-120 -460q-6 -26 -2 -34.5t19 -11.5l50 -12v-30h-268zM135 695l168 176h32l80 -176h-34l-77 96h-4l-131 -96h-34z" />
    <glyph glyph-name="Idieresis" unicode="&#xcf;" horiz-adv-x="338" 
d="M-18 0v30l55 12q18 4 25 10.5t11 21.5l119 457q7 27 3.5 35.5t-19.5 11.5l-50 12v30h267v-30l-51 -12q-32 -6 -39 -30l-120 -460q-6 -26 -2 -34.5t19 -11.5l50 -12v-30h-268zM378 696q-19 0 -31 12t-12 32q0 29 17 47t42 18q19 0 31.5 -11.5t12.5 -31.5
q0 -29 -17.5 -47.5t-42.5 -18.5zM195 696q-19 0 -31.5 12t-12.5 32q0 29 17.5 47t42.5 18q19 0 31 -11.5t12 -31.5q0 -29 -17 -47.5t-42 -18.5z" />
    <glyph glyph-name="Eth" unicode="&#xd0;" horiz-adv-x="687" 
d="M62 303l8 38h72l50 190q7 27 3.5 35.5t-19.5 11.5l-50 12v30h279q123 0 193.5 -59.5t70.5 -169.5q0 -166 -105.5 -278.5t-271.5 -112.5h-310v30l55 12q18 4 25 10.5t11 21.5l59 229h-70zM388 583h-11q-37 0 -70 -10l-60 -232h119l-8 -38h-120l-65 -253q37 -13 82 -13h14
q87 0 155 52.5t101 131.5t33 167q0 195 -170 195z" />
    <glyph glyph-name="Ntilde" unicode="&#xd1;" horiz-adv-x="696" 
d="M-18 0v30l49 12q12 2 19.5 8t9.5 9.5t7 14.5q11 27 28 94l100 374q-20 29 -52 38l-31 9v31h164l239 -446l70 278q20 75 20 98t-25 28l-58 12v30h230v-30l-48 -12q-12 -3 -19.5 -9.5t-9 -9t-7.5 -13.5q-9 -18 -28 -94l-124 -464h-23l-265 494l-78 -314q-20 -75 -20 -98
t25 -28l57 -12v-30h-230zM341 693h-25q6 23 12.5 39t18 34.5t30.5 28t44 9.5q30 0 61.5 -26t51.5 -26q18 0 33.5 15.5t20.5 36.5h25q-30 -111 -106 -111q-30 0 -61 26t-51 26q-19 0 -33.5 -15t-20.5 -37z" />
    <glyph glyph-name="Ograve" unicode="&#xd2;" horiz-adv-x="699" 
d="M52 230q0 175 110.5 290.5t272.5 115.5q115 0 177.5 -66.5t62.5 -175.5q0 -175 -110.5 -290.5t-272.5 -115.5q-115 0 -177.5 66.5t-62.5 175.5zM168 218q0 -84 35 -138.5t101 -54.5q79 0 139 61.5t88 146.5t28 173q0 84 -34.5 138.5t-100.5 54.5q-60 0 -110.5 -35.5
t-81 -92t-47.5 -122.5t-17 -131zM466 695l-102 100q-29 26 -29 50q0 16 11 27.5t28 11.5q29 0 49 -44l65 -145h-22z" />
    <glyph glyph-name="Oacute" unicode="&#xd3;" horiz-adv-x="699" 
d="M52 230q0 175 110.5 290.5t272.5 115.5q115 0 177.5 -66.5t62.5 -175.5q0 -175 -110.5 -290.5t-272.5 -115.5q-115 0 -177.5 66.5t-62.5 175.5zM168 218q0 -84 35 -138.5t101 -54.5q79 0 139 61.5t88 146.5t28 173q0 84 -34.5 138.5t-100.5 54.5q-60 0 -110.5 -35.5
t-81 -92t-47.5 -122.5t-17 -131zM400 695l64 140q12 26 24 37.5t33 11.5q14 0 24.5 -10t10.5 -25q0 -25 -33 -56l-101 -98h-22z" />
    <glyph glyph-name="Ocircumflex" unicode="&#xd4;" horiz-adv-x="699" 
d="M52 230q0 175 110.5 290.5t272.5 115.5q115 0 177.5 -66.5t62.5 -175.5q0 -175 -110.5 -290.5t-272.5 -115.5q-115 0 -177.5 66.5t-62.5 175.5zM168 218q0 -84 35 -138.5t101 -54.5q79 0 139 61.5t88 146.5t28 173q0 84 -34.5 138.5t-100.5 54.5q-60 0 -110.5 -35.5
t-81 -92t-47.5 -122.5t-17 -131zM299 695l168 176h32l80 -176h-34l-77 96h-4l-131 -96h-34z" />
    <glyph glyph-name="Otilde" unicode="&#xd5;" horiz-adv-x="699" 
d="M52 230q0 175 110.5 290.5t272.5 115.5q115 0 177.5 -66.5t62.5 -175.5q0 -175 -110.5 -290.5t-272.5 -115.5q-115 0 -177.5 66.5t-62.5 175.5zM168 218q0 -84 35 -138.5t101 -54.5q79 0 139 61.5t88 146.5t28 173q0 84 -34.5 138.5t-100.5 54.5q-60 0 -110.5 -35.5
t-81 -92t-47.5 -122.5t-17 -131zM330 693h-24q6 23 12.5 39t18 34.5t30.5 28t44 9.5q30 0 61.5 -26t51.5 -26q18 0 33.5 15.5t20.5 36.5h25q-30 -111 -106 -111q-30 0 -62 26t-51 26t-33.5 -15t-20.5 -37z" />
    <glyph glyph-name="Odieresis" unicode="&#xd6;" horiz-adv-x="699" 
d="M52 230q0 175 110.5 290.5t272.5 115.5q115 0 177.5 -66.5t62.5 -175.5q0 -175 -110.5 -290.5t-272.5 -115.5q-115 0 -177.5 66.5t-62.5 175.5zM168 218q0 -84 35 -138.5t101 -54.5q79 0 139 61.5t88 146.5t28 173q0 84 -34.5 138.5t-100.5 54.5q-60 0 -110.5 -35.5
t-81 -92t-47.5 -122.5t-17 -131zM540 696q-19 0 -31 12t-12 32q0 29 17 47t42 18q19 0 31.5 -11.5t12.5 -31.5q0 -29 -17.5 -47.5t-42.5 -18.5zM357 696q-19 0 -31.5 12t-12.5 32q0 29 17.5 47t42.5 18q19 0 31 -11.5t12 -31.5q0 -29 -17 -47.5t-42 -18.5z" />
    <glyph glyph-name="multiply" unicode="&#xd7;" 
d="M40 95l-28 40l224 180l-130 177l46 36l129 -176l225 181l29 -40l-225 -181l135 -182l-46 -36l-134 182z" />
    <glyph glyph-name="Oslash" unicode="&#xd8;" horiz-adv-x="699" 
d="M52 230q0 175 110.5 290.5t272.5 115.5q90 0 151 -44l65 76h41l-83 -96q66 -65 66 -178q0 -175 -110.5 -290.5t-272.5 -115.5q-89 0 -151 43l-65 -75h-40l82 95q-66 65 -66 179zM559 406q0 48 -14 93l-351 -406q36 -68 110 -68q79 0 139 61.5t88 146.5t28 173zM168 218
q0 -54 13 -94l351 407q-38 68 -108 68q-60 0 -110.5 -35.5t-81 -92t-47.5 -122.5t-17 -131z" />
    <glyph glyph-name="Ugrave" unicode="&#xd9;" horiz-adv-x="664" 
d="M88 152q0 30 12 80l76 299q7 27 3.5 35.5t-19.5 11.5l-49 12v30h266v-30l-50 -12q-33 -7 -40 -30l-76 -297q-16 -55 -16 -92q0 -58 29 -85t89 -27q154 0 206 193l76 299q7 29 -27 39l-49 12v30h209v-30l-39 -11q-31 -9 -37 -35l-79 -304q-31 -124 -100.5 -188t-187.5 -64
q-97 0 -147 42t-50 122zM486 695l-102 100q-29 26 -29 50q0 16 11 27.5t28 11.5q29 0 49 -44l65 -145h-22z" />
    <glyph glyph-name="Uacute" unicode="&#xda;" horiz-adv-x="664" 
d="M88 152q0 30 12 80l76 299q7 27 3.5 35.5t-19.5 11.5l-49 12v30h266v-30l-50 -12q-33 -7 -40 -30l-76 -297q-16 -55 -16 -92q0 -58 29 -85t89 -27q154 0 206 193l76 299q7 29 -27 39l-49 12v30h209v-30l-39 -11q-31 -9 -37 -35l-79 -304q-31 -124 -100.5 -188t-187.5 -64
q-97 0 -147 42t-50 122zM420 695l64 140q12 26 24 37.5t33 11.5q14 0 24.5 -10t10.5 -25q0 -25 -33 -56l-101 -98h-22z" />
    <glyph glyph-name="Ucircumflex" unicode="&#xdb;" horiz-adv-x="664" 
d="M88 152q0 30 12 80l76 299q7 27 3.5 35.5t-19.5 11.5l-49 12v30h266v-30l-50 -12q-33 -7 -40 -30l-76 -297q-16 -55 -16 -92q0 -58 29 -85t89 -27q154 0 206 193l76 299q7 29 -27 39l-49 12v30h209v-30l-39 -11q-31 -9 -37 -35l-79 -304q-31 -124 -100.5 -188t-187.5 -64
q-97 0 -147 42t-50 122zM319 695l168 176h32l80 -176h-34l-77 96h-4l-131 -96h-34z" />
    <glyph glyph-name="Udieresis" unicode="&#xdc;" horiz-adv-x="664" 
d="M88 152q0 30 12 80l76 299q7 27 3.5 35.5t-19.5 11.5l-49 12v30h266v-30l-50 -12q-33 -7 -40 -30l-76 -297q-16 -55 -16 -92q0 -58 29 -85t89 -27q154 0 206 193l76 299q7 29 -27 39l-49 12v30h209v-30l-39 -11q-31 -9 -37 -35l-79 -304q-31 -124 -100.5 -188t-187.5 -64
q-97 0 -147 42t-50 122zM560 696q-19 0 -31 12t-12 32q0 29 17 47t42 18q19 0 31.5 -11.5t12.5 -31.5q0 -29 -17.5 -47.5t-42.5 -18.5zM377 696q-19 0 -31.5 12t-12.5 32q0 29 17.5 47t42.5 18q19 0 31 -11.5t12 -31.5q0 -29 -17 -47.5t-42 -18.5z" />
    <glyph glyph-name="Yacute" unicode="&#xdd;" horiz-adv-x="576" 
d="M97 0v29l64 13q19 4 27 10.5t12 21.5l50 191l-110 289q-7 19 -28 25l-30 11v30h247v-33l-44 -9q-39 -7 -27 -40l81 -216l183 221q24 27 -13 36l-40 11v30h199v-30l-25 -8q-31 -11 -55 -40l-232 -268l-45 -186q-6 -27 -1 -34.5t22 -11.5l63 -13v-29h-298zM366 695l65 140
q12 27 23.5 38t32.5 11q14 0 24.5 -10t10.5 -25q0 -25 -33 -56l-101 -98h-22z" />
    <glyph glyph-name="Thorn" unicode="&#xde;" horiz-adv-x="564" 
d="M-18 0v30l55 12q18 4 25 10.5t11 21.5l119 457q7 27 3.5 35.5t-19.5 11.5l-50 12v30h264v-30l-51 -12q-32 -6 -39 -30l-12 -46h84q99 0 149 -41t50 -113q0 -91 -71 -152.5t-191 -61.5q-66 0 -111 13l-15 -59q-6 -26 -2 -34.5t19 -11.5l50 -12v-30h-268zM350 465h-7
q-31 0 -67 -11l-71 -278h76q85 0 137 51t50 127q0 51 -30 81t-88 30z" />
    <glyph glyph-name="germandbls" unicode="&#xdf;" horiz-adv-x="567" 
d="M39 -48l109 524q26 121 86.5 176.5t159.5 55.5q65 0 108.5 -27.5t43.5 -76.5q0 -15 -2 -28t-9 -24t-10 -17.5t-15.5 -17l-15.5 -13t-19.5 -13t-17.5 -11.5q-55 -36 -55 -89q0 -28 6.5 -43.5t25.5 -37.5l43 -52q55 -67 55 -126q0 -70 -50 -107t-120 -37q-61 0 -103 29
t-42 73q0 29 16.5 46.5t41.5 17.5q21 0 34.5 -14t13.5 -38q0 -28 -21 -54q20 -24 58 -24t58 23t20 62q0 43 -37 89l-46 58q-40 49 -40 96q0 23 10.5 43t21 30.5t33.5 30l31 26.5q53 50 53 116q0 31 -18 54t-60 23q-54 0 -84.5 -44t-52.5 -143l-94 -440q-30 -150 -80 -223
t-146 -73q-44 0 -77.5 22t-33.5 52q0 22 15 37.5t38 15.5q22 0 33 -11.5t22 -37.5l19 -44q31 0 54 38.5t40 127.5z" />
    <glyph glyph-name="agrave" unicode="&#xe0;" horiz-adv-x="538" 
d="M38 117q0 93 35.5 175.5t103 135t150.5 52.5q58 0 92 -40l56 40h40l-35 -94l-68 -243q-15 -51 -15 -80q0 -16 4 -23q28 3 52.5 23t38.5 44l17 -26q-20 -38 -59.5 -65.5t-86.5 -27.5q-29 0 -45 17t-16 47q0 38 11 77q-80 -141 -180 -141q-43 0 -69 32.5t-26 96.5zM181 56
q31 0 76.5 45t77.5 100l63 212q-23 22 -62 22q-80 0 -139.5 -93.5t-59.5 -209.5q0 -41 10.5 -58.5t33.5 -17.5zM359 536l-103 100q-28 25 -28 50q0 16 11 27.5t28 11.5q29 0 49 -44l65 -145h-22z" />
    <glyph glyph-name="aacute" unicode="&#xe1;" horiz-adv-x="538" 
d="M38 117q0 93 35.5 175.5t103 135t150.5 52.5q58 0 92 -40l56 40h40l-35 -94l-68 -243q-15 -51 -15 -80q0 -16 4 -23q28 3 52.5 23t38.5 44l17 -26q-20 -38 -59.5 -65.5t-86.5 -27.5q-29 0 -45 17t-16 47q0 38 11 77q-80 -141 -180 -141q-43 0 -69 32.5t-26 96.5zM181 56
q31 0 76.5 45t77.5 100l63 212q-23 22 -62 22q-80 0 -139.5 -93.5t-59.5 -209.5q0 -41 10.5 -58.5t33.5 -17.5zM293 536l64 140q12 26 24 37.5t33 11.5q14 0 24 -10t10 -25q0 -26 -32 -56l-101 -98h-22z" />
    <glyph glyph-name="acircumflex" unicode="&#xe2;" horiz-adv-x="538" 
d="M38 117q0 93 35.5 175.5t103 135t150.5 52.5q58 0 92 -40l56 40h40l-35 -94l-68 -243q-15 -51 -15 -80q0 -16 4 -23q28 3 52.5 23t38.5 44l17 -26q-20 -38 -59.5 -65.5t-86.5 -27.5q-29 0 -45 17t-16 47q0 38 11 77q-80 -141 -180 -141q-43 0 -69 32.5t-26 96.5zM181 56
q31 0 76.5 45t77.5 100l63 212q-23 22 -62 22q-80 0 -139.5 -93.5t-59.5 -209.5q0 -41 10.5 -58.5t33.5 -17.5zM192 536l168 176h32l80 -176h-34l-78 96h-4l-130 -96h-34z" />
    <glyph glyph-name="atilde" unicode="&#xe3;" horiz-adv-x="538" 
d="M38 117q0 93 35.5 175.5t103 135t150.5 52.5q58 0 92 -40l56 40h40l-35 -94l-68 -243q-15 -51 -15 -80q0 -16 4 -23q28 3 52.5 23t38.5 44l17 -26q-20 -38 -59.5 -65.5t-86.5 -27.5q-29 0 -45 17t-16 47q0 38 11 77q-80 -141 -180 -141q-43 0 -69 32.5t-26 96.5zM181 56
q31 0 76.5 45t77.5 100l63 212q-23 22 -62 22q-80 0 -139.5 -93.5t-59.5 -209.5q0 -41 10.5 -58.5t33.5 -17.5zM223 534h-25q29 111 106 111q30 0 61.5 -26t51.5 -26q18 0 33.5 15.5t20.5 36.5h24q-11 -49 -37 -80t-68 -31q-30 0 -62 26t-51 26t-33.5 -15t-20.5 -37z" />
    <glyph glyph-name="adieresis" unicode="&#xe4;" horiz-adv-x="538" 
d="M38 117q0 93 35.5 175.5t103 135t150.5 52.5q58 0 92 -40l56 40h40l-35 -94l-68 -243q-15 -51 -15 -80q0 -16 4 -23q28 3 52.5 23t38.5 44l17 -26q-20 -38 -59.5 -65.5t-86.5 -27.5q-29 0 -45 17t-16 47q0 38 11 77q-80 -141 -180 -141q-43 0 -69 32.5t-26 96.5zM181 56
q31 0 76.5 45t77.5 100l63 212q-23 22 -62 22q-80 0 -139.5 -93.5t-59.5 -209.5q0 -41 10.5 -58.5t33.5 -17.5zM433 537q-19 0 -31 12t-12 32q0 29 17 47t42 18q19 0 31.5 -11.5t12.5 -31.5q0 -29 -17.5 -47.5t-42.5 -18.5zM250 537q-19 0 -31.5 12t-12.5 32q0 29 17.5 47
t42.5 18q19 0 31 -11.5t12 -31.5q0 -29 -17 -47.5t-42 -18.5z" />
    <glyph glyph-name="aring" unicode="&#xe5;" horiz-adv-x="538" 
d="M38 117q0 93 35.5 175.5t103 135t150.5 52.5q58 0 92 -40l56 40h40l-35 -94l-68 -243q-15 -51 -15 -80q0 -16 4 -23q28 3 52.5 23t38.5 44l17 -26q-20 -38 -59.5 -65.5t-86.5 -27.5q-29 0 -45 17t-16 47q0 38 11 77q-80 -141 -180 -141q-43 0 -69 32.5t-26 96.5zM181 56
q31 0 76.5 45t77.5 100l63 212q-23 22 -62 22q-80 0 -139.5 -93.5t-59.5 -209.5q0 -41 10.5 -58.5t33.5 -17.5zM340 536q-35 0 -57.5 20t-22.5 50q0 48 34 77t83 29q35 0 57.5 -20t22.5 -50q0 -47 -34 -76.5t-83 -29.5zM348 565q27 0 47 21.5t20 51.5q0 19 -13 32t-33 13
q-27 0 -47 -21.5t-20 -51.5q0 -19 13 -32t33 -13z" />
    <glyph glyph-name="ae" unicode="&#xe6;" horiz-adv-x="741" 
d="M38 117q0 93 35.5 175.5t103 135t150.5 52.5q52 0 88 -36l45 36h30l-12 -45q56 45 126 45q117 0 117 -91q0 -114 -189 -148l-94 -16q-7 -39 -7 -80q0 -43 17.5 -68t38.5 -29q109 0 162 102l23 -21q-32 -63 -86 -102t-121 -39q-136 0 -136 153v2h-1q-89 -155 -195 -155
q-43 0 -69 32.5t-26 96.5zM181 56q33 0 82 50.5t79 108.5l55 199q-24 21 -61 21q-80 0 -139.5 -93.5t-59.5 -209.5q0 -41 10.5 -58.5t33.5 -17.5zM588 442q-49 0 -85.5 -52t-56.5 -131l71 15q53 11 83 41t30 73q0 54 -42 54z" />
    <glyph glyph-name="ccedilla" unicode="&#xe7;" horiz-adv-x="419" 
d="M38 144q0 84 34 160.5t97.5 126t139.5 49.5q47 0 77.5 -21t30.5 -51q0 -22 -11.5 -34.5t-31.5 -12.5q-28 0 -42 18.5t-20 55.5q-7 7 -26 7q-49 -9 -96.5 -93t-47.5 -201q0 -84 49 -100q50 0 85 27.5t64 78.5l23 -21q-29 -61 -79 -103t-112 -42q-134 0 -134 156zM116 -87
q0 41 46 55l8 -4q-17 -9 -17 -32q0 -15 16.5 -30t33.5 -34.5t17 -44.5q0 -75 -113 -75q-47 0 -78 21l19 35q6 -14 23.5 -24.5t36.5 -10.5q48 0 48 48q0 22 -20 46t-20 50z" />
    <glyph glyph-name="egrave" unicode="&#xe8;" horiz-adv-x="452" 
d="M38 141q0 132 78 235.5t199 103.5q117 0 117 -91q0 -64 -51 -97.5t-137 -50.5l-95 -16q-7 -39 -7 -80q0 -43 17.5 -68t38.5 -29q112 0 162 102l23 -21q-32 -63 -86 -102t-121 -39q-66 0 -102 38t-36 115zM300 442q-49 0 -86 -52t-57 -131l71 15q53 11 83 41t30 73
q0 54 -41 54zM335 536l-103 100q-28 25 -28 50q0 16 11 27.5t28 11.5q29 0 49 -44l65 -145h-22z" />
    <glyph glyph-name="eacute" unicode="&#xe9;" horiz-adv-x="452" 
d="M38 141q0 132 78 235.5t199 103.5q117 0 117 -91q0 -64 -51 -97.5t-137 -50.5l-95 -16q-7 -39 -7 -80q0 -43 17.5 -68t38.5 -29q112 0 162 102l23 -21q-32 -63 -86 -102t-121 -39q-66 0 -102 38t-36 115zM300 442q-49 0 -86 -52t-57 -131l71 15q53 11 83 41t30 73
q0 54 -41 54zM269 536l64 140q12 26 24 37.5t33 11.5q14 0 24 -10t10 -25q0 -26 -32 -56l-101 -98h-22z" />
    <glyph glyph-name="ecircumflex" unicode="&#xea;" horiz-adv-x="452" 
d="M38 141q0 132 78 235.5t199 103.5q117 0 117 -91q0 -64 -51 -97.5t-137 -50.5l-95 -16q-7 -39 -7 -80q0 -43 17.5 -68t38.5 -29q112 0 162 102l23 -21q-32 -63 -86 -102t-121 -39q-66 0 -102 38t-36 115zM300 442q-49 0 -86 -52t-57 -131l71 15q53 11 83 41t30 73
q0 54 -41 54zM168 536l168 176h32l80 -176h-34l-78 96h-4l-130 -96h-34z" />
    <glyph glyph-name="edieresis" unicode="&#xeb;" horiz-adv-x="452" 
d="M38 141q0 132 78 235.5t199 103.5q117 0 117 -91q0 -64 -51 -97.5t-137 -50.5l-95 -16q-7 -39 -7 -80q0 -43 17.5 -68t38.5 -29q112 0 162 102l23 -21q-32 -63 -86 -102t-121 -39q-66 0 -102 38t-36 115zM300 442q-49 0 -86 -52t-57 -131l71 15q53 11 83 41t30 73
q0 54 -41 54zM409 537q-19 0 -31 12t-12 32q0 29 17 47t42 18q19 0 31.5 -11.5t12.5 -31.5q0 -29 -17.5 -47.5t-42.5 -18.5zM226 537q-19 0 -31.5 12t-12.5 32q0 29 17.5 47t42.5 18q19 0 31 -11.5t12 -31.5q0 -29 -17 -47.5t-42 -18.5z" />
    <glyph glyph-name="igrave" unicode="&#xec;" horiz-adv-x="294" 
d="M52 52q0 38 16 88l73 244q5 16 -1.5 23t-26.5 11l-49 11v23l150 28h52l-36 -101l-67 -238q-16 -54 -16 -77q0 -15 4 -24q56 5 91 67l17 -26q-20 -38 -59.5 -65.5t-86.5 -27.5q-29 0 -45 17t-16 47zM250 536l-102 100q-29 26 -29 50q0 16 11 27.5t28 11.5q29 0 49 -44
l65 -145h-22z" />
    <glyph glyph-name="iacute" unicode="&#xed;" horiz-adv-x="294" 
d="M52 52q0 38 16 88l73 244q5 16 -1.5 23t-26.5 11l-49 11v23l150 28h52l-36 -101l-67 -238q-16 -54 -16 -77q0 -15 4 -24q56 5 91 67l17 -26q-20 -38 -59.5 -65.5t-86.5 -27.5q-29 0 -45 17t-16 47zM190 536l65 140q12 27 23.5 38t32.5 11q14 0 24.5 -10t10.5 -25
q0 -25 -33 -56l-101 -98h-22z" />
    <glyph glyph-name="icircumflex" unicode="&#xee;" horiz-adv-x="294" 
d="M52 52q0 38 16 88l73 244q5 16 -1.5 23t-26.5 11l-49 11v23l150 28h52l-36 -101l-67 -238q-16 -54 -16 -77q0 -15 4 -24q56 5 91 67l17 -26q-20 -38 -59.5 -65.5t-86.5 -27.5q-29 0 -45 17t-16 47zM89 536l168 176h32l80 -176h-33l-78 96h-4l-130 -96h-35z" />
    <glyph glyph-name="idieresis" unicode="&#xef;" horiz-adv-x="294" 
d="M52 52q0 38 16 88l73 244q5 16 -1.5 23t-26.5 11l-49 11v23l150 28h52l-36 -101l-67 -238q-16 -54 -16 -77q0 -15 4 -24q56 5 91 67l17 -26q-20 -38 -59.5 -65.5t-86.5 -27.5q-29 0 -45 17t-16 47zM331 537q-19 0 -31.5 12t-12.5 32q0 29 17.5 47t42.5 18q19 0 31 -11.5
t12 -31.5q0 -29 -17 -47.5t-42 -18.5zM147 537q-19 0 -31 11.5t-12 32.5q0 29 17 47t42 18q19 0 31.5 -11.5t12.5 -31.5q0 -29 -17.5 -47.5t-42.5 -18.5z" />
    <glyph glyph-name="eth" unicode="&#xf0;" horiz-adv-x="515" 
d="M205 492l6 42l121 68q-52 62 -175 74l10 36q148 -5 226 -75l131 75l-6 -42l-100 -57q68 -81 68 -212q0 -53 -8 -107t-29 -110t-51.5 -98.5t-80 -70t-111.5 -27.5q-165 0 -165 162q0 124 63.5 210.5t165.5 86.5q81 0 114 -60q1 11 1 28q0 97 -34 160zM221 30q39 0 69 30.5
t48 80.5t28 100t15 104q-41 48 -93 48q-67 0 -105 -81t-38 -187q0 -95 76 -95z" />
    <glyph glyph-name="ntilde" unicode="&#xf1;" horiz-adv-x="551" 
d="M28 0l108 374q7 21 3 30.5t-23 13.5l-57 11v23l132 28q28 -1 37.5 -23.5t2.5 -55.5l-32 -123q108 202 219 202q82 0 82 -76q0 -24 -17 -83l-55 -175q-19 -65 -19 -83q0 -15 4 -23q29 3 53.5 22.5t38.5 44.5l17 -26q-20 -38 -59.5 -65.5t-86.5 -27.5q-30 0 -46 17t-16 47
q0 35 19 97l55 173q16 46 16 61q0 25 -29 25q-33 0 -88.5 -53.5t-101.5 -129.5l-58 -225h-99zM226 534h-24q6 23 12.5 39t18 34.5t30.5 28t44 9.5q30 0 61.5 -26t51.5 -26q18 0 33.5 15.5t20.5 36.5h25q-30 -111 -106 -111q-30 0 -62 26t-51 26t-33.5 -15t-20.5 -37z" />
    <glyph glyph-name="ograve" unicode="&#xf2;" horiz-adv-x="515" 
d="M38 143q0 134 80.5 235.5t203.5 101.5q156 0 156 -156q0 -134 -80.5 -235t-202.5 -101q-78 0 -117.5 37t-39.5 118zM141 139q0 -109 76 -109q45 0 83 47t60 131q15 60 15 121q0 109 -73 109q-45 0 -85 -48t-61 -133q-15 -59 -15 -118zM352 536l-102 100q-29 26 -29 50
q0 16 11.5 27.5t28.5 11.5q29 0 49 -44l65 -145h-23z" />
    <glyph glyph-name="oacute" unicode="&#xf3;" horiz-adv-x="515" 
d="M38 143q0 134 80.5 235.5t203.5 101.5q156 0 156 -156q0 -134 -80.5 -235t-202.5 -101q-78 0 -117.5 37t-39.5 118zM141 139q0 -109 76 -109q45 0 83 47t60 131q15 60 15 121q0 109 -73 109q-45 0 -85 -48t-61 -133q-15 -59 -15 -118zM287 536l64 140q12 26 24 37.5
t33 11.5q14 0 24 -10t10 -25q0 -26 -32 -56l-102 -98h-21z" />
    <glyph glyph-name="ocircumflex" unicode="&#xf4;" horiz-adv-x="515" 
d="M38 143q0 134 80.5 235.5t203.5 101.5q156 0 156 -156q0 -134 -80.5 -235t-202.5 -101q-78 0 -117.5 37t-39.5 118zM141 139q0 -109 76 -109q45 0 83 47t60 131q15 60 15 121q0 109 -73 109q-45 0 -85 -48t-61 -133q-15 -59 -15 -118zM185 536l168 176h33l80 -176h-34
l-78 96h-4l-130 -96h-35z" />
    <glyph glyph-name="otilde" unicode="&#xf5;" horiz-adv-x="515" 
d="M38 143q0 134 80.5 235.5t203.5 101.5q156 0 156 -156q0 -134 -80.5 -235t-202.5 -101q-78 0 -117.5 37t-39.5 118zM141 139q0 -109 76 -109q45 0 83 47t60 131q15 60 15 121q0 109 -73 109q-45 0 -85 -48t-61 -133q-15 -59 -15 -118zM217 534h-25q29 111 106 111
q30 0 61 -26t51 -26q18 0 33.5 15.5t20.5 36.5h25q-11 -49 -37 -80t-68 -31q-30 0 -62 26t-51 26t-33.5 -15t-20.5 -37z" />
    <glyph glyph-name="odieresis" unicode="&#xf6;" horiz-adv-x="515" 
d="M38 143q0 134 80.5 235.5t203.5 101.5q156 0 156 -156q0 -134 -80.5 -235t-202.5 -101q-78 0 -117.5 37t-39.5 118zM141 139q0 -109 76 -109q45 0 83 47t60 131q15 60 15 121q0 109 -73 109q-45 0 -85 -48t-61 -133q-15 -59 -15 -118zM427 537q-19 0 -31 11.5t-12 32.5
q0 29 17 47t42 18q19 0 31.5 -11.5t12.5 -31.5q0 -29 -17.5 -47.5t-42.5 -18.5zM244 537q-19 0 -31.5 12t-12.5 32q0 29 17.5 47t42.5 18q19 0 31 -11.5t12 -31.5q0 -29 -17 -47.5t-42 -18.5z" />
    <glyph glyph-name="divide" unicode="&#xf7;" 
d="M303 433q-21 0 -34 13.5t-13 32.5q0 29 24.5 50.5t52.5 21.5q21 0 34 -13.5t13 -32.5q0 -29 -24.5 -50.5t-52.5 -21.5zM46 292l11 52h453l-11 -52h-453zM169 130q0 29 24.5 50t52.5 21q21 0 33.5 -13t12.5 -32q0 -29 -23.5 -50.5t-52.5 -21.5q-21 0 -34 13.5t-13 32.5z
" />
    <glyph glyph-name="oslash" unicode="&#xf8;" horiz-adv-x="515" 
d="M38 143q0 134 80.5 235.5t203.5 101.5q60 0 98 -24l43 52h40l-59 -72q34 -37 34 -111q0 -134 -80.5 -235.5t-202.5 -101.5q-61 0 -99 23l-42 -51h-40l58 71q-34 37 -34 112zM375 329q0 3 -0.5 10t-0.5 11l-224 -273q17 -47 67 -47q45 0 83 47t60 131q15 60 15 121z
M141 139q0 -16 1 -23l225 275q-18 47 -65 47q-45 0 -85 -48t-61 -133q-15 -59 -15 -118z" />
    <glyph glyph-name="ugrave" unicode="&#xf9;" horiz-adv-x="552" 
d="M56 69q0 31 16 81l59 183q23 64 18 95q-49 -6 -89 -64l-13 26q19 38 55.5 64t80.5 26q29 0 44.5 -11t16.5 -33.5t-3 -44t-15 -56.5l-55 -177q-1 -6 -6.5 -22.5t-9 -30t-3.5 -20.5q0 -28 26 -28q72 0 182 186l55 186l76 51h36l-35 -94l-68 -246q-15 -51 -15 -77
q0 -16 4 -23q28 3 52.5 23t38.5 44l17 -26q-20 -38 -59.5 -65.5t-86.5 -27.5q-29 0 -45 18t-16 46q0 41 16 88l8 29q-52 -91 -98.5 -136t-101.5 -45q-82 0 -82 81zM370 536l-102 100q-29 26 -29 50q0 16 11 27.5t28 11.5q29 0 49 -44l65 -145h-22z" />
    <glyph glyph-name="uacute" unicode="&#xfa;" horiz-adv-x="552" 
d="M56 69q0 31 16 81l59 183q23 64 18 95q-49 -6 -89 -64l-13 26q19 38 55.5 64t80.5 26q29 0 44.5 -11t16.5 -33.5t-3 -44t-15 -56.5l-55 -177q-1 -6 -6.5 -22.5t-9 -30t-3.5 -20.5q0 -28 26 -28q72 0 182 186l55 186l76 51h36l-35 -94l-68 -246q-15 -51 -15 -77
q0 -16 4 -23q28 3 52.5 23t38.5 44l17 -26q-20 -38 -59.5 -65.5t-86.5 -27.5q-29 0 -45 18t-16 46q0 41 16 88l8 29q-52 -91 -98.5 -136t-101.5 -45q-82 0 -82 81zM304 536l64 140q12 26 24 37.5t33 11.5q14 0 24.5 -10t10.5 -25q0 -25 -33 -56l-101 -98h-22z" />
    <glyph glyph-name="ucircumflex" unicode="&#xfb;" horiz-adv-x="552" 
d="M56 69q0 31 16 81l59 183q23 64 18 95q-49 -6 -89 -64l-13 26q19 38 55.5 64t80.5 26q29 0 44.5 -11t16.5 -33.5t-3 -44t-15 -56.5l-55 -177q-1 -6 -6.5 -22.5t-9 -30t-3.5 -20.5q0 -28 26 -28q72 0 182 186l55 186l76 51h36l-35 -94l-68 -246q-15 -51 -15 -77
q0 -16 4 -23q28 3 52.5 23t38.5 44l17 -26q-20 -38 -59.5 -65.5t-86.5 -27.5q-29 0 -45 18t-16 46q0 41 16 88l8 29q-52 -91 -98.5 -136t-101.5 -45q-82 0 -82 81zM203 536l168 176h32l80 -176h-34l-77 96h-4l-131 -96h-34z" />
    <glyph glyph-name="udieresis" unicode="&#xfc;" horiz-adv-x="551" 
d="M56 69q0 31 16 81l58 183q23 64 18 95q-48 -6 -88 -64l-14 26q19 38 55.5 64t80.5 26q29 0 44.5 -11t16.5 -33.5t-3 -44t-15 -56.5l-55 -177q-1 -6 -6.5 -22.5t-9 -30t-3.5 -20.5q0 -28 26 -28q72 0 182 186l55 186l76 51h36l-35 -94l-68 -246q-15 -51 -15 -77
q0 -16 4 -23q28 3 52.5 23t38.5 44l17 -26q-20 -38 -59.5 -65.5t-86.5 -27.5q-29 0 -45 18t-16 46q0 41 16 88l8 29q-52 -91 -98.5 -136t-101.5 -45q-81 0 -81 81zM260 537q-19 0 -31.5 12t-12.5 32q0 29 17.5 47t42.5 18q19 0 31.5 -11.5t12.5 -31.5q0 -29 -17.5 -47.5
t-42.5 -18.5zM444 537q-19 0 -31.5 12t-12.5 32q0 29 17.5 47t42.5 18q19 0 31 -11.5t12 -31.5q0 -29 -17 -47.5t-42 -18.5z" />
    <glyph glyph-name="yacute" unicode="&#xfd;" horiz-adv-x="469" 
d="M158 -92l-7 123q-7 133 -27 245t-51 145q-20 0 -55 -49l-16 29q49 79 116 79q17 0 31 -8t24.5 -25t19 -34t14.5 -45l10 -48t7.5 -52.5t5 -49t3.5 -48t3 -38.5l5 -121q55 79 90 160.5t39 140.5q-3 5 -14 22t-17.5 28.5t-13 28.5t-6.5 31q0 25 15 41.5t41 16.5
q30 0 46.5 -19t16.5 -52q0 -83 -31.5 -178.5t-82.5 -178t-110 -151.5t-119.5 -109t-106.5 -40q-36 0 -57.5 17t-21.5 46q0 25 16 39.5t39 14.5q6 0 12.5 -1.5t11 -3t10.5 -4.5t9 -5t9 -6.5t8 -5.5l28 -22q46 27 106 87zM224 536l64 140q12 26 24 37.5t33 11.5q14 0 24 -10
t10 -25q0 -26 -32 -56l-101 -98h-22z" />
    <glyph glyph-name="thorn" unicode="&#xfe;" horiz-adv-x="538" 
d="M-16 -165l215 767q4 16 -2 25.5t-28 14.5l-53 12v23l168 31h39l-36 -103l-74 -277h2q23 40 44 68.5t60.5 56t82.5 27.5q42 0 69.5 -33.5t27.5 -96.5q0 -94 -32.5 -175.5t-99 -134t-152.5 -52.5q-55 0 -85 24l-40 -152q-17 -52 21 -58l70 -12v-30h-277v30l49 13
q15 4 21 10t10 22zM353 412q-33 0 -80 -45.5t-76 -100.5l-57 -215q19 -18 67 -18q79 0 136 91.5t57 210.5q0 77 -47 77z" />
    <glyph glyph-name="ydieresis" unicode="&#xff;" horiz-adv-x="469" 
d="M158 -92l-7 123q-7 133 -27 245t-51 145q-20 0 -55 -49l-16 29q49 79 116 79q17 0 31 -8t24.5 -25t19 -34t14.5 -45l10 -48t7.5 -52.5t5 -49t3.5 -48t3 -38.5l5 -121q55 79 90 160.5t39 140.5q-3 5 -14 22t-17.5 28.5t-13 28.5t-6.5 31q0 25 15 41.5t41 16.5
q30 0 46.5 -19t16.5 -52q0 -83 -31.5 -178.5t-82.5 -178t-110 -151.5t-119.5 -109t-106.5 -40q-36 0 -57.5 17t-21.5 46q0 25 16 39.5t39 14.5q6 0 12.5 -1.5t11 -3t10.5 -4.5t9 -5t9 -6.5t8 -5.5l28 -22q46 27 106 87zM364 537q-19 0 -31 12t-12 32q0 29 17 47t42 18
q19 0 31.5 -11.5t12.5 -31.5q0 -29 -17.5 -47.5t-42.5 -18.5zM181 537q-19 0 -31.5 12t-12.5 32q0 29 17.5 47t42.5 18q19 0 31 -11.5t12 -31.5q0 -29 -17 -47.5t-42 -18.5z" />
    <glyph glyph-name="Amacron" unicode="&#x100;" horiz-adv-x="566" 
d="M-70 29l34 9q30 8 48 38l337 560h38l80 -556q2 -20 9.5 -28.5t27.5 -13.5l29 -8v-30h-241v30l45 11q17 4 22.5 10.5t3.5 20.5l-15 105h-214l-47 -82q-26 -47 8 -54l46 -11v-30h-211v29zM306 474l-145 -251h180zM246 709l13 49h248l-13 -49h-248z" />
    <glyph glyph-name="amacron" unicode="&#x101;" horiz-adv-x="538" 
d="M38 117q0 93 35.5 175.5t103 135t150.5 52.5q58 0 92 -40l56 40h40l-35 -94l-68 -243q-15 -51 -15 -80q0 -16 4 -23q28 3 52.5 23t38.5 44l17 -26q-20 -38 -59.5 -65.5t-86.5 -27.5q-29 0 -45 17t-16 47q0 38 11 77q-80 -141 -180 -141q-43 0 -69 32.5t-26 96.5zM181 56
q31 0 76.5 45t77.5 100l63 212q-23 22 -62 22q-80 0 -139.5 -93.5t-59.5 -209.5q0 -41 10.5 -58.5t33.5 -17.5zM211 550l13 49h248l-13 -49h-248z" />
    <glyph glyph-name="Abreve" unicode="&#x102;" horiz-adv-x="566" 
d="M-70 29l34 9q30 8 48 38l337 560h38l80 -556q2 -20 9.5 -28.5t27.5 -13.5l29 -8v-30h-241v30l45 11q17 4 22.5 10.5t3.5 20.5l-15 105h-214l-47 -82q-26 -47 8 -54l46 -11v-30h-211v29zM306 474l-145 -251h180zM372 695q-59 0 -79 39.5t-6 92.5h26q-2 -33 15.5 -53.5
t53.5 -20.5t64 20.5t43 53.5h27q-12 -55 -48.5 -93.5t-95.5 -38.5z" />
    <glyph glyph-name="abreve" unicode="&#x103;" horiz-adv-x="538" 
d="M38 117q0 93 35.5 175.5t103 135t150.5 52.5q58 0 92 -40l56 40h40l-35 -94l-68 -243q-15 -51 -15 -80q0 -16 4 -23q28 3 52.5 23t38.5 44l17 -26q-20 -38 -59.5 -65.5t-86.5 -27.5q-29 0 -45 17t-16 47q0 38 11 77q-80 -141 -180 -141q-43 0 -69 32.5t-26 96.5zM181 56
q31 0 76.5 45t77.5 100l63 212q-23 22 -62 22q-80 0 -139.5 -93.5t-59.5 -209.5q0 -41 10.5 -58.5t33.5 -17.5zM336 536q-58 0 -78 39.5t-6 92.5h26q-2 -33 15.5 -53.5t53.5 -20.5t64 20.5t43 53.5h27q-14 -57 -49 -94.5t-96 -37.5z" />
    <glyph glyph-name="Aogonek" unicode="&#x104;" horiz-adv-x="566" 
d="M-70 29l34 9q30 8 48 38l337 560h38l80 -556q2 -20 9.5 -28.5t27.5 -13.5l29 -8v-30h-241v30l45 11q17 4 22.5 10.5t3.5 20.5l-15 105h-214l-47 -82q-26 -47 8 -54l46 -11v-30h-211v29zM306 474l-145 -251h180zM355 -176q0 50 50.5 89.5t95.5 54.5h25q-108 -66 -108 -143
q0 -53 59 -53q24 0 64 24l-12 -36q-19 -12 -68 -12q-106 0 -106 76z" />
    <glyph glyph-name="aogonek" unicode="&#x105;" horiz-adv-x="538" 
d="M38 117q0 93 35.5 175.5t103 135t150.5 52.5q58 0 92 -40l56 40h40l-35 -94l-68 -243q-15 -51 -15 -80q0 -16 4 -23q28 3 52.5 23t38.5 44l17 -26q-20 -38 -59.5 -65.5t-86.5 -27.5q-29 0 -45 17t-16 47q0 38 11 77q-80 -141 -180 -141q-43 0 -69 32.5t-26 96.5zM181 56
q31 0 76.5 45t77.5 100l63 212q-23 22 -62 22q-80 0 -139.5 -93.5t-59.5 -209.5q0 -41 10.5 -58.5t33.5 -17.5zM200 -176q0 35 30 68t60.5 50.5t56.5 25.5h24q-108 -66 -108 -143q0 -53 59 -53q24 0 64 24l-12 -36q-19 -12 -68 -12q-106 0 -106 76z" />
    <glyph glyph-name="Cacute" unicode="&#x106;" horiz-adv-x="647" 
d="M52 226q0 74 26 145.5t75.5 131.5t131 96.5t181.5 36.5q93 0 154 -39l27 28h17l-52 -214h-28q0 98 -10 138q-34 50 -122 50q-67 0 -123 -35.5t-91 -91t-54 -120.5t-19 -128q0 -100 44.5 -149.5t114.5 -49.5q37 0 71.5 11.5t53.5 27.5q40 40 99 148h29l-64 -189
q-74 -35 -204 -35q-113 0 -185 56.5t-72 181.5zM421 695l65 140q12 27 23.5 38t32.5 11q14 0 24.5 -10t10.5 -25q0 -26 -33 -56l-101 -98h-22z" />
    <glyph glyph-name="cacute" unicode="&#x107;" horiz-adv-x="419" 
d="M38 144q0 84 34 160.5t97.5 126t139.5 49.5q47 0 77.5 -21t30.5 -51q0 -22 -11.5 -34.5t-31.5 -12.5q-28 0 -42 18.5t-20 55.5q-7 7 -26 7q-49 -9 -96.5 -93t-47.5 -201q0 -84 49 -100q50 0 85 27.5t64 78.5l23 -21q-29 -61 -79 -103t-112 -42q-134 0 -134 156zM264 536
l64 140q12 26 24 37.5t33 11.5q14 0 24.5 -10t10.5 -25q0 -25 -33 -56l-101 -98h-22z" />
    <glyph glyph-name="Ccircumflex" unicode="&#x108;" horiz-adv-x="647" 
d="M52 226q0 74 26 145.5t75.5 131.5t131 96.5t181.5 36.5q93 0 154 -39l27 28h17l-52 -214h-28q0 98 -10 138q-34 50 -122 50q-67 0 -123 -35.5t-91 -91t-54 -120.5t-19 -128q0 -100 44.5 -149.5t114.5 -49.5q37 0 71.5 11.5t53.5 27.5q40 40 99 148h29l-64 -189
q-74 -35 -204 -35q-113 0 -185 56.5t-72 181.5zM320 695l168 176h32l80 -176h-33l-78 96h-4l-130 -96h-35z" />
    <glyph glyph-name="ccircumflex" unicode="&#x109;" horiz-adv-x="419" 
d="M38 144q0 84 34 160.5t97.5 126t139.5 49.5q47 0 77.5 -21t30.5 -51q0 -22 -11.5 -34.5t-31.5 -12.5q-28 0 -42 18.5t-20 55.5q-7 7 -26 7q-49 -9 -96.5 -93t-47.5 -201q0 -84 49 -100q50 0 85 27.5t64 78.5l23 -21q-29 -61 -79 -103t-112 -42q-134 0 -134 156zM163 536
l168 176h32l80 -176h-34l-77 96h-4l-131 -96h-34z" />
    <glyph glyph-name="Cdotaccent" unicode="&#x10a;" horiz-adv-x="647" 
d="M52 226q0 74 26 145.5t75.5 131.5t131 96.5t181.5 36.5q93 0 154 -39l27 28h17l-52 -214h-28q0 98 -10 138q-34 50 -122 50q-67 0 -123 -35.5t-91 -91t-54 -120.5t-19 -128q0 -100 44.5 -149.5t114.5 -49.5q37 0 71.5 11.5t53.5 27.5q40 40 99 148h29l-64 -189
q-74 -35 -204 -35q-113 0 -185 56.5t-72 181.5zM470 698q-22 0 -34 14t-12 35q0 35 22 57.5t53 22.5q22 0 33.5 -13.5t11.5 -35.5q0 -35 -21.5 -57.5t-52.5 -22.5z" />
    <glyph glyph-name="cdotaccent" unicode="&#x10b;" horiz-adv-x="419" 
d="M38 144q0 84 34 160.5t97.5 126t139.5 49.5q47 0 77.5 -21t30.5 -51q0 -22 -11.5 -34.5t-31.5 -12.5q-28 0 -42 18.5t-20 55.5q-7 7 -26 7q-49 -9 -96.5 -93t-47.5 -201q0 -84 49 -100q50 0 85 27.5t64 78.5l23 -21q-29 -61 -79 -103t-112 -42q-134 0 -134 156zM312 539
q-22 0 -33.5 13.5t-11.5 35.5q0 35 22 57.5t53 22.5q22 0 33.5 -13.5t11.5 -35.5q0 -35 -22 -57.5t-53 -22.5z" />
    <glyph glyph-name="Ccaron" unicode="&#x10c;" horiz-adv-x="647" 
d="M52 226q0 74 26 145.5t75.5 131.5t131 96.5t181.5 36.5q93 0 154 -39l27 28h17l-52 -214h-28q0 98 -10 138q-34 50 -122 50q-67 0 -123 -35.5t-91 -91t-54 -120.5t-19 -128q0 -100 44.5 -149.5t114.5 -49.5q37 0 71.5 11.5t53.5 27.5q40 40 99 148h29l-64 -189
q-74 -35 -204 -35q-113 0 -185 56.5t-72 181.5zM448 695l-80 176h34l78 -95h4l130 95h34l-168 -176h-32z" />
    <glyph glyph-name="ccaron" unicode="&#x10d;" horiz-adv-x="419" 
d="M38 144q0 84 34 160.5t97.5 126t139.5 49.5q47 0 77.5 -21t30.5 -51q0 -22 -11.5 -34.5t-31.5 -12.5q-28 0 -42 18.5t-20 55.5q-7 7 -26 7q-49 -9 -96.5 -93t-47.5 -201q0 -84 49 -100q50 0 85 27.5t64 78.5l23 -21q-29 -61 -79 -103t-112 -42q-134 0 -134 156zM291 536
l-80 176h33l78 -96h4l130 96h35l-168 -176h-32z" />
    <glyph glyph-name="Dcaron" unicode="&#x10e;" horiz-adv-x="687" 
d="M-18 0v30l55 12q18 4 25 10.5t11 21.5l119 457q7 27 3.5 35.5t-19.5 11.5l-50 12v30h279q123 0 193.5 -59.5t70.5 -169.5q0 -166 -105.5 -278.5t-271.5 -112.5h-310zM388 583h-11q-37 0 -70 -10l-134 -523q37 -13 82 -13h14q87 0 155 52.5t101 131.5t33 167
q0 195 -170 195zM403 695l-80 176h34l78 -95h4l130 95h34l-168 -176h-32z" />
    <glyph glyph-name="dcaron" unicode="&#x10f;" horiz-adv-x="551" 
d="M38 117q0 93 35.5 175.5t103 135t150.5 52.5q47 0 78 -27l42 149q5 18 -1 26.5t-29 13.5l-52 12v23l168 31h39l-36 -104l-124 -463q-15 -51 -15 -78q0 -16 4 -23q28 3 52.5 23t38.5 44l17 -26q-21 -38 -61 -65.5t-86 -27.5q-29 0 -44.5 17t-15.5 47q0 36 12 77
q-82 -141 -181 -141q-43 0 -69 32.5t-26 96.5zM181 56q31 0 75.5 43.5t76.5 98.5l62 218q-23 19 -59 19q-80 0 -139.5 -93.5t-59.5 -209.5q0 -41 10.5 -58.5t33.5 -17.5zM630 524h-51q49 37 76 88q-42 5 -42 44q0 25 16 40.5t44 15.5q24 0 38.5 -13t14.5 -36q0 -30 -30 -72
t-66 -67z" />
    <glyph glyph-name="Dcroat" unicode="&#x110;" horiz-adv-x="687" 
d="M62 303l8 38h72l50 190q7 27 3.5 35.5t-19.5 11.5l-50 12v30h279q123 0 193.5 -59.5t70.5 -169.5q0 -166 -105.5 -278.5t-271.5 -112.5h-310v30l55 12q18 4 25 10.5t11 21.5l59 229h-70zM388 583h-11q-37 0 -70 -10l-60 -232h119l-8 -38h-120l-65 -253q37 -13 82 -13h14
q87 0 155 52.5t101 131.5t33 167q0 195 -170 195z" />
    <glyph glyph-name="dcroat" unicode="&#x111;" horiz-adv-x="551" 
d="M310 552v35h133l4 15q5 18 -1 26.5t-29 13.5l-52 12v23l168 31h39l-36 -104l-5 -17h62v-35h-71l-110 -411q-15 -51 -15 -78q0 -16 4 -23q28 3 52.5 23t38.5 44l17 -26q-21 -38 -61 -65.5t-86 -27.5q-29 0 -44.5 17t-15.5 47q0 36 12 77q-82 -141 -181 -141
q-43 0 -69 32.5t-26 96.5q0 93 35.5 175.5t103 135t150.5 52.5q47 0 78 -27l28 99h-123zM181 56q31 0 75.5 43.5t76.5 98.5l62 218q-23 19 -59 19q-80 0 -139.5 -93.5t-59.5 -209.5q0 -41 10.5 -58.5t33.5 -17.5z" />
    <glyph glyph-name="Emacron" unicode="&#x112;" horiz-adv-x="573" 
d="M-18 0v30l55 12q18 4 25 10.5t11 21.5l119 457q7 27 3.5 35.5t-19.5 11.5l-50 12v30h389q40 0 72 8l-32 -196h-28q0 89 -18 122q-33 28 -116 28h-9q-45 0 -78 -11l-58 -228h100q22 13 44.5 40.5t30.5 49.5h24l-60 -234h-24q0 74 -24 102h-102l-64 -254q27 -9 93 -9h12
q84 0 126 25q23 21 50 60.5t39 68.5h29l-68 -192h-472zM270 709l13 49h249l-13 -49h-249z" />
    <glyph glyph-name="emacron" unicode="&#x113;" horiz-adv-x="452" 
d="M38 141q0 132 78 235.5t199 103.5q117 0 117 -91q0 -64 -51 -97.5t-137 -50.5l-95 -16q-7 -39 -7 -80q0 -43 17.5 -68t38.5 -29q112 0 162 102l23 -21q-32 -63 -86 -102t-121 -39q-66 0 -102 38t-36 115zM300 442q-49 0 -86 -52t-57 -131l71 15q53 11 83 41t30 73
q0 54 -41 54zM187 550l13 49h248l-13 -49h-248z" />
    <glyph glyph-name="Ebreve" unicode="&#x114;" horiz-adv-x="573" 
d="M-18 0v30l55 12q18 4 25 10.5t11 21.5l119 457q7 27 3.5 35.5t-19.5 11.5l-50 12v30h389q40 0 72 8l-32 -196h-28q0 89 -18 122q-33 28 -116 28h-9q-45 0 -78 -11l-58 -228h100q22 13 44.5 40.5t30.5 49.5h24l-60 -234h-24q0 74 -24 102h-102l-64 -254q27 -9 93 -9h12
q84 0 126 25q23 21 50 60.5t39 68.5h29l-68 -192h-472zM396 695q-59 0 -79 39.5t-6 92.5h27q-2 -33 15.5 -53.5t53.5 -20.5t64 20.5t43 53.5h26q-12 -56 -48 -94t-96 -38z" />
    <glyph glyph-name="ebreve" unicode="&#x115;" horiz-adv-x="452" 
d="M38 141q0 132 78 235.5t199 103.5q117 0 117 -91q0 -64 -51 -97.5t-137 -50.5l-95 -16q-7 -39 -7 -80q0 -43 17.5 -68t38.5 -29q112 0 162 102l23 -21q-32 -63 -86 -102t-121 -39q-66 0 -102 38t-36 115zM300 442q-49 0 -86 -52t-57 -131l71 15q53 11 83 41t30 73
q0 54 -41 54zM312 536q-58 0 -78 39.5t-6 92.5h26q-2 -33 15.5 -53.5t53.5 -20.5t64 20.5t43 53.5h27q-14 -57 -49 -94.5t-96 -37.5z" />
    <glyph glyph-name="Edotaccent" unicode="&#x116;" horiz-adv-x="573" 
d="M-18 0v30l55 12q18 4 25 10.5t11 21.5l119 457q7 27 3.5 35.5t-19.5 11.5l-50 12v30h389q40 0 72 8l-32 -196h-28q0 89 -18 122q-33 28 -116 28h-9q-45 0 -78 -11l-58 -228h100q22 13 44.5 40.5t30.5 49.5h24l-60 -234h-24q0 74 -24 102h-102l-64 -254q27 -9 93 -9h12
q84 0 126 25q23 21 50 60.5t39 68.5h29l-68 -192h-472zM401 698q-22 0 -33.5 13.5t-11.5 35.5q0 35 21.5 57.5t52.5 22.5q22 0 34 -14t12 -35q0 -35 -22 -57.5t-53 -22.5z" />
    <glyph glyph-name="edotaccent" unicode="&#x117;" horiz-adv-x="452" 
d="M38 141q0 132 78 235.5t199 103.5q117 0 117 -91q0 -64 -51 -97.5t-137 -50.5l-95 -16q-7 -39 -7 -80q0 -43 17.5 -68t38.5 -29q112 0 162 102l23 -21q-32 -63 -86 -102t-121 -39q-66 0 -102 38t-36 115zM300 442q-49 0 -86 -52t-57 -131l71 15q53 11 83 41t30 73
q0 54 -41 54zM317 539q-22 0 -33.5 13.5t-11.5 35.5q0 35 22 57.5t53 22.5q22 0 33.5 -13.5t11.5 -35.5q0 -35 -22 -57.5t-53 -22.5z" />
    <glyph glyph-name="Eogonek" unicode="&#x118;" horiz-adv-x="573" 
d="M-18 0v30l55 12q18 4 25 10.5t11 21.5l119 457q7 27 3.5 35.5t-19.5 11.5l-50 12v30h389q40 0 72 8l-32 -196h-28q0 89 -18 122q-33 28 -116 28h-9q-45 0 -78 -11l-58 -228h100q22 13 44.5 40.5t30.5 49.5h24l-60 -234h-24q0 74 -24 102h-102l-64 -254q27 -9 93 -9h12
q84 0 126 25q23 21 50 60.5t39 68.5h29l-68 -192h-472zM275 -176q0 50 50.5 89.5t95.5 54.5h25q-108 -66 -108 -143q0 -53 59 -53q24 0 64 24l-12 -36q-19 -12 -68 -12q-106 0 -106 76z" />
    <glyph glyph-name="eogonek" unicode="&#x119;" horiz-adv-x="452" 
d="M38 141q0 132 78 235.5t199 103.5q117 0 117 -91q0 -64 -51 -97.5t-137 -50.5l-95 -16q-7 -39 -7 -80q0 -43 17.5 -68t38.5 -29q112 0 162 102l23 -21q-32 -63 -86 -102t-121 -39q-66 0 -102 38t-36 115zM300 442q-49 0 -86 -52t-57 -131l71 15q53 11 83 41t30 73
q0 54 -41 54zM38 -176q0 35 30 68t60.5 50.5t56.5 25.5h25q-109 -65 -109 -143q0 -53 59 -53q24 0 64 24l-12 -36q-19 -12 -68 -12q-106 0 -106 76z" />
    <glyph glyph-name="Ecaron" unicode="&#x11a;" horiz-adv-x="573" 
d="M-18 0v30l55 12q18 4 25 10.5t11 21.5l119 457q7 27 3.5 35.5t-19.5 11.5l-50 12v30h389q40 0 72 8l-32 -196h-28q0 89 -18 122q-33 28 -116 28h-9q-45 0 -78 -11l-58 -228h100q22 13 44.5 40.5t30.5 49.5h24l-60 -234h-24q0 74 -24 102h-102l-64 -254q27 -9 93 -9h12
q84 0 126 25q23 21 50 60.5t39 68.5h29l-68 -192h-472zM379 695l-80 176h34l78 -95h4l130 95h35l-168 -176h-33z" />
    <glyph glyph-name="ecaron" unicode="&#x11b;" horiz-adv-x="452" 
d="M38 141q0 132 78 235.5t199 103.5q117 0 117 -91q0 -64 -51 -97.5t-137 -50.5l-95 -16q-7 -39 -7 -80q0 -43 17.5 -68t38.5 -29q112 0 162 102l23 -21q-32 -63 -86 -102t-121 -39q-66 0 -102 38t-36 115zM300 442q-49 0 -86 -52t-57 -131l71 15q53 11 83 41t30 73
q0 54 -41 54zM296 536l-80 176h33l78 -96h4l130 96h35l-168 -176h-32z" />
    <glyph glyph-name="Gcircumflex" unicode="&#x11c;" horiz-adv-x="684" 
d="M52 225q0 179 117 295t284 116q106 0 170 -39l27 27h17l-51 -213h-28q0 94 -11 138q-37 50 -131 50q-78 0 -143 -53.5t-101.5 -139.5t-36.5 -184q0 -97 44 -147t114 -50q73 0 123 41l47 164q9 24 -25 32l-52 14v30h237v-27l-29 -8q-15 -5 -20.5 -10.5t-10.5 -21.5
l-50 -175v-20q-87 -56 -239 -56q-110 0 -181 57t-71 180zM321 695l168 176h32l80 -176h-33l-78 96h-4l-130 -96h-35z" />
    <glyph glyph-name="gcircumflex" unicode="&#x11d;" horiz-adv-x="472" 
d="M66 -34l41 15q-43 21 -43 59q0 51 97 101q-105 11 -105 117q0 93 60.5 157.5t156.5 64.5q45 0 77 -19t42 -54q31 109 87 109q21 0 32.5 -11t11.5 -30q0 -23 -12.5 -37t-30.5 -14q-23 0 -47 20q-24 -35 -37 -112q-14 -86 -70.5 -139t-138.5 -53q-42 -30 -42 -58
q0 -26 40 -31l108 -12q51 -6 75.5 -25.5t24.5 -57.5q0 -73 -85 -138.5t-200 -65.5q-69 0 -114 23.5t-45 77.5q0 71 117 113zM228 -40l-81 9q-15 2 -22 5q-37 -19 -62 -46.5t-25 -58.5q0 -65 87 -65q81 0 130 28.5t49 78.5q0 43 -76 49zM208 174q39 0 69.5 56t30.5 138
q0 74 -63 74q-39 0 -69 -55t-30 -136q0 -42 13.5 -59.5t48.5 -17.5zM130 536l168 176h32l80 -176h-34l-77 96h-4l-131 -96h-34z" />
    <glyph glyph-name="Gbreve" unicode="&#x11e;" horiz-adv-x="684" 
d="M52 225q0 179 117 295t284 116q106 0 170 -39l27 27h17l-51 -213h-28q0 94 -11 138q-37 50 -131 50q-78 0 -143 -53.5t-101.5 -139.5t-36.5 -184q0 -97 44 -147t114 -50q73 0 123 41l47 164q9 24 -25 32l-52 14v30h237v-27l-29 -8q-15 -5 -20.5 -10.5t-10.5 -21.5
l-50 -175v-20q-87 -56 -239 -56q-110 0 -181 57t-71 180zM466 695q-59 0 -79 39.5t-6 92.5h27q-2 -33 15.5 -53.5t52.5 -20.5q36 0 64.5 20.5t43.5 53.5h26q-12 -55 -48.5 -93.5t-95.5 -38.5z" />
    <glyph glyph-name="gbreve" unicode="&#x11f;" horiz-adv-x="472" 
d="M66 -34l41 15q-43 21 -43 59q0 51 97 101q-105 11 -105 117q0 93 60.5 157.5t156.5 64.5q45 0 77 -19t42 -54q31 109 87 109q21 0 32.5 -11t11.5 -30q0 -23 -12.5 -37t-30.5 -14q-23 0 -47 20q-24 -35 -37 -112q-14 -86 -70.5 -139t-138.5 -53q-42 -30 -42 -58
q0 -26 40 -31l108 -12q51 -6 75.5 -25.5t24.5 -57.5q0 -73 -85 -138.5t-200 -65.5q-69 0 -114 23.5t-45 77.5q0 71 117 113zM228 -40l-81 9q-15 2 -22 5q-37 -19 -62 -46.5t-25 -58.5q0 -65 87 -65q81 0 130 28.5t49 78.5q0 43 -76 49zM208 174q39 0 69.5 56t30.5 138
q0 74 -63 74q-39 0 -69 -55t-30 -136q0 -42 13.5 -59.5t48.5 -17.5zM275 536q-59 0 -79 39.5t-6 92.5h26q-2 -33 15.5 -53.5t53.5 -20.5t64 20.5t43 53.5h27q-12 -55 -48.5 -93.5t-95.5 -38.5z" />
    <glyph glyph-name="Gdotaccent" unicode="&#x120;" horiz-adv-x="684" 
d="M52 225q0 179 117 295t284 116q106 0 170 -39l27 27h17l-51 -213h-28q0 94 -11 138q-37 50 -131 50q-78 0 -143 -53.5t-101.5 -139.5t-36.5 -184q0 -97 44 -147t114 -50q73 0 123 41l47 164q9 24 -25 32l-52 14v30h237v-27l-29 -8q-15 -5 -20.5 -10.5t-10.5 -21.5
l-50 -175v-20q-87 -56 -239 -56q-110 0 -181 57t-71 180zM471 698q-22 0 -34 14t-12 35q0 35 22 57.5t53 22.5q22 0 33.5 -13.5t11.5 -35.5q0 -35 -21.5 -57.5t-52.5 -22.5z" />
    <glyph glyph-name="gdotaccent" unicode="&#x121;" horiz-adv-x="472" 
d="M66 -34l41 15q-43 21 -43 59q0 51 97 101q-105 11 -105 117q0 93 60.5 157.5t156.5 64.5q45 0 77 -19t42 -54q31 109 87 109q21 0 32.5 -11t11.5 -30q0 -23 -12.5 -37t-30.5 -14q-23 0 -47 20q-24 -35 -37 -112q-14 -86 -70.5 -139t-138.5 -53q-42 -30 -42 -58
q0 -26 40 -31l108 -12q51 -6 75.5 -25.5t24.5 -57.5q0 -73 -85 -138.5t-200 -65.5q-69 0 -114 23.5t-45 77.5q0 71 117 113zM228 -40l-81 9q-15 2 -22 5q-37 -19 -62 -46.5t-25 -58.5q0 -65 87 -65q81 0 130 28.5t49 78.5q0 43 -76 49zM208 174q39 0 69.5 56t30.5 138
q0 74 -63 74q-39 0 -69 -55t-30 -136q0 -42 13.5 -59.5t48.5 -17.5zM280 539q-22 0 -34 14t-12 35q0 35 22 57.5t53 22.5q22 0 33.5 -13.5t11.5 -35.5q0 -34 -22 -57t-52 -23z" />
    <glyph glyph-name="Gcommaaccent" unicode="&#x122;" horiz-adv-x="684" 
d="M52 225q0 179 117 295t284 116q106 0 170 -39l27 27h17l-51 -213h-28q0 94 -11 138q-37 50 -131 50q-78 0 -143 -53.5t-101.5 -139.5t-36.5 -184q0 -97 44 -147t114 -50q73 0 123 41l47 164q9 24 -25 32l-52 14v30h237v-27l-29 -8q-15 -5 -20.5 -10.5t-10.5 -21.5
l-50 -175v-20q-87 -56 -239 -56q-110 0 -181 57t-71 180zM228 -108q0 25 15.5 40.5t43.5 15.5q24 0 38.5 -13t14.5 -36q0 -30 -30 -72t-66 -67h-50q49 37 76 88q-42 5 -42 44z" />
    <glyph glyph-name="gcommaaccent" unicode="&#x123;" horiz-adv-x="472" 
d="M66 -34l41 15q-43 21 -43 59q0 51 97 101q-105 11 -105 117q0 93 60.5 157.5t156.5 64.5q45 0 77 -19t42 -54q31 109 87 109q21 0 32.5 -11t11.5 -30q0 -23 -12.5 -37t-30.5 -14q-23 0 -47 20q-24 -35 -37 -112q-14 -86 -70.5 -139t-138.5 -53q-42 -30 -42 -58
q0 -26 40 -31l108 -12q51 -6 75.5 -25.5t24.5 -57.5q0 -73 -85 -138.5t-200 -65.5q-69 0 -114 23.5t-45 77.5q0 71 117 113zM228 -40l-81 9q-15 2 -22 5q-37 -19 -62 -46.5t-25 -58.5q0 -65 87 -65q81 0 130 28.5t49 78.5q0 43 -76 49zM208 174q39 0 69.5 56t30.5 138
q0 74 -63 74q-39 0 -69 -55t-30 -136q0 -42 13.5 -59.5t48.5 -17.5zM286 542q-24 0 -38.5 13t-14.5 36q0 30 29.5 72t65.5 67h51q-49 -37 -76 -88q42 -5 42 -44q0 -25 -15.5 -40.5t-43.5 -15.5z" />
    <glyph glyph-name="Hcircumflex" unicode="&#x124;" horiz-adv-x="742" 
d="M-18 0v30l55 12q18 4 25 10.5t11 21.5l119 457q7 27 3.5 35.5t-19.5 11.5l-50 12v30h266v-30l-50 -12q-32 -6 -39 -30l-53 -203h294l49 186q7 27 3 35.5t-20 11.5l-49 12v30h266v-30l-50 -12q-32 -6 -39 -30l-120 -460q-6 -26 -2 -34.5t19 -11.5l50 -12v-30h-268v30
l55 12q18 4 25 10.5t11 21.5l58 224h-294l-55 -210q-6 -26 -2 -34.5t19 -11.5l50 -12v-30h-268zM335 695l168 176h32l80 -176h-34l-77 96h-4l-131 -96h-34z" />
    <glyph glyph-name="hcircumflex" unicode="&#x125;" horiz-adv-x="550" 
d="M313 52q0 35 19 97l56 173q15 49 15 61q0 25 -29 25q-34 0 -90.5 -55.5t-102.5 -133.5l-58 -219h-96l168 602q4 16 -2 25.5t-28 14.5l-53 12v23l168 31h39l-36 -103l-88 -333q110 208 222 208q82 0 82 -76q0 -28 -16 -83l-56 -175q-19 -65 -19 -83q0 -15 4 -23
q29 3 53.5 22.5t38.5 44.5l17 -26q-20 -38 -59.5 -65.5t-86.5 -27.5q-30 0 -46 17t-16 47zM125 764l168 176h33l80 -176h-34l-78 96h-4l-130 -96h-35z" />
    <glyph glyph-name="Hbar" unicode="&#x126;" horiz-adv-x="742" 
d="M72 451l8 37h100l12 43q7 27 3.5 35.5t-19.5 11.5l-50 12v30h266v-30l-50 -12q-32 -6 -39 -30l-16 -60h294l12 43q7 27 3 35.5t-20 11.5l-49 12v30h266v-30l-50 -12q-32 -6 -39 -30l-16 -60h101l-8 -37h-103l-94 -363q-6 -26 -2 -34.5t19 -11.5l50 -12v-30h-268v30l55 12
q18 4 25 10.5t11 21.5l58 224h-295l-54 -210q-6 -26 -2 -34.5t19 -11.5l50 -12v-30h-268v30l55 12q18 4 25 10.5t11 21.5l98 377h-99zM277 451l-27 -106h294l28 106h-295z" />
    <glyph glyph-name="hbar" unicode="&#x127;" horiz-adv-x="550" 
d="M112 552v35h79l4 15q4 16 -2 25.5t-28 14.5l-53 12v23l168 31h39l-36 -103l-5 -18h117v-35h-126l-74 -280q110 208 222 208q82 0 82 -76q0 -28 -16 -83l-56 -175q-19 -65 -19 -83q0 -15 4 -23q29 3 53.5 22.5t38.5 44.5l17 -26q-20 -38 -59.5 -65.5t-86.5 -27.5
q-30 0 -46 17t-16 47q0 35 19 97l56 173q15 49 15 61q0 25 -29 25q-34 0 -90.5 -55.5t-102.5 -133.5l-58 -219h-96l154 552h-69z" />
    <glyph glyph-name="Itilde" unicode="&#x128;" horiz-adv-x="338" 
d="M-18 0v30l55 12q18 4 25 10.5t11 21.5l119 457q7 27 3.5 35.5t-19.5 11.5l-50 12v30h267v-30l-51 -12q-32 -6 -39 -30l-120 -460q-6 -26 -2 -34.5t19 -11.5l50 -12v-30h-268zM166 693h-24q6 23 12.5 39t18 34.5t30.5 28t44 9.5q30 0 61.5 -26t51.5 -26q18 0 33.5 15.5
t20.5 36.5h25q-30 -111 -106 -111q-30 0 -62 26t-51 26t-33.5 -15t-20.5 -37z" />
    <glyph glyph-name="itilde" unicode="&#x129;" horiz-adv-x="294" 
d="M52 52q0 38 16 88l73 244q5 16 -1.5 23t-26.5 11l-49 11v23l150 28h52l-36 -101l-67 -238q-16 -54 -16 -77q0 -15 4 -24q56 5 91 67l17 -26q-20 -38 -59.5 -65.5t-86.5 -27.5q-29 0 -45 17t-16 47zM121 534h-25q6 23 12.5 39t18 34.5t30.5 28t44 9.5q30 0 61.5 -26
t51.5 -26q18 0 33.5 15.5t20.5 36.5h25q-30 -111 -106 -111q-30 0 -61 26t-51 26q-19 0 -33.5 -15t-20.5 -37z" />
    <glyph glyph-name="Imacron" unicode="&#x12a;" horiz-adv-x="338" 
d="M-18 0v30l55 12q18 4 25 10.5t11 21.5l119 457q7 27 3.5 35.5t-19.5 11.5l-50 12v30h267v-30l-51 -12q-32 -6 -39 -30l-120 -460q-6 -26 -2 -34.5t19 -11.5l50 -12v-30h-268zM154 709l13 49h248l-13 -49h-248z" />
    <glyph glyph-name="imacron" unicode="&#x12b;" horiz-adv-x="294" 
d="M52 52q0 38 16 88l73 244q5 16 -1.5 23t-26.5 11l-49 11v23l150 28h52l-36 -101l-67 -238q-16 -54 -16 -77q0 -15 4 -24q56 5 91 67l17 -26q-20 -38 -59.5 -65.5t-86.5 -27.5q-29 0 -45 17t-16 47zM108 550l13 49h248l-12 -49h-249z" />
    <glyph glyph-name="Ibreve" unicode="&#x12c;" horiz-adv-x="338" 
d="M-18 0v30l55 12q18 4 25 10.5t11 21.5l119 457q7 27 3.5 35.5t-19.5 11.5l-50 12v30h267v-30l-51 -12q-32 -6 -39 -30l-120 -460q-6 -26 -2 -34.5t19 -11.5l50 -12v-30h-268zM280 695q-59 0 -79 39.5t-6 92.5h26q-2 -33 15.5 -53.5t53.5 -20.5t64 20.5t43 53.5h27
q-12 -55 -48.5 -93.5t-95.5 -38.5z" />
    <glyph glyph-name="ibreve" unicode="&#x12d;" horiz-adv-x="294" 
d="M52 52q0 38 16 88l73 244q5 16 -1.5 23t-26.5 11l-49 11v23l150 28h52l-36 -101l-67 -238q-16 -54 -16 -77q0 -15 4 -24q56 5 91 67l17 -26q-20 -38 -59.5 -65.5t-86.5 -27.5q-29 0 -45 17t-16 47zM234 536q-59 0 -79 39.5t-6 92.5h27q-2 -33 15.5 -53.5t52.5 -20.5
q36 0 64.5 20.5t43.5 53.5h26q-12 -55 -48.5 -93.5t-95.5 -38.5z" />
    <glyph glyph-name="Iogonek" unicode="&#x12e;" horiz-adv-x="338" 
d="M-18 0v30l55 12q18 4 25 10.5t11 21.5l119 457q7 27 3.5 35.5t-19.5 11.5l-50 12v30h267v-30l-51 -12q-32 -6 -39 -30l-120 -460q-6 -26 -2 -34.5t19 -11.5l50 -12v-30h-268zM70 -176q0 35 30 68t60.5 50.5t56.5 25.5h25q-109 -65 -109 -143q0 -53 59 -53q24 0 64 24
l-12 -36q-19 -12 -68 -12q-106 0 -106 76z" />
    <glyph glyph-name="iogonek" unicode="&#x12f;" horiz-adv-x="294" 
d="M238 581q-39 0 -39 44q0 34 20 58.5t51 24.5q40 0 40 -44q0 -32 -20 -57.5t-52 -25.5zM52 52q0 38 16 88l73 244q5 16 -1.5 23t-26.5 11l-49 11v23l150 28h52l-36 -101l-67 -238q-16 -54 -16 -77q0 -15 4 -24q56 5 91 67l17 -26q-20 -38 -59.5 -65.5t-86.5 -27.5
q-29 0 -45 17t-16 47zM-52 -176q0 50 50.5 89.5t95.5 54.5h25q-108 -66 -108 -143q0 -53 59 -53q24 0 64 24l-12 -36q-19 -12 -68 -12q-106 0 -106 76z" />
    <glyph glyph-name="Idotaccent" unicode="&#x130;" horiz-adv-x="338" 
d="M-18 0v30l55 12q18 4 25 10.5t11 21.5l119 457q7 27 3.5 35.5t-19.5 11.5l-50 12v30h267v-30l-51 -12q-32 -6 -39 -30l-120 -460q-6 -26 -2 -34.5t19 -11.5l50 -12v-30h-268zM284 698q-22 0 -33.5 13.5t-11.5 35.5q0 35 22 57.5t53 22.5q22 0 33.5 -13.5t11.5 -35.5
q0 -35 -22 -57.5t-53 -22.5z" />
    <glyph glyph-name="dotlessi" unicode="&#x131;" horiz-adv-x="294" 
d="M52 52q0 38 16 88l73 244q5 16 -1.5 23t-26.5 11l-49 11v23l150 28h52l-36 -101l-67 -238q-16 -54 -16 -77q0 -15 4 -24q56 5 91 67l17 -26q-20 -38 -59.5 -65.5t-86.5 -27.5q-29 0 -45 17t-16 47z" />
    <glyph glyph-name="IJ" unicode="&#x132;" horiz-adv-x="677" 
d="M178 -131q0 23 15.5 39t39.5 16q23 0 37 -14.5t14 -35.5q0 -20 -9 -43q83 0 116 135l142 565q6 27 2 35.5t-19 11.5l-49 12v30h265v-30l-50 -12q-33 -7 -38 -30l-135 -537q-54 -212 -236 -212q-37 0 -66 18.5t-29 51.5zM-18 0v30l55 12q18 4 25 10.5t11 21.5l119 457
q7 27 3.5 35.5t-19.5 11.5l-50 12v30h267v-30l-51 -12q-32 -6 -39 -30l-120 -460q-6 -26 -2 -34.5t19 -11.5l50 -12v-30h-268z" />
    <glyph glyph-name="ij" unicode="&#x133;" horiz-adv-x="579" 
d="M135 -118q39 0 51 -42l15 -54h5q39 0 64.5 37t47.5 122l114 439q5 17 -2 23.5t-26 10.5l-50 11v23l138 28h56l-127 -522q-26 -108 -81.5 -157t-141.5 -49q-46 0 -79.5 22.5t-33.5 55.5q0 23 13.5 37.5t36.5 14.5zM52 52q0 38 16 88l73 244q5 16 -1.5 23t-26.5 11l-49 11
v23l150 28h52l-36 -101l-67 -238q-16 -54 -16 -77q0 -15 4 -24q56 5 91 67l17 -26q-20 -38 -59.5 -65.5t-86.5 -27.5q-29 0 -45 17t-16 47zM531 581q-39 0 -39 44q0 34 20 58.5t51 24.5q40 0 40 -44q0 -32 -20 -57.5t-52 -25.5zM238 581q-39 0 -39 44q0 34 20 58.5t51 24.5
q40 0 40 -44q0 -32 -20 -57.5t-52 -25.5z" />
    <glyph glyph-name="Jcircumflex" unicode="&#x134;" horiz-adv-x="339" 
d="M54 -34l141 565q6 27 2 35.5t-19 11.5l-49 12v30h266v-30l-51 -12q-33 -7 -38 -30l-135 -537q-54 -212 -236 -212q-37 0 -66 18.5t-29 51.5q0 23 16 39t39 16t37.5 -14.5t13.5 -35.5q0 -24 -9 -43q82 0 117 135zM136 695l168 176h33l80 -176h-34l-78 96h-4l-130 -96h-35z
" />
    <glyph glyph-name="jcircumflex" unicode="&#x135;" horiz-adv-x="285" 
d="M24 -55l114 439q5 17 -2 23.5t-26 10.5l-50 11v23l139 28h56l-128 -522q-26 -108 -81.5 -157t-141.5 -49q-48 0 -80 22t-32 56q0 23 13 37.5t36 14.5q39 0 51 -42l15 -54h5q39 0 65 37.5t47 121.5zM73 536l168 176h33l80 -176h-34l-78 96h-4l-130 -96h-35z" />
    <glyph glyph-name="Kcommaaccent" unicode="&#x136;" horiz-adv-x="632" 
d="M350 129l-79 160q-8 14 -20 17v8q12 4 44 30l227 204q7 7 10 10.5t6 9t-0.5 9t-12.5 5.5l-39 8v30h221v-30l-37 -9q-37 -9 -74 -38l-240 -195l96 -187q49 -96 86 -119l59 -12v-30h-161q-42 40 -86 129zM-18 0v30l55 12q18 4 25 10.5t11 21.5l119 457q7 27 3.5 35.5
t-19.5 11.5l-50 12v30h267v-30l-51 -12q-32 -6 -39 -30l-120 -460q-6 -26 -2 -34.5t19 -11.5l50 -12v-30h-268zM241 -108q0 25 15.5 40.5t43.5 15.5q24 0 38.5 -13t14.5 -36q0 -30 -29.5 -72t-65.5 -67h-51q49 37 76 88q-42 5 -42 44z" />
    <glyph glyph-name="kcommaaccent" unicode="&#x137;" horiz-adv-x="494" 
d="M27 0l168 602q4 16 -2 25.5t-28 14.5l-53 12v23l168 31h39l-36 -103l-160 -605h-96zM261 71l-33 108q-14 43 -33 51l111 143l14 18.5t16.5 21t17 19t20 19.5t20 14.5t22.5 11t23 3.5q27 0 44.5 -13t17.5 -37q0 -28 -17 -45t-46 -17q-39 0 -57 22l-111 -106q28 -16 52 -96
l28 -91q17 -57 49 -57q20 0 37 17.5t26 42.5l21 -24q-35 -88 -125 -88q-69 0 -97 83zM136 -108q0 25 16 40.5t44 15.5q24 0 38.5 -13t14.5 -36q0 -30 -30 -72t-66 -67h-50q49 37 76 88q-43 6 -43 44z" />
    <glyph glyph-name="Lacute" unicode="&#x139;" horiz-adv-x="518" 
d="M-18 0v30l55 12q18 4 25 10.5t11 21.5l119 457q7 27 3.5 35.5t-19.5 11.5l-50 12v30h273v-30l-60 -12q-32 -6 -39 -30l-128 -501q30 -9 94 -9h9q72 0 117 25q25 22 54 70t42 83h29l-76 -216h-459zM237 695l64 140q12 26 24 37.5t33 11.5q14 0 24 -10t10 -25
q0 -26 -32 -56l-101 -98h-22z" />
    <glyph glyph-name="lacute" unicode="&#x13a;" horiz-adv-x="293" 
d="M51 52q0 32 16 88l130 462q5 18 -1 26.5t-29 13.5l-52 12v23l168 31h39l-36 -103l-124 -464q-15 -51 -15 -78q0 -16 4 -23q28 3 52 22.5t38 44.5l17 -26q-20 -38 -59.5 -65.5t-86.5 -27.5q-29 0 -45 17t-16 47zM239 764l64 140q12 26 24 37.5t33 11.5q14 0 24 -10t10 -25
q0 -26 -32 -56l-102 -98h-21z" />
    <glyph glyph-name="Lcommaaccent" unicode="&#x13b;" horiz-adv-x="518" 
d="M-18 0v30l55 12q18 4 25 10.5t11 21.5l119 457q7 27 3.5 35.5t-19.5 11.5l-50 12v30h273v-30l-60 -12q-32 -6 -39 -30l-128 -501q30 -9 94 -9h9q72 0 117 25q25 22 54 70t42 83h29l-76 -216h-459zM165 -108q0 25 15.5 40.5t43.5 15.5q24 0 38.5 -13t14.5 -36
q0 -30 -29.5 -72t-65.5 -67h-51q49 37 76 88q-42 5 -42 44z" />
    <glyph glyph-name="lcommaaccent" unicode="&#x13c;" horiz-adv-x="293" 
d="M51 52q0 32 16 88l130 462q5 18 -1 26.5t-29 13.5l-52 12v23l168 31h39l-36 -103l-124 -464q-15 -51 -15 -78q0 -16 4 -23q28 3 52 22.5t38 44.5l17 -26q-20 -38 -59.5 -65.5t-86.5 -27.5q-29 0 -45 17t-16 47zM28 -108q0 25 16 40.5t44 15.5q24 0 38.5 -13t14.5 -36
q0 -30 -30 -72t-66 -67h-50q49 37 76 88q-43 6 -43 44z" />
    <glyph glyph-name="Lcaron" unicode="&#x13d;" horiz-adv-x="518" 
d="M-18 0v30l55 12q18 4 25 10.5t11 21.5l119 457q7 27 3.5 35.5t-19.5 11.5l-50 12v30h273v-30l-60 -12q-32 -6 -39 -30l-128 -501q30 -9 94 -9h9q72 0 117 25q25 22 54 70t42 83h29l-76 -216h-459zM466 440h-50q49 37 76 88q-43 6 -43 44q0 25 16 40.5t44 15.5
q24 0 38.5 -13t14.5 -36q0 -30 -30 -72t-66 -67z" />
    <glyph glyph-name="lcaron" unicode="&#x13e;" horiz-adv-x="297" 
d="M380 524h-51q49 37 76 88q-42 5 -42 44q0 25 16 40.5t44 15.5q24 0 38 -12.5t14 -36.5q0 -30 -29.5 -72t-65.5 -67zM51 52q0 32 16 88l130 462q5 18 -1 26.5t-29 13.5l-52 12v23l168 31h39l-36 -103l-124 -464q-15 -51 -15 -78q0 -16 4 -23q28 3 52 22.5t38 44.5l17 -26
q-20 -38 -59.5 -65.5t-86.5 -27.5q-29 0 -45 17t-16 47z" />
    <glyph glyph-name="Ldot" unicode="&#x13f;" horiz-adv-x="518" 
d="M-18 0v30l55 12q18 4 25 10.5t11 21.5l119 457q7 27 3.5 35.5t-19.5 11.5l-50 12v30h273v-30l-60 -12q-32 -6 -39 -30l-128 -501q30 -9 94 -9h9q72 0 117 25q25 22 54 70t42 83h29l-76 -216h-459zM317 333q0 33 21 55.5t51 22.5q22 0 37 -14t15 -38q0 -35 -20.5 -57
t-51.5 -22q-22 0 -37 14.5t-15 38.5z" />
    <glyph glyph-name="ldot" unicode="&#x140;" horiz-adv-x="371" 
d="M51 52q0 32 16 88l130 462q5 18 -1 26.5t-29 13.5l-52 12v23l168 31h39l-36 -103l-124 -464q-15 -51 -15 -78q0 -16 4 -23q28 3 52 22.5t38 44.5l17 -26q-20 -38 -59.5 -65.5t-86.5 -27.5q-29 0 -45 17t-16 47zM331 275q-22 0 -37 14.5t-15 38.5q0 35 21 57t51 22
q23 0 37.5 -14.5t14.5 -38.5q0 -35 -20.5 -57t-51.5 -22z" />
    <glyph glyph-name="Lslash" unicode="&#x141;" horiz-adv-x="518" 
d="M44 219l8 45l81 42l59 225q7 27 3.5 35.5t-19.5 11.5l-50 12v30h273v-30l-60 -12q-32 -6 -39 -30l-46 -179l117 61l-8 -46l-121 -63l-70 -274q30 -9 94 -9h9q72 0 117 25q25 22 54 70t42 83h29l-76 -216h-459v30l55 12q18 4 25 10.5t11 21.5l48 185z" />
    <glyph glyph-name="lslash" unicode="&#x142;" horiz-adv-x="296" 
d="M31 238v38l88 49l78 277q5 18 -1 26.5t-29 13.5l-52 12v23l168 31h39l-36 -103l-59 -220l85 47v-38l-97 -54l-53 -199q-15 -51 -15 -78q0 -16 4 -23q28 3 52 22.5t38 44.5l17 -26q-20 -38 -59.5 -65.5t-86.5 -27.5q-29 0 -45 17t-16 47q0 32 16 88l39 140z" />
    <glyph glyph-name="Nacute" unicode="&#x143;" horiz-adv-x="696" 
d="M-18 0v30l49 12q12 2 19.5 8t9.5 9.5t7 14.5q11 27 28 94l100 374q-20 29 -52 38l-31 9v31h164l239 -446l70 278q20 75 20 98t-25 28l-58 12v30h230v-30l-48 -12q-12 -3 -19.5 -9.5t-9 -9t-7.5 -13.5q-9 -18 -28 -94l-124 -464h-23l-265 494l-78 -314q-20 -75 -20 -98
t25 -28l57 -12v-30h-230zM410 695l65 140q12 27 23.5 38t32.5 11q14 0 24.5 -10t10.5 -25q0 -25 -33 -56l-101 -98h-22z" />
    <glyph glyph-name="nacute" unicode="&#x144;" horiz-adv-x="551" 
d="M28 0l108 374q7 21 3 30.5t-23 13.5l-57 11v23l132 28q28 -1 37.5 -23.5t2.5 -55.5l-32 -123q108 202 219 202q82 0 82 -76q0 -24 -17 -83l-55 -175q-19 -65 -19 -83q0 -15 4 -23q29 3 53.5 22.5t38.5 44.5l17 -26q-20 -38 -59.5 -65.5t-86.5 -27.5q-30 0 -46 17t-16 47
q0 35 19 97l55 173q16 46 16 61q0 25 -29 25q-33 0 -88.5 -53.5t-101.5 -129.5l-58 -225h-99zM296 536l64 140q12 26 24 37.5t33 11.5q14 0 24.5 -10t10.5 -25q0 -25 -33 -56l-101 -98h-22z" />
    <glyph glyph-name="Ncommaaccent" unicode="&#x145;" horiz-adv-x="696" 
d="M-18 0v30l49 12q12 2 19.5 8t9.5 9.5t7 14.5q11 27 28 94l100 374q-20 29 -52 38l-31 9v31h164l239 -446l70 278q20 75 20 98t-25 28l-58 12v30h230v-30l-48 -12q-12 -3 -19.5 -9.5t-9 -9t-7.5 -13.5q-9 -18 -28 -94l-124 -464h-23l-265 494l-78 -314q-20 -75 -20 -98
t25 -28l57 -12v-30h-230zM231 -108q0 25 16 40.5t44 15.5q24 0 38.5 -13t14.5 -36q0 -30 -30 -72t-66 -67h-51q49 37 76 88q-42 5 -42 44z" />
    <glyph glyph-name="ncommaaccent" unicode="&#x146;" horiz-adv-x="551" 
d="M28 0l108 374q7 21 3 30.5t-23 13.5l-57 11v23l132 28q28 -1 37.5 -23.5t2.5 -55.5l-32 -123q108 202 219 202q82 0 82 -76q0 -24 -17 -83l-55 -175q-19 -65 -19 -83q0 -15 4 -23q29 3 53.5 22.5t38.5 44.5l17 -26q-20 -38 -59.5 -65.5t-86.5 -27.5q-30 0 -46 17t-16 47
q0 35 19 97l55 173q16 46 16 61q0 25 -29 25q-33 0 -88.5 -53.5t-101.5 -129.5l-58 -225h-99zM140 -108q0 25 15.5 40.5t43.5 15.5q24 0 38.5 -13t14.5 -36q0 -30 -30 -72t-66 -67h-50q49 37 76 88q-42 5 -42 44z" />
    <glyph glyph-name="Ncaron" unicode="&#x147;" horiz-adv-x="696" 
d="M-18 0v30l49 12q12 2 19.5 8t9.5 9.5t7 14.5q11 27 28 94l100 374q-20 29 -52 38l-31 9v31h164l239 -446l70 278q20 75 20 98t-25 28l-58 12v30h230v-30l-48 -12q-12 -3 -19.5 -9.5t-9 -9t-7.5 -13.5q-9 -18 -28 -94l-124 -464h-23l-265 494l-78 -314q-20 -75 -20 -98
t25 -28l57 -12v-30h-230zM437 695l-80 176h34l77 -95h4l131 95h34l-168 -176h-32z" />
    <glyph glyph-name="ncaron" unicode="&#x148;" horiz-adv-x="551" 
d="M28 0l108 374q7 21 3 30.5t-23 13.5l-57 11v23l132 28q28 -1 37.5 -23.5t2.5 -55.5l-32 -123q108 202 219 202q82 0 82 -76q0 -24 -17 -83l-55 -175q-19 -65 -19 -83q0 -15 4 -23q29 3 53.5 22.5t38.5 44.5l17 -26q-20 -38 -59.5 -65.5t-86.5 -27.5q-30 0 -46 17t-16 47
q0 35 19 97l55 173q16 46 16 61q0 25 -29 25q-33 0 -88.5 -53.5t-101.5 -129.5l-58 -225h-99zM323 536l-80 176h33l78 -96h4l130 96h35l-168 -176h-32z" />
    <glyph glyph-name="napostrophe" unicode="&#x149;" horiz-adv-x="551" 
d="M28 0l108 374q7 21 3 30.5t-23 13.5l-57 11v23l132 28q28 -1 37.5 -23.5t2.5 -55.5l-32 -123q108 202 219 202q82 0 82 -76q0 -24 -17 -83l-55 -175q-19 -65 -19 -83q0 -15 4 -23q29 3 53.5 22.5t38.5 44.5l17 -26q-20 -38 -59.5 -65.5t-86.5 -27.5q-30 0 -46 17t-16 47
q0 35 19 97l55 173q16 46 16 61q0 25 -29 25q-33 0 -88.5 -53.5t-101.5 -129.5l-58 -225h-99zM208 542h-50q49 37 76 88q-42 5 -42 44q0 25 15.5 40.5t43.5 15.5q24 0 38.5 -13t14.5 -36q0 -30 -30 -72t-66 -67z" />
    <glyph glyph-name="Eng" unicode="&#x14a;" horiz-adv-x="696" 
d="M-18 0v30l49 12q9 2 15.5 5.5t11.5 10.5t8.5 12.5t7.5 18t6 21t7 27.5l8 31l100 374q-20 29 -52 38l-31 9v31h164l237 -444l72 276q20 75 20 98t-25 28l-58 12v30h230v-30l-48 -12q-7 -1 -12 -3.5t-9.5 -6.5t-8 -7.5t-7 -11t-5.5 -13t-5 -17l-5 -19t-5.5 -23t-6.5 -25.5
l-116 -440q-56 -216 -221 -216q-67 0 -67 49q0 31 20 51.5t48 20.5q20 0 32 -11t12 -29q0 -25 -21 -49q40 5 77 40.5t59 115.5l10 40l-245 458l-78 -314q-20 -75 -20 -98t25 -28l57 -12v-30h-230z" />
    <glyph glyph-name="eng" unicode="&#x14b;" horiz-adv-x="539" 
d="M28 0l108 374q7 21 3 30.5t-23 13.5l-57 11v23l132 28q28 -1 38.5 -24t1.5 -55l-32 -123q108 202 219 202q82 0 82 -76q0 -24 -17 -83l-102 -363q-30 -109 -84 -157.5t-139 -48.5q-46 0 -79.5 22.5t-33.5 55.5q0 23 13.5 37.5t36.5 14.5q39 0 51 -42l15 -54h5
q38 0 62.5 36.5t49.5 122.5l110 377q16 46 16 61q0 25 -29 25q-33 0 -88.5 -53.5t-101.5 -129.5l-58 -225h-99z" />
    <glyph glyph-name="Omacron" unicode="&#x14c;" horiz-adv-x="699" 
d="M52 230q0 175 110.5 290.5t272.5 115.5q115 0 177.5 -66.5t62.5 -175.5q0 -175 -110.5 -290.5t-272.5 -115.5q-115 0 -177.5 66.5t-62.5 175.5zM168 218q0 -84 35 -138.5t101 -54.5q79 0 139 61.5t88 146.5t28 173q0 84 -34.5 138.5t-100.5 54.5q-60 0 -110.5 -35.5
t-81 -92t-47.5 -122.5t-17 -131zM318 709l13 49h248l-13 -49h-248z" />
    <glyph glyph-name="omacron" unicode="&#x14d;" horiz-adv-x="515" 
d="M38 143q0 134 80.5 235.5t203.5 101.5q156 0 156 -156q0 -134 -80.5 -235t-202.5 -101q-78 0 -117.5 37t-39.5 118zM141 139q0 -109 76 -109q45 0 83 47t60 131q15 60 15 121q0 109 -73 109q-45 0 -85 -48t-61 -133q-15 -59 -15 -118zM205 550l12 49h249l-13 -49h-248z
" />
    <glyph glyph-name="Obreve" unicode="&#x14e;" horiz-adv-x="699" 
d="M52 230q0 175 110.5 290.5t272.5 115.5q115 0 177.5 -66.5t62.5 -175.5q0 -175 -110.5 -290.5t-272.5 -115.5q-115 0 -177.5 66.5t-62.5 175.5zM168 218q0 -84 35 -138.5t101 -54.5q79 0 139 61.5t88 146.5t28 173q0 84 -34.5 138.5t-100.5 54.5q-60 0 -110.5 -35.5
t-81 -92t-47.5 -122.5t-17 -131zM444 695q-59 0 -79 39.5t-6 92.5h26q-2 -33 15.5 -53.5t53.5 -20.5t64 20.5t43 53.5h27q-12 -55 -48.5 -93.5t-95.5 -38.5z" />
    <glyph glyph-name="obreve" unicode="&#x14f;" horiz-adv-x="515" 
d="M38 143q0 134 80.5 235.5t203.5 101.5q156 0 156 -156q0 -134 -80.5 -235t-202.5 -101q-78 0 -117.5 37t-39.5 118zM141 139q0 -109 76 -109q45 0 83 47t60 131q15 60 15 121q0 109 -73 109q-45 0 -85 -48t-61 -133q-15 -59 -15 -118zM330 536q-59 0 -79 39.5t-6 92.5h27
q-2 -33 15.5 -53.5t53.5 -20.5t64 20.5t43 53.5h27q-14 -57 -49 -94.5t-96 -37.5z" />
    <glyph glyph-name="Ohungarumlaut" unicode="&#x150;" horiz-adv-x="699" 
d="M52 230q0 175 110.5 290.5t272.5 115.5q115 0 177.5 -66.5t62.5 -175.5q0 -175 -110.5 -290.5t-272.5 -115.5q-115 0 -177.5 66.5t-62.5 175.5zM168 218q0 -84 35 -138.5t101 -54.5q79 0 139 61.5t88 146.5t28 173q0 84 -34.5 138.5t-100.5 54.5q-60 0 -110.5 -35.5
t-81 -92t-47.5 -122.5t-17 -131zM496 695l65 140q12 26 24 37.5t32 11.5q14 0 24.5 -10t10.5 -25q0 -26 -32 -56l-102 -98h-22zM333 695l64 140q12 26 24 37.5t33 11.5q14 0 24 -10t10 -25q0 -26 -32 -56l-101 -98h-22z" />
    <glyph glyph-name="ohungarumlaut" unicode="&#x151;" horiz-adv-x="515" 
d="M38 143q0 134 80.5 235.5t203.5 101.5q156 0 156 -156q0 -134 -80.5 -235t-202.5 -101q-78 0 -117.5 37t-39.5 118zM141 139q0 -109 76 -109q45 0 83 47t60 131q15 60 15 121q0 109 -73 109q-45 0 -85 -48t-61 -133q-15 -59 -15 -118zM383 536l65 140q12 27 23.5 38
t32.5 11q14 0 24.5 -10t10.5 -25q0 -25 -33 -56l-101 -98h-22zM220 536l64 140q12 26 24 37.5t32 11.5q14 0 24.5 -10t10.5 -25q0 -26 -32 -56l-102 -98h-21z" />
    <glyph glyph-name="OE" unicode="&#x152;" horiz-adv-x="973" 
d="M459 0l13 50q-91 -62 -201 -62q-116 0 -178.5 66.5t-62.5 175.5q0 175 110.5 290.5t272.5 115.5q130 0 186 -90l19 74h297q38 0 72 8l-32 -196h-28q0 89 -18 122q-33 28 -116 28h-9q-48 0 -79 -11l-58 -228h101q22 13 44.5 40.5t30.5 49.5h24l-60 -234h-24q0 73 -25 102
h-102l-64 -253q30 -10 94 -10h12q81 0 126 25q46 43 89 129h29l-68 -192h-395zM146 218q0 -84 35 -138.5t101 -54.5q79 0 139 61.5t88 146.5t28 173q0 84 -34.5 138.5t-100.5 54.5q-60 0 -110.5 -35.5t-81 -92t-47.5 -122.5t-17 -131z" />
    <glyph glyph-name="oe" unicode="&#x153;" horiz-adv-x="769" 
d="M38 143q0 134 80.5 235.5t203.5 101.5q106 0 138 -75q73 75 172 75q117 0 117 -91q0 -114 -189 -148l-94 -16q-7 -39 -7 -80q0 -43 17.5 -68t38.5 -29q109 0 162 102l23 -21q-32 -63 -86 -102t-121 -39q-93 0 -121 75q-75 -75 -177 -75q-78 0 -117.5 37t-39.5 118z
M141 139q0 -109 76 -109q46 0 86 52t60 142q12 52 12 105q0 109 -73 109q-45 0 -85 -48t-61 -133q-15 -59 -15 -118zM616 442q-49 0 -85.5 -52t-56.5 -131l71 15q53 11 83 41t30 73q0 54 -42 54z" />
    <glyph glyph-name="Racute" unicode="&#x154;" horiz-adv-x="618" 
d="M-18 0v30l55 12q18 4 25 10.5t11 21.5l119 457q7 27 3.5 35.5t-19.5 11.5l-50 12v30h279q99 0 142 -37t43 -92q0 -84 -58.5 -137t-138.5 -64q13 -12 38 -67l47 -103q30 -63 45 -75l61 -16v-29h-153q-23 26 -60 111l-68 162h-74l-46 -185q-5 -26 -1.5 -34.5t18.5 -11.5
l53 -12v-30h-271zM378 583h-10q-40 0 -63 -8l-66 -261h71q76 0 126.5 51t50.5 122q0 96 -109 96zM352 695l65 140q12 26 24 37.5t32 11.5q14 0 24.5 -10t10.5 -25q0 -26 -32 -56l-102 -98h-22z" />
    <glyph glyph-name="racute" unicode="&#x155;" horiz-adv-x="390" 
d="M28 0l108 374q7 21 3 30.5t-23 13.5l-57 11v23l132 28q28 0 38 -24t2 -55l-19 -71l15 24q37 60 68.5 93t66.5 33q57 0 57 -55q0 -29 -15 -47.5t-42 -18.5q-37 0 -50 32q-37 -4 -111 -105l-74 -286h-99zM235 536l64 140q12 26 24 37.5t33 11.5q14 0 24 -10t10 -25
q0 -26 -32 -56l-102 -98h-21z" />
    <glyph glyph-name="Rcommaaccent" unicode="&#x156;" horiz-adv-x="618" 
d="M-18 0v30l55 12q18 4 25 10.5t11 21.5l119 457q7 27 3.5 35.5t-19.5 11.5l-50 12v30h279q99 0 142 -37t43 -92q0 -84 -58.5 -137t-138.5 -64q13 -12 38 -67l47 -103q30 -63 45 -75l61 -16v-29h-153q-23 26 -60 111l-68 162h-74l-46 -185q-5 -26 -1.5 -34.5t18.5 -11.5
l53 -12v-30h-271zM378 583h-10q-40 0 -63 -8l-66 -261h71q76 0 126.5 51t50.5 122q0 96 -109 96zM226 -108q0 25 15.5 40.5t43.5 15.5q24 0 38.5 -13t14.5 -36q0 -30 -30 -72t-66 -67h-50q49 37 76 88q-42 5 -42 44z" />
    <glyph glyph-name="rcommaaccent" unicode="&#x157;" horiz-adv-x="390" 
d="M28 0l108 374q7 21 3 30.5t-23 13.5l-57 11v23l132 28q28 0 38 -24t2 -55l-19 -71l15 24q37 60 68.5 93t66.5 33q57 0 57 -55q0 -29 -15 -47.5t-42 -18.5q-37 0 -50 32q-37 -4 -111 -105l-74 -286h-99zM-5 -108q0 25 16 40.5t44 15.5q24 0 38.5 -13t14.5 -36
q0 -30 -29.5 -71.5t-66.5 -67.5h-51q49 37 76 88q-42 5 -42 44z" />
    <glyph glyph-name="Rcaron" unicode="&#x158;" horiz-adv-x="618" 
d="M-18 0v30l55 12q18 4 25 10.5t11 21.5l119 457q7 27 3.5 35.5t-19.5 11.5l-50 12v30h279q99 0 142 -37t43 -92q0 -84 -58.5 -137t-138.5 -64q13 -12 38 -67l47 -103q30 -63 45 -75l61 -16v-29h-153q-23 26 -60 111l-68 162h-74l-46 -185q-5 -26 -1.5 -34.5t18.5 -11.5
l53 -12v-30h-271zM378 583h-10q-40 0 -63 -8l-66 -261h71q76 0 126.5 51t50.5 122q0 96 -109 96zM379 695l-80 176h34l78 -95h4l130 95h34l-168 -176h-32z" />
    <glyph glyph-name="rcaron" unicode="&#x159;" horiz-adv-x="390" 
d="M28 0l108 374q7 21 3 30.5t-23 13.5l-57 11v23l132 28q28 0 38 -24t2 -55l-19 -71l15 24q37 60 68.5 93t66.5 33q57 0 57 -55q0 -29 -15 -47.5t-42 -18.5q-37 0 -50 32q-37 -4 -111 -105l-74 -286h-99zM261 536l-80 176h34l78 -96h4l130 96h35l-168 -176h-33z" />
    <glyph glyph-name="Sacute" unicode="&#x15a;" 
d="M6 -12l58 229h30q-8 -50 -8 -87q0 -48 31 -76.5t90 -28.5q62 0 99.5 37t37.5 90q0 38 -15.5 63t-54.5 53l-61 45q-29 22 -46 39t-32.5 48t-15.5 67q0 79 62 124t163 45q83 0 136 -36l25 31h24l-44 -195h-29q4 20 4 57q0 46 -32 76t-85 30q-60 0 -92 -28.5t-32 -74.5
q0 -22 10.5 -41.5t21.5 -29.5t31 -25l80 -61q47 -36 71 -72.5t24 -88.5q0 -84 -67.5 -137t-182.5 -53q-96 0 -149 35l-32 -35h-20zM291 700l64 140q12 26 24 37.5t33 11.5q14 0 24 -10t10 -24q0 -27 -32 -57l-101 -98h-22z" />
    <glyph glyph-name="sacute" unicode="&#x15b;" horiz-adv-x="411" 
d="M8 96q0 30 17 45t41 15q23 0 38.5 -12t15.5 -37q0 -27 -24 -53q21 -28 72 -28q43 0 65 21t22 55q0 38 -44 76l-66 56q-53 45 -53 110q0 60 47.5 98t114.5 38q57 0 96 -20.5t39 -51.5q0 -49 -46 -49q-47 0 -62 79q-13 8 -34 8q-29 0 -49 -18t-20 -49q0 -47 41 -79l53 -41
q81 -61 81 -127q0 -70 -54 -107t-132 -37q-65 0 -112 30t-47 78zM223 536l64 140q12 26 24 37.5t33 11.5q14 0 24 -10t10 -25q0 -26 -32 -56l-102 -98h-21z" />
    <glyph glyph-name="Scircumflex" unicode="&#x15c;" 
d="M6 -12l58 229h30q-8 -50 -8 -87q0 -48 31 -76.5t90 -28.5q62 0 99.5 37t37.5 90q0 38 -15.5 63t-54.5 53l-61 45q-29 22 -46 39t-32.5 48t-15.5 67q0 79 62 124t163 45q83 0 136 -36l25 31h24l-44 -195h-29q4 20 4 57q0 46 -32 76t-85 30q-60 0 -92 -28.5t-32 -74.5
q0 -22 10.5 -41.5t21.5 -29.5t31 -25l80 -61q47 -36 71 -72.5t24 -88.5q0 -84 -67.5 -137t-182.5 -53q-96 0 -149 35l-32 -35h-20zM189 700l168 176h33l80 -176h-34l-78 96h-4l-130 -96h-35z" />
    <glyph glyph-name="scircumflex" unicode="&#x15d;" horiz-adv-x="411" 
d="M8 96q0 30 17 45t41 15q23 0 38.5 -12t15.5 -37q0 -27 -24 -53q21 -28 72 -28q43 0 65 21t22 55q0 38 -44 76l-66 56q-53 45 -53 110q0 60 47.5 98t114.5 38q57 0 96 -20.5t39 -51.5q0 -49 -46 -49q-47 0 -62 79q-13 8 -34 8q-29 0 -49 -18t-20 -49q0 -47 41 -79l53 -41
q81 -61 81 -127q0 -70 -54 -107t-132 -37q-65 0 -112 30t-47 78zM121 536l168 176h33l80 -176h-34l-78 96h-4l-130 -96h-35z" />
    <glyph glyph-name="Scedilla" unicode="&#x15e;" 
d="M6 -12l58 229h30q-8 -50 -8 -87q0 -48 31 -76.5t90 -28.5q62 0 99.5 37t37.5 90q0 38 -15.5 63t-54.5 53l-61 45q-29 22 -46 39t-32.5 48t-15.5 67q0 79 62 124t163 45q83 0 136 -36l25 31h24l-44 -195h-29q4 20 4 57q0 46 -32 76t-85 30q-60 0 -92 -28.5t-32 -74.5
q0 -22 10.5 -41.5t21.5 -29.5t31 -25l80 -61q47 -36 71 -72.5t24 -88.5q0 -84 -67.5 -137t-182.5 -53q-96 0 -149 35l-32 -35h-20zM169 -87q0 41 46 55l8 -4q-17 -9 -17 -32q0 -15 17 -30t33.5 -34.5t16.5 -44.5q0 -75 -113 -75q-47 0 -78 21l19 35q6 -14 23.5 -24.5
t36.5 -10.5q48 0 48 48q0 22 -20 46t-20 50z" />
    <glyph glyph-name="scedilla" unicode="&#x15f;" horiz-adv-x="411" 
d="M8 96q0 30 17 45t41 15q23 0 38.5 -12t15.5 -37q0 -27 -24 -53q21 -28 72 -28q43 0 65 21t22 55q0 38 -44 76l-66 56q-53 45 -53 110q0 60 47.5 98t114.5 38q57 0 96 -20.5t39 -51.5q0 -49 -46 -49q-47 0 -62 79q-13 8 -34 8q-29 0 -49 -18t-20 -49q0 -47 41 -79l53 -41
q81 -61 81 -127q0 -70 -54 -107t-132 -37q-65 0 -112 30t-47 78zM118 -87q0 41 46 55l8 -4q-16 -10 -16 -32q0 -15 17 -30t33.5 -34.5t16.5 -44.5q0 -75 -114 -75q-46 0 -78 21l20 35q6 -14 23 -24.5t36 -10.5q49 0 49 48q0 22 -20.5 46t-20.5 50z" />
    <glyph glyph-name="Scaron" unicode="&#x160;" 
d="M6 -12l58 229h30q-8 -50 -8 -87q0 -48 31 -76.5t90 -28.5q62 0 99.5 37t37.5 90q0 38 -15.5 63t-54.5 53l-61 45q-29 22 -46 39t-32.5 48t-15.5 67q0 79 62 124t163 45q83 0 136 -36l25 31h24l-44 -195h-29q4 20 4 57q0 46 -32 76t-85 30q-60 0 -92 -28.5t-32 -74.5
q0 -22 10.5 -41.5t21.5 -29.5t31 -25l80 -61q47 -36 71 -72.5t24 -88.5q0 -84 -67.5 -137t-182.5 -53q-96 0 -149 35l-32 -35h-20zM317 700l-80 176h34l78 -95h4l130 95h35l-168 -176h-33z" />
    <glyph glyph-name="scaron" unicode="&#x161;" horiz-adv-x="411" 
d="M8 96q0 30 17 45t41 15q23 0 38.5 -12t15.5 -37q0 -27 -24 -53q21 -28 72 -28q43 0 65 21t22 55q0 38 -44 76l-66 56q-53 45 -53 110q0 60 47.5 98t114.5 38q57 0 96 -20.5t39 -51.5q0 -49 -46 -49q-47 0 -62 79q-13 8 -34 8q-29 0 -49 -18t-20 -49q0 -47 41 -79l53 -41
q81 -61 81 -127q0 -70 -54 -107t-132 -37q-65 0 -112 30t-47 78zM249 536l-80 176h34l78 -96h4l130 96h35l-168 -176h-33z" />
    <glyph glyph-name="Tcommaaccent" unicode="&#x162;" horiz-adv-x="585" 
d="M96 0v29l64 13q18 4 26.5 10.5t12.5 21.5l130 508h-32q-82 0 -120 -20q-39 -39 -83 -131h-30l56 198q24 -9 83 -9h383q49 0 75 9l-43 -198h-26q0 99 -16 131q-25 20 -110 20h-33l-124 -494q-6 -27 -0.5 -34.5t22.5 -11.5l63 -13v-29h-298zM152 -108q0 25 16 40.5t44 15.5
q24 0 38 -12.5t14 -36.5q0 -30 -29.5 -72t-65.5 -67h-51q49 37 76 88q-42 5 -42 44z" />
    <glyph glyph-name="tcommaaccent" unicode="&#x163;" horiz-adv-x="337" 
d="M48 409v27l105 29l82 135h47l-40 -144h106v-47h-119l-54 -194q-23 -75 -23 -114q0 -35 9 -53q38 0 69 28t44 60l25 -24q-24 -56 -68 -88.5t-102 -32.5q-37 0 -58 22t-21 66q0 24 23 113l62 217h-87zM35 -108q0 25 15.5 40.5t43.5 15.5q24 0 38.5 -13t14.5 -36
q0 -30 -29.5 -72t-65.5 -67h-51q49 37 76 88q-42 5 -42 44z" />
    <glyph glyph-name="Tcaron" unicode="&#x164;" horiz-adv-x="585" 
d="M96 0v29l64 13q18 4 26.5 10.5t12.5 21.5l130 508h-32q-82 0 -120 -20q-39 -39 -83 -131h-30l56 198q24 -9 83 -9h383q49 0 75 9l-43 -198h-26q0 99 -16 131q-25 20 -110 20h-33l-124 -494q-6 -27 -0.5 -34.5t22.5 -11.5l63 -13v-29h-298zM387 695l-80 176h34l78 -95h4
l130 95h35l-168 -176h-33z" />
    <glyph glyph-name="tcaron" unicode="&#x165;" horiz-adv-x="337" 
d="M48 409v27l105 29l82 135h47l-40 -144h106v-47h-119l-54 -194q-23 -75 -23 -114q0 -35 9 -53q38 0 69 28t44 60l25 -24q-24 -56 -68 -88.5t-102 -32.5q-37 0 -58 22t-21 66q0 24 23 113l62 217h-87zM364 520h-51q49 37 76 88q-42 5 -42 44q0 25 15.5 40.5t43.5 15.5
q24 0 38.5 -13t14.5 -36q0 -30 -29.5 -72t-65.5 -67z" />
    <glyph glyph-name="Tbar" unicode="&#x166;" horiz-adv-x="585" 
d="M118 290l9 38h137l65 254h-32q-82 0 -120 -20q-39 -39 -83 -131h-30l56 198q24 -9 83 -9h383q49 0 75 9l-43 -198h-26q0 99 -16 131q-25 20 -110 20h-33l-64 -254h138l-9 -38h-138l-51 -202q-6 -27 -0.5 -34.5t22.5 -11.5l63 -13v-29h-298v29l64 13q18 4 26.5 10.5
t12.5 21.5l55 216h-136z" />
    <glyph glyph-name="tbar" unicode="&#x167;" horiz-adv-x="337" 
d="M48 409v27l105 29l82 135h47l-40 -144h106v-47h-119l-39 -139h126v-35h-136l-5 -20q-23 -75 -23 -114q0 -35 9 -53q38 0 69 28t44 60l25 -24q-24 -56 -68 -88.5t-102 -32.5q-37 0 -58 22t-21 66q0 24 23 113l12 43h-65v35h75l40 139h-87z" />
    <glyph glyph-name="Utilde" unicode="&#x168;" horiz-adv-x="664" 
d="M88 152q0 30 12 80l76 299q7 27 3.5 35.5t-19.5 11.5l-49 12v30h266v-30l-50 -12q-33 -7 -40 -30l-76 -297q-16 -55 -16 -92q0 -58 29 -85t89 -27q154 0 206 193l76 299q7 29 -27 39l-49 12v30h209v-30l-39 -11q-31 -9 -37 -35l-79 -304q-31 -124 -100.5 -188t-187.5 -64
q-97 0 -147 42t-50 122zM350 693h-24q6 23 12.5 39t18 34.5t30.5 28t44 9.5q30 0 61.5 -26t51.5 -26q18 0 33.5 15.5t20.5 36.5h25q-30 -111 -106 -111q-30 0 -62 26t-51 26t-33.5 -15t-20.5 -37z" />
    <glyph glyph-name="utilde" unicode="&#x169;" horiz-adv-x="552" 
d="M56 69q0 31 16 81l59 183q23 64 18 95q-49 -6 -89 -64l-13 26q19 38 55.5 64t80.5 26q29 0 44.5 -11t16.5 -33.5t-3 -44t-15 -56.5l-55 -177q-1 -6 -6.5 -22.5t-9 -30t-3.5 -20.5q0 -28 26 -28q72 0 182 186l55 186l76 51h36l-35 -94l-68 -246q-15 -51 -15 -77
q0 -16 4 -23q28 3 52.5 23t38.5 44l17 -26q-20 -38 -59.5 -65.5t-86.5 -27.5q-29 0 -45 18t-16 46q0 41 16 88l8 29q-52 -91 -98.5 -136t-101.5 -45q-82 0 -82 81zM234 534h-24q6 23 12.5 39t18 34.5t30.5 28t44 9.5q30 0 61.5 -26t51.5 -26q18 0 33.5 15.5t20.5 36.5h25
q-30 -111 -106 -111q-30 0 -62 26t-51 26t-33.5 -15t-20.5 -37z" />
    <glyph glyph-name="Umacron" unicode="&#x16a;" horiz-adv-x="664" 
d="M88 152q0 30 12 80l76 299q7 27 3.5 35.5t-19.5 11.5l-49 12v30h266v-30l-50 -12q-33 -7 -40 -30l-76 -297q-16 -55 -16 -92q0 -58 29 -85t89 -27q154 0 206 193l76 299q7 29 -27 39l-49 12v30h209v-30l-39 -11q-31 -9 -37 -35l-79 -304q-31 -124 -100.5 -188t-187.5 -64
q-97 0 -147 42t-50 122zM338 709l13 49h248l-13 -49h-248z" />
    <glyph glyph-name="umacron" unicode="&#x16b;" horiz-adv-x="552" 
d="M56 69q0 31 16 81l59 183q23 64 18 95q-49 -6 -89 -64l-13 26q19 38 55.5 64t80.5 26q29 0 44.5 -11t16.5 -33.5t-3 -44t-15 -56.5l-55 -177q-1 -6 -6.5 -22.5t-9 -30t-3.5 -20.5q0 -28 26 -28q72 0 182 186l55 186l76 51h36l-35 -94l-68 -246q-15 -51 -15 -77
q0 -16 4 -23q28 3 52.5 23t38.5 44l17 -26q-20 -38 -59.5 -65.5t-86.5 -27.5q-29 0 -45 18t-16 46q0 41 16 88l8 29q-52 -91 -98.5 -136t-101.5 -45q-82 0 -82 81zM222 550l13 49h248l-13 -49h-248z" />
    <glyph glyph-name="Ubreve" unicode="&#x16c;" horiz-adv-x="664" 
d="M88 152q0 30 12 80l76 299q7 27 3.5 35.5t-19.5 11.5l-49 12v30h266v-30l-50 -12q-33 -7 -40 -30l-76 -297q-16 -55 -16 -92q0 -58 29 -85t89 -27q154 0 206 193l76 299q7 29 -27 39l-49 12v30h209v-30l-39 -11q-31 -9 -37 -35l-79 -304q-31 -124 -100.5 -188t-187.5 -64
q-97 0 -147 42t-50 122zM464 695q-59 0 -79 39.5t-6 92.5h26q-2 -33 15.5 -53.5t53.5 -20.5t64 20.5t43 53.5h27q-12 -55 -48.5 -93.5t-95.5 -38.5z" />
    <glyph glyph-name="ubreve" unicode="&#x16d;" horiz-adv-x="552" 
d="M56 69q0 31 16 81l59 183q23 64 18 95q-49 -6 -89 -64l-13 26q19 38 55.5 64t80.5 26q29 0 44.5 -11t16.5 -33.5t-3 -44t-15 -56.5l-55 -177q-1 -6 -6.5 -22.5t-9 -30t-3.5 -20.5q0 -28 26 -28q72 0 182 186l55 186l76 51h36l-35 -94l-68 -246q-15 -51 -15 -77
q0 -16 4 -23q28 3 52.5 23t38.5 44l17 -26q-20 -38 -59.5 -65.5t-86.5 -27.5q-29 0 -45 18t-16 46q0 41 16 88l8 29q-52 -91 -98.5 -136t-101.5 -45q-82 0 -82 81zM348 536q-59 0 -79 39.5t-6 92.5h26q-2 -33 15.5 -53.5t53.5 -20.5t64 20.5t43 53.5h27q-12 -55 -48.5 -93.5
t-95.5 -38.5z" />
    <glyph glyph-name="Uring" unicode="&#x16e;" horiz-adv-x="664" 
d="M88 152q0 30 12 80l76 299q7 27 3.5 35.5t-19.5 11.5l-49 12v30h266v-30l-50 -12q-33 -7 -40 -30l-76 -297q-16 -55 -16 -92q0 -58 29 -85t89 -27q154 0 206 193l76 299q7 29 -27 39l-49 12v30h209v-30l-39 -11q-31 -9 -37 -35l-79 -304q-31 -124 -100.5 -188t-187.5 -64
q-97 0 -147 42t-50 122zM467 695q-35 0 -57.5 20t-22.5 50q0 47 34 76.5t83 29.5q35 0 57.5 -20t22.5 -50q0 -48 -34 -77t-83 -29zM475 724q27 0 47 21.5t20 51.5q0 19 -13 32t-33 13q-27 0 -47 -21t-20 -52q0 -19 13 -32t33 -13z" />
    <glyph glyph-name="uring" unicode="&#x16f;" horiz-adv-x="552" 
d="M56 69q0 31 16 81l59 183q23 64 18 95q-49 -6 -89 -64l-13 26q19 38 55.5 64t80.5 26q29 0 44.5 -11t16.5 -33.5t-3 -44t-15 -56.5l-55 -177q-1 -6 -6.5 -22.5t-9 -30t-3.5 -20.5q0 -28 26 -28q72 0 182 186l55 186l76 51h36l-35 -94l-68 -246q-15 -51 -15 -77
q0 -16 4 -23q28 3 52.5 23t38.5 44l17 -26q-20 -38 -59.5 -65.5t-86.5 -27.5q-29 0 -45 18t-16 46q0 41 16 88l8 29q-52 -91 -98.5 -136t-101.5 -45q-82 0 -82 81zM351 536q-35 0 -57.5 20t-22.5 50q0 47 34 76.5t83 29.5q35 0 57.5 -20t22.5 -50q0 -48 -34 -77t-83 -29z
M359 565q27 0 47 21.5t20 51.5q0 19 -13 32t-33 13q-27 0 -47 -21.5t-20 -51.5q0 -19 13 -32t33 -13z" />
    <glyph glyph-name="Uhungarumlaut" unicode="&#x170;" horiz-adv-x="664" 
d="M88 152q0 30 12 80l76 299q7 27 3.5 35.5t-19.5 11.5l-49 12v30h266v-30l-50 -12q-33 -7 -40 -30l-76 -297q-16 -55 -16 -92q0 -58 29 -85t89 -27q154 0 206 193l76 299q7 29 -27 39l-49 12v30h209v-30l-39 -11q-31 -9 -37 -35l-79 -304q-31 -124 -100.5 -188t-187.5 -64
q-97 0 -147 42t-50 122zM516 695l65 140q12 26 24 37.5t32 11.5q14 0 24.5 -10t10.5 -25q0 -26 -32 -56l-102 -98h-22zM353 695l64 140q12 26 24 37.5t33 11.5q14 0 24 -10t10 -25q0 -26 -32 -56l-101 -98h-22z" />
    <glyph glyph-name="uhungarumlaut" unicode="&#x171;" horiz-adv-x="552" 
d="M56 69q0 31 16 81l59 183q23 64 18 95q-49 -6 -89 -64l-13 26q19 38 55.5 64t80.5 26q29 0 44.5 -11t16.5 -33.5t-3 -44t-15 -56.5l-55 -177q-1 -6 -6.5 -22.5t-9 -30t-3.5 -20.5q0 -28 26 -28q72 0 182 186l55 186l76 51h36l-35 -94l-68 -246q-15 -51 -15 -77
q0 -16 4 -23q28 3 52.5 23t38.5 44l17 -26q-20 -38 -59.5 -65.5t-86.5 -27.5q-29 0 -45 18t-16 46q0 41 16 88l8 29q-52 -91 -98.5 -136t-101.5 -45q-82 0 -82 81zM400 536l65 140q12 26 24 37.5t32 11.5q14 0 24.5 -10t10.5 -25q0 -26 -32 -56l-102 -98h-22zM237 536
l64 140q12 26 24 37.5t33 11.5q14 0 24 -10t10 -25q0 -26 -32 -56l-101 -98h-22z" />
    <glyph glyph-name="Uogonek" unicode="&#x172;" horiz-adv-x="664" 
d="M88 152q0 30 12 80l76 299q7 27 3.5 35.5t-19.5 11.5l-49 12v30h266v-30l-50 -12q-33 -7 -40 -30l-76 -297q-16 -55 -16 -92q0 -58 29 -85t89 -27q154 0 206 193l76 299q7 29 -27 39l-49 12v30h209v-30l-39 -11q-31 -9 -37 -35l-79 -304q-31 -124 -100.5 -188t-187.5 -64
q-97 0 -147 42t-50 122zM159 -176q0 50 50.5 89.5t95.5 54.5h25q-108 -66 -108 -143q0 -53 59 -53q24 0 64 24l-12 -36q-19 -12 -68 -12q-106 0 -106 76z" />
    <glyph glyph-name="uogonek" unicode="&#x173;" horiz-adv-x="552" 
d="M56 69q0 31 16 81l59 183q23 64 18 95q-49 -6 -89 -64l-13 26q19 38 55.5 64t80.5 26q29 0 44.5 -11t16.5 -33.5t-3 -44t-15 -56.5l-55 -177q-1 -6 -6.5 -22.5t-9 -30t-3.5 -20.5q0 -28 26 -28q72 0 182 186l55 186l76 51h36l-35 -94l-68 -246q-15 -51 -15 -77
q0 -16 4 -23q28 3 52.5 23t38.5 44l17 -26q-20 -38 -59.5 -65.5t-86.5 -27.5q-29 0 -45 18t-16 46q0 41 16 88l8 29q-52 -91 -98.5 -136t-101.5 -45q-82 0 -82 81zM210 -176q0 35 30 68t60.5 50.5t56.5 25.5h25q-109 -65 -109 -143q0 -53 59 -53q24 0 64 24l-12 -36
q-19 -12 -68 -12q-106 0 -106 76z" />
    <glyph glyph-name="Wcircumflex" unicode="&#x174;" horiz-adv-x="884" 
d="M206 -12l-71 566q-2 10 -7 15t-18 10l-31 11v30h237v-30l-45 -11q-11 -2 -17.5 -4.5t-11 -8.5t-3.5 -15l49 -403l179 291l-14 115q-3 18 -25 25l-31 11v30h237v-30l-45 -11q-11 -2 -17.5 -4.5t-11 -8.5t-3.5 -15l49 -403l220 383q24 41 -7 48l-46 11v30h200v-30l-28 -8
q-24 -7 -41 -30l-351 -564h-30l-46 372l-242 -372h-29zM387 695l168 176h33l80 -176h-34l-78 96h-4l-130 -96h-35z" />
    <glyph glyph-name="wcircumflex" unicode="&#x175;" horiz-adv-x="696" 
d="M168 0l-81 -12q20 128 20 252q0 150 -28 184q-14 0 -33 -13.5t-32 -32.5l-13 30q49 72 119 72q49 0 67 -52t18 -164q0 -107 -20 -207q55 43 102.5 111.5t65.5 128.5q-5 96 -18 163l5 2q4 1 12 3.5l14 4.5l29 10h31q16 -88 16 -210q-2 -116 -14 -213q70 41 123.5 121
t53.5 140q-4 7 -14 23t-15.5 26t-10.5 25.5t-5 29.5q0 24 14 41t39 17q62 0 62 -73q0 -130 -80.5 -249t-185.5 -158l-76 -12q15 101 19 194q-39 -64 -87.5 -112t-96.5 -70zM239 536l168 176h32l80 -176h-33l-78 96h-4l-130 -96h-35z" />
    <glyph glyph-name="Ycircumflex" unicode="&#x176;" horiz-adv-x="576" 
d="M97 0v29l64 13q19 4 27 10.5t12 21.5l50 191l-110 289q-7 19 -28 25l-30 11v30h247v-33l-44 -9q-39 -7 -27 -40l81 -216l183 221q24 27 -13 36l-40 11v30h199v-30l-25 -8q-31 -11 -55 -40l-232 -268l-45 -186q-6 -27 -1 -34.5t22 -11.5l63 -13v-29h-298zM265 695l168 176
h32l80 -176h-34l-77 96h-4l-131 -96h-34z" />
    <glyph glyph-name="ycircumflex" unicode="&#x177;" horiz-adv-x="469" 
d="M158 -92l-7 123q-7 133 -27 245t-51 145q-20 0 -55 -49l-16 29q49 79 116 79q17 0 31 -8t24.5 -25t19 -34t14.5 -45l10 -48t7.5 -52.5t5 -49t3.5 -48t3 -38.5l5 -121q55 79 90 160.5t39 140.5q-3 5 -14 22t-17.5 28.5t-13 28.5t-6.5 31q0 25 15 41.5t41 16.5
q30 0 46.5 -19t16.5 -52q0 -83 -31.5 -178.5t-82.5 -178t-110 -151.5t-119.5 -109t-106.5 -40q-36 0 -57.5 17t-21.5 46q0 25 16 39.5t39 14.5q6 0 12.5 -1.5t11 -3t10.5 -4.5t9 -5t9 -6.5t8 -5.5l28 -22q46 27 106 87zM123 536l168 176h32l80 -176h-34l-78 96h-4l-130 -96
h-34z" />
    <glyph glyph-name="Ydieresis" unicode="&#x178;" horiz-adv-x="576" 
d="M97 0v29l64 13q19 4 27 10.5t12 21.5l50 191l-110 289q-7 19 -28 25l-30 11v30h247v-33l-44 -9q-39 -7 -27 -40l81 -216l183 221q24 27 -13 36l-40 11v30h199v-30l-25 -8q-31 -11 -55 -40l-232 -268l-45 -186q-6 -27 -1 -34.5t22 -11.5l63 -13v-29h-298zM323 696
q-19 0 -31 11.5t-12 32.5q0 29 17 47t42 18q19 0 31.5 -11.5t12.5 -31.5q0 -29 -17.5 -47.5t-42.5 -18.5zM507 696q-19 0 -31.5 12t-12.5 32q0 29 17.5 47t42.5 18q19 0 31 -11.5t12 -31.5q0 -29 -17 -47.5t-42 -18.5z" />
    <glyph glyph-name="Zacute" unicode="&#x179;" horiz-adv-x="569" 
d="M-4 0v22l474 556h-124q-88 0 -130 -12q-40 -38 -78 -125h-30l47 187q32 -8 76 -8h378v-22l-474 -556h132q102 0 141 16q41 41 91 129h29l-61 -187h-471zM343 695l64 140q12 26 24 37.5t33 11.5q14 0 24 -10t10 -25q0 -26 -32 -56l-102 -98h-21z" />
    <glyph glyph-name="zacute" unicode="&#x17a;" horiz-adv-x="426" 
d="M86 348q-40 0 -40 46q0 33 31.5 59.5t78.5 26.5q88 0 200 -34l8 -2l32 36l36 -34l-333 -355q24 8 47 8q35 0 84.5 -39.5t82.5 -39.5q18 6 29.5 38t0.5 76l42 -18q0 -69 -28 -108.5t-86 -39.5q-52 0 -117 28t-110 28h-8l-23 -25l-25 22l318 358q-9 -3 -30 -3
q-28 0 -62 23.5t-54 52.5l-20 -54q-14 -50 -54 -50zM217 536l64 140q12 26 24 37.5t33 11.5q14 0 24 -10t10 -25q0 -26 -32 -56l-101 -98h-22z" />
    <glyph glyph-name="Zdotaccent" unicode="&#x17b;" horiz-adv-x="569" 
d="M-4 0v22l474 556h-124q-88 0 -130 -12q-40 -38 -78 -125h-30l47 187q32 -8 76 -8h378v-22l-474 -556h132q102 0 141 16q41 41 91 129h29l-61 -187h-471zM391 698q-22 0 -33.5 13.5t-11.5 35.5q0 34 22 57t52 23q22 0 34 -14t12 -35q0 -35 -22 -57.5t-53 -22.5z" />
    <glyph glyph-name="zdotaccent" unicode="&#x17c;" horiz-adv-x="426" 
d="M86 348q-40 0 -40 46q0 33 31.5 59.5t78.5 26.5q88 0 200 -34l8 -2l32 36l36 -34l-333 -355q24 8 47 8q35 0 84.5 -39.5t82.5 -39.5q18 6 29.5 38t0.5 76l42 -18q0 -69 -28 -108.5t-86 -39.5q-52 0 -117 28t-110 28h-8l-23 -25l-25 22l318 358q-9 -3 -30 -3
q-28 0 -62 23.5t-54 52.5l-20 -54q-14 -50 -54 -50zM265 539q-22 0 -33.5 13.5t-11.5 35.5q0 35 22 57.5t53 22.5q22 0 33.5 -13.5t11.5 -35.5q0 -35 -22 -57.5t-53 -22.5z" />
    <glyph glyph-name="Zcaron" unicode="&#x17d;" horiz-adv-x="569" 
d="M-4 0v22l474 556h-124q-88 0 -130 -12q-40 -38 -78 -125h-30l47 187q32 -8 76 -8h378v-22l-474 -556h132q102 0 141 16q41 41 91 129h29l-61 -187h-471zM369 695l-80 176h34l78 -95h4l130 95h35l-168 -176h-33z" />
    <glyph glyph-name="zcaron" unicode="&#x17e;" horiz-adv-x="426" 
d="M86 348q-40 0 -40 46q0 33 31.5 59.5t78.5 26.5q88 0 200 -34l8 -2l32 36l36 -34l-333 -355q24 8 47 8q35 0 84.5 -39.5t82.5 -39.5q18 6 29.5 38t0.5 76l42 -18q0 -69 -28 -108.5t-86 -39.5q-52 0 -117 28t-110 28h-8l-23 -25l-25 22l318 358q-9 -3 -30 -3
q-28 0 -62 23.5t-54 52.5l-20 -54q-14 -50 -54 -50zM244 536l-80 176h33l78 -96h4l130 96h35l-168 -176h-32z" />
    <glyph glyph-name="longs" unicode="&#x17f;" horiz-adv-x="303" 
d="M48 409v27l100 27l4 17q27 122 81.5 175t140.5 53q55 0 86 -18t31 -45q0 -23 -12.5 -36t-33.5 -13q-40 0 -62 46l-15 33q-43 0 -68 -43.5t-47 -143.5l-100 -440q-34 -153 -85.5 -224.5t-150.5 -71.5q-46 0 -77.5 20t-31.5 54q0 24 15 39t36 15q22 0 34.5 -11.5
t23.5 -37.5l20 -46q58 0 99 175l100 449h-88z" />
    <glyph glyph-name="florin" unicode="&#x192;" 
d="M112 292l24 44h89l9 44q26 127 93.5 181.5t155.5 54.5q38 0 65.5 -16.5t27.5 -48.5q0 -28 -17.5 -45t-43.5 -17q-21 0 -35 13t-14 36q0 25 12 44q-47 0 -82 -35t-49 -107l-21 -104h134l-4 -44h-139l-62 -308q-26 -127 -94 -181.5t-156 -54.5q-37 0 -65 16.5t-28 48.5
q0 28 17.5 45t43.5 17q21 0 35 -13t14 -36q0 -25 -12 -44q48 0 83 35t49 107l74 368h-104z" />
    <glyph glyph-name="AEacute" unicode="&#x1fc;" horiz-adv-x="837" 
d="M-82 30l45 11q25 6 47 35l338 470q9 12 5.5 19.5t-23.5 12.5l-40 9v33h480q38 0 72 8l-32 -196h-28q0 89 -18 122q-33 28 -116 28h-9q-48 0 -79 -11l-58 -228h101q22 13 44.5 40.5t30.5 49.5h24l-60 -234h-24q0 73 -25 102h-102l-64 -253q30 -10 94 -10h12q81 0 126 25
q46 43 89 129h29l-68 -192h-472v30l55 12q18 4 25 10.5t11 21.5l36 138h-196l-85 -120q-32 -43 0 -51l46 -11v-30h-211v30zM417 574l-217 -317h175l83 317h-41zM501 695l65 140q12 27 23.5 38t32.5 11q14 0 24.5 -10t10.5 -25q0 -25 -33 -56l-101 -98h-22z" />
    <glyph glyph-name="aeacute" unicode="&#x1fd;" horiz-adv-x="741" 
d="M38 117q0 93 35.5 175.5t103 135t150.5 52.5q52 0 88 -36l45 36h30l-12 -45q56 45 126 45q117 0 117 -91q0 -114 -189 -148l-94 -16q-7 -39 -7 -80q0 -43 17.5 -68t38.5 -29q109 0 162 102l23 -21q-32 -63 -86 -102t-121 -39q-136 0 -136 153v2h-1q-89 -155 -195 -155
q-43 0 -69 32.5t-26 96.5zM181 56q33 0 82 50.5t79 108.5l55 199q-24 21 -61 21q-80 0 -139.5 -93.5t-59.5 -209.5q0 -41 10.5 -58.5t33.5 -17.5zM588 442q-49 0 -85.5 -52t-56.5 -131l71 15q53 11 83 41t30 73q0 54 -42 54zM440 536l65 140q12 26 24 37.5t32 11.5
q14 0 24.5 -10t10.5 -25q0 -26 -32 -56l-102 -98h-22z" />
    <glyph glyph-name="Oslashacute" unicode="&#x1fe;" horiz-adv-x="699" 
d="M52 230q0 175 110.5 290.5t272.5 115.5q90 0 151 -44l65 76h41l-83 -96q66 -65 66 -178q0 -175 -110.5 -290.5t-272.5 -115.5q-89 0 -151 43l-65 -75h-40l82 95q-66 65 -66 179zM559 406q0 48 -14 93l-351 -406q36 -68 110 -68q79 0 139 61.5t88 146.5t28 173zM168 218
q0 -54 13 -94l351 407q-38 68 -108 68q-60 0 -110.5 -35.5t-81 -92t-47.5 -122.5t-17 -131zM400 695l64 140q12 26 24 37.5t33 11.5q14 0 24.5 -10t10.5 -25q0 -25 -33 -56l-101 -98h-22z" />
    <glyph glyph-name="oslashacute" unicode="&#x1ff;" horiz-adv-x="515" 
d="M38 143q0 134 80.5 235.5t203.5 101.5q60 0 98 -24l43 52h40l-59 -72q34 -37 34 -111q0 -134 -80.5 -235.5t-202.5 -101.5q-61 0 -99 23l-42 -51h-40l58 71q-34 37 -34 112zM375 329q0 3 -0.5 10t-0.5 11l-224 -273q17 -47 67 -47q45 0 83 47t60 131q15 60 15 121z
M141 139q0 -16 1 -23l225 275q-18 47 -65 47q-45 0 -85 -48t-61 -133q-15 -59 -15 -118zM279 536l64 140q12 26 24 37.5t33 11.5q14 0 24 -10t10 -25q0 -26 -32 -56l-101 -98h-22z" />
    <glyph glyph-name="Scommaaccent" unicode="&#x218;" 
d="M6 -12l58 229h30q-8 -50 -8 -87q0 -48 31 -76.5t90 -28.5q62 0 99.5 37t37.5 90q0 38 -15.5 63t-54.5 53l-61 45q-29 22 -46 39t-32.5 48t-15.5 67q0 79 62 124t163 45q83 0 136 -36l25 31h24l-44 -195h-29q4 20 4 57q0 46 -32 76t-85 30q-60 0 -92 -28.5t-32 -74.5
q0 -22 10.5 -41.5t21.5 -29.5t31 -25l80 -61q47 -36 71 -72.5t24 -88.5q0 -84 -67.5 -137t-182.5 -53q-96 0 -149 35l-32 -35h-20zM139 -108q0 25 15.5 40.5t43.5 15.5q24 0 38.5 -13t14.5 -36q0 -30 -29.5 -72t-65.5 -67h-51q49 37 76 88q-42 5 -42 44z" />
    <glyph glyph-name="scommaaccent" unicode="&#x219;" horiz-adv-x="411" 
d="M8 96q0 30 17 45t41 15q23 0 38.5 -12t15.5 -37q0 -27 -24 -53q21 -28 72 -28q43 0 65 21t22 55q0 38 -44 76l-66 56q-53 45 -53 110q0 60 47.5 98t114.5 38q57 0 96 -20.5t39 -51.5q0 -49 -46 -49q-47 0 -62 79q-13 8 -34 8q-29 0 -49 -18t-20 -49q0 -47 41 -79l53 -41
q81 -61 81 -127q0 -70 -54 -107t-132 -37q-65 0 -112 30t-47 78zM88 -108q0 25 16 40.5t44 15.5q24 0 38 -12.5t14 -36.5q0 -30 -29.5 -72t-65.5 -67h-51q49 37 76 88q-42 5 -42 44z" />
    <glyph glyph-name="uni021A" unicode="&#x21a;" horiz-adv-x="585" 
d="M96 0v29l64 13q18 4 26.5 10.5t12.5 21.5l130 508h-32q-82 0 -120 -20q-39 -39 -83 -131h-30l56 198q24 -9 83 -9h383q49 0 75 9l-43 -198h-26q0 99 -16 131q-25 20 -110 20h-33l-124 -494q-6 -27 -0.5 -34.5t22.5 -11.5l63 -13v-29h-298zM182 -87q0 41 46 55l8 -4
q-16 -10 -16 -32q0 -15 17 -30t33.5 -34.5t16.5 -44.5q0 -75 -114 -75q-46 0 -78 21l20 35q6 -14 23 -24.5t36 -10.5q49 0 49 48q0 22 -20.5 46t-20.5 50z" />
    <glyph glyph-name="uni021B" unicode="&#x21b;" horiz-adv-x="337" 
d="M48 409v27l105 29l82 135h47l-40 -144h106v-47h-119l-54 -194q-23 -75 -23 -114q0 -35 9 -53q38 0 69 28t44 60l25 -24q-24 -56 -68 -88.5t-102 -32.5q-37 0 -58 22t-21 66q0 24 23 113l62 217h-87zM65 -87q0 41 46 55l8 -4q-17 -9 -17 -32q0 -15 17 -30t33.5 -34.5
t16.5 -44.5q0 -75 -113 -75q-47 0 -78 21l19 35q6 -14 23.5 -24.5t36.5 -10.5q48 0 48 48q0 22 -20 46t-20 50z" />
    <glyph glyph-name="circumflex" unicode="&#x2c6;" horiz-adv-x="515" 
d="M184 536l168 176h32l80 -176h-34l-78 96h-4l-130 -96h-34z" />
    <glyph glyph-name="caron" unicode="&#x2c7;" horiz-adv-x="515" 
d="M312 536l-80 176h33l78 -96h4l130 96h35l-168 -176h-32z" />
    <glyph glyph-name="uni02C9" unicode="&#x2c9;" horiz-adv-x="515" 
d="M203 550l13 49h248l-13 -49h-248z" />
    <glyph glyph-name="breve" unicode="&#x2d8;" horiz-adv-x="515" 
d="M328 536q-58 0 -78 39.5t-6 92.5h26q-2 -33 15.5 -53.5t53.5 -20.5t64 20.5t43 53.5h27q-14 -57 -49 -94.5t-96 -37.5z" />
    <glyph glyph-name="dotaccent" unicode="&#x2d9;" horiz-adv-x="515" 
d="M333 539q-22 0 -33.5 13.5t-11.5 35.5q0 35 22 57.5t53 22.5q22 0 33.5 -13.5t11.5 -35.5q0 -35 -22 -57.5t-53 -22.5z" />
    <glyph glyph-name="ring" unicode="&#x2da;" horiz-adv-x="515" 
d="M332 536q-35 0 -57.5 20t-22.5 50q0 48 34 77t83 29q35 0 57.5 -20t22.5 -50q0 -47 -34 -76.5t-83 -29.5zM340 565q27 0 47 21.5t20 51.5q0 19 -13 32t-33 13q-27 0 -47 -21.5t-20 -51.5q0 -19 13 -32t33 -13z" />
    <glyph glyph-name="ogonek" unicode="&#x2db;" horiz-adv-x="515" 
d="M67 -176q0 35 30 68t60.5 50.5t56.5 25.5h25q-109 -65 -109 -143q0 -53 60 -53q24 0 64 24l-12 -36q-19 -12 -68 -12q-107 0 -107 76z" />
    <glyph glyph-name="tilde" unicode="&#x2dc;" horiz-adv-x="515" 
d="M215 534h-25q29 111 106 111q30 0 61.5 -26t51.5 -26q18 0 33.5 15.5t20.5 36.5h24q-11 -49 -37 -80t-68 -31q-30 0 -62 26t-51 26t-33.5 -15t-20.5 -37z" />
    <glyph glyph-name="hungarumlaut" unicode="&#x2dd;" horiz-adv-x="515" 
d="M381 536l65 140q12 27 23.5 38t32.5 11q14 0 24.5 -10t10.5 -25q0 -25 -33 -56l-101 -98h-22zM218 536l64 140q12 26 24 37.5t33 11.5q14 0 24 -10t10 -25q0 -26 -32 -56l-101 -98h-22z" />
    <glyph glyph-name="uni0394" unicode="&#x394;" horiz-adv-x="608" 
d="M528 0h-576l432 636h27zM340 493l-303 -447h384z" />
    <glyph glyph-name="uni03A9" unicode="&#x3a9;" horiz-adv-x="705" 
d="M-29 0l45 168h25v-62q0 -26 23 -26h138l14 55q-174 42 -174 175q0 98 61 174.5t150 114t186 37.5q116 0 186 -50t70 -146q0 -121 -87 -199.5t-212 -105.5l-14 -55h147h5.5t5 1t4 1.5t3.5 2t3 2.5t2.5 4t2.5 4t3.5 5t3.5 6l38 62h26l-48 -168h-260l43 159
q96 23 153.5 106.5t57.5 181.5q0 69 -33 111.5t-107 42.5q-76 0 -139 -49t-95.5 -120t-32.5 -142q0 -107 100 -131l-43 -159h-251z" />
    <glyph glyph-name="uni03BC" unicode="&#x3bc;" horiz-adv-x="559" 
d="M110 14l-47 -170q-8 -28 -22.5 -45.5t-39 -25t-42.5 -10t-54 -3.5v30l40 16q18 6 30 36l181 587l76 51h38l-35 -94l-73 -228q-15 -43 -15 -69q0 -29 31 -29q70 0 173 183l55 186l76 51h36l-35 -94l-68 -246q-15 -51 -15 -77q0 -16 4 -23q28 3 52.5 23t38.5 44l17 -26
q-20 -38 -59.5 -65.5t-86.5 -27.5q-29 0 -45 18t-16 46q0 41 16 88l6 22q-49 -86 -90.5 -130t-82.5 -44q-29 0 -44 26z" />
    <glyph glyph-name="pi" unicode="&#x3c0;" horiz-adv-x="568" 
d="M59 -12q-68 0 -68 91q0 22 4 29h26q-1 -65 42 -65q30 21 45 69l89 260h-25q-33 0 -70 -14l-11 -4l-11 13q26 52 51 71t65 19l318 -5q6 0 10 1t8 4.5t6 5.5t6 8.5t6 8.5l8 12h18q-4 -60 -25 -90t-74 -30h-16l-61 -225q-18 -70 -18 -83q0 -17 4 -24q28 3 52 22.5t38 44.5
l17 -26q-20 -38 -59.5 -65.5t-86.5 -27.5q-61 0 -61 64q0 28 19 95l61 225h-130l-73 -268q-16 -60 -44 -88t-60 -28z" />
    <glyph glyph-name="Wgrave" unicode="&#x1e80;" horiz-adv-x="884" 
d="M206 -12l-71 566q-2 10 -7 15t-18 10l-31 11v30h237v-30l-45 -11q-11 -2 -17.5 -4.5t-11 -8.5t-3.5 -15l49 -403l179 291l-14 115q-3 18 -25 25l-31 11v30h237v-30l-45 -11q-11 -2 -17.5 -4.5t-11 -8.5t-3.5 -15l49 -403l220 383q24 41 -7 48l-46 11v30h200v-30l-28 -8
q-24 -7 -41 -30l-351 -564h-30l-46 372l-242 -372h-29zM555 695l-103 100q-29 27 -29 50q0 16 11.5 27.5t28.5 11.5q29 0 49 -44l65 -145h-22z" />
    <glyph glyph-name="wgrave" unicode="&#x1e81;" horiz-adv-x="696" 
d="M168 0l-81 -12q20 128 20 252q0 150 -28 184q-14 0 -33 -13.5t-32 -32.5l-13 30q49 72 119 72q49 0 67 -52t18 -164q0 -107 -20 -207q55 43 102.5 111.5t65.5 128.5q-5 96 -18 163l5 2q4 1 12 3.5l14 4.5l29 10h31q16 -88 16 -210q-2 -116 -14 -213q70 41 123.5 121
t53.5 140q-4 7 -14 23t-15.5 26t-10.5 25.5t-5 29.5q0 24 14 41t39 17q62 0 62 -73q0 -130 -80.5 -249t-185.5 -158l-76 -12q15 101 19 194q-39 -64 -87.5 -112t-96.5 -70zM406 536l-102 100q-29 26 -29 50q0 16 11.5 27.5t27.5 11.5q29 0 49 -44l66 -145h-23z" />
    <glyph glyph-name="Wacute" unicode="&#x1e82;" horiz-adv-x="884" 
d="M206 -12l-71 566q-2 10 -7 15t-18 10l-31 11v30h237v-30l-45 -11q-11 -2 -17.5 -4.5t-11 -8.5t-3.5 -15l49 -403l179 291l-14 115q-3 18 -25 25l-31 11v30h237v-30l-45 -11q-11 -2 -17.5 -4.5t-11 -8.5t-3.5 -15l49 -403l220 383q24 41 -7 48l-46 11v30h200v-30l-28 -8
q-24 -7 -41 -30l-351 -564h-30l-46 372l-242 -372h-29zM489 695l64 140q12 26 24 37.5t33 11.5q14 0 24 -10t10 -25q0 -26 -32 -56l-101 -98h-22z" />
    <glyph glyph-name="wacute" unicode="&#x1e83;" horiz-adv-x="696" 
d="M168 0l-81 -12q20 128 20 252q0 150 -28 184q-14 0 -33 -13.5t-32 -32.5l-13 30q49 72 119 72q49 0 67 -52t18 -164q0 -107 -20 -207q55 43 102.5 111.5t65.5 128.5q-5 96 -18 163l5 2q4 1 12 3.5l14 4.5l29 10h31q16 -88 16 -210q-2 -116 -14 -213q70 41 123.5 121
t53.5 140q-4 7 -14 23t-15.5 26t-10.5 25.5t-5 29.5q0 24 14 41t39 17q62 0 62 -73q0 -130 -80.5 -249t-185.5 -158l-76 -12q15 101 19 194q-39 -64 -87.5 -112t-96.5 -70zM340 536l65 140q12 26 24 37.5t32 11.5q14 0 24.5 -10t10.5 -25q0 -26 -32 -56l-102 -98h-22z" />
    <glyph glyph-name="Wdieresis" unicode="&#x1e84;" horiz-adv-x="884" 
d="M206 -12l-71 566q-2 10 -7 15t-18 10l-31 11v30h237v-30l-45 -11q-11 -2 -17.5 -4.5t-11 -8.5t-3.5 -15l49 -403l179 291l-14 115q-3 18 -25 25l-31 11v30h237v-30l-45 -11q-11 -2 -17.5 -4.5t-11 -8.5t-3.5 -15l49 -403l220 383q24 41 -7 48l-46 11v30h200v-30l-28 -8
q-24 -7 -41 -30l-351 -564h-30l-46 372l-242 -372h-29zM433 696q-19 0 -31 12t-12 32q0 29 17 47t42 18q19 0 31.5 -11.5t12.5 -31.5q0 -29 -17.5 -47.5t-42.5 -18.5zM617 696q-19 0 -31.5 12t-12.5 32q0 29 17.5 47t42.5 18q19 0 31 -11.5t12 -31.5q0 -29 -17 -47.5
t-42 -18.5z" />
    <glyph glyph-name="wdieresis" unicode="&#x1e85;" horiz-adv-x="696" 
d="M168 0l-81 -12q20 128 20 252q0 150 -28 184q-14 0 -33 -13.5t-32 -32.5l-13 30q49 72 119 72q49 0 67 -52t18 -164q0 -107 -20 -207q55 43 102.5 111.5t65.5 128.5q-5 96 -18 163l5 2q4 1 12 3.5l14 4.5l29 10h31q16 -88 16 -210q-2 -116 -14 -213q70 41 123.5 121
t53.5 140q-4 7 -14 23t-15.5 26t-10.5 25.5t-5 29.5q0 24 14 41t39 17q62 0 62 -73q0 -130 -80.5 -249t-185.5 -158l-76 -12q15 101 19 194q-39 -64 -87.5 -112t-96.5 -70zM297 537q-19 0 -31 12t-12 32q0 29 17 47t42 18q19 0 31.5 -11.5t12.5 -31.5q0 -29 -17.5 -47.5
t-42.5 -18.5zM481 537q-19 0 -31.5 12t-12.5 32q0 29 17.5 47t42.5 18q19 0 31 -11.5t12 -31.5q0 -29 -17 -47.5t-42 -18.5z" />
    <glyph glyph-name="Ygrave" unicode="&#x1ef2;" horiz-adv-x="576" 
d="M97 0v29l64 13q19 4 27 10.5t12 21.5l50 191l-110 289q-7 19 -28 25l-30 11v30h247v-33l-44 -9q-39 -7 -27 -40l81 -216l183 221q24 27 -13 36l-40 11v30h199v-30l-25 -8q-31 -11 -55 -40l-232 -268l-45 -186q-6 -27 -1 -34.5t22 -11.5l63 -13v-29h-298zM432 695
l-102 100q-29 27 -29 50q0 16 11.5 27.5t27.5 11.5q29 0 49 -44l66 -145h-23z" />
    <glyph glyph-name="ygrave" unicode="&#x1ef3;" horiz-adv-x="469" 
d="M158 -92l-7 123q-7 133 -27 245t-51 145q-20 0 -55 -49l-16 29q49 79 116 79q17 0 31 -8t24.5 -25t19 -34t14.5 -45l10 -48t7.5 -52.5t5 -49t3.5 -48t3 -38.5l5 -121q55 79 90 160.5t39 140.5q-3 5 -14 22t-17.5 28.5t-13 28.5t-6.5 31q0 25 15 41.5t41 16.5
q30 0 46.5 -19t16.5 -52q0 -83 -31.5 -178.5t-82.5 -178t-110 -151.5t-119.5 -109t-106.5 -40q-36 0 -57.5 17t-21.5 46q0 25 16 39.5t39 14.5q6 0 12.5 -1.5t11 -3t10.5 -4.5t9 -5t9 -6.5t8 -5.5l28 -22q46 27 106 87zM290 536l-103 100q-28 25 -28 50q0 16 11 27.5
t28 11.5q29 0 49 -44l65 -145h-22z" />
    <glyph glyph-name="endash" unicode="&#x2013;" horiz-adv-x="488" 
d="M31 235v56h432v-56h-432z" />
    <glyph glyph-name="emdash" unicode="&#x2014;" horiz-adv-x="976" 
d="M30 235v56h920v-56h-920z" />
    <glyph glyph-name="quoteleft" unicode="&#x2018;" horiz-adv-x="264" 
d="M169 371q-25 0 -39.5 15.5t-14.5 45.5q0 61 41.5 118t75.5 77h54q-26 -17 -56.5 -55.5t-37.5 -75.5q46 -10 46 -55q0 -30 -20.5 -50t-48.5 -20z" />
    <glyph glyph-name="quoteright" unicode="&#x2019;" horiz-adv-x="264" 
d="M151 371h-54q26 17 56.5 55t37.5 75q-46 10 -46 55q0 31 20 51t49 20q25 0 39.5 -15.5t14.5 -45.5q0 -61 -42 -119.5t-75 -75.5z" />
    <glyph glyph-name="quotesinglbase" unicode="&#x201a;" horiz-adv-x="264" 
d="M14 43q0 30 20.5 50t48.5 20q25 0 39.5 -15.5t14.5 -45.5q0 -61 -41.5 -118t-75.5 -77h-54q26 17 56.5 55.5t37.5 75.5q-46 10 -46 55z" />
    <glyph glyph-name="quotedblleft" unicode="&#x201c;" horiz-adv-x="444" 
d="M345 371q-25 0 -40 15.5t-15 45.5q0 61 42 118t76 77h54q-27 -16 -56.5 -55t-37.5 -76q45 -10 45 -55q0 -30 -20 -50t-48 -20zM166 371q-25 0 -39.5 15.5t-14.5 45.5q0 61 41.5 118t75.5 77h54q-26 -17 -56.5 -55.5t-37.5 -75.5q46 -10 46 -55q0 -30 -20.5 -50t-48.5 -20
z" />
    <glyph glyph-name="quotedblright" unicode="&#x201d;" horiz-adv-x="444" 
d="M332 371h-54q26 17 56.5 55t37.5 75q-46 10 -46 55q0 31 20 51t49 20q25 0 39.5 -15.5t14.5 -45.5q0 -61 -42 -119.5t-75 -75.5zM153 371h-54q27 17 56.5 54.5t37.5 75.5q-45 10 -45 55q0 32 20 51.5t48 19.5q25 0 40 -15.5t15 -45.5q0 -62 -43 -120.5t-75 -74.5z" />
    <glyph glyph-name="quotedblbase" unicode="&#x201e;" horiz-adv-x="444" 
d="M194 43q0 30 20.5 50t48.5 20q25 0 39.5 -15.5t14.5 -45.5q0 -61 -41.5 -118t-75.5 -77h-54q26 17 56.5 55.5t37.5 75.5q-46 10 -46 55zM16 43q0 30 20 50t48 20q25 0 40 -15.5t15 -45.5q0 -61 -42 -118t-76 -77h-54q27 16 56.5 55t37.5 76q-45 10 -45 55z" />
    <glyph glyph-name="dagger" unicode="&#x2020;" horiz-adv-x="448" 
d="M83 492l10 52h172l51 204h52l-51 -204h176l-10 -52h-179l-180 -724h-52l180 724h-169z" />
    <glyph glyph-name="daggerdbl" unicode="&#x2021;" horiz-adv-x="448" 
d="M83 492l10 52h172l51 204h52l-51 -204h176l-10 -52h-179l-80 -320h177l-10 -52h-180l-87 -352h-52l87 352h-168l10 52h171l80 320h-169z" />
    <glyph glyph-name="bullet" unicode="&#x2022;" horiz-adv-x="391" 
d="M196 147q-49 0 -82.5 34t-33.5 82q0 49 33.5 82.5t82.5 33.5q48 0 82 -33.5t34 -82.5q0 -48 -34 -82t-82 -34z" />
    <glyph glyph-name="ellipsis" unicode="&#x2026;" horiz-adv-x="816" 
d="M561 39q0 31 22.5 55.5t54.5 24.5q25 0 39.5 -14t14.5 -37q0 -31 -22 -55.5t-54 -24.5q-26 0 -40.5 13.5t-14.5 37.5zM289 39q0 31 22.5 55.5t54.5 24.5q25 0 39.5 -14t14.5 -37q0 -31 -22 -55.5t-54 -24.5q-26 0 -40.5 13.5t-14.5 37.5zM17 39q0 31 22.5 55.5t54.5 24.5
q25 0 39.5 -14t14.5 -37q0 -31 -22 -55.5t-54 -24.5q-26 0 -40.5 13.5t-14.5 37.5z" />
    <glyph glyph-name="perthousand" unicode="&#x2030;" horiz-adv-x="1319" 
d="M180 -12l500 648h60l-500 -648h-60zM207 256q-65 0 -100 34.5t-35 97.5q0 104 63 176t148 72q65 0 100 -34.5t35 -97.5q0 -104 -62.5 -176t-148.5 -72zM211 285q76 0 110 162q13 65 13 89q0 71 -55 71q-76 0 -110 -162q-13 -65 -13 -89q0 -71 55 -71zM909 124
q0 104 62.5 176t148.5 72q65 0 99.5 -34.5t34.5 -97.5q0 -104 -62.5 -176t-147.5 -72q-65 0 -100 34.5t-35 97.5zM506 124q0 104 62.5 176t148.5 72q65 0 100 -34.5t35 -97.5q0 -104 -63 -176t-148 -72q-65 0 -100 34.5t-35 97.5zM993 92q0 -71 55 -71q43 0 68 42.5
t41 119.5q13 57 13 89q0 71 -54 71q-43 0 -68.5 -42.5t-41.5 -119.5q-13 -57 -13 -89zM590 92q0 -71 55 -71q76 0 110 162q13 65 13 89q0 71 -55 71q-76 0 -110 -162q-13 -65 -13 -89z" />
    <glyph glyph-name="guilsinglleft" unicode="&#x2039;" horiz-adv-x="220" 
d="M153 100l-131 164l6 24l206 156l-9 -36l-122 -137v-4l59 -131z" />
    <glyph glyph-name="guilsinglright" unicode="&#x203a;" horiz-adv-x="220" 
d="M-3 100l9 36l123 137v4l-60 131l9 36l131 -164l-6 -24z" />
    <glyph glyph-name="fraction" unicode="&#x2044;" horiz-adv-x="56" 
d="M-192 -12h-59l500 648h60z" />
    <glyph glyph-name="uni2070" unicode="&#x2070;" horiz-adv-x="385" 
d="M105 544q0 104 62.5 176t148.5 72q65 0 100 -34.5t35 -97.5q0 -104 -62.5 -176t-148.5 -72q-65 0 -100 34.5t-35 97.5zM189 512q0 -71 55 -71q76 0 110 162q13 65 13 89q0 71 -55 71q-76 0 -110 -162q-13 -65 -13 -89z" />
    <glyph glyph-name="uni2074" unicode="&#x2074;" horiz-adv-x="385" 
d="M202 420v22l59 8q8 2 10 4t4 9l11 48h-185l3 16l242 243q14 0 39 6.5t34 11.5h17l-60 -244h53l-3 -33h-58l-12 -51q-1 -6 0 -7.5t9 -3.5l37 -7v-22h-200zM156 544h138l44 181z" />
    <glyph glyph-name="uni2075" unicode="&#x2075;" horiz-adv-x="385" 
d="M100 472q0 17 11.5 26.5t25.5 9.5t24.5 -6t13.5 -11.5l9 -16.5l18 -34q21 -8 33 -8q47 0 75 30.5t28 74.5q0 37 -19.5 59.5t-59.5 22.5t-79 -19h-16l60 180h233l-27 -56h-190l-32 -92q34 16 74 16q145 0 145 -104q0 -60 -55.5 -96t-138.5 -36q-52 0 -92.5 15t-40.5 45z
" />
    <glyph glyph-name="uni2076" unicode="&#x2076;" horiz-adv-x="385" 
d="M114 541q0 46 18.5 90t53 80.5t90 58.5t123.5 22q66 0 92 -28l-11 -25q-24 24 -76 24q-62 0 -114 -41.5t-77 -101.5q35 28 91 28q65 0 102 -27t37 -81q0 -58 -50.5 -93t-130.5 -35q-68 0 -108 32t-40 97zM196 527q0 -43 19.5 -68.5t56.5 -25.5t60.5 26.5t23.5 75.5
q0 83 -80 83q-41 0 -71 -24q-9 -32 -9 -67z" />
    <glyph glyph-name="uni2077" unicode="&#x2077;" horiz-adv-x="385" 
d="M126 420l284 304h-250l22 56h299v-8l-284 -352h-71z" />
    <glyph glyph-name="uni2078" unicode="&#x2078;" horiz-adv-x="385" 
d="M100 497q0 74 120 102q-61 37 -61 85q0 49 50.5 76.5t121.5 27.5q66 0 97.5 -21.5t31.5 -57.5t-35 -60t-81 -36q74 -34 74 -89q0 -54 -53.5 -83t-128.5 -29q-66 0 -101 22.5t-35 62.5zM320 622q68 33 68 88q0 57 -66 57q-34 0 -57.5 -20.5t-23.5 -50.5q0 -10 3.5 -19
t7 -14.5t13.5 -12t15 -9l20 -10t20 -9.5zM174 500q0 -68 68 -68q36 0 61.5 22.5t25.5 55.5q0 50 -89 80q-66 -32 -66 -90z" />
    <glyph glyph-name="uni2079" unicode="&#x2079;" horiz-adv-x="385" 
d="M100 440l8 25q32 -24 82 -24q69 0 112 41t61 102q-40 -32 -95 -32q-65 0 -104 28.5t-39 83.5q0 53 47.5 90.5t124.5 37.5q72 0 114.5 -40t42.5 -109q0 -100 -61.5 -165.5t-192.5 -65.5q-34 0 -62 9t-38 19zM293 586q45 0 73 28q4 15 4 42q0 111 -79 111
q-38 0 -57.5 -27.5t-19.5 -68.5q0 -39 20.5 -62t58.5 -23z" />
    <glyph glyph-name="parenleft.superior" unicode="&#x207d;" horiz-adv-x="225" 
d="M164 484q0 -96 59 -96l-4 -24q-51 0 -83.5 36.5t-32.5 102.5q0 42 9 78l12 47q26 104 80 162t123 58l-4 -24q-38 0 -74 -52.5t-59 -143.5l-12 -47q-14 -47 -14 -97z" />
    <glyph glyph-name="parenright.superior" unicode="&#x207e;" horiz-adv-x="225" 
d="M66 364l4 24q37 0 73 52t60 144l12 47q14 47 14 97q0 96 -59 96l4 24q51 0 83.5 -36.5t32.5 -102.5q0 -42 -9 -78l-12 -47q-26 -104 -80 -162t-123 -58z" />
    <glyph glyph-name="n.superior" unicode="&#x207f;" horiz-adv-x="431" 
d="M102 420l84 287q6 17 2 24.5t-21 10.5l-39 7v19l111 24q35 0 35 -43q0 -14 -4 -23l-25 -94h1q41 79 81 119.5t86 40.5q32 0 49 -16t17 -44q0 -23 -13 -66l-43 -135q-12 -36 -12 -61q0 -11 4 -15q42 4 65 48l13 -19q-16 -30 -46.5 -51t-69.5 -21q-51 0 -51 52q0 36 14 72
l43 131q11 35 9 49t-20 14q-24 0 -63 -39.5t-73 -97.5h-1l-45 -173h-88z" />
    <glyph glyph-name="uni2080" unicode="&#x2080;" horiz-adv-x="385" 
d="M-35 -36q0 104 62.5 176t148.5 72q65 0 100 -34.5t35 -97.5q0 -104 -62.5 -176t-148.5 -72q-65 0 -100 34.5t-35 97.5zM49 -68q0 -71 55 -71q76 0 110 162q13 65 13 89q0 71 -55 71q-76 0 -110 -162q-13 -65 -13 -89z" />
    <glyph glyph-name="uni2081" unicode="&#x2081;" horiz-adv-x="385" 
d="M-23 -160v22l81 11q12 2 16 5.5t6 12.5l64 247h-5l-112 -23l3 25q138 41 191 72h21l-80 -324q-2 -8 0.5 -10.5t13.5 -4.5l69 -11v-22h-268z" />
    <glyph glyph-name="uni2082" unicode="&#x2082;" horiz-adv-x="385" 
d="M-54 -160l3 16l120 88q43 31 67 51.5t45 52t21 62.5q0 58 -68 58q-91 0 -102 -88h-21q0 64 40 98t113 34q60 0 94.5 -26t34.5 -71q0 -28 -13.5 -53t-45 -49.5t-54 -39t-69.5 -41.5l-75 -44h165q13 0 24 11l51 54h22q-10 -15 -20.5 -38.5t-20 -48.5t-9.5 -26h-302z" />
    <glyph glyph-name="uni2083" unicode="&#x2083;" horiz-adv-x="385" 
d="M-36 -108q0 17 10.5 27t26.5 10q14 0 23 -6t12 -11t11 -20l15 -32q12 -7 32 -7q43 0 69.5 24.5t26.5 66.5q0 31 -21 50.5t-59 19.5q-15 0 -42 -6l5 23q57 4 99 29t42 63q0 52 -66 52q-81 0 -96 -68h-20q5 51 42.5 78t100.5 27q53 0 86 -21.5t33 -58.5q0 -33 -29.5 -57.5
t-71.5 -35.5q41 -9 66 -31.5t25 -55.5q0 -58 -56.5 -89t-134.5 -31q-50 0 -89.5 15t-39.5 45z" />
    <glyph glyph-name="uni2084" unicode="&#x2084;" horiz-adv-x="385" 
d="M62 -160v22l59 8q8 2 10 4t4 9l11 48h-185l3 16l242 243q14 0 39 6.5t34 11.5h17l-60 -244h53l-3 -33h-58l-12 -51q-1 -6 0 -7.5t9 -3.5l37 -7v-22h-200zM16 -36h138l44 181z" />
    <glyph glyph-name="uni2085" unicode="&#x2085;" horiz-adv-x="385" 
d="M-40 -108q0 17 11.5 26.5t25.5 9.5t24.5 -6t13.5 -11.5l9 -16.5l18 -34q21 -8 33 -8q47 0 75 30.5t28 74.5q0 37 -19.5 59.5t-59.5 22.5t-79 -19h-16l60 180h233l-27 -56h-190l-32 -92q34 16 74 16q145 0 145 -104q0 -60 -55.5 -96t-138.5 -36q-52 0 -92.5 15t-40.5 45z
" />
    <glyph glyph-name="uni2086" unicode="&#x2086;" horiz-adv-x="385" 
d="M-26 -39q0 46 18.5 90t53 80.5t90 58.5t123.5 22q66 0 92 -28l-11 -25q-24 24 -76 24q-62 0 -114 -41.5t-77 -101.5q35 28 91 28q65 0 102 -27t37 -81q0 -58 -50.5 -93t-130.5 -35q-68 0 -108 32t-40 97zM56 -53q0 -43 19.5 -68.5t56.5 -25.5t60.5 26.5t23.5 75.5
q0 83 -80 83q-41 0 -71 -24q-9 -32 -9 -67z" />
    <glyph glyph-name="uni2087" unicode="&#x2087;" horiz-adv-x="385" 
d="M-14 -160l284 304h-250l22 56h299v-8l-284 -352h-71z" />
    <glyph glyph-name="uni2088" unicode="&#x2088;" horiz-adv-x="385" 
d="M-40 -83q0 74 120 102q-61 37 -61 85q0 49 50.5 76.5t121.5 27.5q66 0 97.5 -21.5t31.5 -57.5t-35 -60t-81 -36q74 -34 74 -89q0 -54 -53.5 -83t-128.5 -29q-66 0 -101 22.5t-35 62.5zM180 42q68 33 68 88q0 57 -66 57q-34 0 -57.5 -20.5t-23.5 -50.5q0 -10 3.5 -19
t7 -14.5t13.5 -12t15 -9l20 -10t20 -9.5zM34 -80q0 -68 68 -68q36 0 61.5 22.5t25.5 55.5q0 50 -89 80q-66 -32 -66 -90z" />
    <glyph glyph-name="uni2089" unicode="&#x2089;" horiz-adv-x="385" 
d="M-40 -140l8 25q32 -24 82 -24q69 0 112 41t61 102q-40 -32 -95 -32q-65 0 -104 28.5t-39 83.5q0 53 47.5 90.5t124.5 37.5q72 0 114.5 -40t42.5 -109q0 -100 -61.5 -165.5t-192.5 -65.5q-34 0 -62 9t-38 19zM153 6q45 0 73 28q4 15 4 42q0 111 -79 111q-38 0 -57.5 -27.5
t-19.5 -68.5q0 -39 20.5 -62t58.5 -23z" />
    <glyph glyph-name="parenleft.inferior" unicode="&#x208d;" horiz-adv-x="225" 
d="M24 -96q0 -96 59 -96l-4 -24q-51 0 -83.5 36.5t-32.5 102.5q0 42 9 78l12 47q26 104 80 162t123 58l-4 -24q-38 0 -74 -52.5t-59 -143.5l-12 -47q-14 -47 -14 -97z" />
    <glyph glyph-name="parenright.inferior" unicode="&#x208e;" horiz-adv-x="225" 
d="M-74 -216l4 24q37 0 73 52t60 144l12 47q14 47 14 97q0 96 -59 96l4 24q51 0 83.5 -36.5t32.5 -102.5q0 -42 -9 -78l-12 -47q-26 -104 -80 -162t-123 -58z" />
    <glyph glyph-name="Euro" unicode="&#x20ac;" 
d="M25 373l20 43h59q44 91 123 145.5t183 54.5q81 0 112.5 -45.5t15.5 -125.5h-36q7 62 -12 99.5t-83 37.5q-62 0 -109 -46.5t-75 -119.5h202l-22 -43h-195q-13 -43 -19 -93h181l-22 -42h-163v-22q0 -39 4 -69.5t15.5 -60t35.5 -45.5t59 -16q55 0 89 31t62 96h38
q-27 -71 -56 -102q-56 -61 -153 -61q-218 0 -218 236v13h-63l20 42h46q6 48 22 93h-61z" />
    <glyph glyph-name="afii61289" unicode="&#x2113;" horiz-adv-x="399" 
d="M119 22q-34 37 -34 127v67l-2 1l-54 -37l-11 22l67 55v125q0 93 16 143.5t50 80.5q34 31 78 31t68 -31t24 -86q0 -43 -16 -82.5t-45.5 -73.5t-51 -53t-52.5 -44v-100q0 -126 83 -126q58 0 108 73l20 -15q-47 -112 -154 -112q-61 0 -94 35zM156 311l2 -1q47 40 78.5 95
t31.5 116q0 83 -50 83q-62 0 -62 -164v-129z" />
    <glyph glyph-name="afii61352" unicode="&#x2116;" horiz-adv-x="1128" 
d="M-18 0v30l49 12q12 2 19.5 8t9.5 9.5t7 14.5q11 27 28 94l100 374q-20 29 -52 38l-31 9v31h164l239 -446l70 278q20 75 20 98t-25 28l-58 12v30h230v-30l-48 -12q-12 -3 -19.5 -9.5t-9 -9t-7.5 -13.5q-9 -18 -28 -94l-124 -464h-23l-265 494l-78 -314q-20 -75 -20 -98
t25 -28l57 -12v-30h-230zM739 372q0 102 64 179t161 77q61 0 94.5 -33t33.5 -95q0 -102 -62 -177t-159 -75q-132 0 -132 124zM830 363q0 -82 52 -82q36 0 66 40.5t45 111.5q9 41 9 79q0 83 -50 83q-36 0 -67 -40.5t-46 -111.5q-9 -40 -9 -80zM691 158v34h341v-34h-341z" />
    <glyph glyph-name="trademark" unicode="&#x2122;" horiz-adv-x="1064" 
d="M149 261l3 21l40 8q20 4 23 12l63 293h-23q-53 0 -81 -15q-32 -34 -47 -68h-17l32 116q21 -8 53 -8h251q34 0 56 8l-24 -116h-20q-2 41 -15 68q-23 15 -65 15h-27l-63 -293q-3 -6 -1 -8t13 -4l41 -8l-3 -21h-189zM477 261v21l41 7q21 3 35 72l47 216q2 7 0 8.5t-11 3.5
q-3 1 -5 1l-33 5v25h128l80 -256l196 256h114v-22l-36 -8q-17 -4 -18 -12l-60 -277q-2 -6 0.5 -8t12.5 -4l33 -7v-21h-173v21l32 7q16 3 19 12l50 240l-213 -280h-4l-89 279l-39 -179q-13 -56 -7 -66q4 -5 13 -7l37 -6v-21h-150z" />
    <glyph glyph-name="Omega" unicode="&#x2126;" horiz-adv-x="705" 
d="M-29 0l45 168h25v-62q0 -26 23 -26h138l14 55q-174 42 -174 175q0 98 61 174.5t150 114t186 37.5q116 0 186 -50t70 -146q0 -121 -87 -199.5t-212 -105.5l-14 -55h147h5.5t5 1t4 1.5t3.5 2t3 2.5t2.5 4t2.5 4t3.5 5t3.5 6l38 62h26l-48 -168h-260l43 159
q96 23 153.5 106.5t57.5 181.5q0 69 -33 111.5t-107 42.5q-76 0 -139 -49t-95.5 -120t-32.5 -142q0 -107 100 -131l-43 -159h-251z" />
    <glyph glyph-name="estimated" unicode="&#x212e;" horiz-adv-x="780" 
d="M170 102q90 -95 221 -95q143 0 232 107h53q-50 -58 -125 -92.5t-161 -34.5q-149 0 -255 95t-106 230q0 134 106 229t255 95t255 -95t106 -229v-9h-584q-6 0 -6 -4v-176q0 -11 9 -21zM167 322h448q4 0 4 5v176q0 13 -9 22q-91 91 -219 91t-220 -94q-10 -10 -10 -23v-172
q0 -5 6 -5z" />
    <glyph glyph-name="uni2153" unicode="&#x2153;" horiz-adv-x="912" 
d="M205 -12l501 648h59l-500 -648h-60zM509 52q0 17 10.5 27t26.5 10q14 0 23 -6t12 -11t11 -20l15 -32q12 -7 32 -7q43 0 69.5 24.5t26.5 66.5q0 31 -21 50.5t-59 19.5q-15 0 -42 -6l5 23q57 4 99 29t42 63q0 52 -67 52q-80 0 -95 -68h-21q6 51 43.5 78t100.5 27
q53 0 86 -21.5t33 -58.5q0 -33 -29.5 -57.5t-71.5 -35.5q41 -9 66 -31.5t25 -55.5q0 -58 -56.5 -89t-134.5 -31q-50 0 -89.5 15t-39.5 45zM80 260v22l81 11q19 3 23 18l63 247h-5l-112 -23l3 25q138 41 191 72h21l-80 -324q-2 -8 1 -10t14 -5l68 -11v-22h-268z" />
    <glyph glyph-name="uni2154" unicode="&#x2154;" horiz-adv-x="912" 
d="M202 -12l501 648h59l-500 -648h-60zM53 260l3 16l120 88q43 31 67 51.5t45 52t21 62.5q0 58 -68 58q-91 0 -102 -88h-21q0 64 40 98t113 34q60 0 94.5 -26t34.5 -71q0 -28 -13.5 -53t-45 -49.5t-54 -39t-69.5 -41.5l-75 -44h165q13 0 24 11l51 54h22q-10 -15 -20.5 -38.5
t-20 -48.5t-9.5 -26h-302zM509 52q0 17 10.5 27t26.5 10q14 0 23 -6t12 -11t11 -20l15 -32q12 -7 32 -7q43 0 69.5 24.5t26.5 66.5q0 31 -21 50.5t-59 19.5q-15 0 -42 -6l5 23q57 4 99 29t42 63q0 52 -67 52q-80 0 -95 -68h-21q6 51 43.5 78t100.5 27q53 0 86 -21.5
t33 -58.5q0 -33 -29.5 -57.5t-71.5 -35.5q41 -9 66 -31.5t25 -55.5q0 -58 -56.5 -89t-134.5 -31q-50 0 -89.5 15t-39.5 45z" />
    <glyph glyph-name="uni2155" unicode="&#x2155;" horiz-adv-x="912" 
d="M208 -12l500 648h60l-500 -648h-60zM491 52q0 17 11 26.5t26 9.5q13 0 23 -6t13.5 -11t10.5 -17l17 -34q21 -8 33 -8q47 0 75 30.5t28 74.5q0 37 -19.5 59.5t-59.5 22.5q-39 0 -78 -19h-16l60 180h233l-28 -56h-190l-31 -92q34 16 73 16q145 0 145 -104q0 -61 -55 -96.5
t-138 -35.5q-52 0 -92.5 15t-40.5 45zM80 260v22l81 11q19 3 23 18l63 247h-5l-112 -23l3 25q138 41 191 72h21l-80 -324q-2 -8 1 -10t14 -5l68 -11v-22h-268z" />
    <glyph glyph-name="uni2156" unicode="&#x2156;" horiz-adv-x="912" 
d="M213 -12l500 648h60l-501 -648h-59zM53 260l3 16l120 88q43 31 67 51.5t45 52t21 62.5q0 58 -68 58q-91 0 -102 -88h-21q0 64 40 98t113 34q60 0 94.5 -26t34.5 -71q0 -28 -13.5 -53t-45 -49.5t-54 -39t-69.5 -41.5l-75 -44h165q13 0 24 11l51 54h22q-10 -15 -20.5 -38.5
t-20 -48.5t-9.5 -26h-302zM491 52q0 17 11 26.5t26 9.5q13 0 23 -6t13.5 -11t10.5 -17l17 -34q21 -8 33 -8q47 0 75 30.5t28 74.5q0 37 -19.5 59.5t-59.5 22.5q-39 0 -78 -19h-16l60 180h233l-28 -56h-190l-31 -92q34 16 73 16q145 0 145 -104q0 -61 -55 -96.5t-138 -35.5
q-52 0 -92.5 15t-40.5 45z" />
    <glyph glyph-name="uni2157" unicode="&#x2157;" horiz-adv-x="912" 
d="M194 -12l500 648h60l-501 -648h-59zM195 252q-50 0 -89.5 15t-39.5 45q0 17 10.5 27t26.5 10q14 0 23 -6t12 -11t11 -20l15 -32q12 -7 32 -7q43 0 69.5 24.5t26.5 66.5q0 31 -21 50.5t-59 19.5q-16 0 -42 -6l5 23q57 4 99 29t42 63q0 52 -67 52q-80 0 -95 -68h-21
q6 51 43.5 78t100.5 27q53 0 86 -21.5t33 -58.5q0 -33 -29.5 -57.5t-71.5 -35.5q41 -9 66 -31.5t25 -55.5q0 -58 -56.5 -89t-134.5 -31zM491 52q0 17 11 26.5t26 9.5q13 0 23 -6t13.5 -11t10.5 -17l17 -34q21 -8 33 -8q47 0 75 30.5t28 74.5q0 37 -19.5 59.5t-59.5 22.5
q-39 0 -78 -19h-16l60 180h233l-28 -56h-190l-31 -92q34 16 73 16q145 0 145 -104q0 -61 -55 -96.5t-138 -35.5q-52 0 -92.5 15t-40.5 45z" />
    <glyph glyph-name="uni2158" unicode="&#x2158;" horiz-adv-x="912" 
d="M206 -12l500 648h60l-501 -648h-59zM152 260v22l59 8q10 3 12 10q1 2 1 3l12 48h-185l3 16l242 243q13 0 38 6.5t34 11.5h17l-60 -244h54l-3 -33h-59l-11 -51q-2 -7 -1 -8t10 -3l37 -7v-22h-200zM106 384h138l44 181zM491 52q0 17 11 26.5t26 9.5q13 0 23 -6t13.5 -11
t10.5 -17l17 -34q21 -8 33 -8q47 0 75 30.5t28 74.5q0 37 -19.5 59.5t-59.5 22.5q-39 0 -78 -19h-16l60 180h233l-28 -56h-190l-31 -92q34 16 73 16q145 0 145 -104q0 -61 -55 -96.5t-138 -35.5q-52 0 -92.5 15t-40.5 45z" />
    <glyph glyph-name="uni2159" unicode="&#x2159;" horiz-adv-x="912" 
d="M198 -12l501 648h59l-500 -648h-60zM508 121q0 46 18.5 90t53 80.5t90 58.5t123.5 22q66 0 92 -28l-11 -25q-24 24 -76 24q-62 0 -113 -41t-77 -102q35 28 90 28q65 0 102 -27t37 -81q0 -58 -50.5 -93t-130.5 -35q-67 0 -107.5 32.5t-40.5 96.5zM590 107
q0 -43 19.5 -68.5t56.5 -25.5t60.5 26.5t23.5 75.5q0 83 -80 83q-41 0 -71 -24q-9 -31 -9 -67zM80 260v22l81 11q19 3 23 18l63 247h-5l-112 -23l3 25q138 41 191 72h21l-80 -324q-2 -8 1 -10t14 -5l68 -11v-22h-268z" />
    <glyph glyph-name="uni215A" unicode="&#x215a;" horiz-adv-x="912" 
d="M190 -12l501 648h59l-500 -648h-60zM196 248q-52 0 -92 15t-40 45q0 17 11 26.5t25 9.5t24.5 -6t13.5 -11l10 -17l17 -34q21 -8 33 -8q47 0 75 30.5t28 74.5q0 37 -19.5 59.5t-59.5 22.5q-41 0 -78 -19h-16l60 180h232l-27 -56h-190l-31 -92q34 16 73 16q145 0 145 -104
q0 -60 -55.5 -96t-138.5 -36zM508 121q0 46 18.5 90t53 80.5t90 58.5t123.5 22q66 0 92 -28l-11 -25q-24 24 -76 24q-62 0 -113 -41t-77 -102q35 28 90 28q65 0 102 -27t37 -81q0 -58 -50.5 -93t-130.5 -35q-67 0 -107.5 32.5t-40.5 96.5zM590 107q0 -43 19.5 -68.5
t56.5 -25.5t60.5 26.5t23.5 75.5q0 83 -80 83q-41 0 -71 -24q-9 -31 -9 -67z" />
    <glyph glyph-name="uni215B" unicode="&#x215b;" horiz-adv-x="912" 
d="M197 -12l501 648h59l-500 -648h-60zM493 77q0 74 120 102q-61 37 -61 85q0 49 50.5 76.5t121.5 27.5q66 0 97 -21.5t31 -57.5q0 -63 -116 -96q75 -33 75 -89q0 -54 -53.5 -83t-128.5 -29q-66 0 -101 22.5t-35 62.5zM634 276q0 -10 3.5 -19t6.5 -14t13.5 -12t15 -9.5
t20 -10l19.5 -9.5q69 33 69 88q0 57 -66 57q-34 0 -57.5 -20.5t-23.5 -50.5zM567 80q0 -68 68 -68q35 0 61 22.5t26 55.5q0 50 -89 80q-66 -32 -66 -90zM80 260v22l81 11q19 3 23 18l63 247h-5l-112 -23l3 25q138 41 191 72h21l-80 -324q-2 -8 1 -10t14 -5l68 -11v-22h-268z
" />
    <glyph glyph-name="uni215C" unicode="&#x215c;" horiz-adv-x="912" 
d="M180 -12l500 648h60l-500 -648h-60zM195 252q-50 0 -89.5 15t-39.5 45q0 17 10.5 27t26.5 10q14 0 23 -6t12 -11t11 -20l15 -32q12 -7 32 -7q43 0 69.5 24.5t26.5 66.5q0 31 -21 50.5t-59 19.5q-16 0 -42 -6l5 23q57 4 99 29t42 63q0 52 -67 52q-80 0 -95 -68h-21
q6 51 43.5 78t100.5 27q53 0 86 -21.5t33 -58.5q0 -33 -29.5 -57.5t-71.5 -35.5q41 -9 66 -31.5t25 -55.5q0 -58 -56.5 -89t-134.5 -31zM493 77q0 74 120 102q-61 37 -61 85q0 49 50.5 76.5t121.5 27.5q66 0 97 -21.5t31 -57.5q0 -63 -116 -96q75 -33 75 -89
q0 -54 -53.5 -83t-128.5 -29q-66 0 -101 22.5t-35 62.5zM634 276q0 -10 3.5 -19t6.5 -14t13.5 -12t15 -9.5t20 -10l19.5 -9.5q69 33 69 88q0 57 -66 57q-34 0 -57.5 -20.5t-23.5 -50.5zM567 80q0 -68 68 -68q35 0 61 22.5t26 55.5q0 50 -89 80q-66 -32 -66 -90z" />
    <glyph glyph-name="uni215D" unicode="&#x215d;" horiz-adv-x="912" 
d="M180 -12l500 648h60l-500 -648h-60zM196 248q-52 0 -92 15t-40 45q0 17 11 26.5t25 9.5t24.5 -6t13.5 -11l10 -17l17 -34q21 -8 33 -8q47 0 75 30.5t28 74.5q0 37 -19.5 59.5t-59.5 22.5q-41 0 -78 -19h-16l60 180h232l-27 -56h-190l-31 -92q34 16 73 16q145 0 145 -104
q0 -60 -55.5 -96t-138.5 -36zM493 77q0 74 120 102q-61 37 -61 85q0 49 50.5 76.5t121.5 27.5q66 0 97 -21.5t31 -57.5q0 -63 -116 -96q75 -33 75 -89q0 -54 -53.5 -83t-128.5 -29q-66 0 -101 22.5t-35 62.5zM634 276q0 -10 3.5 -19t6.5 -14t13.5 -12t15 -9.5t20 -10
l19.5 -9.5q69 33 69 88q0 57 -66 57q-34 0 -57.5 -20.5t-23.5 -50.5zM567 80q0 -68 68 -68q35 0 61 22.5t26 55.5q0 50 -89 80q-66 -32 -66 -90z" />
    <glyph glyph-name="uni215E" unicode="&#x215e;" horiz-adv-x="912" 
d="M129 -12l500 648h59l-500 -648h-59zM108 256l285 304h-251l22 56h299v-8l-283 -352h-72zM493 77q0 74 120 102q-61 37 -61 85q0 49 50.5 76.5t121.5 27.5q66 0 97 -21.5t31 -57.5q0 -63 -116 -96q75 -33 75 -89q0 -54 -53.5 -83t-128.5 -29q-66 0 -101 22.5t-35 62.5z
M634 276q0 -10 3.5 -19t6.5 -14t13.5 -12t15 -9.5t20 -10l19.5 -9.5q69 33 69 88q0 57 -66 57q-34 0 -57.5 -20.5t-23.5 -50.5zM567 80q0 -68 68 -68q35 0 61 22.5t26 55.5q0 50 -89 80q-66 -32 -66 -90z" />
    <glyph glyph-name="uni2190" unicode="&#x2190;" horiz-adv-x="668" 
d="M67 244l232 204v-38l-106 -139l410 5v-64l-410 5l106 -139v-38z" />
    <glyph glyph-name="uni2191" unicode="&#x2191;" horiz-adv-x="512" 
d="M52 303l204 232l204 -232h-38l-139 106l5 -410h-64l5 410l-139 -106h-38z" />
    <glyph glyph-name="uni2192" unicode="&#x2192;" horiz-adv-x="668" 
d="M369 448l232 -204l-232 -204v38l106 139l-410 -5v64l410 -5l-106 139v38z" />
    <glyph glyph-name="uni2193" unicode="&#x2193;" horiz-adv-x="512" 
d="M256 -14l-204 232h38l139 -106l-5 410h64l-5 -410l139 106h38z" />
    <glyph glyph-name="uni2196" unicode="&#x2196;" horiz-adv-x="524" 
d="M89 126l-20 309l309 -20l-27 -27l-174 -24l293 -286l-44 -45l-287 294l-23 -174z" />
    <glyph glyph-name="uni2197" unicode="&#x2197;" horiz-adv-x="524" 
d="M455 435l-20 -309l-27 27l-23 174l-287 -294l-44 45l293 286l-174 24l-27 27z" />
    <glyph glyph-name="uni2198" unicode="&#x2198;" horiz-adv-x="524" 
d="M439 325l20 -309l-309 20l27 27l173 24l-293 287l44 44l287 -293l23 173z" />
    <glyph glyph-name="uni2199" unicode="&#x2199;" horiz-adv-x="524" 
d="M65 16l20 309l28 -27l23 -173l287 293l44 -44l-293 -287l173 -24l27 -27z" />
    <glyph glyph-name="partialdiff" unicode="&#x2202;" 
d="M36 139q0 105 71 189t179 84q82 0 113 -61q4 32 4 49q0 104 -58.5 146.5t-170.5 51.5l9 38q151 -2 234 -59.5t83 -194.5q0 -69 -18 -136.5t-52.5 -126t-92.5 -95t-130 -36.5q-85 0 -128 42t-43 109zM212 22q40 0 72.5 28t53.5 74.5t34 91t21 93.5q-39 49 -90 49
q-48 0 -87.5 -39.5t-59.5 -93.5t-20 -105q0 -44 19 -71t57 -27z" />
    <glyph glyph-name="Delta" unicode="&#x2206;" horiz-adv-x="608" 
d="M528 0h-576l432 636h27zM340 493l-303 -447h384z" />
    <glyph glyph-name="product" unicode="&#x220f;" horiz-adv-x="742" 
d="M-18 0v30l55 12q18 4 25 10.5t11 21.5l119 457q7 27 3.5 35.5t-19.5 11.5l-50 12v30h667v-30l-50 -12q-32 -6 -39 -30l-120 -460q-6 -26 -2 -34.5t19 -11.5l50 -12v-30h-268v30l55 12q18 4 25 10.5t11 21.5l130 499h-294l-127 -485q-6 -26 -2 -34.5t19 -11.5l50 -12v-30
h-268z" />
    <glyph glyph-name="summation" unicode="&#x2211;" horiz-adv-x="536" 
d="M-44 0v25l317 276l-164 298v21h383q54 0 84 8l-38 -187h-22q0 81 -21 123q-31 16 -119 16h-135l132 -247l-284 -252h159q91 0 127 16q57 54 99 127h25l-87 -224h-456z" />
    <glyph glyph-name="minus" unicode="&#x2212;" 
d="M46 292l11 52h453l-11 -52h-453z" />
    <glyph glyph-name="uni2215" unicode="&#x2215;" horiz-adv-x="56" 
d="M-192 -12h-59l500 648h60z" />
    <glyph glyph-name="uni2219" unicode="&#x2219;" horiz-adv-x="273" 
d="M135 220q-24 0 -39.5 14.5t-15.5 36.5q0 32 22.5 56.5t54.5 24.5q24 0 39 -14.5t15 -36.5q0 -32 -22 -56.5t-54 -24.5z" />
    <glyph glyph-name="radical" unicode="&#x221a;" 
d="M203 -12l-37 413l-98 -37l-12 28l188 72l24 -351l381 635h40l-465 -760h-21z" />
    <glyph glyph-name="infinity" unicode="&#x221e;" 
d="M123 161q-46 0 -70.5 30.5t-24.5 78.5q0 80 49.5 138t113.5 58q43 0 66.5 -30t25.5 -76l1 2q71 101 152 102q46 0 70.5 -29.5t24.5 -77.5q0 -79 -49.5 -137t-113.5 -58q-42 0 -65.5 27.5t-29.5 70.5q-69 -99 -150 -99zM312 321l-27 -41q26 -51 94 -51q52 0 87.5 28
t35.5 72q0 28 -19.5 43.5t-57.5 15.5q-34 0 -65.5 -21t-47.5 -46zM132 237q34 0 65.5 23t49.5 49l25 35q-25 52 -96 52q-46 0 -84 -27t-38 -74q0 -27 20 -42.5t58 -15.5z" />
    <glyph glyph-name="integral" unicode="&#x222b;" 
d="M-26 -123q17 0 29.5 -10t12.5 -30q0 -25 -18 -50q49 0 81.5 38t53.5 126l120 490q36 142 108 204.5t162 62.5q36 0 59.5 -13.5t23.5 -40.5q0 -32 -20.5 -50.5t-49.5 -18.5q-17 0 -29.5 10t-12.5 30q0 23 18 51q-49 0 -81.5 -38t-53.5 -126l-120 -490
q-35 -142 -107 -204.5t-163 -62.5q-34 0 -58.5 13.5t-24.5 39.5q0 32 21 50.5t49 18.5z" />
    <glyph glyph-name="approxequal" unicode="&#x2248;" 
d="M115 358h-25q13 50 50 87t87 37q41 0 98.5 -36t82.5 -36q28 0 51.5 20.5t32.5 43.5h25q-13 -50 -52.5 -87t-88.5 -37q-43 0 -97.5 36t-79.5 36q-28 0 -51.5 -20.5t-32.5 -43.5zM67 163h-25q13 49 50.5 86.5t86.5 37.5q41 0 98.5 -36t82.5 -36q28 0 51.5 20.5t32.5 43.5
h25q-13 -50 -52 -87t-89 -37q-43 0 -97.5 36t-79.5 36q-28 0 -51.5 -20.5t-32.5 -43.5z" />
    <glyph glyph-name="notequal" unicode="&#x2260;" 
d="M66 384l11 52h265l100 144l24 -18l-87 -126h151l-11 -52h-176l-99 -143h239l-10 -52h-265l-110 -159l-24 18l97 141h-151l11 52h176l99 143h-240z" />
    <glyph glyph-name="lessequal" unicode="&#x2264;" 
d="M538 536l18 -51l-398 -161l309 -165l-35 -46l-392 215zM-14 51h455l-12 -51h-455z" />
    <glyph glyph-name="greaterequal" unicode="&#x2265;" 
d="M90 490l36 46l391 -216l-497 -207l-18 51l397 160zM-14 51h455l-12 -51h-455z" />
    <glyph glyph-name="uni25A0" unicode="&#x25a0;" horiz-adv-x="620" 
d="M0 0v620h620v-620h-620z" />
    <glyph glyph-name="uni25A1" unicode="&#x25a1;" horiz-adv-x="620" 
d="M0 0v620h620v-620h-620zM78 74h464v472h-464v-472z" />
    <glyph glyph-name="uni25B6" unicode="&#x25b6;" horiz-adv-x="480" 
d="M44 -12v476l412 -240z" />
    <glyph glyph-name="uni25B7" unicode="&#x25b7;" horiz-adv-x="480" 
d="M44 -12v476l412 -240zM115 101l209 123l-209 127v-250z" />
    <glyph glyph-name="uni25C0" unicode="&#x25c0;" horiz-adv-x="480" 
d="M24 224l412 240v-476z" />
    <glyph glyph-name="uni25C1" unicode="&#x25c1;" horiz-adv-x="480" 
d="M24 228l412 236v-476zM156 228l209 -127v250z" />
    <glyph glyph-name="lozenge" unicode="&#x25ca;" 
d="M364 640l156 -320l-324 -332l-156 320zM108 330l126 -257l217 225l-126 256z" />
    <glyph glyph-name="uni25CB" unicode="&#x25cb;" horiz-adv-x="524" 
d="M24 226q0 99 69.5 168.5t168.5 69.5q100 0 169 -68.5t69 -169.5q0 -99 -69.5 -168.5t-168.5 -69.5q-100 0 -169 68.5t-69 169.5zM94 226q0 -75 48.5 -125t119.5 -50q73 0 120.5 50t47.5 125q0 76 -48.5 126t-119.5 50q-73 0 -120.5 -49.5t-47.5 -126.5z" />
    <glyph glyph-name="uni25CF" unicode="&#x25cf;" horiz-adv-x="524" 
d="M24 226q0 99 69.5 168.5t168.5 69.5q100 0 169 -68.5t69 -169.5q0 -99 -69.5 -168.5t-168.5 -69.5q-100 0 -169 68.5t-69 169.5z" />
    <glyph glyph-name="uni25FB" unicode="&#x25fb;" horiz-adv-x="456" 
d="M0 0v456h456v-456h-456zM70 70h316v316h-316v-316z" />
    <glyph glyph-name="uni25FC" unicode="&#x25fc;" horiz-adv-x="456" 
d="M0 0v456h456v-456h-456z" />
    <glyph glyph-name="uni2605" unicode="&#x2605;" horiz-adv-x="546" 
d="M106 5l68 183l-162 108l5 16l195 -9l53 189h16l52 -189l196 9l5 -16l-163 -108l69 -183l-14 -10l-153 121l-153 -121z" />
    <glyph glyph-name="dotlessi.sc" unicode="&#xe08e;" horiz-adv-x="343" 
d="M-4 0v27l45 11q20 5 27 11.5t11 21.5l87 339q7 27 3 35.5t-20 11.5l-46 12v27h247v-27l-45 -11q-20 -5 -27 -11.5t-11 -21.5l-87 -339q-7 -27 -3 -35.5t20 -11.5l46 -12v-27h-247z" />
    <glyph glyph-name="g.superior" unicode="&#xe0a3;" horiz-adv-x="373" 
d="M132 391l30 12q-31 18 -31 48q0 23 24 44.5t52 33.5q-80 11 -80 92q0 74 48.5 122.5t125.5 48.5q35 0 60.5 -16.5t33.5 -43.5q25 88 67 88q36 0 36 -33q0 -18 -10.5 -30.5t-24.5 -12.5q-22 0 -39 16q-16 -22 -25 -84q-13 -71 -57.5 -109.5t-111.5 -38.5h-2
q-26 -21 -26 -40q0 -12 7 -16t24 -7l83 -12q43 -6 63 -21t20 -45q0 -59 -68.5 -109t-158.5 -50q-128 0 -128 76q0 32 22.5 51t65.5 36zM268 384l-74 10q-8 0 -15 3q-61 -36 -61 -77q0 -49 68 -49q62 0 98.5 22t36.5 58q0 28 -53 33zM242 557q34 0 57 43t23 106q0 53 -37 53
q-34 0 -57.5 -41t-23.5 -105q0 -30 8.5 -43t29.5 -13z" />
    <glyph glyph-name="germandbls.sc" unicode="&#xe0a4;" horiz-adv-x="963" 
d="M489 -12l40 184h30q0 -76 12 -115q34 -36 101 -36q50 0 83 28t33 79q0 29 -14 46t-47 34l-52 28q-50 25 -74 53t-24 71q0 69 61 108.5t149 39.5q66 0 122 -27l24 23h21l-31 -158h-30q0 71 -16 96q-31 33 -99 33q-42 0 -73 -22.5t-31 -62.5q0 -28 13.5 -43.5t47.5 -34.5
l52 -28q55 -28 78.5 -58.5t23.5 -77.5q0 -72 -56.5 -116t-163.5 -44q-68 0 -131 27l-28 -27h-21zM8 -12l40 184h30q0 -76 12 -115q34 -36 101 -36q50 0 83 28t33 79q0 29 -14 46t-47 34l-52 28q-50 25 -74 53t-24 71q0 69 61 108.5t149 39.5q66 0 122 -27l24 23h20l-31 -158
h-29q0 71 -16 96q-33 33 -100 33q-42 0 -72.5 -22.5t-30.5 -62.5q0 -28 13.5 -43.5t47.5 -34.5l52 -28q55 -28 78.5 -58.5t23.5 -77.5q0 -72 -57 -116t-163 -44q-68 0 -131 27l-28 -27h-21z" />
    <glyph glyph-name="onesuperior" unicode="&#xe105;" horiz-adv-x="385" 
d="M117 420v22l81 11q12 2 16 5.5t6 12.5l64 247h-5l-112 -23l3 25q138 41 191 72h21l-80 -324q-2 -8 0.5 -10.5t13.5 -4.5l69 -11v-22h-268z" />
    <glyph glyph-name="twosuperior" unicode="&#xe107;" horiz-adv-x="385" 
d="M86 420l3 16l120 88q43 31 67 51.5t45 52t21 62.5q0 58 -68 58q-91 0 -102 -88h-21q0 64 40 98t113 34q60 0 94.5 -26t34.5 -71q0 -28 -13.5 -53t-45 -49.5t-54 -39t-69.5 -41.5l-75 -44h165q13 0 24 11l51 54h22q-10 -15 -20.5 -38.5t-20 -48.5t-9.5 -26h-302z" />
    <glyph glyph-name="threesuperior" unicode="&#xe108;" horiz-adv-x="385" 
d="M104 472q0 17 10.5 27t26.5 10q14 0 23 -6t12 -11t11 -20l15 -32q12 -7 32 -7q43 0 69.5 24.5t26.5 66.5q0 31 -21 50.5t-59 19.5q-15 0 -42 -6l5 23q57 4 99 29t42 63q0 52 -66 52q-81 0 -96 -68h-20q5 51 42.5 78t100.5 27q53 0 86 -21.5t33 -58.5q0 -33 -29.5 -57.5
t-71.5 -35.5q41 -9 66 -31.5t25 -55.5q0 -58 -56.5 -89t-134.5 -31q-50 0 -89.5 15t-39.5 45z" />
    <glyph glyph-name="cent.denominator" unicode="&#xf629;" horiz-adv-x="385" 
d="M-3 132q0 51 26 103.5t85 93t137 42.5l14 45h26l-14 -44q54 -4 79 -20l19 16h13l-32 -124h-25q3 58 -5 81q-17 23 -55 26l-104 -340h8q35 0 68 24q9 7 20.5 22t26.5 39.5t17 27.5h24l-45 -112q-52 -25 -120 -25h-6l-17 -55h-27l17 57q-130 15 -130 143zM87 125
q0 -84 49 -107l102 332q-46 -6 -82.5 -48t-52.5 -90t-16 -87z" />
    <glyph glyph-name="dollar.denominator" unicode="&#xf62a;" horiz-adv-x="385" 
d="M4 -8l29 136h25q-2 -56 4 -84q21 -21 54 -27l42 136l-18 11q-41 25 -58.5 45t-17.5 53q0 51 47.5 80.5t114.5 29.5l14 43h27l-14 -44q35 -3 62 -18l17 15h16l-23 -118h-22q0 29 -12 70q-21 21 -46 26l-38 -125l19 -10q42 -25 59 -44t17 -54q0 -54 -43 -87.5t-115 -33.5
h-8l-16 -51h-27l16 52q-50 4 -71 15l-17 -16h-17zM217 88q0 29 -35 52l-39 -124q32 2 53 22.5t21 49.5zM150 287q0 -17 7 -27.5t27 -23.5l35 112q-31 -2 -50 -18t-19 -43z" />
    <glyph glyph-name="hyphen.denominator" unicode="&#xf62b;" horiz-adv-x="207" 
d="M-2 150l14 57h168l-14 -57h-168z" />
    <glyph glyph-name="parenleft.denominator" unicode="&#xf62c;" horiz-adv-x="225" 
d="M56 64q0 -96 59 -96l-4 -24q-51 0 -83.5 36.5t-32.5 102.5q0 42 9 78l12 47q26 104 80 162t123 58l-4 -24q-38 0 -74 -52.5t-59 -143.5l-12 -47q-14 -47 -14 -97z" />
    <glyph glyph-name="parenright.denominator" unicode="&#xf62d;" horiz-adv-x="225" 
d="M-42 -56l4 24q37 0 73 52t60 144l12 47q14 47 14 97q0 96 -59 96l4 24q51 0 83.5 -36.5t32.5 -102.5q0 -42 -9 -78l-12 -47q-26 -104 -80 -162t-123 -58z" />
    <glyph glyph-name="cent.numerator" unicode="&#xf62e;" horiz-adv-x="385" 
d="M73 392q0 51 26 103.5t85 93t137 42.5l14 45h26l-14 -44q54 -4 79 -20l19 16h13l-32 -124h-25q3 58 -5 81q-17 23 -55 26l-104 -340h8q35 0 68 24q9 7 20.5 22t26.5 39.5t17 27.5h24l-45 -112q-52 -25 -120 -25h-6l-17 -55h-27l17 57q-130 13 -130 143zM163 385
q0 -84 49 -107l102 332q-46 -6 -82.5 -48t-52.5 -90t-16 -87z" />
    <glyph glyph-name="dollar.numerator" unicode="&#xf62f;" horiz-adv-x="385" 
d="M80 252l29 136h25q-2 -56 4 -84q21 -21 54 -27l42 136l-18 11q-41 25 -58.5 45t-17.5 53q0 51 47.5 80.5t114.5 29.5l14 43h27l-14 -44q35 -3 62 -18l17 15h16l-23 -118h-22q0 29 -12 70q-21 21 -46 26l-38 -125l19 -10q42 -25 59 -44t17 -54q0 -54 -43 -87.5t-115 -33.5
h-8l-16 -51h-27l16 52q-50 4 -71 15l-17 -16h-17zM293 348q0 29 -35 52l-39 -124q32 2 53 22.5t21 49.5zM226 547q0 -17 7 -27.5t27 -23.5l35 112q-31 -2 -50 -18t-19 -43z" />
    <glyph glyph-name="hyphen.numerator" unicode="&#xf630;" horiz-adv-x="207" 
d="M74 410l14 57h168l-14 -57h-168z" />
    <glyph glyph-name="parenleft.numerator" unicode="&#xf631;" horiz-adv-x="225" 
d="M132 324q0 -96 59 -96l-4 -24q-51 0 -83.5 36.5t-32.5 102.5q0 42 9 78l12 47q26 104 80 162t123 58l-4 -24q-38 0 -74 -52.5t-59 -143.5l-12 -47q-14 -47 -14 -97z" />
    <glyph glyph-name="parenright.numerator" unicode="&#xf632;" horiz-adv-x="225" 
d="M34 204l4 24q37 0 73 52t60 144l12 47q14 47 14 97q0 96 -59 96l4 24q51 0 83.5 -36.5t32.5 -102.5q0 -42 -9 -78l-12 -47q-26 -104 -80 -162t-123 -58z" />
    <glyph glyph-name="h.superior" unicode="&#xf637;" horiz-adv-x="430" 
d="M101 420l129 463q3 13 -1 19.5t-21 11.5l-38 9v21l129 24h39l-28 -79l-64 -249q82 152 166 152q32 0 49 -16t17 -44q0 -23 -13 -66l-43 -135q-13 -39 -13 -61q0 -12 2 -15q22 2 40.5 16t28.5 32l12 -19q-16 -31 -46 -51.5t-70 -20.5q-52 0 -52 52q0 30 15 72l43 131
q5 17 7 25t3 19t-4.5 15t-16.5 4q-24 0 -63 -39.5t-73 -97.5h-1l-44 -173h-89z" />
    <glyph glyph-name="zero.denominator" unicode="&#xf655;" horiz-adv-x="385" 
d="M-3 124q0 104 62.5 176t148.5 72q65 0 100 -34.5t35 -97.5q0 -104 -62.5 -176t-148.5 -72q-65 0 -100 34.5t-35 97.5zM81 92q0 -71 55 -71q76 0 110 162q13 65 13 89q0 71 -55 71q-76 0 -110 -162q-13 -65 -13 -89z" />
    <glyph glyph-name="one.denominator" unicode="&#xf656;" horiz-adv-x="385" 
d="M9 0v22l81 11q12 2 16 5.5t6 12.5l64 247h-5l-112 -23l3 25q138 41 191 72h21l-80 -324q-2 -8 0.5 -10.5t13.5 -4.5l69 -11v-22h-268z" />
    <glyph glyph-name="two.denominator" unicode="&#xf657;" horiz-adv-x="385" 
d="M-22 0l3 16l120 88q43 31 67 51.5t45 52t21 62.5q0 58 -68 58q-91 0 -102 -88h-21q0 64 40 98t113 34q60 0 94.5 -26t34.5 -71q0 -28 -13.5 -53t-45 -49.5t-54 -39t-69.5 -41.5l-75 -44h165q13 0 24 11l51 54h22q-10 -15 -20.5 -38.5t-20 -48.5t-9.5 -26h-302z" />
    <glyph glyph-name="three.denominator" unicode="&#xf658;" horiz-adv-x="385" 
d="M-4 52q0 17 10.5 27t26.5 10q14 0 23 -6t12 -11t11 -20l15 -32q12 -7 32 -7q43 0 69.5 24.5t26.5 66.5q0 31 -21 50.5t-59 19.5q-15 0 -42 -6l5 23q57 4 99 29t42 63q0 52 -66 52q-81 0 -96 -68h-20q5 51 42.5 78t100.5 27q53 0 86 -21.5t33 -58.5q0 -33 -29.5 -57.5
t-71.5 -35.5q41 -9 66 -31.5t25 -55.5q0 -58 -56.5 -89t-134.5 -31q-50 0 -89.5 15t-39.5 45z" />
    <glyph glyph-name="four.denominator" unicode="&#xf659;" horiz-adv-x="385" 
d="M94 0v22l59 8q8 2 10 4t4 9l11 48h-185l3 16l242 243q14 0 39 6.5t34 11.5h17l-60 -244h53l-3 -33h-58l-12 -51q-1 -6 0 -7.5t9 -3.5l37 -7v-22h-200zM48 124h138l44 181z" />
    <glyph glyph-name="five.denominator" unicode="&#xf65a;" horiz-adv-x="385" 
d="M-8 52q0 17 11.5 26.5t25.5 9.5t24.5 -6t13.5 -11.5l9 -16.5l18 -34q21 -8 33 -8q47 0 75 30.5t28 74.5q0 37 -19.5 59.5t-59.5 22.5t-79 -19h-16l60 180h233l-27 -56h-190l-32 -92q34 16 74 16q145 0 145 -104q0 -60 -55.5 -96t-138.5 -36q-52 0 -92.5 15t-40.5 45z" />
    <glyph glyph-name="six.denominator" unicode="&#xf65b;" horiz-adv-x="385" 
d="M6 121q0 46 18.5 90t53 80.5t90 58.5t123.5 22q66 0 92 -28l-11 -25q-24 24 -76 24q-62 0 -114 -41.5t-77 -101.5q35 28 91 28q65 0 102 -27t37 -81q0 -58 -50.5 -93t-130.5 -35q-68 0 -108 32t-40 97zM88 107q0 -43 19.5 -68.5t56.5 -25.5t60.5 26.5t23.5 75.5
q0 83 -80 83q-41 0 -71 -24q-9 -32 -9 -67z" />
    <glyph glyph-name="seven.denominator" unicode="&#xf65c;" horiz-adv-x="385" 
d="M18 0l284 304h-250l22 56h299v-8l-284 -352h-71z" />
    <glyph glyph-name="eight.denominator" unicode="&#xf65d;" horiz-adv-x="385" 
d="M-8 77q0 74 120 102q-61 37 -61 85q0 49 50.5 76.5t121.5 27.5q66 0 97.5 -21.5t31.5 -57.5t-35 -60t-81 -36q74 -34 74 -89q0 -54 -53.5 -83t-128.5 -29q-66 0 -101 22.5t-35 62.5zM212 202q68 33 68 88q0 57 -66 57q-34 0 -57.5 -20.5t-23.5 -50.5q0 -10 3.5 -19
t7 -14.5t13.5 -12t15 -9l20 -10t20 -9.5zM66 80q0 -68 68 -68q36 0 61.5 22.5t25.5 55.5q0 50 -89 80q-66 -32 -66 -90z" />
    <glyph glyph-name="nine.denominator" unicode="&#xf65e;" horiz-adv-x="385" 
d="M-8 20l8 25q32 -24 82 -24q69 0 112 41t61 102q-40 -32 -95 -32q-65 0 -104 28.5t-39 83.5q0 53 47.5 90.5t124.5 37.5q72 0 114.5 -40t42.5 -109q0 -100 -61.5 -165.5t-192.5 -65.5q-34 0 -62 9t-38 19zM185 166q45 0 73 28q4 15 4 42q0 111 -79 111q-38 0 -57.5 -27.5
t-19.5 -68.5q0 -39 20.5 -62t58.5 -23z" />
    <glyph glyph-name="comma.denominator" unicode="&#xf65f;" horiz-adv-x="199" 
d="M15 39q0 24 14.5 39t40.5 15q21 0 34 -13t13 -37q0 -53 -34.5 -99t-62.5 -63h-39q20 13 44.5 47t31.5 64q-17 2 -29.5 14.5t-12.5 32.5z" />
    <glyph glyph-name="period.denominator" unicode="&#xf660;" horiz-adv-x="199" 
d="M22 30q0 25 17 44t42 19q42 0 42 -38q0 -25 -17 -44t-42 -19q-42 0 -42 38z" />
    <glyph glyph-name="zero.numerator" unicode="&#xf661;" horiz-adv-x="385" 
d="M73 384q0 104 62.5 176t148.5 72q65 0 100 -34.5t35 -97.5q0 -104 -62.5 -176t-148.5 -72q-65 0 -100 34.5t-35 97.5zM157 352q0 -71 55 -71q76 0 110 162q13 65 13 89q0 71 -55 71q-76 0 -110 -162q-13 -65 -13 -89z" />
    <glyph glyph-name="one.numerator" unicode="&#xf662;" horiz-adv-x="385" 
d="M85 260v22l81 11q12 2 16 5.5t6 12.5l64 247h-5l-112 -23l3 25q138 41 191 72h21l-80 -324q-2 -8 0.5 -10.5t13.5 -4.5l69 -11v-22h-268z" />
    <glyph glyph-name="two.numerator" unicode="&#xf663;" horiz-adv-x="385" 
d="M54 260l3 16l120 88q43 31 67 51.5t45 52t21 62.5q0 58 -68 58q-91 0 -102 -88h-21q0 64 40 98t113 34q60 0 94.5 -26t34.5 -71q0 -28 -13.5 -53t-45 -49.5t-54 -39t-69.5 -41.5l-75 -44h165q13 0 24 11l51 54h22q-10 -15 -20.5 -38.5t-20 -48.5t-9.5 -26h-302z" />
    <glyph glyph-name="three.numerator" unicode="&#xf664;" horiz-adv-x="385" 
d="M72 312q0 17 10.5 27t26.5 10q14 0 23 -6t12 -11t11 -20l15 -32q12 -7 32 -7q43 0 69.5 24.5t26.5 66.5q0 31 -21 50.5t-59 19.5q-15 0 -42 -6l5 23q57 4 99 29t42 63q0 52 -66 52q-81 0 -96 -68h-20q5 51 42.5 78t100.5 27q53 0 86 -21.5t33 -58.5q0 -33 -29.5 -57.5
t-71.5 -35.5q41 -9 66 -31.5t25 -55.5q0 -58 -56.5 -89t-134.5 -31q-50 0 -89.5 15t-39.5 45z" />
    <glyph glyph-name="four.numerator" unicode="&#xf665;" horiz-adv-x="385" 
d="M170 260v22l59 8q8 2 10 4t4 9l11 48h-185l3 16l242 243q14 0 39 6.5t34 11.5h17l-60 -244h53l-3 -33h-58l-12 -51q-1 -6 0 -7.5t9 -3.5l37 -7v-22h-200zM124 384h138l44 181z" />
    <glyph glyph-name="five.numerator" unicode="&#xf666;" horiz-adv-x="385" 
d="M68 312q0 17 11.5 26.5t25.5 9.5t24.5 -6t13.5 -11.5l9 -16.5l18 -34q21 -8 33 -8q47 0 75 30.5t28 74.5q0 37 -19.5 59.5t-59.5 22.5t-79 -19h-16l60 180h233l-27 -56h-190l-32 -92q34 16 74 16q145 0 145 -104q0 -60 -55.5 -96t-138.5 -36q-52 0 -92.5 15t-40.5 45z
" />
    <glyph glyph-name="six.numerator" unicode="&#xf667;" horiz-adv-x="385" 
d="M82 381q0 46 18.5 90t53 80.5t90 58.5t123.5 22q66 0 92 -28l-11 -25q-24 24 -76 24q-62 0 -114 -41.5t-77 -101.5q35 28 91 28q65 0 102 -27t37 -81q0 -58 -50.5 -93t-130.5 -35q-68 0 -108 32t-40 97zM164 367q0 -43 19.5 -68.5t56.5 -25.5t60.5 26.5t23.5 75.5
q0 83 -80 83q-41 0 -71 -24q-9 -32 -9 -67z" />
    <glyph glyph-name="seven.numerator" unicode="&#xf668;" horiz-adv-x="385" 
d="M94 260l284 304h-250l22 56h299v-8l-284 -352h-71z" />
    <glyph glyph-name="eight.numerator" unicode="&#xf669;" horiz-adv-x="385" 
d="M68 337q0 74 120 102q-61 37 -61 85q0 49 50.5 76.5t121.5 27.5q66 0 97.5 -21.5t31.5 -57.5t-35 -60t-81 -36q74 -34 74 -89q0 -54 -53.5 -83t-128.5 -29q-66 0 -101 22.5t-35 62.5zM288 462q68 33 68 88q0 57 -66 57q-34 0 -57.5 -20.5t-23.5 -50.5q0 -10 3.5 -19
t7 -14.5t13.5 -12t15 -9l20 -10t20 -9.5zM142 340q0 -68 68 -68q36 0 61.5 22.5t25.5 55.5q0 50 -89 80q-66 -32 -66 -90z" />
    <glyph glyph-name="nine.numerator" unicode="&#xf66a;" horiz-adv-x="385" 
d="M68 280l8 25q32 -24 82 -24q69 0 112 41t61 102q-40 -32 -95 -32q-65 0 -104 28.5t-39 83.5q0 53 47.5 90.5t124.5 37.5q72 0 114.5 -40t42.5 -109q0 -100 -61.5 -165.5t-192.5 -65.5q-34 0 -62 9t-38 19zM261 426q45 0 73 28q4 15 4 42q0 111 -79 111q-38 0 -57.5 -27.5
t-19.5 -68.5q0 -39 20.5 -62t58.5 -23z" />
    <glyph glyph-name="comma.numerator" unicode="&#xf66b;" horiz-adv-x="199" 
d="M91 299q0 24 14.5 39t40.5 15q21 0 34 -13t13 -37q0 -53 -34.5 -99t-62.5 -63h-39q20 13 44.5 47t31.5 64q-17 2 -29.5 14.5t-12.5 32.5z" />
    <glyph glyph-name="period.numerator" unicode="&#xf66c;" horiz-adv-x="199" 
d="M98 290q0 25 17 44t42 19q42 0 42 -38q0 -25 -17 -44t-42 -19q-42 0 -42 38z" />
    <glyph glyph-name="abreve.sc" unicode="&#xf66d;" horiz-adv-x="522" 
d="M-37 0v27l26 7q29 8 43 29l291 441h41l74 -440q5 -22 23 -27l32 -10v-27h-209v27l33 8q19 5 24 12t3 21l-12 72h-193l-41 -66q-18 -30 7 -36l43 -11v-27h-185zM291 386l-126 -203h160zM347 564q-59 0 -79 39.5t-6 92.5h27q-2 -33 15.5 -53.5t53.5 -20.5t64 20.5t43 53.5
h27q-14 -57 -49 -94.5t-96 -37.5z" />
    <glyph glyph-name="amacron.sc" unicode="&#xf66e;" horiz-adv-x="522" 
d="M-37 0v27l26 7q29 8 43 29l291 441h41l74 -440q5 -22 23 -27l32 -10v-27h-209v27l33 8q19 5 24 12t3 21l-12 72h-193l-41 -66q-18 -30 7 -36l43 -11v-27h-185zM291 386l-126 -203h160zM222 578l12 49h249l-13 -49h-248z" />
    <glyph glyph-name="aogonek.sc" unicode="&#xf66f;" horiz-adv-x="522" 
d="M-37 0v27l26 7q29 8 43 29l291 441h41l74 -440q5 -22 23 -27l32 -10v-27h-209v27l33 8q19 5 24 12t3 21l-12 72h-193l-41 -66q-18 -30 7 -36l43 -11v-27h-185zM291 386l-126 -203h160zM313 -176q0 35 30 68t60.5 50.5t56.5 25.5h25q-109 -65 -109 -143q0 -53 60 -53
q24 0 64 24l-12 -36q-19 -12 -68 -12q-107 0 -107 76z" />
    <glyph glyph-name="aeacute.sc" unicode="&#xf670;" horiz-adv-x="790" 
d="M-41 0v28l39 11q21 4 35 23l295 370q15 21 -7 25l-51 11v28h415q53 0 77 8l-25 -160h-26q0 65 -20 98q-28 20 -107 20h-11q-35 0 -68 -7l-46 -178h96q39 18 62 70h22l-48 -188h-22q0 61 -23 79h-97l-50 -195q27 -9 80 -9h19q71 0 112 23q41 32 76 103h27l-56 -160h-431
v27l46 11q20 5 26.5 11.5t10.5 21.5l18 70h-180l-60 -79q-14 -18 11 -25l42 -9v-28h-181zM388 456l-209 -273h159l71 273h-21zM455 564l65 140q12 27 23.5 38t32.5 11q14 0 24.5 -10t10.5 -25q0 -25 -33 -56l-101 -98h-22z" />
    <glyph glyph-name="cacute.sc" unicode="&#xf671;" horiz-adv-x="573" 
d="M28 192q0 141 99 228.5t246 87.5q84 0 140 -24l23 20h19l-36 -174h-27q0 75 -17 109q-35 35 -111 35q-70 0 -124 -43.5t-80 -107t-26 -131.5q0 -81 35 -125.5t100 -44.5q61 0 107 30q23 18 47 52.5t37 63.5h30l-48 -148q-72 -32 -180 -32q-114 0 -174 53t-60 151z
M321 564l64 140q12 26 24 37.5t33 11.5q14 0 24 -10t10 -25q0 -26 -32 -56l-101 -98h-22z" />
    <glyph glyph-name="ccaron.sc" unicode="&#xf672;" horiz-adv-x="573" 
d="M28 192q0 141 99 228.5t246 87.5q84 0 140 -24l23 20h19l-36 -174h-27q0 75 -17 109q-35 35 -111 35q-70 0 -124 -43.5t-80 -107t-26 -131.5q0 -81 35 -125.5t100 -44.5q61 0 107 30q23 18 47 52.5t37 63.5h30l-48 -148q-72 -32 -180 -32q-114 0 -174 53t-60 151z
M348 564l-80 176h33l78 -96h4l130 96h35l-168 -176h-32z" />
    <glyph glyph-name="ccircumflex.sc" unicode="&#xf673;" horiz-adv-x="573" 
d="M28 192q0 141 99 228.5t246 87.5q84 0 140 -24l23 20h19l-36 -174h-27q0 75 -17 109q-35 35 -111 35q-70 0 -124 -43.5t-80 -107t-26 -131.5q0 -81 35 -125.5t100 -44.5q61 0 107 30q23 18 47 52.5t37 63.5h30l-48 -148q-72 -32 -180 -32q-114 0 -174 53t-60 151z
M220 564l168 176h32l80 -176h-34l-78 96h-4l-130 -96h-34z" />
    <glyph glyph-name="cdotaccent.sc" unicode="&#xf674;" horiz-adv-x="573" 
d="M28 192q0 141 99 228.5t246 87.5q84 0 140 -24l23 20h19l-36 -174h-27q0 75 -17 109q-35 35 -111 35q-70 0 -124 -43.5t-80 -107t-26 -131.5q0 -81 35 -125.5t100 -44.5q61 0 107 30q23 18 47 52.5t37 63.5h30l-48 -148q-72 -32 -180 -32q-114 0 -174 53t-60 151z
M369 567q-22 0 -33.5 13.5t-11.5 35.5q0 35 22 57.5t53 22.5q22 0 33.5 -13.5t11.5 -35.5q0 -35 -22 -57.5t-53 -22.5z" />
    <glyph glyph-name="dcaron.sc" unicode="&#xf675;" horiz-adv-x="644" 
d="M-4 0v27l45 11q20 5 27 11.5t11 21.5l87 339q7 27 3 35.5t-20 11.5l-46 12v27h261q120 0 185 -50.5t65 -141.5q0 -130 -93 -217t-243 -87h-282zM346 462h-15q-36 0 -57 -7l-105 -412q21 -9 68 -9h15q124 0 192.5 81t68.5 197q0 73 -39 111.5t-128 38.5zM361 564l-80 176
h34l77 -96h4l131 96h34l-168 -176h-32z" />
    <glyph glyph-name="dcroat.sc" unicode="&#xf676;" horiz-adv-x="644" 
d="M48 235l8 35h74l36 140q7 27 3 35.5t-20 11.5l-46 12v27h261q120 0 185 -50.5t65 -141.5q0 -130 -93 -217t-243 -87h-282v27l45 11q20 5 27 11.5t11 21.5l42 164h-73zM346 462h-15q-36 0 -57 -7l-47 -185h92l-8 -35h-93l-49 -192q21 -9 68 -9h15q124 0 192.5 81t68.5 197
q0 73 -39 111.5t-128 38.5z" />
    <glyph glyph-name="ebreve.sc" unicode="&#xf677;" horiz-adv-x="560" 
d="M-4 0v27l45 11q20 5 27 11.5t11 21.5l87 339q7 27 3 35.5t-20 11.5l-46 12v27h351q53 0 77 8l-25 -160h-26q0 65 -20 98q-27 20 -107 20h-11q-35 0 -68 -7l-45 -178h95q39 18 62 70h23l-48 -188h-23q0 61 -23 79h-96l-50 -195q27 -9 80 -9h18q72 0 113 23q41 32 76 103
h26l-56 -160h-430zM349 564q-59 0 -79 39.5t-6 92.5h27q-2 -33 15.5 -53.5t53.5 -20.5q35 0 63.5 20.5t43.5 53.5h26q-12 -56 -48 -94t-96 -38z" />
    <glyph glyph-name="ecaron.sc" unicode="&#xf678;" horiz-adv-x="560" 
d="M-4 0v27l45 11q20 5 27 11.5t11 21.5l87 339q7 27 3 35.5t-20 11.5l-46 12v27h351q53 0 77 8l-25 -160h-26q0 65 -20 98q-27 20 -107 20h-11q-35 0 -68 -7l-45 -178h95q39 18 62 70h23l-48 -188h-23q0 61 -23 79h-96l-50 -195q27 -9 80 -9h18q72 0 113 23q41 32 76 103
h26l-56 -160h-430zM332 564l-80 176h34l78 -96h4l130 96h34l-168 -176h-32z" />
    <glyph glyph-name="edotaccent.sc" unicode="&#xf679;" horiz-adv-x="560" 
d="M-4 0v27l45 11q20 5 27 11.5t11 21.5l87 339q7 27 3 35.5t-20 11.5l-46 12v27h351q53 0 77 8l-25 -160h-26q0 65 -20 98q-27 20 -107 20h-11q-35 0 -68 -7l-45 -178h95q39 18 62 70h23l-48 -188h-23q0 61 -23 79h-96l-50 -195q27 -9 80 -9h18q72 0 113 23q41 32 76 103
h26l-56 -160h-430zM354 567q-22 0 -34 14t-12 35q0 35 22 57.5t53 22.5q22 0 33.5 -13.5t11.5 -35.5q0 -35 -21.5 -57.5t-52.5 -22.5z" />
    <glyph glyph-name="emacron.sc" unicode="&#xf67a;" horiz-adv-x="560" 
d="M-4 0v27l45 11q20 5 27 11.5t11 21.5l87 339q7 27 3 35.5t-20 11.5l-46 12v27h351q53 0 77 8l-25 -160h-26q0 65 -20 98q-27 20 -107 20h-11q-35 0 -68 -7l-45 -178h95q39 18 62 70h23l-48 -188h-23q0 61 -23 79h-96l-50 -195q27 -9 80 -9h18q72 0 113 23q41 32 76 103
h26l-56 -160h-430zM223 578l13 49h248l-12 -49h-249z" />
    <glyph glyph-name="eng.sc" unicode="&#xf67b;" horiz-adv-x="665" 
d="M-4 0v27l42 11q17 5 24 11t13 22q10 25 28 92l62 242q7 30 3 39.5t-20 12.5l-46 12v27h154l203 -354l49 191q13 52 16 72q4 25 -0.5 36t-23.5 16l-56 12v27h219v-27l-42 -11q-17 -5 -24 -11t-13 -22q-10 -25 -28 -92l-88 -344q-24 -91 -78.5 -136t-127.5 -45
q-66 0 -66 45q0 23 17 40t41 17q18 0 29.5 -10.5t11.5 -25.5q0 -21 -13 -37q43 5 80.5 38.5t55.5 106.5l7 29l-218 378l-56 -226q-13 -52 -16 -72q-4 -25 0.5 -36t23.5 -16l56 -12v-27h-219z" />
    <glyph glyph-name="eogonek.sc" unicode="&#xf67c;" horiz-adv-x="560" 
d="M-4 0v27l45 11q20 5 27 11.5t11 21.5l87 339q7 27 3 35.5t-20 11.5l-46 12v27h351q53 0 77 8l-25 -160h-26q0 65 -20 98q-27 20 -107 20h-11q-35 0 -68 -7l-45 -178h95q39 18 62 70h23l-48 -188h-23q0 61 -23 79h-96l-50 -195q27 -9 80 -9h18q72 0 113 23q41 32 76 103
h26l-56 -160h-430zM244 -176q0 50 50.5 89.5t95.5 54.5h25q-108 -66 -108 -143q0 -53 59 -53q24 0 64 24l-12 -36q-19 -12 -68 -12q-106 0 -106 76z" />
    <glyph glyph-name="gbreve.sc" unicode="&#xf67d;" horiz-adv-x="612" 
d="M31 201q0 129 97 218t251 89q82 0 144 -24l23 20h22l-40 -174h-26q0 82 -17 109q-35 35 -117 35q-73 0 -127.5 -42.5t-79 -103t-24.5 -127.5q0 -90 39.5 -134.5t105.5 -44.5q62 0 103 30l29 114q5 15 0.5 23t-22.5 13l-45 12v26h214v-24l-20 -7q-15 -5 -22 -13t-12 -26
l-32 -122l1 -18q-86 -42 -208 -42q-119 0 -178 60t-59 153zM372 564q-58 0 -78 39.5t-6 92.5h26q-2 -33 15.5 -53.5t53.5 -20.5t64 20.5t43 53.5h27q-14 -57 -49 -94.5t-96 -37.5z" />
    <glyph glyph-name="gcircumflex.sc" unicode="&#xf67e;" horiz-adv-x="612" 
d="M31 201q0 129 97 218t251 89q82 0 144 -24l23 20h22l-40 -174h-26q0 82 -17 109q-35 35 -117 35q-73 0 -127.5 -42.5t-79 -103t-24.5 -127.5q0 -90 39.5 -134.5t105.5 -44.5q62 0 103 30l29 114q5 15 0.5 23t-22.5 13l-45 12v26h214v-24l-20 -7q-15 -5 -22 -13t-12 -26
l-32 -122l1 -18q-86 -42 -208 -42q-119 0 -178 60t-59 153zM228 564l168 176h32l80 -176h-34l-78 96h-4l-130 -96h-34z" />
    <glyph glyph-name="gcommaaccent.sc" unicode="&#xf67f;" horiz-adv-x="612" 
d="M31 201q0 129 97 218t251 89q82 0 144 -24l23 20h22l-40 -174h-26q0 82 -17 109q-35 35 -117 35q-73 0 -127.5 -42.5t-79 -103t-24.5 -127.5q0 -90 39.5 -134.5t105.5 -44.5q62 0 103 30l29 114q5 15 0.5 23t-22.5 13l-45 12v26h214v-24l-20 -7q-15 -5 -22 -13t-12 -26
l-32 -122l1 -18q-86 -42 -208 -42q-119 0 -178 60t-59 153zM194 -108q0 25 16 40.5t44 15.5q24 0 38.5 -13t14.5 -36q0 -30 -30 -72t-66 -67h-51q49 37 76 88q-42 5 -42 44z" />
    <glyph glyph-name="gdotaccent.sc" unicode="&#xf680;" horiz-adv-x="612" 
d="M31 201q0 129 97 218t251 89q82 0 144 -24l23 20h22l-40 -174h-26q0 82 -17 109q-35 35 -117 35q-73 0 -127.5 -42.5t-79 -103t-24.5 -127.5q0 -90 39.5 -134.5t105.5 -44.5q62 0 103 30l29 114q5 15 0.5 23t-22.5 13l-45 12v26h214v-24l-20 -7q-15 -5 -22 -13t-12 -26
l-32 -122l1 -18q-86 -42 -208 -42q-119 0 -178 60t-59 153zM377 567q-22 0 -33.5 13.5t-11.5 35.5q0 35 22 57.5t53 22.5q22 0 33.5 -13.5t11.5 -35.5q0 -35 -22 -57.5t-53 -22.5z" />
    <glyph glyph-name="hbar.sc" unicode="&#xf681;" horiz-adv-x="702" 
d="M64 353l8 35h88l6 22q7 27 3 35.5t-20 11.5l-46 12v27h247v-27l-45 -11q-20 -5 -27 -11.5t-11 -21.5l-10 -37h261l6 22q7 27 3.5 35.5t-19.5 11.5l-46 12v27h247v-27l-46 -11q-20 -5 -26.5 -11.5t-10.5 -21.5l-10 -37h87l-8 -35h-88l-68 -267q-7 -27 -3.5 -35.5
t19.5 -11.5l47 -12v-27h-248v27l46 11q20 5 26.5 11.5t10.5 21.5l42 163h-261l-38 -148q-7 -27 -3 -35.5t20 -11.5l45 -12v-27h-246v27l45 11q20 5 27 11.5t11 21.5l72 282h-87zM248 353l-19 -75h261l19 75h-261z" />
    <glyph glyph-name="hcircumflex.sc" unicode="&#xf682;" horiz-adv-x="702" 
d="M-4 0v27l45 11q20 5 27 11.5t11 21.5l87 339q7 27 3 35.5t-20 11.5l-46 12v27h247v-27l-45 -11q-20 -5 -27 -11.5t-11 -21.5l-38 -147h261l34 132q7 27 3.5 35.5t-19.5 11.5l-46 12v27h247v-27l-46 -11q-20 -5 -26.5 -11.5t-10.5 -21.5l-87 -339q-7 -27 -3.5 -35.5
t19.5 -11.5l47 -12v-27h-248v27l46 11q20 5 26.5 11.5t10.5 21.5l42 163h-261l-38 -148q-7 -27 -3 -35.5t20 -11.5l45 -12v-27h-246zM279 564l168 176h33l80 -176h-34l-78 96h-4l-130 -96h-35z" />
    <glyph glyph-name="ibreve.sc" unicode="&#xf683;" horiz-adv-x="343" 
d="M-4 0v27l45 11q20 5 27 11.5t11 21.5l87 339q7 27 3 35.5t-20 11.5l-46 12v27h247v-27l-45 -11q-20 -5 -27 -11.5t-11 -21.5l-87 -339q-7 -27 -3 -35.5t20 -11.5l46 -12v-27h-247zM244 564q-59 0 -79 39.5t-6 92.5h27q-2 -33 15.5 -53.5t53.5 -20.5t64 20.5t43 53.5h26
q-12 -56 -48 -94t-96 -38z" />
    <glyph glyph-name="ij.sc" unicode="&#xf684;" horiz-adv-x="670" 
d="M208 -134q0 21 14.5 35t37.5 14q30 0 39.5 -26.5t-9.5 -51.5q35 0 63 34t43 97l109 442q6 27 1.5 35t-22.5 12l-51 12v27h256v-27l-45 -11q-20 -5 -26.5 -11.5t-10.5 -21.5l-113 -455q-42 -162 -202 -162q-37 0 -60.5 14.5t-23.5 43.5zM-4 0v27l45 11q20 5 27 11.5
t11 21.5l87 339q7 27 3 35.5t-20 11.5l-46 12v27h247v-27l-45 -11q-20 -5 -27 -11.5t-11 -21.5l-87 -339q-7 -27 -3 -35.5t20 -11.5l46 -12v-27h-247z" />
    <glyph glyph-name="imacron.sc" unicode="&#xf685;" horiz-adv-x="343" 
d="M-4 0v27l45 11q20 5 27 11.5t11 21.5l87 339q7 27 3 35.5t-20 11.5l-46 12v27h247v-27l-45 -11q-20 -5 -27 -11.5t-11 -21.5l-87 -339q-7 -27 -3 -35.5t20 -11.5l46 -12v-27h-247zM119 578l13 49h248l-12 -49h-249z" />
    <glyph glyph-name="iogonek.sc" unicode="&#xf686;" horiz-adv-x="343" 
d="M-4 0v27l45 11q20 5 27 11.5t11 21.5l87 339q7 27 3 35.5t-20 11.5l-46 12v27h247v-27l-45 -11q-20 -5 -27 -11.5t-11 -21.5l-87 -339q-7 -27 -3 -35.5t20 -11.5l46 -12v-27h-247zM67 -176q0 50 50.5 89.5t95.5 54.5h25q-108 -66 -108 -143q0 -53 59 -53q24 0 64 24
l-12 -36q-19 -12 -68 -12q-106 0 -106 76z" />
    <glyph glyph-name="itilde.sc" unicode="&#xf687;" horiz-adv-x="343" 
d="M-4 0v27l45 11q20 5 27 11.5t11 21.5l87 339q7 27 3 35.5t-20 11.5l-46 12v27h247v-27l-45 -11q-20 -5 -27 -11.5t-11 -21.5l-87 -339q-7 -27 -3 -35.5t20 -11.5l46 -12v-27h-247zM132 562h-25q6 23 12.5 39t18 34.5t30.5 28t44 9.5q30 0 61.5 -26t51.5 -26
q18 0 33.5 15.5t20.5 36.5h25q-30 -111 -106 -111q-30 0 -61.5 26t-50.5 26t-33.5 -15t-20.5 -37z" />
    </font>
</defs>
</svg>
