<?xml version="1.0" encoding="UTF-8" standalone="no"?>
<svg width="55px" height="39px" viewBox="0 0 55 39" version="1.1" xmlns="http://www.w3.org/2000/svg" xmlns:xlink="http://www.w3.org/1999/xlink" xmlns:sketch="http://www.bohemiancoding.com/sketch/ns">
    <!-- Generator: Sketch 3.3.3 (12081) - http://www.bohemiancoding.com/sketch -->
    <title>logo copy</title>
    <desc>Created with Sketch.</desc>
    <defs></defs>
    <g id="Home" stroke="none" stroke-width="1" fill="none" fill-rule="evenodd" sketch:type="MSPage">
        <g sketch:type="MSArtboardGroup" transform="translate(-1266.000000, -7241.000000)" id="Footer" fill="#FFFFFF">
            <g sketch:type="MSLayerGroup" transform="translate(0.000000, 6998.000000)">
                <g id="logo-copy" transform="translate(1265.000000, 242.000000)" sketch:type="MSShapeGroup">
                    <path d="M55.359882,23.1890959 C55.359882,20.557971 53.923058,20.0222567 50.6519174,18.3650794 C49.0172075,17.536922 46.5883727,16.3671498 47.4306785,14.6616632 C47.9761554,13.6385438 48.9174041,13.2486197 50.1073009,13.2486197 C51.4451819,13.2486197 53.1297935,14.1259489 53.923058,14.515873 L53.923058,11.7872671 C51.5441249,11.2515528 46.0927974,10.4717046 44.6559735,14.2726018 C43.8128073,16.5621118 44.6060718,18.6092133 47.2327925,20.0222567 C48.7685595,20.8504141 52.237586,21.8735335 52.4363324,23.5298482 C52.6342183,24.8454106 51.8418142,25.5769496 50.899705,25.9177019 C50.5529744,26.0151829 50.1563422,26.1126639 49.7597099,26.1618357 C48.6205752,26.2584541 47.7283677,26.1126639 46.9850049,25.9177019 C45.6961652,25.4794686 44.9528024,24.7479296 44.1104966,24.4554865 C44.1104966,24.5046584 44.2593412,25.1870255 44.4572271,25.9177019 C44.6559735,26.7458592 44.8538594,27.6714976 44.8538594,27.6714976 C47.2327925,28.3055556 50.5529744,29.0845411 53.4765241,26.8925121 C53.8731563,26.600069 54.1708456,26.2584541 54.4676745,25.9177019 C55.0630531,25.0403727 55.359882,24.0172533 55.359882,23.1890959" id="Fill-1"></path>
                    <path d="M55.0131514,4.38129745 L55.0131514,0.970324362 C53.0308505,2.43167702 47.5795231,2.48084886 45.101647,2.04175293 C42.1281957,1.50603865 38.6591691,1.21359558 37.0735005,1.21359558 C33.1088987,1.21359558 30.5320796,2.52915804 28.2030482,4.1863354 L28.2030482,4.13716356 C25.8731563,2.48084886 23.2963373,1.21359558 19.2826942,1.21359558 C17.7460669,1.21359558 14.2770403,1.45772947 11.2545477,1.99344375 C8.82571288,2.48084886 3.37438545,2.38336784 1.34304326,0.970324362 L1.34304326,4.38129745 C3.47332842,5.25776398 8.4789823,5.50189786 10.8080138,5.16028295 C14.1780973,4.57539683 17.7460669,4.03968254 20.7195182,4.38129745 C24.2874877,4.72204969 26.4186332,6.67080745 28.2030482,8.42546584 C29.9375615,6.67080745 32.1177483,4.77035887 35.6366765,4.38129745 C38.6591691,4.03968254 42.2271386,4.62456867 45.5481809,5.16028295 C47.8772124,5.55020704 52.8820059,5.25776398 55.0131514,4.38129745" id="Fill-2"></path>
                    <path d="M43.3180924,28.2080745 C43.2182891,28.1105935 42.3260816,26.8925121 42.3260816,26.2584541 L42.3260816,13.6877157 C42.3260816,12.7620773 42.8715585,12.1280193 43.2182891,11.7872671 L38.7581121,11.7872671 C38.9568584,12.1280193 39.5513766,12.6645963 39.5513766,13.6877157 L39.5513766,26.2584541 C39.5513766,27.3790545 38.8579154,28.0131125 38.7581121,28.2080745 L43.3180924,28.2080745" id="Fill-3"></path>
                    <path d="M37.965708,27.6714976 L37.965708,19.7781228 L34.6455261,19.7781228 C35.0911996,20.2172188 35.2890855,20.557971 35.4878319,21.0936853 L35.4878319,26.0151829 C32.0678466,27.1357833 30.1853491,26.4534161 29.045354,26.0151829 C28.946411,25.9668737 28.8965093,25.9668737 28.7975664,25.9177019 C27.0131514,25.0403727 25.1796952,22.2142857 25.3775811,19.4856798 C25.6253687,16.7087647 27.5087266,14.22343 29.6398722,13.6877157 C33.3067847,12.7129055 35.5368732,14.22343 36.181293,14.6616632 C36.181293,14.6616632 36.1322517,11.9822291 36.181293,12.0305383 C36.1322517,11.9822291 33.0099558,10.8616287 28.946411,11.9330573 C27.3108407,12.3721532 24.9319076,13.5410628 23.6439282,16.2696687 C22.9496067,17.634403 22.7517207,19.2907177 22.7517207,20.1197378 C22.7517207,21.8735335 23.0984513,24.1147343 24.9319076,25.9177019 C25.4773845,26.4534161 26.1218043,26.9408213 26.9641101,27.3307453 C30.7299656,29.3286749 35.6366765,28.4513458 37.965708,27.6714976" id="Fill-4"></path>
                    <path d="M23.1973943,25.2845066 C23.1973943,25.2845066 22.6527778,25.6252588 22.0573992,25.9177019 C21.7605703,26.0634921 21.4138397,26.2101449 21.1660521,26.2584541 C20.1749017,26.3559351 18.6382743,26.2584541 15.6149213,26.2584541 L15.6149213,20.2172188 C17.0526057,20.2172188 18.3904867,20.1197378 19.5304818,20.9962043 L19.5304818,18.3650794 L15.6149213,18.3650794 L15.6149213,13.6877157 L19.5304818,13.6877157 C20.5216323,13.8826777 20.8184612,14.515873 21.0172075,14.515873 C21.0172075,12.7620773 21.0662488,12.4696342 21.0662488,11.7872671 L12.0469518,11.7872671 C12.1458948,12.0797101 12.8402163,12.4696342 12.8402163,13.6877157 L12.8402163,26.2584541 C12.8402163,26.2584541 12.8402163,27.0874741 11.9480088,28.2080745 L22.3051868,28.2080745 C22.4540315,27.1357833 22.7018191,26.4534161 22.9496067,25.9177019 C23.0485497,25.6744306 23.0984513,25.4794686 23.1973943,25.2845066" id="Fill-5"></path>
                    <path d="M54.9641101,36.0039683 L54.9641101,32.5929952 C52.9319076,34.0543478 47.5296214,34.1035197 45.0517453,33.6652864 C42.0292527,33.1295721 38.6101278,32.8371291 37.0235988,32.8371291 C33.0099558,32.8371291 30.482178,34.1526915 28.1531465,35.8090062 L28.1032448,35.760697 C25.7742134,34.1035197 23.247296,32.8371291 19.2327925,32.8371291 C17.6471239,32.8371291 14.2271386,33.0804003 11.204646,33.6161146 C8.72676991,34.1035197 3.32534415,34.0060386 1.29314159,32.5929952 L1.29314159,36.0039683 C3.42428712,36.8812974 8.42908063,37.1245687 10.7589725,36.7838164 C14.1281957,36.1989303 17.6471239,35.663216 20.6696165,36.0039683 C24.2384464,36.3447205 26.3687316,38.2943409 28.1531465,40.0481366 C29.9375615,38.2943409 32.0188053,36.3938923 35.5867748,36.0039683 C38.6101278,35.663216 42.1780973,36.2472395 45.4982793,36.7838164 C47.8273107,37.1737405 52.8329646,36.8812974 54.9641101,36.0039683" id="Fill-6"></path>
                    <path d="M12.0469518,25.7227398 C11.8981072,25.7719117 11.7991642,25.86853 11.6503196,25.9177019 C11.105703,26.1618357 10.7589725,26.2101449 10.1635939,26.2584541 C9.17244346,26.3559351 7.58677483,26.2584541 5.00995575,26.2584541 L5.05985742,25.9177019 C5.05985742,23.8714631 5.00995575,13.6877157 5.00995575,13.6877157 C5.00995575,13.6877157 5.00995575,12.4696342 5.95120452,11.7872671 L1.49188791,11.7872671 C2.23439036,12.8103865 2.23439036,13.6877157 2.23439036,13.6877157 L2.23439036,26.2584541 C2.23439036,26.2584541 2.13544739,27.4765355 1.34304326,28.2563837 L11.402532,28.2563837 C11.402532,27.1849551 11.7501229,26.600069 11.9979105,25.9177019 L12.0469518,25.7227398" id="Fill-7"></path>
                </g>
            </g>
        </g>
    </g>
</svg>