<?xml version="1.0" encoding="UTF-8" standalone="no"?>
<svg width="245px" height="193px" viewBox="0 0 245 193" version="1.1" xmlns="http://www.w3.org/2000/svg" xmlns:xlink="http://www.w3.org/1999/xlink" xmlns:sketch="http://www.bohemiancoding.com/sketch/ns">
    <!-- Generator: Sketch 3.3.3 (12081) - http://www.bohemiancoding.com/sketch -->
    <title>sprite-aj</title>
    <desc>Created with Sketch.</desc>
    <defs></defs>
    <g id="Page-1" stroke="none" stroke-width="1" fill="none" fill-rule="evenodd" sketch:type="MSPage">
        <g id="sprite-aj" sketch:type="MSArtboardGroup">
            <path d="M5.68421053,0 L6.31578947,0 L6.31578947,3.125 L5.68421053,3.125 L5.68421053,0 Z M0,15 L0,3.125 L5.68421053,3.125 L5.68421053,9.01875 L3.54315789,6.9 L3.09473684,7.34375 L6,10.21875 L8.90526316,7.34375 L8.45684211,6.9 L6.31578947,9.01875 L6.31578947,3.125 L12,3.125 L12,15 L0,15 L0,15 Z" id="icon-save" fill="#88B7FF" sketch:type="MSShapeGroup"></path>
            <path d="M17,15.6148148 L17,4.35555556 L22.2105263,4.35555556 L22.2105263,9.68888889 L22.7894737,9.68888889 L22.7894737,4.35555556 L22.2105263,4.35555556 L22.2105263,1.13777778 L20.2478947,3.14666667 L19.8368421,2.72592593 L22.5,0 L25.1631579,2.72592593 L24.7521053,3.14666667 L22.7894737,1.13777778 L22.7894737,4.35555556 L28,4.35555556 L28,15.6148148 L17,15.6148148 Z" id="icon-share" fill="#88B7FF" sketch:type="MSShapeGroup"></path>
            <path d="M34.1052632,2.21052632 C33.4936842,2.21052632 33,1.71684211 33,1.10526316 C33,0.493684211 33.4936842,0 34.1052632,0 C34.7168421,0 35.2105263,0.493684211 35.2105263,1.10526316 C35.2105263,1.71684211 34.7168421,2.21052632 34.1052632,2.21052632 L34.1052632,2.21052632 Z M34.1052632,8.10526316 C33.4936842,8.10526316 33,7.61157895 33,7 C33,6.38842105 33.4936842,5.89473684 34.1052632,5.89473684 C34.7168421,5.89473684 35.2105263,6.38842105 35.2105263,7 C35.2105263,7.61157895 34.7168421,8.10526316 34.1052632,8.10526316 L34.1052632,8.10526316 Z M34.1052632,14 C33.4936842,14 33,13.5063158 33,12.8947368 C33,12.2831579 33.4936842,11.7894737 34.1052632,11.7894737 C34.7168421,11.7894737 35.2105263,12.2831579 35.2105263,12.8947368 C35.2105263,13.5063158 34.7168421,14 34.1052632,14 L34.1052632,14 Z M37.4210526,0.736842105 L48.4210526,0.736842105 L48.4210526,1.47368421 L37.4210526,1.47368421 L37.4210526,0.736842105 Z M37.4210526,6.63157895 L48.4210526,6.63157895 L48.4210526,7.36842105 L37.4210526,7.36842105 L37.4210526,6.63157895 Z M37.4210526,12.5263158 L48.4210526,12.5263158 L48.4210526,13.2631579 L37.4210526,13.2631579 L37.4210526,12.5263158 Z" id="icon-sort" fill="#88B7FF" sketch:type="MSShapeGroup"></path>
            <g id="icon-delete" sketch:type="MSLayerGroup" transform="translate(54.000000, 0.000000)" fill="#88B7FF">
                <path d="M9.13043478,12.173913 L9.73913043,12.173913 L9.73913043,3.04347826 L9.13043478,3.04347826 L9.13043478,12.173913 Z M6.69565217,12.173913 L7.30434783,12.173913 L7.30434783,3.04347826 L6.69565217,3.04347826 L6.69565217,12.173913 Z M4.26086957,12.173913 L4.86956522,12.173913 L4.86956522,3.04347826 L4.26086957,3.04347826 L4.26086957,12.173913 Z M1.82608696,1.2173913 L12.173913,1.2173913 L12.173913,14 L1.82608696,14 L1.82608696,1.2173913 Z" id="Fill-1" sketch:type="MSShapeGroup"></path>
                <path d="M9.13043478,0.608695652 L4.26086957,0.608695652 C3.92608696,0.608695652 4.26086957,0.882608696 4.26086957,1.2173913 L9.73913043,1.2173913 C9.73913043,0.882608696 9.46521739,0.608695652 9.13043478,0.608695652 L9.13043478,0.608695652 Z M14,1.82608696 L0,1.82608696 L0,1.2173913 L3.65217391,1.2173913 L3.65217391,0.913043478 C3.65217391,0.407826087 4.06,0 4.56521739,0 L9.43478261,0 C9.94,0 10.3478261,0.407826087 10.3478261,0.913043478 L10.3478261,1.2173913 L14,1.2173913 L14,1.82608696 L14,1.82608696 Z" id="Fill-2" sketch:type="MSShapeGroup"></path>
            </g>
            <g id="arrow-up" sketch:type="MSLayerGroup" transform="translate(89.000000, 2.000000)" fill="#7ED321">
                <polygon id="up" sketch:type="MSShapeGroup" points="6.5 0 13 10 0 10 "></polygon>
            </g>
            <g id="arrow-down" sketch:type="MSLayerGroup" transform="translate(107.000000, 2.000000)" fill="#FF324B">
                <polygon id="down" sketch:type="MSShapeGroup" transform="translate(6.500000, 5.000000) scale(1, -1) translate(-6.500000, -5.000000) " points="6.5 0 13 10 0 10 "></polygon>
            </g>
            <g id="arrow-stay" sketch:type="MSLayerGroup" transform="translate(73.000000, 0.000000)" fill="#F6A623">
                <path d="M0.5,13.5 L0.5,0.5 L10.5,7 L0.5,13.5 Z" id="same" sketch:type="MSShapeGroup"></path>
            </g>
            <path d="M131.276702,2.20677277 C131.000298,1.93107574 130.552821,1.93107574 130.277124,2.20677277 C130.00072,2.48953896 130.00072,2.9348957 130.277124,3.21059274 L133.190323,6.12308446 L125.706915,6.12308446 C125.315991,6.12308446 125,6.44119642 125,6.82999992 C125,7.21880343 125.315991,7.53691539 125.706915,7.53691539 L133.190323,7.53691539 L130.277124,10.4494071 C130.00072,10.7251041 130.00072,11.17753 130.277124,11.4532271 C130.552821,11.7289241 131.000298,11.7289241 131.276702,11.4532271 L135.275016,7.45208553 C135.444676,7.28242582 135.497695,7.04914372 135.458814,6.82999992 C135.497695,6.61085613 135.444676,6.37757403 135.275016,6.20791431 L131.276702,2.20677277 Z" id="see-more-arrow" fill="#2F6DCC" sketch:type="MSShapeGroup"></path>
        </g>
    </g>
</svg>