<?xml version="1.0" encoding="UTF-8" standalone="no"?>
<svg width="278px" height="193px" viewBox="0 0 278 193" version="1.1" xmlns="http://www.w3.org/2000/svg" xmlns:xlink="http://www.w3.org/1999/xlink" xmlns:sketch="http://www.bohemiancoding.com/sketch/ns">
    <!-- Generator: Sketch 3.3.3 (12081) - http://www.bohemiancoding.com/sketch -->
    <title>sprite-aj</title>
    <desc>Created with Sketch.</desc>
    <defs></defs>
    <g id="Page-1" stroke="none" stroke-width="1" fill="none" fill-rule="evenodd" sketch:type="MSPage">
        <g id="sprite-aj" sketch:type="MSArtboardGroup">
            <g id="arrow-up" sketch:type="MSLayerGroup" transform="translate(16.000000, 53.000000)" fill="#7ED321">
                <polygon id="up" sketch:type="MSShapeGroup" points="6.5 0 13 10 0 10 "></polygon>
            </g>
            <g id="arrow-down" sketch:type="MSLayerGroup" transform="translate(34.000000, 53.000000)" fill="#FF324B">
                <polygon id="down" sketch:type="MSShapeGroup" transform="translate(6.500000, 5.000000) scale(1, -1) translate(-6.500000, -5.000000) " points="6.5 0 13 10 0 10 "></polygon>
            </g>
            <g id="arrow-stay" sketch:type="MSLayerGroup" transform="translate(0.000000, 51.000000)" fill="#F6A623">
                <path d="M0.5,13.5 L0.5,0.5 L10.5,7 L0.5,13.5 Z" id="same" sketch:type="MSShapeGroup"></path>
            </g>
            <path d="M58.2767024,53.2067728 C58.0002985,52.9310757 57.552821,52.9310757 57.277124,53.2067728 C57.00072,53.489539 57.00072,53.9348957 57.277124,54.2105927 L60.1903226,57.1230845 L52.7069155,57.1230845 C52.3159912,57.1230845 52,57.4411964 52,57.8299999 C52,58.2188034 52.3159912,58.5369154 52.7069155,58.5369154 L60.1903226,58.5369154 L57.277124,61.4494071 C57.00072,61.7251041 57.00072,62.17753 57.277124,62.4532271 C57.552821,62.7289241 58.0002985,62.7289241 58.2767024,62.4532271 L62.2750163,58.4520855 C62.444676,58.2824258 62.4976947,58.0491437 62.4588143,57.8299999 C62.4976947,57.6108561 62.444676,57.377574 62.2750163,57.2079143 L58.2767024,53.2067728 Z" id="see-more-arrow" fill="#2F6DCC" sketch:type="MSShapeGroup"></path>
            <path d="M8.52631579,0 L9.47368421,0 L9.47368421,4.6875 L8.52631579,4.6875 L8.52631579,0 Z M0,22.5 L0,4.6875 L8.52631579,4.6875 L8.52631579,13.528125 L5.31473684,10.35 L4.64210526,11.015625 L9,15.328125 L13.3578947,11.015625 L12.6852632,10.35 L9.47368421,13.528125 L9.47368421,4.6875 L18,4.6875 L18,22.5 L0,22.5 L0,22.5 Z" id="icon-save" fill="#88B7FF" sketch:type="MSShapeGroup"></path>
            <path d="M28,23.4222222 L28,6.53333333 L35.8157895,6.53333333 L35.8157895,14.5333333 L36.6842105,14.5333333 L36.6842105,6.53333333 L35.8157895,6.53333333 L35.8157895,1.70666667 L32.8718421,4.72 L32.2552632,4.08888889 L36.25,0 L40.2447368,4.08888889 L39.6281579,4.72 L36.6842105,1.70666667 L36.6842105,6.53333333 L44.5,6.53333333 L44.5,23.4222222 L28,23.4222222 Z" id="icon-share" fill="#88B7FF" sketch:type="MSShapeGroup"></path>
            <path d="M134.5,21 C132.34,21 130.3,20.64 128.48,20.02 L125.21,22.71 C125.02,22.9 124.76,23 124.5,23 C124.37,23 124.24,22.98 124.12,22.92 C123.74,22.77 123.5,22.4 123.5,22 L123.5,17.17 C121.63,15.47 120.5,13.33 120.5,11 C120.5,5.48 126.77,1 134.5,1 C142.23,1 148.5,5.48 148.5,11 C148.5,16.52 142.23,21 134.5,21" id="icon-comment" fill="#88B7FF" sketch:type="MSShapeGroup"></path>
            <g id="icon-print" sketch:type="MSLayerGroup" transform="translate(54.500000, 0.000000)" fill="#88B7FF">
                <path d="M19.7142857,0.857142857 L4.28571429,0.857142857 L4.28571429,6.85714286 L3.42857143,6.85714286 L3.42857143,0 L20.5714286,0 L20.5714286,6.85714286 L19.7142857,6.85714286 L19.7142857,0.857142857 L19.7142857,0.857142857 Z M18,9.42857143 L18.8571429,9.42857143 L18.8571429,10.2857143 L18,10.2857143 L18,9.42857143 Z M20.5714286,9.42857143 L21.4285714,9.42857143 L21.4285714,10.2857143 L20.5714286,10.2857143 L20.5714286,9.42857143 Z M23.1428571,7.71428571 L0.857142857,7.71428571 L0.857142857,18.8571429 L2.57142857,18.8571429 L2.57142857,19.7142857 L21.4285714,19.7142857 L21.4285714,18.8571429 L23.1428571,18.8571429 L23.1428571,7.71428571 L23.1428571,7.71428571 Z M0,6.85714286 L24,6.85714286 L24,19.7142857 L0,19.7142857 L0,6.85714286 Z" sketch:type="MSShapeGroup"></path>
                <path d="M6,19.7142857 L18,19.7142857 L18,18.8571429 L6,18.8571429 L6,19.7142857 Z M6,18 L18,18 L18,17.1428571 L6,17.1428571 L6,18 Z M3.42857143,14.5714286 L20.5714286,14.5714286 L20.5714286,24 L3.42857143,24 L3.42857143,14.5714286 Z" id="Fill-2" sketch:type="MSShapeGroup"></path>
            </g>
            <g id="icon-size" sketch:type="MSLayerGroup" transform="translate(158.500000, 3.000000)" fill="#88B7FF">
                <path d="M0.408,17 L4.32,17 L5.352,13.856 L11.736,13.856 L12.792,17 L16.68,17 L10.608,0.2 L6.48,0.2 L0.408,17 Z M8.496,4.232 L8.544,4.232 L10.8,11.048 L6.264,11.048 L8.496,4.232 Z" id="A" sketch:type="MSShapeGroup"></path>
                <path d="M16.238,17 L18.52,17 L19.122,15.166 L22.846,15.166 L23.462,17 L25.73,17 L22.188,7.2 L19.78,7.2 L16.238,17 Z M20.956,9.552 L20.984,9.552 L22.3,13.528 L19.654,13.528 L20.956,9.552 Z" id="A-Copy" sketch:type="MSShapeGroup"></path>
            </g>
            <g id="icon-reader" sketch:type="MSLayerGroup" transform="translate(88.500000, 0.000000)" fill="#88B7FF">
                <path d="M5.14285714,12 L2.57142857,12 C1.62857143,12 0.857142857,12.7714286 0.857142857,13.7142857 L0.857142857,16.2857143 C0.857142857,17.2285714 1.62857143,18 2.57142857,18 L5.14285714,18 L5.14285714,12 L5.14285714,12 Z M0,16.2857143 L0,13.7142857 C0,12.2914286 1.14857143,11.1428571 2.57142857,11.1428571 L6,11.1428571 L6,18.8571429 L2.57142857,18.8571429 C1.14857143,18.8571429 0,17.7085714 0,16.2857143 L0,16.2857143 Z M9.42857143,0 L10.2857143,0 L10.2857143,4.28571429 L9.42857143,4.28571429 L9.42857143,0 Z M12.8571429,0 L13.7142857,0 L13.7142857,4.28571429 L12.8571429,4.28571429 L12.8571429,0 Z M16.2857143,0 L17.1428571,0 L17.1428571,4.28571429 L16.2857143,4.28571429 L16.2857143,0 Z" id="Fill-1" sketch:type="MSShapeGroup"></path>
                <path d="M6,6 L20.5714286,6 C21.0428571,6 21.4285714,6.38571429 21.4285714,6.85714286 L21.4285714,21.4285714 C21.4285714,22.8514286 20.28,24 18.8571429,24 L7.71428571,24 C6.29142857,24 5.14285714,22.8514286 5.14285714,21.4285714 L5.14285714,6.85714286 C5.14285714,6.38571429 5.52857143,6 6,6" id="Fill-2" sketch:type="MSShapeGroup"></path>
            </g>
            <path d="M5.68421053,27 L6.31578947,27 L6.31578947,30.125 L5.68421053,30.125 L5.68421053,27 Z M0,42 L0,30.125 L5.68421053,30.125 L5.68421053,36.01875 L3.54315789,33.9 L3.09473684,34.34375 L6,37.21875 L8.90526316,34.34375 L8.45684211,33.9 L6.31578947,36.01875 L6.31578947,30.125 L12,30.125 L12,42 L0,42 L0,42 Z" id="icon-save-xs" fill="#88B7FF" sketch:type="MSShapeGroup"></path>
            <path d="M17,41.6148148 L17,30.3555556 L22.2105263,30.3555556 L22.2105263,35.6888889 L22.7894737,35.6888889 L22.7894737,30.3555556 L22.2105263,30.3555556 L22.2105263,27.1377778 L20.2478947,29.1466667 L19.8368421,28.7259259 L22.5,26 L25.1631579,28.7259259 L24.7521053,29.1466667 L22.7894737,27.1377778 L22.7894737,30.3555556 L28,30.3555556 L28,41.6148148 L17,41.6148148 Z" id="icon-share-xs" fill="#88B7FF" sketch:type="MSShapeGroup"></path>
            <g id="icon-delete" sketch:type="MSLayerGroup" transform="translate(33.000000, 28.000000)" fill="#88B7FF">
                <path d="M9.13043478,12.173913 L9.73913043,12.173913 L9.73913043,3.04347826 L9.13043478,3.04347826 L9.13043478,12.173913 Z M6.69565217,12.173913 L7.30434783,12.173913 L7.30434783,3.04347826 L6.69565217,3.04347826 L6.69565217,12.173913 Z M4.26086957,12.173913 L4.86956522,12.173913 L4.86956522,3.04347826 L4.26086957,3.04347826 L4.26086957,12.173913 Z M1.82608696,1.2173913 L12.173913,1.2173913 L12.173913,14 L1.82608696,14 L1.82608696,1.2173913 Z" id="Fill-1" sketch:type="MSShapeGroup"></path>
                <path d="M9.13043478,0.608695652 L4.26086957,0.608695652 C3.92608696,0.608695652 4.26086957,0.882608696 4.26086957,1.2173913 L9.73913043,1.2173913 C9.73913043,0.882608696 9.46521739,0.608695652 9.13043478,0.608695652 L9.13043478,0.608695652 Z M14,1.82608696 L0,1.82608696 L0,1.2173913 L3.65217391,1.2173913 L3.65217391,0.913043478 C3.65217391,0.407826087 4.06,0 4.56521739,0 L9.43478261,0 C9.94,0 10.3478261,0.407826087 10.3478261,0.913043478 L10.3478261,1.2173913 L14,1.2173913 L14,1.82608696 L14,1.82608696 Z" id="Fill-2" sketch:type="MSShapeGroup"></path>
            </g>
            <path d="M53.9052632,30.2105263 C53.2936842,30.2105263 52.8,29.7168421 52.8,29.1052632 C52.8,28.4936842 53.2936842,28 53.9052632,28 C54.5168421,28 55.0105263,28.4936842 55.0105263,29.1052632 C55.0105263,29.7168421 54.5168421,30.2105263 53.9052632,30.2105263 L53.9052632,30.2105263 Z M53.9052632,36.1052632 C53.2936842,36.1052632 52.8,35.6115789 52.8,35 C52.8,34.3884211 53.2936842,33.8947368 53.9052632,33.8947368 C54.5168421,33.8947368 55.0105263,34.3884211 55.0105263,35 C55.0105263,35.6115789 54.5168421,36.1052632 53.9052632,36.1052632 L53.9052632,36.1052632 Z M53.9052632,42 C53.2936842,42 52.8,41.5063158 52.8,40.8947368 C52.8,40.2831579 53.2936842,39.7894737 53.9052632,39.7894737 C54.5168421,39.7894737 55.0105263,40.2831579 55.0105263,40.8947368 C55.0105263,41.5063158 54.5168421,42 53.9052632,42 L53.9052632,42 Z M57.2210526,28.7368421 L68.2210526,28.7368421 L68.2210526,29.4736842 L57.2210526,29.4736842 L57.2210526,28.7368421 Z M57.2210526,34.6315789 L68.2210526,34.6315789 L68.2210526,35.3684211 L57.2210526,35.3684211 L57.2210526,34.6315789 Z M57.2210526,40.5263158 L68.2210526,40.5263158 L68.2210526,41.2631579 L57.2210526,41.2631579 L57.2210526,40.5263158 Z" id="icon-sort" fill="#88B7FF" sketch:type="MSShapeGroup"></path>
            <g id="icon-viewed" sketch:type="MSLayerGroup" transform="translate(74.000000, 30.000000)">
                <path d="M8.33333333,9.44444444 C5.03333333,9.44444444 3.03888889,7.39444444 0.766666667,5 C3.47222222,2.17777778 5.62222222,0.555555556 8.33333333,0.555555556 C11.5444444,0.555555556 14.05,2.87222222 15.9166667,5.03333333 C14.0833333,6.94444444 11.6,9.44444444 8.33333333,9.44444444 L8.33333333,9.44444444 Z M8.33333333,0 C5.28888889,0 2.91111111,1.90555556 0,5 C2.51111111,7.63888889 4.61666667,10 8.33333333,10 C12.05,10 14.7833333,7.01666667 16.6666667,5.05555556 C14.7388889,2.75555556 12.0055556,0 8.33333333,0 L8.33333333,0 Z" id="Fill-1" fill="#728DB5" sketch:type="MSShapeGroup"></path>
                <path d="M8.33333333,7.77777778 C6.8,7.77777778 5.55555556,6.53333333 5.55555556,5 C5.55555556,3.46666667 6.8,2.22222222 8.33333333,2.22222222 C9.86666667,2.22222222 11.1111111,3.46666667 11.1111111,5 C11.1111111,6.53333333 9.86666667,7.77777778 8.33333333,7.77777778" id="Fill-2" fill="#88B7FF" sketch:type="MSShapeGroup"></path>
            </g>
            <polygon id="open-comments" fill="#4990E2" sketch:type="MSShapeGroup" transform="translate(77.500000, 57.500000) scale(1, -1) translate(-77.500000, -57.500000) " points="77.5 49 88 66 67 66 "></polygon>
        </g>
    </g>
</svg>